
            <svg data-v-934a25f6="" version="1.1" id="Layer_1" xmlns="http://www.w3.org/2000/svg"
                xmlns:xlink="http://www.w3.org/1999/xlink" x="0px" y="0px" viewBox="0 0 29.54 29.54"
                xml:space="preserve">
                <g data-v-934a25f6="">
                    <path data-v-934a25f6="" fill="#003B4A"
                        d="M20.87,9.51h-9.47l3.9,3.9C17.79,13.21,19.89,11.67,20.87,9.51z"></path>
                    <path data-v-934a25f6="" fill="#003B4A"
                        d="M14.25,19.84v0.3c-0.3,0.2-1.24,0.85-2.17,1.9h5.38c-0.94-1.05-1.88-1.7-2.17-1.9v-0.3v-2.65l-1.04-1.04V19.84z">
                    </path>
                    <path data-v-934a25f6="" fill="#003B4A" d="M14.77,3.97c-5.96,0-10.81,4.85-10.81,10.81s4.85,10.8,10.81,10.8s10.81-4.85,10.81-10.8S20.73,3.97,14.77,3.97z
		M20.73,22.22c-1.69,1.35-3.8,2.1-5.96,2.1c-5.26,0-9.54-4.28-9.54-9.54c0-2.15,0.75-4.27,2.1-5.96l0.23-0.28l1.28,1.28l2.88,2.88
		l2.54,2.54l1.04,1.04l5.72,5.72L20.73,22.22z M22.22,20.73l-0.23,0.28l-6.7-6.7l-4.8-4.8L8.53,7.55l0.28-0.23
		c1.69-1.35,3.8-2.1,5.96-2.1c5.26,0,9.54,4.28,9.54,9.54C24.32,16.92,23.57,19.04,22.22,20.73z"></path>
                </g>
            </svg>
