<?xml version="1.0" encoding="UTF-8"?>
<!-- Generator: Adobe Illustrator 26.5.0, SVG Export Plug-In . SVG Version: 6.00 Build 0)  -->
<svg version="1.1" id="Layer_1" xmlns="http://www.w3.org/2000/svg" xmlns:xlink="http://www.w3.org/1999/xlink" x="0px" y="0px" viewBox="0 0 223.9 176.08" style="enable-background:new 0 0 223.9 176.08;" xml:space="preserve">
<style type="text/css">
	.st0{fill:#BDCCE9;}
</style>
<g>
	<g>
		<g>
			<g>
				<g>
					<path class="st0" d="M62.34,122.24c-0.07,0.23-0.17,0.52-0.26,0.79c0.44,1.23,1.39,1.95,2.37,2.64       c0.34,0.24,0.67,0.49,1.03,0.76c-0.12,0.22-0.19,0.34-0.26,0.47c-0.09,0.16-0.17,0.32-0.23,0.43c0.08,0.15,0.1,0.24,0.15,0.29       c0.22,0.21,0.45,0.41,0.68,0.62c0.03,0.08,0.06,0.15,0.08,0.22c0.39,1.58,1,2.06,2.67,2.12c0.49,0.02,0.98,0.1,1.55,0.16       c-0.3,0.54-0.53,0.96-0.81,1.47c0.36,0.23,0.64,0.41,0.93,0.58c0.27,0.16,0.57,0.26,0.81,0.45c0.46,0.35,0.84,0.82,1.34,1.09       c0.48,0.27,1.07,0.35,1.61,0.51c-0.24,1.06-0.24,1.06,0.07,1.63c0.76-0.7,1.64-1.14,2.64-1.35c0.22-0.05,0.43-0.16,0.64-0.26       c0.95-0.44,1.89-0.89,2.98-0.87c0.22,0,0.47-0.07,0.65-0.19c0.73-0.48,1.52-0.73,2.46-0.73c-0.05-0.34-0.09-0.62-0.13-0.87       c-1-0.13-1.91-0.26-2.83-0.38c-0.23-0.03-0.46-0.01-0.7,0.01c-1.19,0.06-2.38,0.16-3.57-0.15c-0.53-0.14-1.15-0.02-1.72,0.03       c-0.77,0.08-1.5-0.01-2.17-0.32c-0.03-0.53,0.34-0.56,0.62-0.65c0.44-0.14,0.92-0.19,1.34-0.37c0.81-0.35,1.66-0.34,2.51-0.3       c1.11,0.04,2.22,0.1,3.33,0.15c-0.41-0.74-0.92-1.2-1.56-1.5c-0.42-0.19-0.77-0.5-1.16-0.75c-1.17-0.75-2.34-1.5-3.52-2.24       c-0.85-0.54-1.69-1.08-2.54-1.62c-0.42-0.27-0.85-0.53-1.28-0.77c-0.95-0.52-1.99-0.82-2.87-1.49c-0.4-0.31-1-0.38-1.52-0.52       c-0.67-0.18-1.35-0.3-2.02-0.49c-0.32-0.09-0.42-0.32-0.09-0.74c1.2,0.31,2.53-0.03,3.79,0.46c0.54,0.21,1.04,0.49,1.57,0.72       c1.35,0.57,2.81,0.92,3.91,1.98c0.11,0.1,0.27,0.16,0.41,0.22c1.95,0.95,3.84,2.01,5.51,3.41c0.17,0.14,0.44,0.18,0.81,0.32       c-0.15-0.7-0.57-1.01-0.88-1.38c-0.61-0.75-1.23-1.48-1.81-2.26c-0.46-0.61-0.87-1.27-1.28-1.92       c-0.35-0.55-0.68-1.11-0.98-1.69c-0.07-0.14,0.07-0.38,0.15-0.76c1.12,1.09,2.11,2.05,3.1,3.01c0.05,0.05,0.1,0.12,0.13,0.19       c0.37,0.84,1.03,1.43,1.67,2.06c0.44,0.43,0.88,0.89,1.21,1.4c0.62,0.95,1.41,1.74,2.24,2.49c0.86,0.77,1.83,1.46,2.54,2.36       c0.76,0.97,1.8,1.43,2.8,2c0.37,0.21,0.8,0.32,1.16-0.2c-0.45-0.71-0.87-1.45-1.38-2.13c-0.79-1.06-1.58-2.09-1.93-3.39       c-0.14-0.51-0.41-1.02-0.73-1.44c-0.45-0.59-0.55-1.27-0.67-1.95c-0.03-0.14,0.12-0.31,0.25-0.63       c0.31,0.38,0.53,0.63,0.74,0.89c0.27,0.33,0.55,0.65,0.79,0.99c0.42,0.6,0.83,1.21,1.22,1.83c0.25,0.39,0.43,0.81,0.68,1.2       c0.55,0.84,1.19,1.63,1.67,2.51c0.36,0.66,0.77,1.25,1.32,1.75c0.29,0.26,0.56,0.53,0.82,0.82c0.92,1.03,2.46,0.99,3.28-0.11       c0.3-0.4,0.58-0.81,0.83-1.15c-0.02-0.95-0.21-1.71-0.97-2.22c-0.12-0.08-0.24-0.21-0.29-0.35c-0.28-0.66-0.74-1.07-1.44-1.08       c-0.31-0.38-0.54-0.76-0.87-1.03c-0.65-0.53-1.03-1.24-1.41-1.95c-0.16-0.3-0.34-0.65-0.61-0.82       c-0.25-0.16-0.63-0.11-0.95-0.15c-0.3-0.36-0.59-0.72-0.93-1.13c-0.44-0.08-0.93-0.17-1.42-0.27       c-0.71-0.87-1.42-1.72-2.16-2.61c-0.34,0.12-0.66,0.23-0.94,0.33c-0.53-0.35-0.69-1.05-1.35-1.1c-0.28,0.12-0.55,0.24-0.8,0.35       c-0.68-0.77-1.22-1.59-2.07-2c-0.92,0.06-1,0.8-1.25,1.44c-0.27-0.2-0.49-0.35-0.7-0.51c-0.78-0.57-1.57-1.06-2.45-0.29       c-0.18-0.07-0.32-0.08-0.4-0.15c-0.7-0.66-1.57-0.95-2.49-1.14c-0.26-0.06-0.52-0.17-0.77-0.27c-0.89-0.38-1.77-0.77-2.66-1.15       c-0.48-0.21-0.91-0.14-1.28,0.23c-0.16,0.16-0.31,0.32-0.46,0.47c-0.64-0.17-1.22-0.48-1.84-0.21       c-0.23,0.37-0.45,0.73-0.67,1.07c-0.8,0.11-1.56,0.21-2.29,0.3c-0.24,0.46-0.44,0.83-0.62,1.18c-2.09,0.53-1.76,0.4-2.29,1.11       C60.53,120.84,61.91,121.09,62.34,122.24z"/>
				</g>
			</g>
		</g>
	</g>
	<g>
		<g>
			<g>
				<g>
					<path class="st0" d="M92.76,165.68c0.85-0.12,1.01-0.92,1.45-1.51c0.91-0.06,1.22-0.69,1.26-1.47       c0.03-0.58,1.28-0.65,1.06-1.66c-0.27-1.22-2.21-1.06-3.09-1.6c-0.18-0.11-0.45-0.09-0.68-0.13c-0.37-0.06-0.73-0.12-1.1-0.19       c-0.59-0.12-1.18-0.24-1.72-0.35c-0.62,0.54-0.59,1.13-0.41,1.73c0.22,0.71,0.47,1.41,0.69,2.12c0.08,0.26,0.18,0.54-0.23,0.66       c-0.08-0.05-0.18-0.09-0.24-0.16c-0.76-0.97-1.37-2.02-1.65-3.22c-0.19-0.8-0.5-1.53-0.97-2.18c-1.3-0.12-2.06,0.59-2.19,1.81       c-0.14,1.3-0.46,2.59-0.31,3.91c0.01,0.13-0.07,0.26-0.08,0.4c-0.06,0.73-0.24,1.47-0.01,2.2c0.03,0.11-0.03,0.25-0.05,0.38       c-0.63-0.18-0.8-0.4-0.86-1.06c-0.1-1.24,0.06-2.49-0.2-3.73c-0.05-0.22-0.02-0.48,0.04-0.7c0.17-0.66,0.21-1.33,0.16-2.01       c-0.02-0.27,0.03-0.54,0.06-0.81c0.1-1.04,0.22-2.08,0.31-3.13c0.03-0.33-0.04-0.66-0.06-0.99c-0.7,0.06-1.01,0.23-1.48,0.79       c-1.06,1.26-2.12,2.53-3.19,3.79c-0.12,0.14-0.3,0.24-0.52,0.41c-0.09-0.24-0.22-0.41-0.18-0.51c0.25-0.59,0.51-1.17,0.82-1.73       c0.26-0.47,0.6-0.9,0.89-1.36c0.57-0.92,1.1-1.87,2.07-2.45c0.23-0.14,0.43-0.34,0.61-0.53c0.74-0.76,1.1-1.7,1.21-2.73       c0.06-0.64-0.39-0.93-0.99-0.66c-0.3,0.13-0.59,0.33-0.83,0.56c-1.15,1.11-2.41,2.07-3.86,2.74c-0.31,0.14-0.64,0.4-1.03,0.11       c0.02-0.12,0-0.25,0.05-0.31c0.41-0.4,0.79-0.86,1.27-1.15c0.89-0.53,1.32-1.42,2-2.13c-0.35-0.22-0.58-0.06-0.81,0.09       c-0.32,0.22-0.69,0.37-1.06,0.24c-0.76-0.25-1.46,0.02-2.16,0.11c-0.17,0.3-0.32,0.56-0.46,0.82c-0.08,0.15-0.18,0.3-0.19,0.46       c0,0.82-0.21,1.57-0.6,2.29c-0.07,0.13-0.06,0.32-0.08,0.48c-0.02,0.2,0.01,0.43-0.08,0.59c-0.36,0.66-0.18,1.3-0.01,1.93       c0.24,0.13,0.44,0.23,0.67,0.35c-0.1,0.36-0.19,0.68-0.28,0.99c0.5,0.57,0.84,1.18,0.9,1.92c0.01,0.16,0.1,0.32,0.16,0.47       c0.18,0.47,0.41,0.93,0.52,1.41c0.12,0.5,0.39,0.85,0.79,1.13c0.19,0.13,0.4,0.23,0.51,0.3c0.24,0.97,0.46,1.83,0.68,2.74       c0.34,0.16,0.71,0.32,1.14,0.52c-0.14,0.47-0.23,1.01,0.27,1.26c0.49,0.25,0.74,0.67,1.08,1.08c0.41,0.05,0.82,0.1,1.09,0.55       c0.19,0.31,0.58,0.45,0.99,0.38c0.13-0.02,0.26,0.01,0.36,0.02c0.26,0.23,0.48,0.43,0.69,0.62c0.34,0,0.64,0.01,0.89,0.01       c0.23,0.23,0.41,0.42,0.55,0.57c0.83,0,0.93-0.8,1.43-1.12c0.19,0.09,0.36,0.17,0.43,0.2c0.43-0.15,0.77-0.3,1.12-0.37       c0.36-0.07,0.62-0.26,0.82-0.55c0.19-0.28,0.37-0.56,0.61-0.93C91.99,167.6,92.33,166.6,92.76,165.68z"/>
				</g>
			</g>
		</g>
	</g>
	<g>
		<g>
			<g>
				<g>
					<path class="st0" d="M102.93,152.89c-0.25-0.75-1.12-0.54-1.51-1.1c-0.02-0.25-0.05-0.56-0.08-0.81       c-0.3-0.32-0.55-0.6-0.78-0.84c0.03-0.2,0.04-0.31,0.07-0.43c0.25-1.16-0.03-1.74-1.09-2.22c-0.28-0.13-0.59-0.19-0.88-0.29       c-0.06-0.02-0.11-0.09-0.27-0.23c0.08-0.21,0.18-0.5,0.24-0.69c-0.48-0.44-0.83-0.74-1.13-1.02c-0.15-1.1-0.13-1.12-0.95-1.8       c-0.48-0.4-0.9-0.83-1.18-1.41c-0.14-0.29-0.47-0.49-0.74-0.7c-0.21-0.16-0.45-0.26-0.75-0.44c0.48-0.84,0.28-1.84,0.87-2.66       c1.07,0.1,1.63-0.44,1.99-1.4c0.18-0.46,0.68-0.82,1.09-1.16c0.12-0.1,0.47-0.05,0.62,0.06c0.28,0.19,0.19,0.49,0.02,0.72       c-0.23,0.3-0.5,0.57-0.72,0.81c0.13,0.89,0.68,1.25,1.42,1.4c0.27,0.06,0.53,0.12,0.8,0.17c0.88,0.17,1.75,0.33,2.63,0.49       c0.28,0.05,0.55,0.12,0.45,0.62c-0.27,0.07-0.59,0.2-0.92,0.24c-1.27,0.14-2.54,0.24-3.81,0.37c-0.24,0.02-0.48,0.1-0.87,0.19       c0.79,0.77,1.17,1.69,1.93,2.18c0.96-0.27,1.65-0.89,2.58-0.88c0.19,0,0.41-0.19,0.58-0.33c0.61-0.49,1.23-0.77,2-0.19       c0.11-0.34,0.18-0.58,0.24-0.76c0.36-0.12,0.76-0.13,0.91-0.33c0.28-0.39,0.42-0.88,0.64-1.36c0.33-0.02,0.68-0.02,1.02-0.06       c0.89-0.11,1.13-0.38,1.29-1.49c-0.51-0.2-1.07-0.21-1.58-0.13c-1.37,0.23-2.39-0.33-3.17-1.09c-0.69-0.25-1.22-0.43-1.77-0.63       c-0.24,0.07-0.53,0.15-0.74,0.21c-0.6-0.41-1.1-0.78-1.62-1.1c-0.22-0.14-0.49-0.26-0.74-0.3c-0.56-0.07-1.13-0.08-1.83-0.12       c-0.23,0.23-0.59,0.53-0.88,0.88c-0.31,0.37-0.62,0.63-1.12,0.73c-0.67,0.14-1.41,0.29-1.95,0.68       c-1.08,0.78-2.06,1.72-2.51,3.16c-0.78,0.18-0.85,0.92-1.02,1.56c-0.17,0.14-0.32,0.27-0.47,0.39       c-0.67,0.49-0.87,1.16-0.71,1.95c0.07,0.34,0.17,0.68,0.32,0.99c0.73,1.58,1.52,3.09,3.03,4.16c2.13,1.5,4.29,2.9,6.77,3.73       c0.35,0.12,0.7,0.27,1.02,0.39c0,0.46-0.2,0.61-0.51,0.55c-1.06-0.19-2.17-0.28-3.18-0.64c-2.22-0.81-4.33-1.88-6.1-3.49       c-0.37-0.33-0.72-0.72-0.95-1.15c-0.47-0.89-0.84-1.82-1.26-2.73c-0.08-0.18-0.22-0.34-0.37-0.57c-0.2,1.05-0.4,1.98-0.53,2.92       c-0.04,0.28,0.03,0.64,0.2,0.86c0.27,0.38,0.36,0.76,0.33,1.2c-0.08,1,0.08,1.93,0.85,2.64c-0.3,0.95-0.55,1.86,0.32,2.7       c0.97-0.29,1.48,0.73,2.31,0.98c0.29-0.16,0.55-0.3,0.83-0.46c0.68,0.43,1.12,1.12,2.08,1.16c0.82,0.04,1.62,0.45,2.4,0.06       c0.36,0.24,0.65,0.42,0.89,0.58c1.02-0.11,1.35-0.74,1.38-1.52c0.45-0.31,0.91-0.5,1.18-0.85c0.49-0.62,1.08-0.96,1.83-1.13       C102.05,153.93,102.6,153.54,102.93,152.89z"/>
				</g>
			</g>
		</g>
	</g>
	<g>
		<g>
			<g>
				<g>
					<path class="st0" d="M64.03,133.65c0.71-0.79,1.39-1.5,1.3-1.6c-0.94-1.1-1.36-1.21-2.56-0.69c-0.18,0.08-0.35,0.17-0.52,0.25       c-0.6,0.26-1.2,0.52-1.8,0.78c-0.25,0.11-0.55,0.16-0.74,0.33c-0.69,0.6-1.56,0.65-2.38,0.83c-0.14,0.03-0.31-0.07-0.57-0.14       c0.64-0.91,1.72-0.89,2.39-1.55c0.68-0.67,1.49-1.22,2.24-1.82c-0.02-0.06-0.02-0.16-0.07-0.2c-0.98-0.77-2.04-1.07-3.24-0.54       c-0.53,0.23-1.05,0.51-1.59,0.71c-1.01,0.37-2.04,0.71-3.07,1.06c-0.42,0.14-0.86,0.38-1.28,0.05c-0.07-0.48,0.1-0.8,0.49-1.01       c0.54-0.29,1.08-0.58,1.64-0.85c0.66-0.32,1.34-0.61,2-0.92c0.09-0.04,0.15-0.15,0.26-0.26c-0.35-0.35-0.8-0.37-1.19-0.44       c-1.49-0.24-2.88-0.94-4.43-0.85c-0.11,0.01-0.22-0.07-0.33-0.1c-1.11-0.35-2.21-0.73-3.32-1.04       c-0.93-0.26-1.62-0.82-2.24-1.54c1.07-0.52,1.51-0.56,2.29-0.07c0.57,0.36,1.18,0.55,1.83,0.69c1.36,0.28,2.79,0.05,4.13,0.54       c0.03,0.01,0.08,0.01,0.12,0c0.6-0.12,1.14,0.11,1.7,0.29c0.6,0.19,1.21,0.36,1.9,0.57c-1.16-2.63-1.23-2.7-3.03-4.48       c-0.59-0.58-1.19-1.18-1.4-2.11c0.62-0.23,1.06-0.13,1.48,0.35c1.32,1.51,2.68,2.99,4.01,4.49c0.46,0.51,0.84,1.1,1.33,1.57       c0.5,0.48,1.07,0.89,1.64,1.29c0.38,0.27,0.82,0.3,1.45,0.15c-1.07-0.74-1.65-1.62-1.86-2.63c-0.45-0.38-0.81-0.75-1.22-1.03       c-0.7-0.48-1-1.15-1.14-1.94c-0.06-0.34-0.11-0.69-0.26-1c-0.29-0.64-0.61-1.25-0.51-1.99c0.02-0.17-0.08-0.37-0.18-0.53       c-0.41-0.7-0.84-1.39-1.3-2.14c-0.74,0.41-1.45,0.16-2.15-0.01c-0.48-0.12-0.83,0.02-1.11,0.4c-0.11,0.14-0.2,0.3-0.29,0.43       c-1.16-0.53-2.25-1.09-3.31-0.24c-0.13,0.3-0.21,0.5-0.3,0.71c-1.04-0.02-2.1-0.14-2.54,1.11c0.2,0.51,0.39,1.01,0.6,1.58       c-0.35,0.09-0.61,0.23-0.85,0.21c-0.73-0.07-1.38,0.17-2,0.49c-0.99,0.51-1.97,1.06-2.94,1.62c-0.11,0.07-0.16,0.25-0.25,0.38       c0.42,1.16,1.11,2.15,1.74,3.16c0.33,0.53,0.78,0.85,1.37,1c0.46,0.13,0.93,0.26,1.45,0.41c-0.33,0.54-1.03,0.82-0.72,1.54       c0.42,0.53,1.02,0.66,1.65,0.7c0.73,0.05,1.46,0.08,2.26,0.12c0.16,0.51,0.55,0.74,1.06,0.89c0.44,0.12,0.84,0.37,1.23,0.54       c-0.03,1.79,0.16,2.01,2.2,2.59c-0.04,0.28-0.08,0.56-0.12,0.87c0.73,0.55,1.54,0.53,2.37,0.54c0.42,0.57,0.93,0.91,1.68,0.84       c0.24-0.03,0.54,0.09,0.75,0.23c0.42,0.29,1.1,0.56,1.63,0.57c0.57,0.02,1.08-0.37,1.61-0.31c0.21,0.33,0.43,0.67,0.77,0.85       c0.34,0.19,0.83,0.15,1.04-0.18c0.31,0.31,0.83,0.26,1.21,0.05c0.65-0.36,1.01-0.72,1.7-0.96c0.57-0.19,4.16-0.7,3.02-1.75       c-0.47-0.43-0.93-0.86-1.4-1.29c-0.83,0.52-1.64,1-2.43,1.55c-0.13,0.09-2.47,1.37-2.43,0.99       C62.53,135.35,63.3,134.46,64.03,133.65z"/>
				</g>
			</g>
		</g>
	</g>
	<g>
		<g>
			<g>
				<g>
					<path class="st0" d="M136.99,120.9c-0.9,0.63-1.86,1.08-2.87,1.47c-0.36,0.14-0.73,0.27-1.08,0.43       c-0.72,0.34-1.47,0.44-2.26,0.34c-0.95-0.12-1.91-0.3-2.85,0.15c-0.26,0.13-0.61,0.11-0.92,0.13c-1.48,0.09-2.9,0.43-4.32,0.86       c-0.4,0.12-0.77,0.28-1.04,0.78c0.34,0.06,0.59,0.15,0.84,0.14c1.08,0,2.17-0.07,3.25-0.04c1.2,0.03,2.39,0.12,3.59-0.09       c0.59-0.1,1.24-0.14,1.73,0.41c-0.01,0.83-0.42,1.3-1.21,1.46c-0.57,0.11-1.14,0.22-1.71,0.34c-0.81,0.17-1.53,0.49-2.16,1.06       c-0.93,0.85-1.63,1.97-2.87,2.46c-0.09,0.04-0.13,0.2-0.22,0.26c-1.23,0.91-1.98,2.42-3.61,2.81       c-0.67,0.68-1.57,0.81-2.43,0.99c-1.8,0.37-3.44,1.14-5.06,1.97c-0.55,0.28-0.9,0.69-0.95,1.42c0.31-0.01,0.58,0.03,0.82-0.04       c1.14-0.32,2.27-0.68,3.42-0.99c0.55-0.15,1.14-0.16,1.7-0.3c0.71-0.18,1.4-0.45,2.11-0.61c0.35-0.08,0.74,0,1.02,0       c0.39,0.49,0.39,0.9,0.21,1.32c-0.21,0.5-0.47,0.98-0.63,1.49c-0.19,0.58-0.34,1.18-0.43,1.78c-0.06,0.42-0.09,0.81-0.25,1.22       c-0.15,0.39-0.07,0.9-0.01,1.35c0.05,0.38,0.28,0.69,0.71,0.84c0.21-0.48,0.35-0.93,0.59-1.32c0.48-0.79,0.97-1.56,1.14-2.51       c0.07-0.4,0.38-0.75,0.59-1.12c0.14-0.23,0.35-0.43,0.44-0.67c0.39-1.01,0.77-2.02,1.11-3.05c0.24-0.72,0.64-1.37,1.21-1.8       c1.04-0.79,2.18-1.44,3.29-2.15c0.29-0.19,0.63-0.33,0.86-0.57c0.62-0.63,1.41-1.09,1.85-1.91c0.09-0.16,0.24-0.31,0.4-0.41       c0.96-0.64,1.91-1.31,2.91-1.89c1.3-0.75,2.43-1.77,3.81-2.4c0.14-0.06,0.24-0.19,0.37-0.28c1.02-0.75,2.05-1.5,3.07-2.25       c0.06-0.05,0.14-0.07,0.2-0.11c1.4-0.82,2.8-1.64,4.2-2.47c0.26-0.16,0.49-0.37,0.73-0.56c0.45-0.35,0.92-0.69,1.36-1.07       c0.11-0.1,0.12-0.32,0.23-0.66c-0.37,0.16-0.56,0.2-0.71,0.31c-0.76,0.53-1.51,1.07-2.27,1.61c-0.54,0.39-1.1,0.66-1.79,0.37       c0.41-1.08,1.02-1.82,2.1-2.25c1.56-0.62,2.59-1.91,3.85-2.82c0.02-0.62-0.24-0.97-0.72-1.23c-0.72,0.15-1.36,0.51-1.87,1.04       c-0.46,0.48-0.9,0.95-1.5,1.26c-0.51,0.26-0.99,0.59-1.46,0.92c-0.31,0.22-0.58,0.5-0.87,0.75c-0.44,0.37-0.83,0.81-1.31,1.11       C139.89,119.12,138.38,119.92,136.99,120.9z"/>
				</g>
			</g>
		</g>
	</g>
	<g>
		<g>
			<g>
				<g>
					<path class="st0" d="M87.34,119.69c0.39,0.48,0.8,0.97,1.26,1.53c0.8,0.05,1.59,0.28,2.15,1.04c0.1,0.14,0.34,0.17,0.51,0.26       c0.79,0.39,1.39,0.93,1.72,1.8c0.37,0.96,1.05,1.74,1.93,2.24c0.7,0.4,1.23,0.9,1.7,1.54c0.36,0.5,0.78,0.96,1.19,1.43       c0.24,0.28,0.53,0.27,0.83,0.12c0.22-0.29,0.19-0.57,0-0.86c-0.48-0.73-0.69-1.66-1.51-2.16c-0.12-0.07-0.18-0.25-0.26-0.38       c-0.25-0.38-0.5-0.77-0.75-1.15c-0.54-0.8-1.08-1.6-1.61-2.4c-0.16-0.24-0.2-0.5,0.12-0.75c0.98,0.21,1.48,0.98,1.98,1.76       c0.14,0.22,0.22,0.51,0.4,0.69c1.18,1.08,2.21,2.26,2.96,3.68c0.2,0.37,0.52,0.67,0.82,0.98c0.57,0.57,0.9,0.59,1.78,0.12       c0.09-1.66-0.47-3.16-1.34-4.56c-0.18-0.3-0.38-0.58-0.54-0.89c-0.17-0.34-0.13-0.65,0.24-0.96c0.19,0.16,0.38,0.28,0.52,0.45       c0.33,0.38,0.67,0.76,0.94,1.17c0.63,0.95,1.53,1.77,1.61,3.02c0.02,0.26,0.22,0.5,0.28,0.76c0.12,0.59,0.55,0.9,1.01,1.2       c0.48,0.32,1.02,0.29,1.57,0.3c0.54,0,1.15-0.1,1.6,0.12c0.83,0.4,1.71,0.42,2.53,0.59c0.82-0.66,0.87-0.89,0.47-1.67       c-0.33-0.64-0.8-1.13-1.43-1.45c-0.1-0.28-0.19-0.54-0.28-0.79c-0.36-1.02-0.35-1.02-1.57-0.99c-0.17-0.34-0.36-0.71-0.55-1.09       c-0.27-0.54-0.61-1-1.27-1.05c-0.64-0.04-1.04-0.38-1.37-0.92c-0.37-0.62-0.98-1.06-1.7-1.09c-0.79-0.04-1.27-0.39-1.73-0.98       c-0.58-0.75-1.55-0.86-2.4-0.37c-0.16,0.09-0.32,0.2-0.57,0.35c-0.22-0.22-0.45-0.41-0.64-0.63c-0.53-0.64-1.09-0.77-1.82-0.4       c-0.2,0.1-0.4,0.21-0.59,0.32c-0.46-0.21-0.88-0.4-1.31-0.58c-0.51-0.21-0.98-0.16-1.37,0.27c-0.12,0.13-0.24,0.26-0.26,0.29       c-0.94-0.42-1.78-0.79-2.79-1.24C89.2,119.24,87.94,118.65,87.34,119.69z"/>
				</g>
			</g>
		</g>
	</g>
	<g>
		<g>
			<g>
				<g>
					<path class="st0" d="M107.76,117.05c-0.14,0.09-0.39,0.09-0.56,0.05c-1.13-0.31-2.11,0.33-3.17,0.48       c-0.25,0.03-0.46,0.35-0.72,0.57c0.42,0.56,0.88,0.94,1.44,1.22c0.27,0.14,0.52,0.31,0.78,0.48c0.38,0.25,0.76,0.51,1.15,0.76       c0.36,0.23,0.74,0.42,1.07,0.68c1.19,0.91,2.41,1.79,3.2,3.13c0.09,0.15,0.29,0.29,0.46,0.33c0.97,0.23,1.87,0.11,2.68-0.54       c-0.1-0.17-0.14-0.29-0.22-0.37c-0.81-0.75-1.41-1.69-2.39-2.33c-0.79-0.52-1.49-1.21-2.32-1.71       c-0.29-0.18-0.57-0.41-0.58-0.81c0.62-0.43,0.87-0.55,1.23-0.33c0.88,0.55,1.89,0.86,2.64,1.64c0.58,0.61,1.22,1.21,1.94,1.62       c0.73,0.41,1.37,0.84,1.86,1.52c0.23,0.32,0.54,0.59,0.97,0.55c0.84-0.07,1.67-0.16,2.47-0.58c-0.39-0.75-1.15-0.97-1.69-1.45       c-0.55-0.49-1.05-1.03-1.56-1.55c-0.48-0.49-1.31-0.68-1.44-1.62c0.27-0.03,0.51-0.14,0.68-0.07c0.43,0.17,0.85,0.38,1.23,0.64       c0.89,0.61,1.59,1.48,2.62,1.89c0.83,1.13,2.03,1.3,3.31,1.27c0.27-0.01,0.54,0.04,0.81,0.03c0.21-0.01,0.42-0.07,0.65-0.12       c-0.22-1.09-0.9-1.82-1.58-2.47c-0.85-0.82-1.55-1.95-2.98-1.94c-0.09,0-0.18-0.14-0.28-0.19c-0.33-0.19-0.66-0.36-0.99-0.55       c-0.16-0.09-0.35-0.17-0.47-0.31c-0.66-0.81-1.46-0.95-2.39-0.5c-0.68-0.5-1.41-0.26-2.06-0.12c-1.38-0.98-1.68-0.98-2.38-0.08       c-0.62,0.26-1.14,0.48-1.73,0.72C108.95,116.84,108.36,116.64,107.76,117.05z"/>
				</g>
			</g>
		</g>
	</g>
	<g>
		<g>
			<g>
				<g>
					<path class="st0" d="M80.52,145.28c0.4,0.05,0.73,0.15,1.05,0.12c0.53-0.06,1.06-0.23,1.59-0.33c0.55-0.1,1.05-0.28,1.43-0.7       c0.65-0.7,1.31-1.4,1.9-2.14c0.36-0.45,0.59-1,0.89-1.51c-0.62,0.11-1.09,0.34-1.39,0.83c-0.14,0.23-0.32,0.43-0.51,0.61       c-0.44,0.43-0.9,0.84-1.34,1.27c-0.32,0.31-0.59,0.68-1.15,0.8c-0.13-0.79,0.46-1.18,0.72-1.69c0.27-0.51,0.62-0.98,1.02-1.6       c-0.79,0.08-1.1,0.62-1.54,0.95c-0.46,0.35-0.98,0.63-1.4,1.03c-0.44,0.43-0.82,0.91-1.37,1.22c-0.47,0.27-0.69,0.9-1.56,1.03       c0.3-0.81,0.49-1.48,1.06-1.91c0.47-0.36,0.65-0.84,0.97-1.48c-1.31,0.42-2.47,0.78-3.63,1.16c-0.14,0.05-0.25,0.18-0.39,0.25       c-0.6,0.34-1.2,0.69-1.81,1c-0.14,0.07-0.34,0-0.7,0c0.25-0.39,0.38-0.65,0.57-0.86c0.18-0.19,0.48-0.29,0.64-0.49       c0.83-1.04,1.87-1.69,3.18-1.99c0.44-0.1,0.83-0.43,1.36-0.71c-1.65-0.17-3.1-0.47-4.5-1.05c-0.17,0.22-0.41,0.39-0.43,0.58       c-0.09,0.77-0.62,1.18-1.14,1.66c-0.5,0.46-0.87,1.07-1.28,1.62c-0.16,0.21-0.26,0.49-0.44,0.67c-0.4,0.38-0.41,0.8-0.28,1.35       c0.82,0.53,1.79,0.8,2.79,0.8c0.65,0,1.2,0.06,1.68,0.55c0.59-0.17,1.15-0.33,1.7-0.48C79.22,146.21,79.22,146.21,80.52,145.28       z"/>
				</g>
			</g>
		</g>
	</g>
	<g>
		<g>
			<g>
				<g>
					<path class="st0" d="M83.88,136.62c0.7,0.26,1.46,0.18,2.12,0.44c1.22,0.48,2.44,0.28,3.67,0.28c0.36,0,0.67-0.14,0.91-0.44       c0.33-0.42,0.68-0.83,1.05-1.28c-0.11-0.09-0.22-0.23-0.35-0.27c-1.04-0.31-2.08-0.61-3.12-0.88c-0.21-0.06-0.48-0.07-0.68,0       c-0.45,0.16-0.82,0.07-1.22-0.15c-0.45-0.24-0.92-0.42-1.48-0.07c-0.14,0.34-0.29,0.72-0.47,1.16       c-0.54-0.23-1.03-0.45-1.62-0.7c-0.5,0.36-1.03,0.73-1.62,1.16c-0.86-0.45-1.72-0.14-2.58,0.3c-0.12,0.22-0.25,0.46-0.4,0.72       c-1.1-0.18-1.2-0.18-1.81,0.07c-0.83,0.34-0.94,0.7-0.48,1.67c1.16,0.09,2.36,0.33,3.53,0.24c0.76-0.06,1.45,0.02,2.16,0.19       c1.32,0.31,2.61,0.25,3.86-0.3c0.14-0.06,0.23-0.24,0.51-0.54c-1.03,0.13-1.66-0.32-2.36-0.62c-0.72-0.31-1.55-0.43-2.05-1.32       c0.27-0.02,0.46-0.08,0.62-0.05C82.68,136.34,83.31,136.41,83.88,136.62z"/>
				</g>
			</g>
		</g>
	</g>
	<g>
		<g>
			<g>
				<g>
					<path class="st0" d="M105.1,150.99c0.01-0.62-0.01-1.23,0.35-1.78c0.09-0.13,0.1-0.43,0.01-0.55c-0.36-0.5-0.14-1.02-0.1-1.5       c-0.21-0.34-0.39-0.63-0.49-0.77c0.01-1.1,0.02-2.04,0.03-3.03c-0.49-0.06-0.97-0.13-1.48-0.2c-1.08,0.86-2.65,0.7-3.69,1.7       c0.34,0.71,0.74,1.33,1.42,1.76c0.84,0.54,1.2,1.37,1.28,2.34c0.02,0.19,0.01,0.4,0.09,0.56c0.46,0.97,1.14,1.76,1.94,2.43       C104.9,151.73,105.09,151.4,105.1,150.99z"/>
				</g>
			</g>
		</g>
	</g>
	<g>
		<g>
			<g>
				<g>
					<path class="st0" d="M119.03,125.27c-0.15-0.02-0.31-0.04-0.46-0.01c-1.44,0.26-2.88,0.5-3.11,2.38       c-0.05,0.44-0.34,0.77-0.87,0.72c-0.5-0.61-0.21-1.38-0.49-2.07c-0.3,0.03-0.59,0.06-0.97,0.09c0.02,0.36,0.01,0.67,0.06,0.96       c0.15,0.8,0.32,1.6,0.49,2.39c0.05,0.23,0.11,0.45,0.2,0.67c0.24,0.58,0.56,0.78,1.17,0.71c0.26-0.03,0.55-0.09,0.77-0.23       c0.34-0.23,0.68-0.27,1.08-0.28c0.57-0.01,1.22-0.02,1.68-0.29c0.89-0.53,1.69-1.22,2.48-1.91c0.3-0.26,0.57-0.48,0.95-0.61       c0.45-0.16,0.95-0.33,1.12-0.89c-0.81-0.1-1.56-0.19-2.39-0.3c-0.38,0.34-0.79,0.74-1.23,1.11c-0.5,0.42-1.02,0.82-1.54,1.22       c-0.24,0.19-0.47,0.41-0.73,0.56c-0.26,0.15-0.52,0.11-0.7-0.28c0.48-1.52,1.83-2.46,2.85-3.76       C119.17,125.33,119.1,125.28,119.03,125.27z"/>
				</g>
			</g>
		</g>
	</g>
	<g>
		<g>
			<g>
				<g>
					<path class="st0" d="M105.89,133.78c0.22-0.05,0.46-0.01,0.69-0.01c1.59-0.05,3.15,0.13,4.67,0.47       c0.53-0.23,1.07-0.4,1.62-0.53c0.78-0.17,1.57-0.32,2.54-0.82c-1.83-0.46-3.44-0.24-5.01-0.44c-1.6-0.21-3.22-0.38-4.83-0.44       c-1.57-0.07-3.16,0.02-4.73,0.04c-0.02,0.08-0.04,0.17-0.06,0.25C102.4,133.07,103.88,134.24,105.89,133.78z"/>
				</g>
			</g>
		</g>
	</g>
</g>
<g>
	<g>
		<g>
			<g>
				<g>
					<path class="st0" d="M140.6,55.39c-0.8,0.25-1.47,0.45-2.22,0.69c-0.31-0.09-0.61-0.37-1.13-0.34       c-1.43,0.09-2.15-0.62-2.45-2.18c0.18,0,0.36-0.03,0.53,0c0.61,0.13,1.21,0.29,1.83,0.4c0.65,0.12,1.31,0.21,1.97,0.27       c0.17,0.02,0.36-0.14,0.6-0.24c-0.95-0.7-3.58-1.66-5.52-2.05c0.15-0.08,0.26-0.15,0.37-0.18c1.17-0.28,2.34-0.57,3.52-0.82       c0.56-0.12,1.15-0.16,1.72-0.19c0.53-0.03,1.07,0.03,1.59-0.04c0.79-0.11,1.57-0.28,2.35-0.46c0.17-0.04,0.32-0.2,0.66-0.42       c-1.45-0.67-2.75,0.07-3.98-0.19c-1.31-0.27-2.57-0.02-3.84,0.26c-1.23,0.27-2.44,0.66-3.97,0.83c0.96-0.93,1.7-1.64,2.44-2.37       c0.77-0.76,1.6-1.48,2.26-2.63c-0.42,0.04-0.71-0.01-0.89,0.1c-0.74,0.47-1.62,0.87-2.14,1.53c-0.76,0.95-1.87,1.31-2.76,2.15       c-0.17-0.47-0.34-0.84-0.45-1.22c-0.31-1.09-0.78-2.06-1.56-2.92c-0.51-0.57-1.01-1.21-1.26-2.02       c1.04-0.52,1.64,0.14,2.31,0.72c0.73-0.6,1.51-0.4,2.25-0.16c0.41-0.17,0.77-0.46,1.12-0.44c0.4,0.02,0.78,0.33,1.2,0.52       c0.66-0.06,1.35-0.13,2.07-0.2c0.09,0.43,0.15,0.76,0.23,1.14c0.5-0.16,0.92-0.28,1.37-0.42c0.18,0.23,0.33,0.44,0.49,0.64       c0.31,0.02,0.61,0.04,0.91,0.06c0.17,0.3,0.32,0.56,0.43,0.76c0.76,0.34,1.52,0.07,2.22,0.61c0.56,0.43,1.45,0.41,1.6,1.15       c0.94,0.61,2.01,0.63,2.78,1.31c-0.43,0.9-1.32,0.99-1.97,1.44c0.03,0.29,0.05,0.54,0.08,0.81c-0.34,0.12-0.63,0.23-0.89,0.32       c-0.5,0.81-0.99,1.59-1.5,2.41C141.89,54.02,141.02,54.47,140.6,55.39z"/>
				</g>
			</g>
		</g>
	</g>
	<g>
		<g>
			<g>
				<g>
					<path class="st0" d="M146.08,31.11c-1.73,1.88-3.78,3.39-5.72,5.02c-1.46,1.23-3.02,2.35-4.55,3.5       c-0.18,0.14-0.43,0.2-0.77,0.35c0.02-0.68,0.36-1.03,0.62-1.43c0.88-1.36,2.19-2.33,3.24-3.53c0.73-0.84,1.51-1.63,2.46-2.23       c0.22-0.14,0.4-0.36,0.59-0.54c2.87-2.68,5.76-5.33,8.93-7.65c0.35-0.26,0.63-0.62,0.96-0.93c0.89-0.85,1.79-2.21,2.93-2.72       c1.01-0.45,2.05-0.6,3.06-1.21c0.76-0.46,1.19-1.09,1.95-1.55c0.29-0.17,0.76-0.3,0.89,0.01c0.08,0.19,0.78,0.16,0.65,0.32       c-0.95,1.18-2.47,1.94-3.62,2.93c-0.89,0.77-2.24,2.04-3.29,2.58c-0.29,0.15-0.6,0.29-0.84,0.51c-1.4,1.29-2.58,2.5-4.12,3.73       C148.31,29.18,147.07,30.03,146.08,31.11z"/>
				</g>
			</g>
		</g>
	</g>
	<g>
		<g>
			<g>
				<g>
					<path class="st0" d="M133.62,24.38c0.17,0.48,0.42,0.85,0.4,1.21c-0.05,1.29-0.18,2.57-0.29,3.86       c-0.01,0.13-0.08,0.26-0.14,0.37c-0.6,1.14-1.19,2.29-1.82,3.42c-0.26,0.46-0.63,0.85-0.98,1.31c-2.13-0.69-3.93-2.15-4.3-3.91       c0.37-0.72,0.7-1.38,1.16-2.27c0.05-0.04,0.32-0.26,0.6-0.48c0.04-0.44,0.08-0.83,0.12-1.31c0.92-0.42,0.69-1.37,0.82-2.19       c0.69-0.21,1.18-0.6,1.66-1.09c0.7-0.72,1.58-1.27,2.66-1.35C133.89,22.83,133.74,23.67,133.62,24.38z"/>
				</g>
			</g>
		</g>
	</g>
	<g>
		<g>
			<g>
				<g>
					<path class="st0" d="M128.35,35.83c0.81,0.54,1.48,1.27,2.24,1.85c0.89,0.69,1.27,1.51,1.62,2.45       c-0.97,0.55-1.08,0.53-1.65-0.05c-0.37-0.37-0.76-0.73-1.18-1.06c-1.12-0.87-2.27-1.69-3.37-2.58       c-0.33-0.27-0.56-0.69-0.8-1.07c-0.33-0.53-0.61-1.09-0.94-1.62c-0.1-0.16-0.27-0.27-0.47-0.47c-0.1,0.25-0.19,0.37-0.18,0.48       c0.13,1.88,0.87,3.43,2.43,4.56c0.5,0.36,0.97,0.77,1.45,1.17c0.09,0.07,0.12,0.21,0.18,0.33c-0.29,0.25-0.55,0.49-0.79,0.7       c-0.82-0.18-1.65-0.09-2.28-0.74c-0.74-0.77-1.54-1.48-2.26-2.18c-0.03-0.31,0.04-0.66-0.1-0.81c-0.76-0.86-0.49-1.61,0.2-2.41       c-0.33-0.57-0.66-1.15-1.02-1.76c0.2-0.28,0.41-0.56,0.48-0.66c0-0.99-0.14-1.82,0.04-2.57c0.28-1.18,0.48-2.34,0.5-3.55       c0-0.22,0.19-0.45,0.28-0.67c0.08,0.02,0.16,0.04,0.24,0.06c0.71,2.38,1.5,4.73,2.1,7.14c0.3,1.2,0.95,1.97,1.95,2.56       C127.49,35.2,127.91,35.53,128.35,35.83z"/>
				</g>
			</g>
		</g>
	</g>
	<g>
		<g>
			<g>
				<g>
					<path class="st0" d="M125.42,59.36c0.13-0.47,0.15-0.97,0.24-1.45c0.08-0.4,0.15-0.81,0.73-0.92c0.2,0.13,0.45,0.29,0.73,0.47       c-0.23,0.69-0.5,1.3-0.65,1.95c-0.17,0.73-0.54,1.28-1.05,1.81c-1.09,1.14-2.24,1.19-3.34,0.11c-0.38-0.38-0.75-0.77-1.17-1.09       c-0.16-0.12-0.45-0.06-0.83-0.11c0.36,0.99,0.65,1.8,1.37,2.39c0.45,0.36,0.88,0.77,0.79,1.64c-0.3-0.03-0.52,0-0.7-0.08       c-1.39-0.6-2.21-1.73-2.81-3.07c-0.5-1.09-0.67-2.2-0.42-3.39c0.23-1.09,0.84-1.97,1.45-2.84c0.84-1.19,2-1.87,3.54-1.78       c0.47,0.03,0.88,0.08,1.05,0.71c-0.49,0.17-0.99,0.33-1.54,0.52c-0.17,0.26-0.36,0.56-0.55,0.86c-0.18,0.3-0.59,0.5-0.56,1.11       c0.66-0.38,1.19-0.68,1.69-0.96c0.58,0.34,0.66,0.79,0.37,1.28c-0.2,0.34-0.51,0.61-0.73,0.95c-0.3,0.46-0.85,0.79-0.77,1.51       c1.2,0.15,1.49-1.36,2.63-1.4c-0.08,1.04-1.16,1.84-0.49,2.95C125.07,60.36,125.29,59.87,125.42,59.36z"/>
				</g>
			</g>
		</g>
	</g>
	<g>
		<g>
			<g>
				<g>
					<path class="st0" d="M135.22,70.8c-1.07,0.72-1.16,1.84-0.5,2.97c0.27,0.46,0.63,0.87,0.93,1.31c0.22,0.32,0.27,0.64-0.02,0.94       c-2.39-0.71-3.51-3.46-2.54-5.91c0.52-0.35,1-0.59,1.38-0.95c0.39-0.37,0.91-0.75,0.65-1.56c-0.82,0.25-1.53,0.61-2.25,0.65       c-0.73,0.04-1.48-0.24-2.22-0.38c-0.17-0.31-0.31-0.58-0.42-0.79c0.5-0.96,1.18-1.65,1.87-2.35c1.26-1.27,2.22-2.78,2.95-4.36       c0.55-0.17,0.96-0.12,1.3,0.29c0,0.12,0.04,0.27-0.01,0.38c-0.53,1.26-0.73,2.68-1.88,3.63c-0.3,0.25-0.59,0.56-0.3,1.08       c1.54-0.28,1.97-1.81,2.92-2.66c0.57,0.28,0.57,0.72,0.6,1.18c0.07,1.32-0.37,2.56-0.7,3.81       C136.71,69.15,136.25,70.1,135.22,70.8z"/>
				</g>
			</g>
		</g>
	</g>
	<g>
		<g>
			<g>
				<g>
					<path class="st0" d="M116.97,71.06c0.51,0.13,1.04,0.25,1.33,1c-1.34,0.38-2.54,0.34-3.41-0.69c-0.84-1-1.51-2.14-0.83-3.53       c0.62-1.27,1.26-2.54,1.91-3.8c0.18-0.35,0.43-0.67,0.62-1.02c0.22-0.41,0.54-0.55,1-0.46c0.38,0.42,0.39,0.87,0.19,1.36       c-0.26,0.66-0.51,1.33-0.73,2.01c-0.08,0.23-0.07,0.5-0.1,0.71c0.43,0.34,0.75,0.25,0.95-0.12c0.21-0.39,0.33-0.83,0.52-1.23       c0.48-0.97,0.92-1.12,2.05-0.75c0.22,0.37,0.48,0.74,0.65,1.15c0.15,0.35,0.25,0.75,0.28,1.13c0.13,1.7-1.84,3.59-3.65,3.09       c-0.58-0.16-1.2-0.24-1.86-0.08C115.95,70.56,116.35,70.9,116.97,71.06z"/>
				</g>
			</g>
		</g>
	</g>
	<g>
		<g>
			<g>
				<g>
					<path class="st0" d="M96.95,44.4c0.42-1.01,1.18-1.69,2.08-2.19c0.99-0.56,2.05-0.74,3.23-0.13c-0.25,0.81-0.48,1.51-0.67,2.12       c-0.2,0.11-0.28,0.19-0.36,0.19c-1.38,0.03-2.07,0.89-2.47,2.06c-0.31,0.88-0.57,1.78-0.82,2.68       c-0.13,0.46-0.16,0.97-0.64,1.26c-0.15-0.06-0.29-0.08-0.38-0.16c-0.79-0.66-1.59-0.69-2.46-0.11       c-0.32,0.21-0.72,0.32-1.08,0.47c-0.32-0.9-0.27-1.14,0.34-1.48c0.42-0.24,0.9-0.4,1.31-0.65c0.5-0.31,0.49-0.42,0.15-1.25       c-2.03-0.23-3.37,1.23-5.09,2.31c0.09-0.54,0.05-0.94,0.22-1.19c1.06-1.49,2.5-2.48,4.36-2.45       C95.86,45.88,96.54,45.38,96.95,44.4z"/>
				</g>
			</g>
		</g>
	</g>
	<g>
		<g>
			<g>
				<g>
					<path class="st0" d="M124.41,84.43c0.12,0.1,0.01,0.48,0.01,0.82c-1.11-0.13-1.22-0.13-1.47-0.71c-0.62-1.43-0.86-2.81,0.7-3.6       c0.27-0.14,0.52-0.35,0.73-0.58c0.93-1.01,2.02-1.93,1.99-3.5c1.74-0.45,3.05-1.35,3.68-3.02c-0.83-1.49-0.76-2.69,0.3-4.17       c0.79,0.76,1.49,1.5,1.49,2.68c0,1.13-0.28,2.2-0.67,3.26c-0.16,0.44-0.39,0.78-0.77,1.04c-0.58,0.39-1.12,0.83-1.62,1.2       c0.19,1.19,1.76,1.49,1.5,2.79c-1.05,0.03-1.64-0.18-2.79-0.95c-1.01,0.91-2.11,1.71-3.38,2.16       C123.93,82.82,123.52,83.68,124.41,84.43z"/>
				</g>
			</g>
		</g>
	</g>
	<g>
		<g>
			<g>
				<g>
					<path class="st0" d="M108.62,32.99c1.03-0.16,1.93-0.17,2.75-0.45c1.26-0.42,2.56-0.4,3.84-0.43c0.48-0.01,1.03,0.27,1.46,0.55       c0.94,0.61,1.6,1.51,2.24,2.4c-0.08,0.66-0.16,1.27-0.23,1.91c0.87,0.57,1.17,1.48,1.39,2.38c0.11,0.43-0.08,0.95-0.2,1.41       c-0.03,0.11-0.27,0.17-0.48,0.28c-0.42-0.38-0.83-0.72-1.21-1.09c-0.7-0.68-1.5-1.09-2.51-1.1c-0.48-0.01-0.97-0.15-1.44-0.26       c-0.47-0.11-0.64-0.44-0.55-1.05c0.26-0.1,0.57-0.26,0.9-0.32c0.66-0.12,1.32-0.23,1.99-0.26c0.67-0.03,1.07-0.34,1.31-0.89       c-0.07-0.89-0.85-0.96-1.36-1.35c-0.96-0.72-1.83-0.75-2.82-0.06c-0.61,0.43-1.31,0.45-2.01,0.03       c-0.8-0.48-1.66-0.87-2.49-1.31C109.02,33.3,108.87,33.17,108.62,32.99z"/>
				</g>
			</g>
		</g>
	</g>
	<g>
		<g>
			<g>
				<g>
					<path class="st0" d="M103.77,73.08c-0.04,0.22-0.04,0.49-0.14,0.71c-0.11,0.24-0.37,0.4-0.47,0.64       c-0.16,0.39-0.18,0.81,0.2,1.09c0.32,0.24,0.7,0.24,0.98-0.05c0.48-0.51,1.03-0.46,1.6-0.25c0.29,0.1,0.56,0.23,0.81,0.33       c0.31,1.49-0.51,3.47-1.92,4.28c-1.05,0.61-2.22,1.1-3.51,0.47c0.14-0.67,0.61-0.86,1.01-1.12c0.4-0.26,0.85-0.48,0.92-1.09       c-0.67-0.43-1.23-0.48-1.83,0.08c-0.35,0.33-0.79,0.59-1.23,0.79c-0.69,0.31-1.07,0.19-1.62-0.42       c0.35-0.51,0.91-0.65,1.44-0.87c0.91-0.38,1.55-0.99,1.51-2.15c-0.79-0.15-1.42-0.44-1.4-1.35       C101.02,72.71,102.15,72.35,103.77,73.08z"/>
				</g>
			</g>
		</g>
	</g>
	<g>
		<g>
			<g>
				<g>
					<path class="st0" d="M102.9,35.74c0.36-0.8,1.09-1.2,1.75-1.59c0.64-0.37,1.42-0.31,2.19,0.2c-0.26,0.29-0.46,0.51-0.66,0.73       c-0.76,0.88-1.49,1.79-1.81,2.94c-0.12,0.41-0.13,0.87-0.11,1.3c0.03,0.74,0.13,1.49,0.21,2.27c-1.07,0.14-1.49-0.5-1.86-1.16       c-0.9-1.63-2.36-2.03-3.87-1.05c-0.23,0.15-0.44,0.31-0.68,0.43c-0.5,0.25-0.82,0.61-1.03,1.16c-0.21,0.58-0.57,1.1-0.91,1.73       c-0.68-0.48-0.8-0.92-0.57-1.51c0.22-0.58,0.33-1.2,0.56-1.78c0.16-0.4,0.34-0.92,0.67-1.1c1.23-0.68,2.4-1.59,3.96-1.35       C101.75,37.11,102.49,36.64,102.9,35.74z"/>
				</g>
			</g>
		</g>
	</g>
	<g>
		<g>
			<g>
				<g>
					<path class="st0" d="M111.46,59.28c-0.08,0.71-0.25,1.37-0.91,1.8c-0.76-0.47-0.8-1.08-0.56-1.78       c0.28-0.85,0.77-1.71,0.74-2.55c-0.05-1.16,0.31-2.18,0.52-3.21c1.79-1.53,1.89-1.56,3.31-1.55c0.76,0.01,1.31,0.35,1.94,0.93       c-0.77,0.27-1.46,0.41-2.05,0.74c-0.61,0.34-1.2,0.79-1.37,1.55c0.78,0.71,1.28,0.77,1.96,0.2c0.27-0.23,0.52-0.49,0.76-0.75       c0.37-0.39,0.79-0.56,1.48-0.33c-0.06,1.46-0.82,2.64-1.26,3.9c-0.49,0.26-0.91,0.42-1.44,0.23c-0.82-0.3-1.68-0.52-2.48-0.77       C111.45,58.1,111.53,58.71,111.46,59.28z"/>
				</g>
			</g>
		</g>
	</g>
	<g>
		<g>
			<g>
				<g>
					<path class="st0" d="M100.18,68.43c-0.09-1.01,0.29-2.02,0.87-2.9c0.32-0.48,0.65-0.95,1.04-1.5c0.91-0.18,1.59-1.21,2.88-0.98       c-0.1,0.39-0.2,0.71-0.26,1.04c-0.06,0.34-0.09,0.68-0.13,0.98c0.42,0.27,0.74,0.47,0.99,0.63c0.27,0.89-1.28,1.24-0.55,2.12       c0.92,0.25,1.45-1.07,2.43-0.46c-0.02,0.9-0.57,1.22-1.16,1.46c-1.4,0.56-2.78,0.49-4.07-0.33c-0.46,0.37-0.46,0.75-0.12,1.07       c0.32,0.31,0.73,0.52,1.07,0.8c0.44,0.35,1.01,0.6,1.09,1.3c-0.13,0.07-0.23,0.16-0.35,0.18c-0.8,0.14-1.46-0.1-2.11-0.6       C100.85,70.52,100.28,69.54,100.18,68.43z"/>
				</g>
			</g>
		</g>
	</g>
	<g>
		<g>
			<g>
				<g>
					<path class="st0" d="M145.32,56.77c0.46,0.6,0.9,1.23,1.22,1.91c0.41,0.89,0.99,1.6,1.82,2.08c0.56,0.32,0.92,0.79,1.24,1.31       c-0.86-0.13-1.71-0.24-2.48-0.74c-0.32-0.21-0.75-0.28-1.15-0.31c-0.98-0.09-1.91-0.4-2.86-0.58       c-1.85-0.36-3.43-1.21-5.03-2.11c-0.15-0.09-0.32-0.15-0.57-0.26c-0.12,0.22-0.23,0.42-0.34,0.62       c-0.36-0.37-0.44-0.82-0.46-1.36c0.69,0.09,1.3,0.16,1.91,0.26c0.22,0.03,0.43,0.12,0.63,0.22c0.5,0.26,0.96,0.12,1.4-0.13       c0.73-0.42,1.44-0.85,2.15-1.29C143.71,55.82,144.68,55.94,145.32,56.77z"/>
				</g>
			</g>
		</g>
	</g>
	<g>
		<g>
			<g>
				<g>
					<path class="st0" d="M137.19,58.7c0.01,0.03,0.02,0.05,0.04,0.08c-0.02-0.02-0.04-0.03-0.06-0.05       C137.17,58.72,137.18,58.71,137.19,58.7C137.19,58.69,137.19,58.7,137.19,58.7L137.19,58.7z"/>
				</g>
			</g>
		</g>
	</g>
	<g>
		<g>
			<g>
				<g>
					<path class="st0" d="M149.6,62.07c0.02,0,0.04,0.01,0.07,0.01c0,0.02,0,0.03-0.01,0.05c-0.01-0.01-0.02-0.01-0.04-0.02       C149.62,62.1,149.61,62.08,149.6,62.07z"/>
				</g>
			</g>
		</g>
	</g>
	<g>
		<g>
			<g>
				<g>
					<path class="st0" d="M123.3,69.58c0.15,0.45,0.23,0.94,0.25,1.41c0,0.13-0.33,0.27-0.56,0.45c-0.22-0.49-0.33-0.88-0.55-1.2       c-0.5-0.75-0.51-1.58-0.21-2.32c0.61-1.51,1.5-2.9,2.37-4.28c0.07-0.11,0.2-0.17,0.29-0.27c0.69-0.74,1.38-1.49,2.08-2.24       c0.05-0.06,0.15-0.07,0.3-0.13c0.13,0.2,0.26,0.4,0.46,0.7c-0.37,0.46-0.73,0.91-1.09,1.35c-0.35,0.43-0.63,0.87-0.29,1.46       c1.3,0.46,1.55-1.17,2.68-1.13c0.05,0.57,0.16,1.09,0.15,1.62c-0.03,1.72-1.7,3.57-3.7,3.03c-0.34-0.09-0.7-0.17-1.05-0.16       C123.38,67.91,122.97,68.58,123.3,69.58z"/>
				</g>
			</g>
		</g>
	</g>
	<g>
		<g>
			<g>
				<g>
					<path class="st0" d="M132.44,60.15c-0.03,0.05-0.16,0.04-0.29,0.06c-0.5-0.8-1.08-1.55-2.06-1.89c-0.1,0.18-0.23,0.32-0.2,0.39       c0.27,0.74,0.56,1.48,0.88,2.2c0.25,0.57,0.57,1.1,0.81,1.67c0.19,0.44,0.1,0.87-0.34,1.26c-0.21-0.07-0.45-0.14-0.47-0.15       c-0.72-1.33-1.34-2.5-1.99-3.66c-0.37-0.66-0.9-1.31-0.74-2.09c0.18-0.87,0.47-1.73,0.85-2.53c0.35-0.75,1.01-1.35,1.86-1.32       c0.98,0.04,1.84,0.63,2.23,1.5C133.67,57.16,133.24,58.7,132.44,60.15z"/>
				</g>
			</g>
		</g>
	</g>
	<g>
		<g>
			<g>
				<g>
					<path class="st0" d="M92.19,73.7c-0.49,0.2-0.87,0.04-0.96-0.67c0.33-0.23,0.7-0.47,1.05-0.71c0.91-0.63,1.74-1.43,1.8-2.53       c0.06-1.16,0.71-1.91,1.35-2.68c0.67-0.81,1.79-0.73,2.76,0.14c-0.66,0.55-1.31,1.05-2.1,1.36c-0.52,0.2-0.84,0.5-0.71,1.17       c0.21,0.09,0.44,0.23,0.68,0.29c1.18,0.26,1.89-0.87,3-1.09c0.12,0.26,0.26,0.47,0.32,0.71c0.1,0.39,0.11,0.8,0.23,1.18       c0.4,1.3,0.32,1.58-0.83,2.29c-0.3,0.18-0.63,0.3-0.94,0.45c-0.82-0.43-1.81-0.44-2.27-1.37c-0.98-0.05-1.62,0.33-2.24,0.8       C92.97,73.27,92.59,73.53,92.19,73.7z"/>
				</g>
			</g>
		</g>
	</g>
	<g>
		<g>
			<g>
				<g>
					<path class="st0" d="M109.04,43.58c0.35,0.43,0.32,0.78-0.09,1.13c-1.14-0.26-1.76-1.03-2.23-1.99       c-0.45-0.92-1.03-1.8-0.6-2.96c1.45-0.67,1.62-1.01,1.27-2.62c-0.1-0.45,0.04-0.79,0.38-1.07c1.35-1.08,3.44-0.31,3.78,1.38       c0.36,1.82-0.82,3.58-2.68,4.01c-0.24,0.06-0.46,0.2-0.67,0.29C108.3,42.69,108.31,42.69,109.04,43.58z"/>
				</g>
			</g>
		</g>
	</g>
	<g>
		<g>
			<g>
				<g>
					<path class="st0" d="M110.78,49.68c0.3,1.08,0.01,2.03-0.23,3c-0.13,0.55-0.66,1.09-1.24,1.1c-0.77,0.01-1.56,0.2-2.34-0.22       c-0.86-0.46-1.07-0.34-1.74,0.56c-0.02,0.56,0.59,1.15,0,1.73c-0.58,0.15-0.99-0.13-1.21-0.6c-0.52-1.13-0.53-2.28-0.04-3.62       c1.14,0.42,2.03,0.06,2.93-0.4c1.49-0.77,1.94-1.99,1.27-3.55c-0.11-0.25-0.11-0.54-0.16-0.81c0.21-0.05,0.32-0.12,0.37-0.09       C109.54,47.46,110.39,48.3,110.78,49.68z"/>
				</g>
			</g>
		</g>
	</g>
	<g>
		<g>
			<g>
				<g>
					<path class="st0" d="M90.8,86.24c0.94-0.63,1.99-0.98,3.1-1.16c1.64-0.26,3.04-0.97,4.07-2.32c0.18-0.24,0.43-0.43,0.71-0.71       c0.68,0.59,0.88,1.22,0.81,1.91c-0.1,1.02-0.2,2.07-0.94,2.86c-0.73,0.77-1.69,1.13-2.72,1.31c-0.93,0.16-1.74-0.05-2.47-0.71       c-0.49-0.44-1.1-0.58-1.72-0.17c-0.41,0.27-0.82,0.3-1.22,0.01C90.43,86.51,90.42,86.49,90.8,86.24z"/>
				</g>
			</g>
		</g>
	</g>
	<g>
		<g>
			<g>
				<g>
					<path class="st0" d="M125.11,46.71c0.56,0.27,1.08,0.63,1.65,0.88c1,0.44,1.56,1.26,1.99,2.2c0.5,1.07,0.34,2.16,0.11,3.26       c-0.2,0.95-0.73,1.58-1.66,1.97c-0.18-0.23-0.39-0.41-0.5-0.64c-0.35-0.66-0.87-1.09-1.51-1.45c-1.57-0.86-1.67-1.75-0.38-3.22       c0.55,0.28,1.12,0.58,1.81,0.93c-0.05-1.16-0.82-1.69-1.41-2.3c-0.59-0.62-1.27-1.16-1.97-1.79       C124.01,46.12,124.56,46.45,125.11,46.71z"/>
				</g>
			</g>
		</g>
	</g>
	<g>
		<g>
			<g>
				<g>
					<path class="st0" d="M84.24,86.18c0.31-1.22,1.3-1.86,2.24-2.5c0.07-0.35,0.19-0.66,0.17-0.96c-0.07-1.46,0.95-2.46,1.5-3.65       c0.07-0.15,0.25-0.26,0.4-0.35c0.89-0.53,1.48-0.83,2.8,0.36c0,0.28-0.01,0.62-0.01,0.98c-0.67,0.38-1.29,0.73-1.9,1.1       c-0.27,0.16-0.57,0.29-0.77,0.52c-0.19,0.22-0.33,0.54-0.33,0.82c-0.01,0.21,0.23,0.43,0.33,0.59c0.61-0.09,1.13-0.16,1.6-0.23       c0.54,0.67,0.89,1.26,0.64,2.03c-0.54,0.28-1.05,0.54-1.5,0.78c-0.74-0.08-1.41-0.13-2.07-0.23c-0.66-0.1-1.21,0-1.7,0.52       c-0.29,0.31-0.7,0.52-1.28,0.93C84.29,86.49,84.21,86.32,84.24,86.18z"/>
				</g>
			</g>
		</g>
	</g>
	<g>
		<g>
			<g>
				<g>
					<path class="st0" d="M96.33,90.32c-0.17-1-0.01-1.22,1.01-1.21c1.02,0.01,1.69-0.45,2.2-1.26c0.14-0.23,0.26-0.47,0.44-0.67       c0.39-0.44,0.95-0.53,1.46-0.26c1.09,0.57,1.5,2.66,0.6,3.51c-0.97,0.91-1.98,1.84-3.49,1.7c-0.34-0.03-0.7,0.06-0.96,0.08       c-0.77,0.67-1.04,1.66-2.03,2.13c-0.05-0.26-0.14-0.44-0.1-0.57c0.18-0.6,0.35-1.2,0.62-1.76       C96.32,91.45,96.43,90.93,96.33,90.32z"/>
				</g>
			</g>
		</g>
	</g>
	<g>
		<g>
			<g>
				<g>
					<path class="st0" d="M105.84,86.14c-0.35-0.48-0.14-1.01-0.13-1.54c0.03-1.33,0.7-2.13,1.88-2.61       c1.26-0.51,2.21-1.41,2.99-2.62c0.92,0.36,0.89,0.38,1.2,0.84c1.18,1.76-0.6,5-2.74,4.72c-0.52-0.07-1.05-0.07-1.69-0.11       c-0.26,0.59-0.53,1.18-0.85,1.9C106.26,86.51,106,86.37,105.84,86.14z"/>
				</g>
			</g>
		</g>
	</g>
	<g>
		<g>
			<g>
				<g>
					<path class="st0" d="M104.87,73.24c0.45-1.01,1.61-1.43,2.27-2.47c0.13-0.78,0.16-1.77,1.21-2.23c0.92-0.4,1.82-0.63,2.86,0.1       c-0.67,0.47-1.22,0.89-1.9,1.15c-0.4,0.15-0.53,0.48-0.39,0.87c0.14,0.38,0.49,0.54,0.87,0.45c0.29-0.07,0.57-0.24,0.8-0.43       c0.39-0.33,0.78-0.6,1.41-0.48c0.13,0.2,0.29,0.45,0.51,0.78c-0.39,0.6-0.77,1.2-1.17,1.78c-0.76,1.08-1.75,1.47-3.03,0.96       c-0.82-0.32-1.62-0.43-2.45,0.01C105.44,73.96,105.1,73.76,104.87,73.24z"/>
				</g>
			</g>
		</g>
	</g>
	<g>
		<g>
			<g>
				<g>
					<path class="st0" d="M92.16,57.6c0.24-0.37,0.51-0.73,0.78-1.09c0.3-0.4,0.52-0.82,0.43-1.32c-1.92-1.65-2.26-2.29-1.79-3.23       c0.85,0.55,1.66,1.2,2.57,1.64c0.89,0.43,1.87,0.64,3.04,1.02c-0.47,0.34-0.76,0.52-1.02,0.74c-0.44,0.37-1.01,0.68-1.25,1.16       c-0.61,1.23-1.23,2.48-1.11,3.93c0.02,0.22-0.08,0.46-0.12,0.69c-0.09,0.06-0.18,0.12-0.26,0.18       c-0.19-0.24-0.42-0.46-0.57-0.72c-0.49-0.89-1.28-1.14-2.24-1.17c-0.7-0.02-1.4-0.18-2.06-0.65c0.09-0.27,0.16-0.5,0.27-0.83       c0.55,0.13,1.01,0.23,1.48,0.34C91.08,58.48,91.71,58.29,92.16,57.6z"/>
				</g>
			</g>
		</g>
	</g>
	<g>
		<g>
			<g>
				<g>
					<path class="st0" d="M112.58,62.9c-0.32,0.25-0.46,0.74-0.65,1.14c-0.05,0.1,0.03,0.25,0.06,0.44c0.25,0.04,0.5,0.08,0.75,0.12       c0.5-0.56,0.75-1.32,1.61-1.72c-0.14,1.25-0.74,2.07-1.41,2.83c-0.38,0.43-0.93,0.56-1.48,0.37c-0.46-0.16-0.89-0.4-1.33-0.61       c-0.34-0.16-0.68-0.34-1.08-0.54c-0.2,0.72-0.08,1.18,0.38,1.58c0.13,0.11,0.18,0.33,0.32,0.59c-0.81,0.06-1.26-0.26-1.58-0.78       c-0.42-0.69-0.8-1.4-1.2-2.09c-0.27-0.47-0.26-0.92,0.09-1.39c0.77,0,1.56-0.03,2.35,0c0.89,0.03,1.54-0.44,2.11-1.02       c0.54-0.55,0.98-1.19,1.63-2C113.49,61.16,113.58,62.12,112.58,62.9z"/>
				</g>
			</g>
		</g>
	</g>
	<g>
		<g>
			<g>
				<g>
					<path class="st0" d="M113.61,43.12c0.36,1.02,1.76,1.43,1.64,2.71c-1.27,0.54-2.17,1.36-2.4,2.76       c-0.07,0.41-0.22,0.78-0.69,0.91c-0.54-0.21-0.65-0.69-0.68-1.19c-0.05-0.68,0.1-1.31,0.39-1.94c0.44-0.97,0.39-1.19-0.47-1.78       c-0.55-0.37-0.63-0.83-0.51-1.38c0.22-1.02,0.9-1.68,1.86-1.92c0.9-0.23,1.85-0.3,2.78-0.33c0.66-0.02,0.87,0.26,1.09,1.02       C115.71,42.5,114.52,42.33,113.61,43.12z"/>
				</g>
			</g>
		</g>
	</g>
	<g>
		<g>
			<g>
				<g>
					<path class="st0" d="M101.11,49.34c0.56-0.05,1.18-0.41,1.76,0.34c-0.29,0.69-0.52,1.48-0.93,2.15c-0.92,1.49-1.02,3-0.4,4.61       c0.08,0.22,0.03,0.49,0.04,0.81c-0.34,0.03-0.63,0.14-0.85,0.07c-0.84-0.29-1.57-0.03-2.31,0.34c-0.71,0.35-1.44,0.67-2.34,0.8       c0.13-1.81,1.88-1.8,2.78-2.74c0.04-0.35,0.18-0.77,0.11-1.14c-0.22-1.12,0.21-2.11,0.5-3.13c0.09-0.33,0.31-0.64,0.53-0.91       C100.33,50.13,100.71,49.76,101.11,49.34z"/>
				</g>
			</g>
		</g>
	</g>
	<g>
		<g>
			<g>
				<g>
					<path class="st0" d="M108.27,79.78c-0.23-1.44,0.71-2.38,1.07-3.49c0.16-0.52,0.61-0.96,0.97-1.4       c0.19-0.23,0.49-0.38,0.74-0.57c0.61-0.44,1.22-0.88,1.84-1.3c0.12-0.08,0.31-0.07,0.55-0.11c0.19,1.37-1.37,1.74-1.52,2.95       c0.29,0.01,0.56,0.1,0.68,0c0.49-0.38,0.95-0.79,1.37-1.23c0.3-0.31,0.44-0.79,0.95-0.83c0.6,0.67,0.8,1.34,0.55,2.05       c-0.49,1.41-1.17,2.64-3.09,2.6c-0.67-0.26-1.35-0.94-2.32-0.94C109.38,78.14,109.38,79.29,108.27,79.78z"/>
				</g>
			</g>
		</g>
	</g>
	<g>
		<g>
			<g>
				<g>
					<path class="st0" d="M116.41,47.57c0.06-0.11,0.16-0.21,0.25-0.31c1.16-1.27,2.28-1.2,3.3,0.21c0.07,0.1,0.1,0.24,0.18,0.45       c-0.9,0.69-2.61,0.19-2.91,1.8c1.11,0.91,2.22-0.13,3.28-0.03c0.38,0.84,0.11,1.49-0.19,2.3c-0.35,0.07-0.8,0.29-1.17,0.19       c-0.94-0.24-1.87-0.57-2.76-0.96c-0.71-0.31-1.41-0.52-2.1-0.49c-0.54,0.36-1.01,0.67-1.61,1.06c-0.26-1.14-0.24-1.17,0.38-1.5       C114.37,49.61,115.66,48.92,116.41,47.57z"/>
				</g>
			</g>
		</g>
	</g>
	<g>
		<g>
			<g>
				<g>
					<path class="st0" d="M90.28,70.6c-0.46-1.08,0.35-1.95,0.54-2.99c-0.6-0.27-1.18-0.5-1.73-0.78c-1.47-0.74-1.93-1.63-1.72-3.26       c0.21-1.64,2.02-2.92,3.71-2.61c0.08,0.01,0.14,0.1,0.28,0.21c-0.11,1.13-1.26,1.27-1.73,2.05c-0.04,0.18-0.1,0.39-0.12,0.61       c-0.12,1.27,0.4,2.06,1.61,2.42c0.25,0.08,0.53,0.09,0.79,0.14c0.49,0.09,0.91,0.28,1.35,0.91c-0.24,0.19-0.47,0.43-0.73,0.58       c-1.01,0.6-1.32,1.5-1.26,2.62c0.02,0.31-0.15,0.63-0.23,0.92C90.47,71.3,90.42,70.93,90.28,70.6z"/>
				</g>
			</g>
		</g>
	</g>
	<g>
		<g>
			<g>
				<g>
					<path class="st0" d="M121.37,76.79c-0.72-1.11-0.77-2.16-0.33-3.32c0.77-0.78,1.96-0.17,2.96-0.77c0.14-0.4,0.31-0.9,0.48-1.4       c0.23-0.66,0.61-1.21,1.29-1.43c0.63-0.21,1.28-0.36,1.93-0.49c0.18-0.04,0.4,0.07,0.76,0.14c-0.24,0.5-0.34,0.96-0.62,1.25       c-0.43,0.43-0.96,0.78-1.49,1.09c-0.38,0.22-0.85,0.3-0.99,0.82c0.63,0.95,1.42,0.62,2.24,0.13c-0.38,1.38-1.53,2.27-2.7,2.18       c-0.79-0.06-1.58-0.17-2.49-0.27c-0.22,0.51-0.42,0.99-0.65,1.46C121.68,76.37,121.53,76.55,121.37,76.79z"/>
				</g>
			</g>
		</g>
	</g>
	<g>
		<g>
			<g>
				<g>
					<path class="st0" d="M106.23,90.07c-0.2,0.12-0.54,0.17-0.75,0.08c-0.98-0.4-2-0.78-2.2-2c0.73-0.97,1.25-1.11,2.11-0.46       c0.46,0.35,0.91,0.55,1.47,0.42c0.5-0.11,0.89-0.41,1.12-0.87c0.38-0.76,1.01-1.06,1.83-1.13c0.34-0.03,0.71-0.13,0.99-0.31       c0.81-0.53,1.58-1.13,2.38-1.68c0.13-0.09,0.32-0.11,0.58-0.19c0.34,1.88-0.08,2.75-1.57,3.34c-0.57,0.23-1.2,0.44-1.81,0.44       c-1.11,0.01-1.95,0.36-2.65,1.26C107.37,89.46,106.76,89.75,106.23,90.07z"/>
				</g>
			</g>
		</g>
	</g>
	<g>
		<g>
			<g>
				<g>
					<path class="st0" d="M84.96,61.03c0.64-1.5,0.44-3.14,1.03-4.67c0.53-1.37,1.06-2.63,2.2-3.56c0.81,0.01,1.27,0.44,1.47,1.16       c0.19,0.7-0.35,1.02-0.76,1.43c-0.59,0.59-1.18,1.21-1.67,1.88c-0.4,0.55-0.48,1.25-0.37,1.93c0.05,0.35,0.14,0.69,0.22,1.11       c-0.55,0.83-1.11,1.67-1.68,2.5c-0.03,0.04-0.17,0.01-0.31,0.01C84.87,62.24,84.73,61.58,84.96,61.03z"/>
				</g>
			</g>
		</g>
	</g>
	<g>
		<g>
			<g>
				<g>
					<path class="st0" d="M113.83,82.58c-0.39-0.85-0.42-1.59-0.52-2.35c0.71-0.7,1.42-1.38,2.11-2.08       c0.82-0.82,1.36-1.76,1.32-2.96c-0.01-0.34,0.09-0.68,0.11-0.82c0.78-0.56,1.39-1.01,2-1.44c0.63-0.45,0.88-1.28,1.75-1.74       c0,0.55-0.04,0.94,0.01,1.32c0.11,0.82-0.29,1.37-0.88,1.83c-0.17,0.14-0.35,0.28-0.54,0.39c-0.71,0.44-1.19,1.03-1.4,1.87       c-0.33,1.29-0.97,2.36-2.16,3.08c-0.45,0.27-0.81,0.69-1.18,1.01c-0.04,0.47-0.03,0.88-0.12,1.27       C114.29,82.16,114.06,82.31,113.83,82.58z"/>
				</g>
			</g>
		</g>
	</g>
	<g>
		<g>
			<g>
				<g>
					<path class="st0" d="M90.39,77.3c-0.04,0-0.08-0.13-0.17-0.28c0.29-0.18,0.57-0.4,0.88-0.53c0.36-0.14,0.76-0.2,1.14-0.29       c0.42-0.79,0.81-1.55,1.7-1.82c1.59,0.34,1.86,0.72,1.6,2.27c-0.05,0.3-0.03,0.62-0.04,0.89c0.39,0.36,0.73,0.68,1.04,0.96       c-0.12,0.52-0.35,0.88-0.72,0.85c-1.06-0.08-2.23-0.02-3-0.89C92.14,77.71,91.4,77.29,90.39,77.3z"/>
				</g>
			</g>
		</g>
	</g>
	<g>
		<g>
			<g>
				<g>
					<path class="st0" d="M87.53,92.03c-0.6-0.51-0.68-0.58-0.56-1.09c0.25-1.13,0.54-2.25,0.85-3.36c0.09-0.31,0.33-0.57,0.54-0.93       c0.2,0.26,0.32,0.39,0.4,0.54c0.81,1.45,2.01,2.07,3.67,1.75c0.22-0.04,0.44-0.06,0.66-0.06c0.46-0.01,0.79,0.24,0.91,0.65       c0.1,0.36,0.09,0.75,0.13,1.19c-0.46,0.1-0.8,0.23-1.14,0.25c-1.41,0.09-2.68-0.55-3.98-0.88       C87.97,90.45,88.12,91.51,87.53,92.03z"/>
				</g>
			</g>
		</g>
	</g>
	<g>
		<g>
			<g>
				<g>
					<path class="st0" d="M115.71,86.53c-0.67-0.8-0.81-2.68-0.22-3.55c0.19-0.27,0.52-0.58,0.82-0.61       c1.03-0.13,1.79-0.75,2.59-1.39c0.56,0.33,1.08,0.65,1.57,0.94c-0.04,1.97-0.53,2.5-2.32,2.58c-0.27,0.01-0.54-0.02-0.8,0.02       c-0.29,0.05-0.56,0.17-0.96,0.3c0.19,0.75,0.36,1.41,0.56,2.21C116.42,87.18,116.04,86.93,115.71,86.53z"/>
				</g>
			</g>
		</g>
	</g>
	<g>
		<g>
			<g>
				<g>
					<path class="st0" d="M140.13,60.98c1.65,0.52,3.27,1.21,5.04,1.23c0.72,0.01,1.39,0.06,2.09,0.31c0.6,0.21,1.31,0.14,1.97,0.14       c0.3,0,0.4-0.26,0.43-0.53c0.54,0.26,1.33,0.17,1.48,1.04c-1.47,0.37-2.86,0.43-4.19-0.28c-0.8,0.66-1.54,0.37-1.96,0.12       c-1.01-0.05-1.7-0.08-2.47-0.12c0.01-0.01-0.07,0.03-0.14,0.08c-0.98,0.68-1.11,0.68-1.88-0.17c-0.28-0.31-0.56-0.54-0.99-0.61       c-0.56-0.09-0.98-0.43-1.22-0.95c-0.37-0.82-0.72-1.65-1.08-2.47c0.79,0.6,1.58,1.2,2.37,1.8       C139.78,60.71,139.93,60.92,140.13,60.98z"/>
				</g>
			</g>
		</g>
	</g>
	<g>
		<g>
			<g>
				<g>
					<path class="st0" d="M123.32,76.95c0.49-0.22,0.99-0.42,1.57-0.17c0.48,0.72,0.22,1.34-0.32,1.9c-0.25,0.25-0.58,0.43-0.8,0.7       c-0.51,0.63-1.18,0.83-1.92,0.73c-0.96-0.13-1.91-0.37-3.06-0.61c-0.11,0.08-0.3,0.23-0.53,0.4c-0.32-0.81-0.12-1.46,0.28-2.02       c0.59-0.39,1.18-0.3,1.74-0.16c0.61,0.16,1.14,0.07,1.69-0.18C122.42,77.34,122.87,77.15,123.32,76.95z"/>
				</g>
			</g>
		</g>
	</g>
	<g>
		<g>
			<g>
				<g>
					<path class="st0" d="M86.9,75.72c0.64-0.39,0.98-0.88,0.93-1.72c-0.36-0.84-1.34-1.38-1.12-2.39c0.17-0.83,0.51-1.63,1.13-2.53       c0.16,0.76,0.28,1.32,0.38,1.8c0.41,0.39,0.77,0.72,1.12,1.07c0.29,0.3,0.52,0.67,0.36,1.09c-0.28,0.73,0.06,1.39,0.24,2.18       c-0.65,0.53-1.32,1.04-1.94,1.61c-0.51,0.47-1,0.51-1.54,0.14C86.39,76.1,86.36,76.04,86.9,75.72z"/>
				</g>
			</g>
		</g>
	</g>
	<g>
		<g>
			<g>
				<g>
					<path class="st0" d="M105.67,57.12c0.49-0.19,0.86-0.03,1.15,0.36c-0.2,0.77-0.17,0.81-0.58,1.14       c-0.78,0.62-1.12,1.47-1.29,2.41c-0.06,0.34-0.16,0.67-0.27,1.14c-0.45-0.19-0.79-0.33-1.13-0.48       c-0.15-2.14-1.84-2.17-3.38-2.55c0.26-0.76,0.87-0.88,1.34-0.85c1.26,0.07,2.34-0.36,3.42-0.9       C105.15,57.26,105.42,57.21,105.67,57.12z"/>
				</g>
			</g>
		</g>
	</g>
	<g>
		<g>
			<g>
				<g>
					<path class="st0" d="M103.98,85.73c-0.79,0.51-1.49,0.15-2.2-0.08c-0.96-0.3-1.01-1.28-1.47-1.89c0.07-0.95,0.6-1.46,1.4-1.65       c0.77-0.19,1.57-0.27,2.37-0.4c0.17,0.22,0.23,0.29,0.27,0.36c0.66,1.37,0.26,2.03-1.22,2.07c-0.24,0.01-0.48,0.08-0.67,0.11       C102.48,85.3,103.82,84.84,103.98,85.73z"/>
				</g>
			</g>
		</g>
	</g>
	<g>
		<g>
			<g>
				<g>
					<path class="st0" d="M107.07,48.39c-0.36,0.61-0.82,0.68-1.33,0.56c-0.58-0.14-1.09-0.4-1.37-0.96       c-0.34-0.67-0.69-1.35-0.96-2.05c-0.34-0.88-0.27-1.72,0.53-2.5c0.63,0.29,1.21,0.55,1.69,0.77c0.2,1.24,0.35,2.2,0.5,3.09       C106.47,47.71,106.78,48.06,107.07,48.39z"/>
				</g>
			</g>
		</g>
	</g>
	<g>
		<g>
			<g>
				<g>
					<path class="st0" d="M83.91,74.03c-0.48-1.15-0.4-2.38-0.13-3.53c0.19-0.79,0.69-1.52,1.12-2.24c0.2-0.34,0.54-0.6,1.21-0.32       c-0.15,0.54-0.24,1.07-0.46,1.54c-0.61,1.3-0.71,2.54,0.21,3.75c0.3,0.39,0.28,0.83-0.06,1.22c-0.32,0.37-0.89,0.52-1.33,0.25       C84.24,74.56,84.02,74.3,83.91,74.03z"/>
				</g>
			</g>
		</g>
	</g>
	<g>
		<g>
			<g>
				<g>
					<path class="st0" d="M95.12,61.97c0.26-0.47,0.44-0.98,0.75-1.41c0.15-0.22,0.49-0.38,0.76-0.43c0.19-0.03,0.42,0.18,0.64,0.28       c-0.57,1.26-1.14,2.4-0.78,3.76c0.06,0.23-0.14,0.61-0.34,0.8c-0.24,0.23-0.61,0.16-0.85-0.08c-0.51-0.53-1.17-0.58-1.83-0.65       c-0.44-0.05-0.89-0.11-1.3-0.26c-0.23-0.09-0.39-0.37-0.61-0.59c0.94-0.81,1.91-0.23,2.94-0.38       C94.68,62.71,94.91,62.34,95.12,61.97z"/>
				</g>
			</g>
		</g>
	</g>
	<g>
		<g>
			<g>
				<g>
					<path class="st0" d="M120.94,44.46c-0.35,0.9,0.84,1.45,0.2,2.26c-0.94-0.18-0.93-1.18-1.52-1.62       c-0.6-0.44-1.21-0.85-1.78-1.24c0-0.76,0.33-1.07,0.96-1.15c0.66-0.08,1.31-0.23,1.88-0.33c0.89,0.33,1.7,0.63,2.51,0.92       C122.29,43.67,121.4,43.8,120.94,44.46z"/>
				</g>
			</g>
		</g>
	</g>
	<g>
		<g>
			<g>
				<g>
					<path class="st0" d="M84.59,76.87c1,0.91,1.05,1.33,0.35,2.73c0.05,0.51,0.12,1,0.14,1.48c0.04,1.05-0.46,1.81-1.42,2.17       c-0.34,0.13-0.7,0.17-0.97-0.32c0.35-0.46,0.71-0.94,1.14-1.5C83.32,79.74,83.38,78.04,84.59,76.87z"/>
				</g>
			</g>
		</g>
	</g>
	<g>
		<g>
			<g>
				<g>
					<path class="st0" d="M98.42,64.85c-0.75-1.34-0.99-2.69,0.53-4.59c0.29,0.07,0.62,0.15,1.08,0.26       c-0.08,0.95-0.21,1.74-0.21,2.53c0.01,0.82,0.14,1.63,0.22,2.46C99.24,65.74,98.75,65.46,98.42,64.85z"/>
				</g>
			</g>
		</g>
	</g>
	<g>
		<g>
			<g>
				<g>
					<path class="st0" d="M94.51,83.28c-0.78,0.02-1.52-0.1-1.9-1.06c0.2-0.14,0.3-0.27,0.41-0.27c1.02-0.07,1.87-0.52,2.67-1.12       c0.24-0.18,0.56-0.27,0.85-0.37c0.12-0.04,0.26-0.01,0.45-0.01c0.15,0.24,0.31,0.5,0.46,0.73       C96.81,82.38,95.6,83.25,94.51,83.28z"/>
				</g>
			</g>
		</g>
	</g>
</g>
<g>
	<g>
		<g>
			<g>
				<g>
					<path class="st0" d="M87.3,25.84c0.07,0,0.15,0,0.22,0.01c2.13,0.32,4.29,0.06,6.43,0.35c0.11,0.01,0.23,0,0.33-0.03       c0.52-0.14,1.02-0.06,1.53,0.1c0.34,0.11,0.73,0.12,1.1,0.14c0.67,0.05,1.33,0.08,2,0.1c0.37,0.01,0.74-0.02,1.1-0.04       c0.37-0.01,0.74-0.05,1.11-0.03c0.99,0.05,1.97,0.42,2.98,0.21c0.03-0.01,0.08,0,0.11,0.02c0.75,0.38,4.98,0.07,5.74,0.16       c1.02,0.12,2.09,0.39,3.08,0.07c0.39-0.12,0.76-0.28,1.16-0.34c0.34-0.05,0.71-0.03,1.01-0.17c0.22-0.11,0.48-0.45,0.25-0.66       c-0.18-0.17-0.94-0.06-1.18-0.07c-0.85-0.01-1.71-0.01-2.54-0.21c-1.4-0.34-6.25,0.06-7.6-0.42c-0.94,0.27-1.84-0.05-2.75-0.16       c-0.33-0.04-0.67-0.06-1-0.04c-1.56,0.13-3.11,0.01-4.66-0.18c-0.33-0.04-0.67-0.07-1-0.06c-1,0.02-2,0.06-2.99,0.08       c-0.48,0.01-0.96,0.01-1.44-0.03c-1.74-0.12-3.47-0.27-5.21-0.38c-0.54-0.03-1.1,0.06-1.65,0.09       c-0.12,0.49,0.06,0.84,0.32,1.34C84.94,25.74,86.12,25.79,87.3,25.84z"/>
				</g>
			</g>
		</g>
	</g>
	<g>
		<g>
			<g>
				<g>
					<path class="st0" d="M31.63,18.54c-0.08,0.32-0.14,0.58-0.2,0.86c0.44,0.4,0.82,0.78,1.24,1.12c0.19,0.16,0.42,0.31,0.65,0.36       c0.57,0.11,1.15,0.16,1.72,0.21c0.17,0.02,0.38,0,0.52-0.09c0.44-0.25,0.87-0.51,1.27-0.82c1.13-0.85,1.71-0.83,2.84,0.09       c0.79,0.65,1.67,0.99,2.72,0.68c0.28-0.08,0.57-0.1,0.85-0.16c1.16-0.24,2.32-0.47,3.47-0.72c0.25-0.05,0.49-0.14,0.72-0.23       c0.59-0.23,0.83-0.67,0.64-1.28c-0.48-1.56-2.16-2.1-3.4-1.46c-0.99,0.51-2.13,1.02-2.38,2.29c-0.59,0.26-1.1,0.39-1.51-0.14       c-0.03-0.35-0.05-0.68-0.1-1c-0.09-0.59-0.4-0.99-1.02-1.1c-1.08-0.2-2.09-0.15-2.94,0.66c-0.26,0.25-0.54,0.48-0.82,0.71       c-0.22,0.18-0.45,0.21-0.7,0.06c-0.31-0.18-0.33-0.47-0.24-0.76c0.06-0.2,0.18-0.39,0.31-0.56c0.36-0.49,0.88-0.73,1.44-0.91       c0.4-0.12,0.84-0.2,1.15-0.61c-0.36-0.55-0.87-0.65-1.41-0.52c-1.19,0.27-2.1,0.95-2.69,2.02c-0.21,0.38-0.31,0.79-0.13,1.25       c0.14,0.37,0.16,0.77-0.15,1.19c-0.32-0.02-0.66-0.04-0.92-0.06C32.19,19.28,32.16,18.76,31.63,18.54z"/>
				</g>
			</g>
		</g>
	</g>
	<g>
		<g>
			<g>
				<g>
					<path class="st0" d="M76.96,25.48c0.19-1.05,0.24-2.11,0.8-3.04c0.2-0.34,0.14-0.7-0.15-0.94c-0.84-0.19-1.45,0.87-2.27,0.27       c-0.6,0.43-0.81,0.9-0.68,1.43c0.14,0.57,0.02,1.08-0.21,1.58c-0.18,0.39-0.15,0.75-0.08,1.15c0.11,0.67,0.29,1.39,0.18,2.04       c-0.17,1.01,0.23,1.72,0.74,2.5c0.54,0.83,1.08,1.69,1.19,2.72c0.01,0.07,0.15,0.12,0.25,0.2c0.22-0.25,0.42-0.48,0.59-0.67       c0.39,0.16,0.72,0.29,1.08,0.44c0.12-0.32,0.2-0.54,0.28-0.76c0.8-0.3,1.44-0.78,2-1.47c-0.2-0.13-0.34-0.26-0.5-0.32       c-0.87-0.3-1.61-0.81-2.33-1.37c-0.28-0.22-0.6-0.4-0.92-0.56c-1.05-0.53-1.31-1.44-0.66-2.41       C76.48,25.99,76.74,25.74,76.96,25.48z"/>
				</g>
			</g>
		</g>
	</g>
	<g>
		<g>
			<g>
				<g>
					<path class="st0" d="M38.67,40.36c-0.38-0.12-0.74-0.3-1.1-0.47c-0.43-0.2-0.85-0.32-1.36-0.12c0.09,0.43,0.31,0.72,0.63,0.9       c0.84,0.47,1.73,0.78,2.68,0.37c0.73-0.32,1.43-0.32,2.21-0.14c0.93,0.21,1.92,0.21,2.77-0.46c-0.28-0.49-0.72-0.46-1.15-0.46       c-0.39,0-0.81,0.05-1.18-0.06c-1.34-0.41-1.52-1.21-0.51-2.16c0.29-0.27,0.61-0.52,0.66-0.96c0.05-0.47,0.08-0.94,0.14-1.41       c0.06-0.49,0.14-0.98,0.22-1.49c-0.92-0.27-1.57-0.86-2.23-1.39c-0.57-0.46-1.26-0.2-1.86-0.51c-0.23,0.24-0.42,0.44-0.61,0.63       c0.11,0.88,0.5,1.46,1.33,1.72c0.56,0.17,1.12,0.38,1.1,1.24c-0.86,0.69-1.97,0.4-3.02,0.5c0.27,1.02,1.28,0.96,1.87,1.5       c-0.16,0.94,0.51,1.82,0.12,2.85C39.15,40.4,38.89,40.43,38.67,40.36z"/>
				</g>
			</g>
		</g>
	</g>
	<g>
		<g>
			<g>
				<g>
					<path class="st0" d="M56.49,19.74c-0.31,0.08-0.63,0.15-0.93,0.22c-0.28,0.47-0.58,0.89-0.78,1.35       c-0.19,0.44-0.28,0.93-0.43,1.47c-0.54-0.3-1.04-0.48-1.41-0.8c-0.37-0.33-0.61-0.8-0.96-1.27c-0.28,0.74-0.1,1.37,0.08,1.95       c0.6,1.11,1.63,1.53,2.76,1.73c1.22,0.21,2.45,0.2,3.64-0.17c0.16-0.05,0.32-0.17,0.43-0.3c0.73-0.83,0.89-2.17,0.31-3.03       C58.42,19.72,57.9,19.36,56.49,19.74z"/>
				</g>
			</g>
		</g>
	</g>
	<g>
		<g>
			<g>
				<g>
					<path class="st0" d="M53.2,31.37c0.61,0.1,1.22,0.18,1.83,0.25c1.14,0.14,1.8-0.31,2.05-1.45c0.13-0.6,0.15-1.22,0.22-1.83       c-0.25-0.41-0.43-0.73-0.63-1.03c-0.39-0.6-0.93-1.04-1.6-1.24c-0.66-0.19-1.34-0.31-2.02-0.38c-0.78-0.08-1.24,0.36-1.26,1.14       c-0.01,0.32,0.07,0.63,0.1,0.88c1.78,1.3,1.78,1.3,1.9,2.25c-1.24,0.07-1.58-0.11-2.98-1.5c-0.37,0.21-0.25,0.55-0.09,0.74       c0.59,0.68,1.23,1.32,1.87,1.95C52.74,31.29,52.99,31.34,53.2,31.37z"/>
				</g>
			</g>
		</g>
	</g>
	<g>
		<g>
			<g>
				<g>
					<path class="st0" d="M54.41,34.81c0.61,0.02,1.22,0.23,1.83,0.23c0.64,0,1.19,0.19,1.72,0.51c1.24,0.76,3.65,0.52,4.72-0.93       c0.47-0.64,0.5-0.88-0.1-1.61c-1.03,0.19-1.74-0.43-2.45-1.06c-0.11-0.1-0.18-0.23-0.29-0.32c-0.6-0.53-1.43-0.42-1.87,0.25       c-0.12,0.18-0.23,0.38-0.27,0.59c-0.12,0.51-0.5,0.76-0.92,1c-0.88,0.51-1.79,0.49-2.73,0.28c-0.47-0.1-0.95-0.33-1.53-0.09       c0.05,0.18,0.05,0.28,0.09,0.31C53.14,34.38,53.66,34.79,54.41,34.81z"/>
				</g>
			</g>
		</g>
	</g>
	<g>
		<g>
			<g>
				<g>
					<path class="st0" d="M62.28,29.34c0.32-0.03,0.62-0.17,0.94-0.26c0.45-0.12,0.92-0.2,1.36-0.35c0.41-0.15,0.66-0.44,0.38-1.02       c-1.13-0.1-2.3,0.22-3.58,0.2c0.02-0.28-0.04-0.54,0.06-0.72c0.28-0.52,0.75-0.78,1.35-0.73c0.75,0.06,1.29-0.32,1.82-0.79       c-0.31-0.45-0.7-0.44-1.1-0.36c-0.46,0.09-0.92,0.2-1.38,0.3c-0.51,0.1-0.94,0.3-1.26,0.76c-0.24,0.35-0.54,0.68-1.11,0.68       c0.04-0.77-0.1-1.53,0.73-2.01c0.2-0.12,0.26-0.47,0.38-0.72l-0.02,0.01c-0.98-0.14-1.43,0.57-1.83,1.23       c-0.35,0.57-0.53,1.25-0.74,1.76c0.36,1.4,1.37,2.2,2.05,3.21c0.13,0.19,0.41,0.31,0.64,0.38c0.91,0.28,1.84,0.4,2.76,0.05       c0.31-0.12,0.71-0.12,0.93-0.67c-0.49,0.01-0.88,0.04-1.26,0.02c-0.61-0.04-1.22-0.07-1.82-0.19c-0.46-0.09-0.48-0.36-0.13-0.9       C61.72,29.25,62,29.36,62.28,29.34z"/>
				</g>
			</g>
		</g>
	</g>
	<g>
		<g>
			<g>
				<g>
					<path class="st0" d="M44.31,23.55c-0.36-0.3-0.69-0.63-1.05-0.93c-0.36-0.3-0.74-0.56-1.25-0.28c0.56,1.2,1.81,2.26,3.39,2.83       c0.18,0.6,0.51,1.08,1.11,1.25c1.41,0.4,2.79,0.39,4.04-0.5c0.59-0.43,0.92-1.32,0.72-1.9c-0.3-0.89-0.82-1.23-1.82-1.18       c-0.81,0.04-1.53,0.28-2.2,0.8C46.24,24.42,45.28,24.35,44.31,23.55z"/>
				</g>
			</g>
		</g>
	</g>
	<g>
		<g>
			<g>
				<g>
					<path class="st0" d="M41.14,25.96c-1.71,0.79-2.28,2.81-1.26,4.37c0.49,0.75,1.17,1.28,1.92,1.72c0.33,0.2,0.7,0.37,1.18,0.09       c-0.17-0.48-0.33-0.95-0.48-1.37c0.21-0.91,0.88-1.05,1.6-1.04c0.52,0,1.03,0.01,1.48-0.25c0.67-0.4,1.4-0.57,2.13-0.78       c0.19-0.06,0.37-0.15,0.54-0.22c-0.05-0.46-0.31-0.45-0.57-0.4c-1.67,0.27-3.38,0.26-5.01,0.8c-0.27,0.09-0.57,0.18-0.85,0.17       c-0.22-0.01-0.43-0.16-0.62-0.23c0.02-0.6,0.36-0.75,0.77-0.86c0.58-0.16,1.21-0.23,1.62-0.78c-0.27-0.43-0.61-0.48-1.03-0.26       c-0.31,0.16-0.63,0.3-0.97,0.47c-0.44-0.94,0.76-1.11,0.67-1.97c-0.24,0.1-0.41,0.16-0.56,0.24       C41.52,25.75,41.34,25.87,41.14,25.96z"/>
				</g>
			</g>
		</g>
	</g>
	<g>
		<g>
			<g>
				<g>
					<path class="st0" d="M74.95,39.83c0.53,0.45,0.57,1.05,0.71,1.63c0.1,0.4,0.37,0.57,0.83,0.66c0.17-0.45,0.36-0.83,0.45-1.24       c0.18-0.81,0.52-1.5,1.24-1.8c0.26-0.62,0.54-1.13,0.68-1.68c0.2-0.76,0.3-1.55,0.41-2.34c0.02-0.18-0.1-0.37-0.19-0.69       c-0.66,0.57-1.36,0.67-2.09,0.71c-0.52,0.03-0.92,0.29-1.21,0.78c-0.29,0.49-0.72,0.9-1.07,1.35c-0.06,0.08-0.07,0.2-0.12,0.34       c0.13,0.23,0.27,0.48,0.41,0.74c-0.06,0.22-0.15,0.42-0.16,0.63C74.84,39.22,74.78,39.68,74.95,39.83z"/>
				</g>
			</g>
		</g>
	</g>
	<g>
		<g>
			<g>
				<g>
					<path class="st0" d="M80.64,28.64c0.18,0.24,0.32,0.45,0.48,0.65c0.15,0.2,0.32,0.38,0.44,0.53c0.41,0.09,0.75,0.17,1.11,0.25       c0.26-0.59,0.06-1.02-0.3-1.41c-0.35-0.38-0.62-0.77-0.67-1.32c-0.04-0.46-0.18-0.91-0.29-1.36c-0.06-0.24-0.22-0.49-0.19-0.72       c0.13-1.05-0.3-1.99-0.53-2.97c-0.15-0.64-0.47-1.25-1.3-1.61c0.03,0.87,0.05,1.6,0.07,2.27c-0.21,0.26-0.37,0.45-0.51,0.63       c0.01,0.37,0.02,0.69,0.01,1.01c-0.03,0.81-0.14,1.57-0.81,2.16c-0.19,0.16-0.24,0.48-0.32,0.65c0.74,0.56,1.39,1.05,2.07,1.56       C80.11,28.87,80.37,28.76,80.64,28.64z"/>
				</g>
			</g>
		</g>
	</g>
	<g>
		<g>
			<g>
				<g>
					<path class="st0" d="M73.49,15.47c-0.18,0.54-0.01,0.98,0.25,1.44c0.38,0.65,0.53,2.11,0.33,2.81       c-0.06,0.23-0.11,0.46-0.19,0.83c0.72-0.31,1.31-0.56,1.9-0.81c0.3-0.99,0.19-1.95-0.13-2.82c-0.35-0.97-0.49-1.96-0.7-2.94       c-0.03-0.14,0.04-0.31,0.07-0.54c0.53,0.24,0.7,0.62,0.85,1.02c0.24,0.6,0.51,1.19,0.73,1.8c0.15,0.4,0.27,0.83,0.32,1.25       c0.07,0.64,0.06,1.29,0.08,2.03c0.52,0,0.76-0.27,0.84-0.7c0.2-1.09,0.18-2.16-0.4-3.15c-0.6-1.02-1.03-2.15-2-2.93       c-0.24-0.2-0.37-0.53-0.56-0.79c-0.1-0.14-0.24-0.25-0.36-0.38c-0.55,0.35-0.39,0.82-0.39,1.29c0,0.49-0.12,0.97-0.19,1.5       c-0.15,0.12-0.35,0.28-0.5,0.4C73.48,15.05,73.55,15.28,73.49,15.47z"/>
				</g>
			</g>
		</g>
	</g>
	<g>
		<g>
			<g>
				<g>
					<path class="st0" d="M69.35,30.06c-0.41,0.07-0.85-0.01-1.27-0.09c-0.36-0.06-0.7-0.2-1.08,0.14c0.21,0.65,0.36,0.94,0.75,0.96       c0.78,0.06,1.57,0.27,2.34-0.1c0.29-0.14,0.6-0.25,0.9-0.35c0.47-0.15,0.83-0.44,1.1-0.84c0.51-0.74,0.63-1.62,0.65-2.48       c0.01-0.81-0.71-1.44-1.38-1.34c-1.03,0.16-2.05,0.28-3.1,0.16c-0.46-0.05-0.73,0.16-0.83,0.52c-0.1,0.36,0.03,0.68,0.43,0.89       c0.6,0.31,1.17,0.73,1.91,0.6c0.12,0.19,0.24,0.32,0.31,0.48C70.42,29.41,70.17,29.92,69.35,30.06z"/>
				</g>
			</g>
		</g>
	</g>
	<g>
		<g>
			<g>
				<g>
					<path class="st0" d="M65.29,42.13c0.14-0.03,0.25-0.24,0.37-0.38c0.55-0.66,1.1-1.33,1.61-1.95c0.75-0.06,1.46-0.16,2.18-0.18       c1.05-0.04,1.63-0.7,2.12-1.49c0.1-0.15,0.07-0.38,0.11-0.68c-0.31,0.09-0.52,0.12-0.7,0.22c-0.28,0.16-0.54,0.37-0.81,0.55       c-0.58,0.39-1.16,0.47-1.84,0.18c-0.94-0.41-1.8-0.91-2.54-1.63c-0.73-0.72-1.22-0.75-2.11-0.19c-0.09,0.46,0.11,0.74,0.55,0.9       c0.4,0.15,0.79,0.31,1.21,0.48c-0.15,2.17-0.97,3.74-3.11,4.33c0.03,0.1,0.02,0.16,0.04,0.17       C63.39,42.93,64.32,42.32,65.29,42.13z"/>
				</g>
			</g>
		</g>
	</g>
	<g>
		<g>
			<g>
				<g>
					<path class="st0" d="M66.21,18.4c-0.46-0.87-0.57-0.95-1.31-0.84c-0.39,0.06-0.78,0.18-1.17,0.21       c-0.6,0.03-1.11,0.24-1.62,0.54c-0.36,0.22-0.79,0.33-1.2,0.42c-0.38,0.08-0.78,0.06-1.16,0.4c0.43,0.76,0.85,1.49,1.27,2.22       c0.09,0.15,0.21,0.29,0.33,0.42c0.05,0.05,0.12,0.09,0.19,0.11c0.96,0.32,1.9,0.7,2.88,0.94c0.71,0.17,1.38-0.32,1.67-1.12       c-1.03,0-2.01-0.11-2.89-0.62c0.19-0.72,0.26-0.78,0.81-0.77c0.57,0.01,1.14,0,1.84-0.01c-0.25-0.57-0.57-0.63-0.89-0.7       c-0.35-0.07-0.71-0.14-1.04-0.27c-0.15-0.06-0.23-0.28-0.34-0.43C64.38,18.16,65.4,18.87,66.21,18.4z"/>
				</g>
			</g>
		</g>
	</g>
	<g>
		<g>
			<g>
				<g>
					<path class="st0" d="M54.54,42.56c0.2,0.08,0.42,0.17,0.62,0.17c0.97-0.03,1.94-0.03,2.85-0.53c1.04-0.58,1.06-0.55,2.11-0.13       c0.5-0.3,0.53-0.29,0.58-0.55c0.14-0.79,0.72-1.13,1.39-1.37c0.24-0.09,0.5-0.1,0.73-0.21c0.45-0.21,0.88-0.47,0.93-1.1       c-0.59-0.11-1.04,0.14-1.52,0.29c-0.85,0.28-1.13,0.19-1.71-0.49c-0.2-0.24-0.4-0.48-0.73-0.88c-0.15,0.5-0.23,0.8-0.32,1.1       c-0.24,0.8-0.64,1.11-1.5,1.11c-0.54,0-1.08-0.06-1.63-0.07c-0.27-0.01-0.54,0.02-0.96,0.03c0.3,0.85,1.25,0.61,1.55,1.23       c0.03,0.27-0.11,0.48-0.4,0.51c-0.32,0.04-0.65,0.04-0.97,0.03c-0.39-0.01-0.78-0.04-1.17-0.07       C54.12,42.1,54.14,42.39,54.54,42.56z"/>
				</g>
			</g>
		</g>
	</g>
	<g>
		<g>
			<g>
				<g>
					<path class="st0" d="M54.76,16.15c-0.35-0.28-0.75-0.4-1.18-0.5c-0.81-0.2-1.47,0.29-2.17,0.36c-0.54,0.52-0.96,1.02-0.99,1.79       c-0.01,0.34-0.19,0.71-0.4,0.99c-0.65,0.85-0.58,1.73-0.27,2.68c0.19,0.01,0.36,0.02,0.57,0.03c0.07-0.28,0.17-0.52,0.17-0.76       c0.02-1.14,0.91-1.82,2.05-1.7c0.5,0.05,1.01-0.03,1.51-0.07c0.7-0.06,1.12-0.47,1.31-1.11C55.57,17.19,55.34,16.6,54.76,16.15       z"/>
				</g>
			</g>
		</g>
	</g>
	<g>
		<g>
			<g>
				<g>
					<path class="st0" d="M51.97,41.9c0.27-0.27,0.45-0.4,0.54-0.57c0.19-0.35,0.31-0.73,0.48-1.09c0.11-0.23,0.19-0.53,0.38-0.64       c0.56-0.32,1.14-0.7,1.76-0.79c0.6-0.09,0.99-0.39,1.39-0.75c0.59-0.54,0.59-0.93,0.03-1.7c-1.26,0.15-2.54,0.3-3.8,0.45       c-0.18,0.39-0.33,0.71-0.47,0.99c-0.81,0.21-1.17-1.04-2.06-0.45c-0.09,1.02,0.28,1.78,1.23,2.17       C51.62,40.3,51.78,41.02,51.97,41.9z"/>
				</g>
			</g>
		</g>
	</g>
	<g>
		<g>
			<g>
				<g>
					<path class="st0" d="M62,14.23c-1.57-0.5-3.03-0.01-3.83,1.38c-0.33,0.57-0.69,1.09-1.13,1.56c-0.25,0.26-0.48,0.54-0.68,0.84       c-0.1,0.15-0.11,0.36-0.2,0.66c1.17-0.59,2.06-1.6,3.43-0.99c1.18-0.81,2.34-1.34,3.7-1.25c0.07,0,0.15,0,0.22-0.01       c0.56-0.1,0.83-0.69,0.48-1.15c-0.19-0.25-0.47-0.45-0.75-0.59C62.84,14.48,62.42,14.36,62,14.23z"/>
				</g>
			</g>
		</g>
	</g>
	<g>
		<g>
			<g>
				<g>
					<path class="st0" d="M71.88,21.26c-1.09-0.7-2.24-1.14-3.63-0.62c-0.17,0.63,0.02,1.17,0.25,1.71c0.15,0.36,0.3,0.74,0.38,1.12       c0.26,1.3,0.58,1.57,1.89,1.51c0.18-0.01,0.36-0.03,0.53-0.07c0.88-0.2,1.48-0.69,1.5-1.34C72.82,22.68,72.7,21.79,71.88,21.26       z"/>
				</g>
			</g>
		</g>
	</g>
	<g>
		<g>
			<g>
				<g>
					<path class="st0" d="M51.05,34.99c-0.89-1.03-2.24-0.82-3.02-1.67c0.13-0.21,0.24-0.38,0.35-0.56       c0.23,0.01,0.41,0.01,0.59,0.04c0.25,0.03,0.5,0.12,0.75,0.13c0.84,0.01,1.58-0.6,0.95-1.57c-0.18-0.27-0.38-0.53-0.61-0.85       c-0.52-0.03-1.06-0.06-1.6-0.1c-0.49-0.03-0.86,0.16-1.03,0.62c-0.28,0.78-0.91,0.89-1.59,0.77c-0.44-0.08-0.85-0.32-1.29-0.5       c-0.25,0.39-0.08,0.68,0.23,0.93c0.92,0.75,1.82,1.54,2.78,2.23C48.54,35.14,49.68,35.12,51.05,34.99z"/>
				</g>
			</g>
		</g>
	</g>
	<g>
		<g>
			<g>
				<g>
					<path class="st0" d="M40.75,23.23c-0.81-0.37-1.62-0.65-2.46-0.03c-0.17,0.12-0.4,0.16-0.6,0.24       c-0.12,0.23-0.22,0.47-0.36,0.67c-0.29,0.43-0.77,0.45-1.06,0.02c-0.16-0.23-0.22-0.53-0.33-0.79       c-0.18-0.43-0.37-0.86-0.93-1.04c-0.41,0.38-0.43,0.82-0.27,1.16c0.31,0.64,0.6,1.31,1.23,1.75c0.62,0.43,1.2,0.91,1.85,1.42       c0.47,0.07,0.7-0.34,0.91-0.7c0.38-0.65,0.94-0.97,1.66-1.08c0.31-0.05,0.61-0.16,0.87-0.23       C41.44,23.65,41.4,23.52,40.75,23.23z"/>
				</g>
			</g>
		</g>
	</g>
	<g>
		<g>
			<g>
				<g>
					<path class="st0" d="M28.1,27.39c0.3-0.08,0.6-0.16,0.9-0.25c0.55-0.18,1.19-0.24,1.62-0.58c0.63-0.49,1.27-0.76,2.04-0.82       c0.29-0.02,0.55-0.19,0.51-0.66c-0.19-0.06-0.41-0.17-0.64-0.21c-0.27-0.04-0.55-0.01-0.82-0.02c-0.35-1.04,0.71-0.83,1.02-1.3       c0-0.39-0.19-0.54-0.6-0.51c-0.37,0.03-0.73,0.33-1.15,0.12c-0.07-0.9,1.12-0.92,1.13-1.73c-0.09-0.03-0.2-0.1-0.29-0.09       c-0.17,0.03-0.35,0.1-0.49,0.19c-0.51,0.34-1.04,0.65-1.5,1.05c-0.23,0.2-0.29,0.57-0.46,0.84c-0.59,0.93-0.29,1.95-0.21,2.91       c-0.42,0.33-0.77,0.62-1.12,0.9C28.05,27.29,28.07,27.34,28.1,27.39z"/>
				</g>
			</g>
		</g>
	</g>
	<g>
		<g>
			<g>
				<g>
					<path class="st0" d="M74.8,34.08c0.33-0.44,0.26-0.97,0.21-1.47c-0.04-0.38-0.25-0.67-0.65-0.75       c-0.61,0.32-0.59,0.33-0.84,0.78c-0.7,1.27-1.41,1.51-2.79,0.92c-0.65,0.11-1.07,0.36-1.3,0.95c-0.19,0.48-0.56,0.83-1.09,0.99       c-0.35,0.1-0.65,0.3-0.71,0.76c1.47,0.45,2.61-0.03,3.59-1.04c0.55,0,1.1-0.04,1.63,0.01C73.8,35.32,74.31,34.73,74.8,34.08z"/>
				</g>
			</g>
		</g>
	</g>
	<g>
		<g>
			<g>
				<g>
					<path class="st0" d="M40.69,14.11c0.44,0.35,0.63,0.77,0.47,1.33c-0.1,0.35-0.01,0.63,0.33,0.86c0.52-0.06,1.05-0.12,1.59-0.2       c0.52-0.07,1.05,0.34,1.64-0.09c-0.12-0.16-0.2-0.38-0.35-0.44c-0.37-0.14-0.77-0.19-1.15-0.3c-0.33-0.09-0.46-0.31-0.34-0.68       c0.4-0.29,0.86-0.27,1.33-0.2c0.48,0.07,0.79,0.66,1.35,0.49c0.1-0.41-0.19-0.63-0.38-0.87c-0.87-1.09-1.93-1.59-3.33-1.05       c-0.29,0.11-0.62,0.09-0.87,0.13c-0.55-0.46-0.53-1.52-1.65-1.21C39.73,12.7,39.97,13.55,40.69,14.11z"/>
				</g>
			</g>
		</g>
	</g>
	<g>
		<g>
			<g>
				<g>
					<path class="st0" d="M53.5,12.32c-0.02-0.02-0.12,0.02-0.22,0.04c-0.1,0.51-0.2,1.03-0.3,1.51c1.13,0.9,2.39,1.16,3.65,1.4       c0.57-0.26,0.92-0.73,1.33-1.12c0.4-0.38,0.94-0.61,1.54-0.98c-1.33-0.87-3-1.09-4.2-0.54C54.59,12.94,54,13.03,53.5,12.32z"/>
				</g>
			</g>
		</g>
	</g>
	<g>
		<g>
			<g>
				<g>
					<path class="st0" d="M35.43,35.35c0.21-0.04,0.43-0.06,0.64-0.13c0.43-0.13,0.79-0.35,0.94-0.76c-0.09-0.44-0.4-0.47-0.68-0.41       c-1.16,0.25-2.31-0.01-3.47-0.01c-0.72,0-1.45-0.04-2.08-0.5c-0.24-0.18-0.54-0.2-0.81,0.14c0.24,0.63,0.75,1.01,1.33,1.33       c0.83,0.46,1.6,0.98,2.05,1.86c0.11,0.22,0.29,0.42,0.43,0.62c0.3,0.43,0.71,0.67,1.25,0.75c0.14-0.59-0.34-0.82-0.56-1.3       c0.03-0.21,0.06-0.42,0.08-0.64C34.6,35.76,34.9,35.45,35.43,35.35z"/>
				</g>
			</g>
		</g>
	</g>
	<g>
		<g>
			<g>
				<g>
					<path class="st0" d="M32.68,26.95c-0.45,0.16-0.99,0.2-1.41,0.77c1.31,0.43,2.41,1.13,3.71,1.3c0.66,0.08,1.28,0.23,1.85,0.55       c0.3,0.16,0.59,0.29,0.9,0.05c-0.06-0.57-0.06-0.58-0.23-0.78c-0.43-0.49-0.85-0.98-1.29-1.46c-0.32-0.35-0.64-0.7-0.99-1       c-0.39-0.33-0.69-0.38-1.07-0.06C33.71,26.69,33.19,26.78,32.68,26.95z"/>
				</g>
			</g>
		</g>
	</g>
	<g>
		<g>
			<g>
				<g>
					<path class="st0" d="M67.77,15.73c-0.48-0.04-0.91,0.17-1.06,0.8c0.24,0.1,0.47,0.3,0.67,0.28c0.9-0.1,1.77,0.34,2.69,0.1       c0.3-0.08,0.73,0.24,1.05,0.44c0.14,0.09,0.16,0.36,0.22,0.51c-0.33,0.41-0.73,0.46-1.13,0.43c-0.32-0.03-0.64-0.1-0.96-0.16       c-0.32-0.06-0.57,0.02-0.72,0.32c0.3,0.57,0.3,0.6,0.97,0.59c0.76-0.01,1.51-0.05,2.24,0.28c0.37,0.17,0.78-0.02,0.95-0.33       c0.16-0.28,0.27-0.75,0.14-1.01c-0.4-0.81-0.91-1.52-1.86-1.86C69.93,15.74,68.84,15.81,67.77,15.73z"/>
				</g>
			</g>
		</g>
	</g>
	<g>
		<g>
			<g>
				<g>
					<path class="st0" d="M23.83,27.08c0.26,0.13,0.54,0.21,0.8,0.33c0.61,0.28,0.99,0.72,0.97,1.43c-0.01,0.29,0,0.58,0.03,0.87       c0.08,0.96,0.35,1.84,1,2.59c0.46,0.06,0.87,0.36,1.47,0.25c-0.2-0.26-0.34-0.46-0.48-0.64c-0.78-0.99-1.29-2.01-0.61-3.28       c0.28-0.53,0.07-1.07-0.13-1.57c-0.07-0.18-0.42-0.41-0.58-0.36c-0.5,0.13-0.81-0.16-1.2-0.33c-0.64-0.27-1.27-0.72-2.12-0.39       C23.02,26.61,23.4,26.87,23.83,27.08z"/>
				</g>
			</g>
		</g>
	</g>
	<g>
		<g>
			<g>
				<g>
					<path class="st0" d="M24.52,22.17c0.86,0.56,1.37,1.25,1.24,2.33c-0.04,0.38-0.05,0.81,0.39,1.04c0.6-0.24,0.17-0.89,0.5-1.24       c0.47-0.21,0.96-0.43,1.49-0.67c-0.11-0.24-0.12-0.32-0.17-0.37c-0.9-0.95-0.81-1.43,0.36-2.04c0.28-0.14,0.55-0.29,0.94-0.49       c-0.23-0.22-0.36-0.43-0.52-0.46c-0.6-0.13-1.1,0.05-1.59,0.47c-1.11,0.97-1.47,0.98-2.57,0.3c-0.05-0.03-0.14-0.01-0.21-0.01       C24,21.71,23.99,21.83,24.52,22.17z"/>
				</g>
			</g>
		</g>
	</g>
	<g>
		<g>
			<g>
				<g>
					<path class="st0" d="M46.37,37.47c1.29,0.61,2.01,0.34,2.68-1.03c-0.58-0.16-1.17-0.3-1.74-0.47       c-0.64-0.18-1.15-0.51-1.51-1.13c-0.37-0.65-0.95-1.07-1.84-0.95c-0.41,0.62-0.56,0.97-0.33,1.31       c0.39,0.59,0.74,1.24,1.38,1.61C45.45,37.05,45.92,37.25,46.37,37.47z"/>
				</g>
			</g>
		</g>
	</g>
	<g>
		<g>
			<g>
				<g>
					<path class="st0" d="M66.74,14.6c0.58-0.39,1.14-0.5,1.83-0.29c0.74,0.22,1.52,0.3,2.35,0.45c-0.04-0.16-0.04-0.31-0.11-0.41       c-0.4-0.53-2.64-1.71-3.28-1.73c-0.21-0.01-0.43,0.01-0.65,0.04c-0.29,0.03-0.57,0.1-0.85,0.12c-0.51,0.03-0.88,0.27-1.15,0.76       c0.03,0.35,0.07,0.73,0.1,1.03C65.63,15.14,66.21,14.96,66.74,14.6z"/>
				</g>
			</g>
		</g>
	</g>
	<g>
		<g>
			<g>
				<g>
					<path class="st0" d="M47.79,12.99c-0.61,0.02-1.14-0.1-1.52-0.63c-0.1-0.13-0.22-0.24-0.43-0.46       c-0.09,0.27-0.19,0.44-0.17,0.57c0.18,0.98,0.53,1.86,1.61,2.42c0.27-0.06,0.65-0.19,1.03-0.23c0.94-0.11,1.87-0.55,2.85-0.12       c0.15,0.07,0.39-0.07,0.68-0.13c-0.66-0.8-1.39-1.3-2.32-1.4C48.95,12.95,48.37,12.97,47.79,12.99z"/>
				</g>
			</g>
		</g>
	</g>
	<g>
		<g>
			<g>
				<g>
					<path class="st0" d="M64.46,33.92c0.65,0.42,1.18,0.76,1.7,1.09c0.34-0.16,0.61-0.26,0.86-0.4c0.48-0.27,0.9-0.6,1.12-1.13       c0.3-0.69,0.09-1.12-0.62-1.29c-0.62-0.15-1.25-0.29-1.92-0.45C64.55,32.06,65.05,33.17,64.46,33.92z"/>
				</g>
			</g>
		</g>
	</g>
	<g>
		<g>
			<g>
				<g>
					<path class="st0" d="M49.22,40.35c-0.46-0.4-0.23-1.01-0.27-1.6c-1.61,0.64-3.13,0.42-4.66-0.24c0.28,1.32,0.42,1.43,1.62,1.53       c0.27,0.02,0.61,0.09,0.79,0.27c0.64,0.65,1.51,0.84,2.3,1.15c0.48,0.19,1.03,0.21,1.63-0.18       C50.1,40.94,49.62,40.7,49.22,40.35z"/>
				</g>
			</g>
		</g>
	</g>
	<g>
		<g>
			<g>
				<g>
					<path class="st0" d="M44.15,11.25c1-0.43,2.01-0.53,3.06-0.22c0.38,0.11,0.78,0.14,1.17,0.16c0.43,0.02,0.76-0.15,0.97-0.56       c-0.08-0.11-0.12-0.24-0.2-0.28c-1.04-0.44-2.13-0.66-3.25-0.59c-0.68,0.04-1.36,0.18-2.02,0.36c-0.36,0.1-0.7,0.35-0.99,0.61       c-0.14,0.13-0.14,0.42-0.21,0.65C43.64,11.45,43.65,11.46,44.15,11.25z"/>
				</g>
			</g>
		</g>
	</g>
	<g>
		<g>
			<g>
				<g>
					<path class="st0" d="M33.46,30.42c-0.15-0.32-0.39-0.6-0.59-0.9c-0.19-0.28-0.45-0.32-0.78-0.23       c-0.24,0.38-0.57,0.78-0.39,1.27c0.39,1.03,1.02,1.92,2.3,1.94c0.64,0.01,1.29,0.03,1.93-0.01c0.2-0.01,0.39-0.18,0.59-0.28       c-0.02-0.1-0.03-0.2-0.05-0.3c-0.35-0.06-0.69-0.11-1.04-0.17C34.59,31.58,33.86,31.27,33.46,30.42z"/>
				</g>
			</g>
		</g>
	</g>
	<g>
		<g>
			<g>
				<g>
					<path class="st0" d="M27.69,18.02c0.52,0.48,1.04,0.96,1.74,1.17c0.9-1.48,0.9-1.48,2.99-2.54c0.01-0.18,0.02-0.39,0.03-0.57       c-0.39-0.28-0.77-0.36-1.16-0.2c-0.43,0.18-0.87,0.38-1.23,0.65c-1.19,0.89-1.18,0.9-2.82,0.61       C27.44,17.55,27.5,17.85,27.69,18.02z"/>
				</g>
			</g>
		</g>
	</g>
	<g>
		<g>
			<g>
				<g>
					<path class="st0" d="M29.84,32.56c-0.19-1.06,0.3-1.78,0.75-2.52c0.13-0.21,0.24-0.44,0.33-0.68c0.13-0.35,0.18-0.7-0.09-1.03       c-0.71-0.29-1.25-0.04-1.66,0.57c-0.18,0.27-0.34,0.55-0.5,0.83c-0.56,0.97-0.12,1.82,0.38,2.62       C29.14,32.49,29.47,32.47,29.84,32.56z"/>
				</g>
			</g>
		</g>
	</g>
	<g>
		<g>
			<g>
				<g>
					<path class="st0" d="M53.93,11.41c0.47-0.05,0.9-0.08,1.37,0.13c0.38,0.17,0.83,0.25,1.23-0.12c-0.22-0.63-0.65-1.08-1.27-1.21       c-1.06-0.22-2.14-0.18-3.19,0.12c-0.67,0.19-0.87,0.53-0.89,1.31C52.14,11.56,53.04,11.51,53.93,11.41z"/>
				</g>
			</g>
		</g>
	</g>
	<g>
		<g>
			<g>
				<g>
					<path class="st0" d="M39.03,14.05c-0.03-0.24,0-0.41-0.07-0.49c-0.5-0.57-1.06-1.04-1.88-1.1c-1.46-0.1-2.47,0.64-3.34,1.68       c-0.2,0.24-0.4,0.52-0.14,0.91C35.11,13.45,36.98,13.65,39.03,14.05z"/>
				</g>
			</g>
		</g>
	</g>
	<g>
		<g>
			<g>
				<g>
					<path class="st0" d="M61.46,12.55c0.59,0.48,1.21,0.54,1.9,0.34c0.08-0.93,0.04-1.12-0.65-1.37c-0.74-0.27-1.51-0.48-2.28-0.63       c-0.7-0.13-1.33,0.12-2.02,0.71c0.45,0.09,0.75,0.16,1.05,0.21C60.18,11.91,60.89,12.08,61.46,12.55z"/>
				</g>
			</g>
		</g>
	</g>
	<g>
		<g>
			<g>
				<g>
					<path class="st0" d="M27.63,34.96c0.24,0.4,0.47,0.86,0.84,1.11c0.68,0.47,1.43,0.85,2.18,1.18c0.42,0.18,0.91,0.2,1.43-0.29       c-0.31-0.16-0.49-0.29-0.69-0.34c-1.09-0.32-1.91-0.99-2.54-1.92c-0.14-0.21-0.28-0.44-0.48-0.58       c-0.18-0.13-0.43-0.16-0.61-0.23C27.39,34.28,27.44,34.64,27.63,34.96z"/>
				</g>
			</g>
		</g>
	</g>
	<g>
		<g>
			<g>
				<g>
					<path class="st0" d="M60.86,24.17c0,0.05,0.01,0.09,0.01,0.14c0.04-0.02,0.09-0.04,0.13-0.06       C60.95,24.22,60.91,24.2,60.86,24.17z"/>
				</g>
			</g>
		</g>
	</g>
	<g>
		<g>
			<g>
				<g>
					<path class="st0" d="M60.87,24.31c-0.01,0-0.01,0.01-0.02,0.01C60.85,24.32,60.87,24.31,60.87,24.31       C60.87,24.31,60.87,24.31,60.87,24.31z"/>
				</g>
			</g>
		</g>
	</g>
</g>
<g>
	<g>
		<g>
			<g>
				<g>
					<path class="st0" d="M197.67,23.15c-0.5-0.26-1.02-0.49-1.51-0.77c-1.57-0.92-3.23-1.28-5.03-0.98       c-0.67,0.11-1.12,0.45-1.25,1.14c-0.05,0.28-0.08,0.56-0.08,0.55c0.23,0.62,0.4,0.97,0.49,1.34c0.07,0.31-0.05,0.67,0.08,0.94       c0.11,0.25,0.43,0.41,0.67,0.63c-0.08,0.22-0.15,0.41-0.23,0.59c-0.1,0.22-0.24,0.43-0.33,0.65c-0.29,0.75-0.15,1.12,0.56,1.63       c0.09,0.07,0.17,0.16,0.28,0.28c-0.19,0.4-0.38,0.8-0.59,1.22c0.23,0.24,0.44,0.48,0.65,0.71c-0.28,1.12-0.34,2.18,0.29,3.22       c0.28-0.07,0.51-0.13,0.73-0.19c0.19-0.75,0.36-1.45,0.54-2.14c0.46,0.05,0.81,0.09,1.2,0.13c0.52-1.03,1.41-1.42,2.53-1.51       c0.48,0.33,1,0.65,1.79,0.41c0.19-0.33,0.43-0.74,0.68-1.17c0.29-0.18,0.6-0.37,0.98-0.59c-0.04-1.09,0.09-2.18,0.53-3.2       c0.02-0.04,0.02-0.08,0.03-0.12c0.15-0.95-0.15-1.43-1.07-1.77c-0.33-0.13-0.65-0.32-0.96-0.49       C198.31,23.51,197.99,23.32,197.67,23.15z"/>
				</g>
			</g>
		</g>
	</g>
	<g>
		<g>
			<g>
				<g>
					<path class="st0" d="M203.28,35.4c0.75,0.78,0.55,2,1.6,2.4c0.29-0.19,0.5-0.33,0.79-0.51c0.28,0.66,0.51,1.23,0.77,1.78       c0.28,0.59,0.69,1,1.47,0.91c0.86-0.92,1.14-1.95,0.74-3.21c-0.3-0.95-0.8-1.87-0.78-2.92c0-0.23-0.15-0.46-0.22-0.69       c-0.26-0.95-0.52-1.91-0.8-2.95c0.5,0.12,0.85,0.3,1.19,0.27c0.32-0.03,0.62-0.29,0.86-0.42c0.36,0.33,0.63,0.73,1.02,0.89       c0.44,0.18,0.97,0.15,1.53,0.22c0.04-0.22,0.15-0.45,0.08-0.58c-0.17-0.31-0.4-0.61-0.65-0.86c-0.91-0.93-1.96-1.74-2.73-2.78       c-0.93-1.25-2.11-2.16-3.41-2.89c-0.72-0.41-1.58-0.71-2.59-0.85c0.19,0.71,0.32,1.31,0.52,1.87c0.24,0.68,0.28,1.31,0.01,2.01       c-0.4,1.02-0.73,2.07-1.03,3.12c-0.14,0.5-0.21,1.03-0.23,1.55c-0.04,1.31,0.67,2.38,1.13,3.49       C202.91,35.32,203.18,35.38,203.28,35.4z"/>
				</g>
			</g>
		</g>
	</g>
	<g>
		<g>
			<g>
				<g>
					<path class="st0" d="M190.06,38.74c-0.05-0.44,0.01-0.97-0.59-1.25c-0.48,0.94-0.05,2.27-1.32,2.7       c-0.47-0.25-0.62-0.58-0.44-1.04c0.17-0.46,0.31-0.93,0.5-1.38c0.18-0.44,0.26-0.85-0.09-1.23c-0.82,0.25-1.36,0.74-1.71,1.86       c-0.59,1.91-0.08,3.6,1.32,5.11c-0.74,1.44-1.13,2.92-0.57,4.52c0.6,0.5,1.24,0.93,2.23,0.62c-0.93-1.18-1.65-2.33-0.43-3.71       c0.89,0.54,1.72,0.03,2.58-0.29c0.18,0.48,0.33,0.89,0.47,1.27c1.18,0.23,1.42,0.17,1.87-0.68c0.26-0.49,0.46-1.04,0.57-1.59       c0.27-1.24-0.2-2.4-0.55-3.56c-0.01-0.04-0.13-0.05-0.22-0.08c-0.45,0.49,0.27,1.64-0.91,1.77c-0.47-0.68-0.06-1.73-1.02-2.12       c-0.61,0.59,0.04,1.73-0.94,2.1c-0.47-0.12-0.6-0.42-0.62-0.82C190.18,40.2,190.14,39.47,190.06,38.74z"/>
				</g>
			</g>
		</g>
	</g>
	<g>
		<g>
			<g>
				<g>
					<path class="st0" d="M179.8,17.55c0.89,0.43,1.83,0.68,2.86,0.52c0.18,0.23,0.32,0.5,0.54,0.66c0.67,0.51,1.62,0.34,2.29,0.95       c0.19,0.17,0.63,0.1,0.95,0.08c0.32-0.02,0.63-0.1,0.89-0.15c0.28,0.21,0.5,0.38,0.75,0.57c0.57-0.3,1.13-0.54,1.63-0.88       c1.05-0.71,2.15-0.95,3.37-0.56c0.81,0.26,1.6,0.58,2.42,0.83c1.01,0.31,2.02,0.61,2.86,1.3c0.13,0.1,0.35,0.09,0.73,0.18       c-1.22-1.25-2.3-2.33-3.34-3.44c-1.07-1.14-2.35-1.54-3.87-1.29c-0.8,0.13-1.62,0.15-2.42,0.29c-0.8,0.13-1.54,0.05-2.25-0.33       c-0.75-0.39-1.56-0.46-2.38-0.36c-1.29,0.15-2.58,0.32-3.87,0.5c-0.51,0.07-1.02,0.21-1.48,0.31       C179.2,17.22,179.5,17.41,179.8,17.55z"/>
				</g>
			</g>
		</g>
	</g>
	<g>
		<g>
			<g>
				<g>
					<path class="st0" d="M185.9,49.95c0.04-0.18-0.13-0.41-0.24-0.73c-1.18,0.73-2.29,1.37-2.4,2.81       c-0.07,1.01-0.02,2.03,0.07,3.03c0.03,0.32,0.3,0.72,0.57,0.88c0.86,0.5,1.07,1.26,1.07,2.17c0,1.05,0.44,1.98,0.89,2.89       c0.37,0.74,1,0.91,1.86,0.64c-0.38-0.54-0.81-1.04-1.1-1.61c-0.28-0.57-0.42-1.21-0.64-1.89c0.47-0.43,0.84-1.02,1.31-1.13       c0.88-0.2,1.52-0.73,2.25-1.14c0.57-0.31,0.96-0.72,1.15-1.35c0.11-0.39,0.36-0.75,0.42-1.14c0.08-0.42,0.07-0.88,0-1.31       c-0.04-0.27-0.25-0.52-0.67-0.38c-0.46,0.72-0.31,1.85-1.46,2.31c-0.23-0.39-0.45-0.76-0.68-1.14       c0.27-0.61,0.53-1.16,0.75-1.72c0.34-0.86,0.14-1.15-0.89-1.35c-0.59,0.32-0.81,0.9-0.95,1.5c-0.17,0.74-0.59,1.32-0.99,1.86       c-0.46,0.12-0.71-0.06-0.84-0.4c-0.17-0.43-0.18-0.86,0.01-1.31C185.61,50.96,185.79,50.46,185.9,49.95z"/>
				</g>
			</g>
		</g>
	</g>
	<g>
		<g>
			<g>
				<g>
					<path class="st0" d="M177.34,65.86c-0.24,0.35-0.23,0.67,0.16,1c0.91-0.12,1.48-0.92,2.29-1.28c1.08,0.15,2.14,0.54,3.22-0.07       c1.28-0.73,1.78-1.16,2.39-2.4c-0.9,0.83-1.66,1.45-2.74,1.08c0.02-0.78,0.41-1.27,0.89-1.73c0.53-0.51,0.63-1.28,0.24-1.88       c-0.4-0.61-0.85-0.8-1.69-0.61c-0.23,0.05-0.44,0.22-0.67,0.29c-0.5,0.14-1.03,0.31-1.55-0.25c0.17-0.2,0.3-0.45,0.51-0.59       c0.19-0.13,0.47-0.12,0.69-0.21c0.63-0.25,0.86-0.65,0.66-1.1c-0.17-0.38-0.53-0.44-1.17-0.22c-1.11,0.38-1.98,1.13-2.83,1.89       c-0.96,0.86-1,2.46-0.21,3.6c0.32-0.06,0.67-0.13,1.03-0.19c0.27,0.53-0.02,0.9-0.26,1.26       C177.99,64.92,177.67,65.39,177.34,65.86z"/>
				</g>
			</g>
		</g>
	</g>
	<g>
		<g>
			<g>
				<g>
					<path class="st0" d="M169.28,36.26c-0.47,0.05-0.94,0.1-1.47,0.16c0.12,0.47,0.35,0.74,0.73,0.81c0.43,0.08,0.9,0.2,1.32,0.11       c1.19-0.23,2.34-0.14,3.48,0.24c0.11,0.04,0.24,0.01,0.53,0.01c0.58-0.51,1.22-1.12,1.9-1.67c0.68-0.55,1.52-0.93,1.98-1.84       c-0.23-0.14-0.41-0.35-0.61-0.37c-0.31-0.02-0.66,0.02-0.94,0.15c-0.36,0.17-0.66,0.47-0.99,0.7       c-0.37,0.26-0.74,0.51-1.23,0.27c-0.29-0.44-0.11-0.79,0.24-1.05c0.81-0.61,1.61-1.25,2.48-1.76c0.73-0.43,1.04-0.97,0.91-1.89       c-0.7-0.54-1.5-0.7-2.23-0.69c-0.74,0.01-1.59,0.22-2.17,0.64c-0.62,0.45-1.1,1.2-1.43,1.92c-0.4,0.88-0.59,1.85-0.84,2.79       C170.66,35.84,170.36,36.14,169.28,36.26z"/>
				</g>
			</g>
		</g>
	</g>
	<g>
		<g>
			<g>
				<g>
					<path class="st0" d="M185.95,27.84c-0.52-0.18-1.01-0.12-1.53,0.09c-0.92,0.37-1.57,0.96-1.98,1.87       c-0.22,0.49-0.34,1.11-0.97,1.35c-0.5-0.23-1-0.45-1.57-0.71c-0.08,0.32-0.22,0.56-0.16,0.69c0.57,1.16,1.15,2.32,2.21,3.13       c0.06,0.04,0.16,0.02,0.38,0.05c0.23-0.19,0.58-0.4,0.82-0.7c0.38-0.49,0.88-0.69,1.46-0.79c0.87-0.14,1.71-0.06,2.5,0.34       c0.44,0.23,0.87,0.45,1.49,0.16c0.3-0.88,0.42-1.75,0.42-2.65c0-0.52-0.2-0.92-0.48-1.34C187.9,28.39,186.9,28.18,185.95,27.84       z"/>
				</g>
			</g>
		</g>
	</g>
	<g>
		<g>
			<g>
				<g>
					<path class="st0" d="M182.25,40.9c-0.02-0.49-0.29-0.84-0.76-1.01c-0.55-0.2-1.08-0.19-1.66,0.01       c-1.05,0.35-1.6,1.19-2.26,1.96c-0.46,0.54-0.71,1.15-0.58,1.79c0.14,0.69,0.47,1.36,0.78,2c0.05,0.11,0.42,0.07,0.71,0.1       c0.17-0.74,0.4-1.37,0.31-2.09c-0.09-0.77,0.25-1.43,0.78-1.97c0.16-0.16,0.46-0.19,0.87-0.35c-0.16,0.87-0.37,1.53-0.39,2.2       c-0.05,1.74-0.55,3.36-1.04,5c-0.08,0.26-0.13,0.58-0.04,0.81c0.47,1.26,1.29,2.23,2.66,2.8c0.16-0.29,0.29-0.55,0.39-0.73       c-0.42-0.46-0.8-0.78-1.05-1.18c-0.45-0.71-0.28-1.45,0.45-1.88c0.45-0.27,0.97-0.39,1.45-0.6c0.98-0.42,1.6-0.83,1.4-1.98       c-0.94-0.3-1.39,0.71-2.24,0.87c-0.16-0.16-0.36-0.35-0.59-0.58c0.24-0.58,0.48-1.14,0.74-1.77c-0.2-0.6-0.26-1.26-0.02-1.96       C182.31,41.91,182.27,41.39,182.25,40.9z"/>
				</g>
			</g>
		</g>
	</g>
	<g>
		<g>
			<g>
				<g>
					<path class="st0" d="M155.13,68.23c-0.2,0.44-0.07,0.84,0.49,1.21c0.44-1.13,1.35-1.68,2.3-2.19c0.74,0.78,0.72,1.55,0.25,2.39       c-0.24,0.43-0.53,0.88-0.42,1.49c1-0.14,1.81-0.44,2.24-1.21c0.82-0.13,1.55-0.21,2.26-0.37c1.09-0.26,2.02-1.48,2.02-2.6       c0-0.34-0.15-0.68-0.24-1.08c-0.66,0.26-0.87,0.68-1.04,1.21c-0.2,0.64-0.44,0.7-1.28,0.49c0.13-0.3,0.25-0.59,0.38-0.87       c0.22-0.48,0.46-0.95,0.66-1.43c0.19-0.45,0.14-0.87-0.3-1.17c-0.42-0.06-0.73,0.11-0.94,0.45c-0.32,0.52-0.63,1.04-0.93,1.57       c-0.19,0.33-0.27,0.75-0.76,0.93c-0.1-0.23-0.24-0.41-0.23-0.58c0.03-0.74,0.19-1.43,0.73-2.01c0.4-0.44,0.92-0.81,1.05-1.44       c-0.6-0.61-1.01-0.73-1.56-0.26c-0.58,0.49-1.13,1.06-1.55,1.69c-0.44,0.65-0.87,1.28-1.56,1.68       C155.86,66.59,155.51,67.42,155.13,68.23z"/>
				</g>
			</g>
		</g>
	</g>
	<g>
		<g>
			<g>
				<g>
					<path class="st0" d="M200.01,46.04c-0.46-0.53-0.97-0.84-1.83-0.61c0.07,0.26,0.06,0.5,0.17,0.64c0.77,0.95,1,2.11,1.32,3.25       c0.32,1.15-0.35,2.67-1.44,3.14c-0.23,0.1-0.52,0.07-0.76,0.09c-0.29-0.67-0.05-1.18,0.18-1.7c0.32-0.74,0.56-1.5,0.26-2.3       c-0.14,0.01-0.23,0-0.29,0.04c-0.1,0.06-0.21,0.13-0.28,0.22c-0.85,1.15-1.81,2.18-3.01,2.97c-0.44,0.29-0.6,0.74-0.47,1.29       c0.39,1.61,1.06,3.03,2.44,4.06c0.63,0.47,1.26,0.67,2.14,0.46c-0.05-0.29-0.02-0.61-0.16-0.79c-0.27-0.35-0.6-0.68-0.96-0.91       c-0.68-0.44-0.93-1.06-1-1.75c0.98-0.32,1.89-0.64,2.81-0.89c0.59-0.16,0.99-0.53,1.33-1       C201.73,50.42,201.54,47.78,200.01,46.04z"/>
				</g>
			</g>
		</g>
	</g>
	<g>
		<g>
			<g>
				<g>
					<path class="st0" d="M191.79,57.06c-0.45-0.25-0.81-0.13-1.09,0.11c-0.41,0.33-0.85,0.67-1.13,1.1       c-0.35,0.53-0.66,1.14-0.77,1.76c-0.1,0.54,0.42,0.9,0.8,1.28c0.59,0.57,0.56,1.06-0.02,1.69c-1.05,1.15-1.06,1.84-0.13,3.1       c0.29,0.38,0.48,0.84,0.72,1.26c0.09,0.16,0.18,0.31,0.27,0.47c0.17-0.39,0.18-0.74,0.09-1.07c-0.23-0.83,0.06-1.51,0.5-2.18       c0.56-0.84,1.11-1.69,1.68-2.53c0.18-0.26,0.38-0.51,0.61-0.8c0.25,0.09,0.46,0.17,0.68,0.25c0.04,0.8-0.35,1.38-0.64,2       c-0.21,0.44-0.41,0.86-0.11,1.36c0.16-0.06,0.33-0.06,0.38-0.14c0.53-0.95,1.03-1.9,1.54-2.86c0.02-0.03,0.02-0.08,0.02-0.12       c-0.04-0.93-0.04-1.87-0.13-2.8c-0.05-0.57-0.25-1.12-0.9-1.33c-0.57,0.13-0.91,0.48-1.07,1.04c-0.09,0.31-0.21,0.62-0.35,0.91       c-0.15,0.29-0.31,0.58-0.53,0.81c-0.41,0.42-0.92,0.28-1.15-0.26c-0.22-0.51-0.08-0.94,0.16-1.39       C191.49,58.18,191.84,57.67,191.79,57.06z"/>
				</g>
			</g>
		</g>
	</g>
	<g>
		<g>
			<g>
				<g>
					<path class="st0" d="M175.24,81.38c-0.73,0.13-1.43,0.41-2.31,0.67c0.34,0.25,0.5,0.45,0.71,0.5c0.31,0.07,0.67,0.13,0.96,0.03       c1.24-0.44,2.62-0.56,3.51-1.77c0.44-0.6,0.64-0.87,0.24-1.48c-0.35-0.55-0.75-1.06-1.16-1.57c-0.6-0.75-1.07-1.53-0.94-2.55       c0.02-0.17-0.1-0.36-0.19-0.63c-0.25,0.14-0.42,0.23-0.58,0.33c-0.2,0.12-0.39,0.25-0.69,0.44c-0.11-0.56-0.19-1.01-0.3-1.57       c-0.79,0.53-1.02,1.64-2.13,1.63c-0.57-1.25,0.88-2.09,0.72-3.44c-0.31,0.17-0.49,0.22-0.58,0.33       c-0.62,0.85-1.25,1.7-1.81,2.59c-0.31,0.49-0.07,1.18,0.44,1.49c0.39,0.24,0.81,0.32,1.28,0.19c0.55-0.16,1.03-0.03,1.3,0.66       c-0.64,0.64-1.27,1.23-2.24,1.13c-0.03,0.16-0.08,0.25-0.05,0.31c0.05,0.1,0.12,0.24,0.21,0.27c1.2,0.39,2.38,0.52,3.49-0.29       c0.19-0.14,0.42-0.26,0.64-0.31c0.9-0.19,1.46,0.37,1.22,1.25C176.75,80.49,176.28,81.18,175.24,81.38z"/>
				</g>
			</g>
		</g>
	</g>
	<g>
		<g>
			<g>
				<g>
					<path class="st0" d="M171.67,53.99c-0.58-0.14-0.98,0.14-1.32,0.58c-0.3,0.39-0.53,0.85-0.9,1.14       c-0.57,0.44-0.85,1.01-0.94,1.65c-0.12,0.84-0.14,1.69-0.12,2.54c0.02,0.74,0.58,1.23,1.03,1.75c0.35,0.4,0.82,0.26,1.26,0.25       c0.07,0,0.15,0.06,0.3,0.12c0,0.27,0,0.57,0,0.81c-0.59,0.51-1.28,0.77-1.77,1.37c1.15,0.52,2.13,0.5,3.01-0.36       c0.23-0.22,0.56-0.35,0.78-0.58c0.63-0.66,1.35-1.3,1.24-2.3c-0.63-0.6-1.14,0.15-1.68,0c-1.07-0.5-0.43-1.39-0.42-2.07       c-0.69-0.85-1.18,0.32-1.86,0.05c-0.12-1.18,0.96-1.87,1.18-2.89C171.53,55.38,171.59,54.71,171.67,53.99z"/>
				</g>
			</g>
		</g>
	</g>
	<g>
		<g>
			<g>
				<g>
					<path class="st0" d="M177.53,50.85c-0.6-0.93-1.05-1.25-1.58-1c-0.5,0.24-1.14,0.53-1.35,0.98c-0.64,1.33-1.39,2.71-0.41,4.23       c0.28,0.44,0.49,0.92,0.75,1.37c0.37,0.63,0.54,1.27,0.26,1.97c-0.04,0.11-0.13,0.24-0.11,0.34c0.09,0.38,0.18,0.78,0.37,1.12       c0.07,0.13,0.41,0.12,0.77,0.2c0.03-0.66,0.1-1.22,0.07-1.78c-0.07-1.27,0.04-1.47,1.22-1.82c1.37-0.41,2.41-1.66,2.49-2.98       c0.03-0.54-0.03-0.6-0.85-0.78c-0.19,0.37-0.39,0.76-0.62,1.22c-0.35,0.13-0.76,0.29-1.14,0.43c-0.76-0.57-0.76-1.21-0.48-1.91       C177.14,51.89,177.34,51.33,177.53,50.85z"/>
				</g>
			</g>
		</g>
	</g>
	<g>
		<g>
			<g>
				<g>
					<path class="st0" d="M201.76,20.64c0.55-0.22,0.82-0.67,1.12-1.11c0.3-0.43,0.57-0.93,0.97-1.24c0.67-0.51,1.14-1.15,1.61-1.8       c0.45-0.64,0.97-1.17,1.64-1.6c0.64-0.41,1.22-0.94,1.76-1.5c0.44-0.45,0.71-1.02,0-1.77c-0.28,0.1-0.57,0.19-0.86,0.31       c-0.81,0.35-1.58,0.81-2.42,1.04c-1.06,0.29-1.82,0.83-2.3,1.8c-0.11,0.22-0.22,0.45-0.39,0.61c-1.11,0.98-1.72,2.32-2.56,3.4       C200.53,19.71,201.12,20.18,201.76,20.64z"/>
				</g>
			</g>
		</g>
	</g>
	<g>
		<g>
			<g>
				<g>
					<path class="st0" d="M203.91,41.51c-0.47,0-0.9,0.01-1.24,0.01c-1.51,1.81-1.09,3.3-0.27,4.94c0.71,0.51,0.94,1.27,1.17,2.06       c0.19,0.65,0.7,0.94,1.39,0.98c1.09,0.05,1.9-0.4,2.46-1.29c0.92-1.44,0.91-3.08,0.92-4.71c0-0.25-0.19-0.53-0.37-0.74       c-0.1-0.11-0.34-0.11-0.56-0.16c-0.27,0.93,0.37,1.79-0.06,2.6c-0.39,0.74-0.43,1.73-1.54,2.25c-0.12-0.86-0.28-1.47,0.02-2.12       c0.18-0.39,0.14-0.84-0.22-1.24c-0.65,0.51-0.69,1.47-1.55,1.73c-0.69-0.6-0.68-1.29-0.36-2       C204.06,43.08,204.16,42.36,203.91,41.51z"/>
				</g>
			</g>
		</g>
	</g>
	<g>
		<g>
			<g>
				<g>
					<path class="st0" d="M166.66,63.22c0.25-0.24,0.49-0.41,0.66-0.63c0.74-0.92,0.6-1.52-0.42-2.16c-0.33-0.2-0.59-0.51-0.86-0.74       c0.16-0.59,0.27-1.06,0.43-1.52c0.09-0.27,0.25-0.51,0.38-0.76c0.43-0.88,0.2-1.49-0.72-1.81c-0.61-0.21-1.21-0.16-1.75,0.2       c-1.44,0.95-1.69,1.58-1.34,3.3c0.03,0.15,0.05,0.31,0.07,0.45c-0.31,0.32-0.6,0.6-0.87,0.9c-0.47,0.52-0.46,0.52,0,1.41       c0.96-0.09,1.54-1.02,2.61-0.89c-0.1,0.57-0.19,1.08-0.27,1.55C165.1,63.45,165.98,62.98,166.66,63.22z"/>
				</g>
			</g>
		</g>
	</g>
	<g>
		<g>
			<g>
				<g>
					<path class="st0" d="M198.61,34.55c-0.16-0.52-0.47-0.97-1.05-1.07c-0.94-0.17-1.81,0.05-2.44,0.77       c-0.48,0.54-0.88,1.17-1.26,1.8c-0.33,0.53-0.47,1.12-0.13,1.75c0.64-0.01,1.08-0.29,1.38-0.84c0.17-0.31,0.41-0.62,0.68-0.85       c0.76-0.64,1.61-0.36,1.87,0.6c0.04,0.15,0.03,0.32,0.04,0.48c0.09,0.99,0.24,1.94,1.2,2.52c0.34,0.21,0.49,0.56,0.46,0.94       c-0.04,0.64-0.14,1.28-0.19,1.93c-0.03,0.33-0.23,0.69,0.05,0.99c0.14-0.04,0.23-0.05,0.29-0.09c0.88-0.63,1-1.63,1.24-2.57       c0.34-1.34,0.11-2.49-1.06-3.36c-0.59-0.44-0.85-1.06-0.89-1.79C198.76,35.35,198.72,34.94,198.61,34.55z"/>
				</g>
			</g>
		</g>
	</g>
	<g>
		<g>
			<g>
				<g>
					<path class="st0" d="M188.15,69.53c0.37-0.61,0.46-1.2,0.17-1.85c-0.29-0.64-0.78-0.81-1.38-0.41       c-0.4,0.27-0.74,0.63-1.09,0.97c-0.29,0.28-0.58,0.4-0.98,0.13c0.08-0.18,0.12-0.34,0.2-0.47c0.11-0.17,0.28-0.3,0.39-0.47       c0.37-0.61,0.2-1-0.58-1.35c-0.55,0.4-1.08,0.85-1.66,1.21c-1,0.62-1.47,1.47-1.33,2.65c0.8,1.03,1.59,0.15,2.39-0.06       c0.07,0.17,0.16,0.29,0.14,0.38c-0.23,1.01-1.34,1.24-1.76,2.25c0.3-0.05,0.61-0.07,0.89-0.17c0.69-0.25,1.4-0.46,2.03-0.82       C186.54,71.01,187.54,70.53,188.15,69.53z"/>
				</g>
			</g>
		</g>
	</g>
	<g>
		<g>
			<g>
				<g>
					<path class="st0" d="M172.82,65.59c-0.67,0.68-0.66,1.23,0.1,1.85c0.83,0.69,1.31,1.53,1.48,2.58c0.04,0.23,0.14,0.46,0.2,0.65       c1.43,0.58,1.99,0.45,4.23-0.99c0.17-0.7,0.35-1.43,0.56-2.3c-1.15,0.25-1.47,1.65-2.61,1.54c-0.38-0.39-0.73-0.76-1.11-1.15       c0.19-0.36,0.39-0.71,0.56-1.06c0.23-0.46,0.24-0.93,0.12-1.43c-0.27-1.11-1.15-1.49-2.11-0.86       C173.73,64.76,173.25,65.16,172.82,65.59z"/>
				</g>
			</g>
		</g>
	</g>
	<g>
		<g>
			<g>
				<g>
					<path class="st0" d="M165.24,51.47c-0.21,1.04,0.36,1.9,1.58,2.36c-0.14-0.61-0.22-1.16-0.38-1.69       c-0.3-0.97,0.11-1.74,0.65-2.46c0.11-0.15,0.41-0.16,0.62-0.24c0.5,0.63,0.04,1.14-0.07,1.69c0.17,0.47,0.21,1.04,0.87,1.13       c0.09-0.06,0.19-0.09,0.22-0.15c0.49-1.11,1-2.21,1.43-3.34c0.21-0.54-0.15-1.04-0.78-1.13c-0.42-0.06-0.82-0.02-0.97-0.51       c0.02-0.51,0.34-0.81,0.69-1.11c0.32-0.27,0.58-0.58,0.25-1.12c-1.38,0.18-2.24,1.2-3.35,1.96c-0.01,0.35-0.08,0.6-0.02,0.83       c0.18,0.71,0,1.37-0.22,2.03C165.57,50.29,165.36,50.87,165.24,51.47z"/>
				</g>
			</g>
		</g>
	</g>
	<g>
		<g>
			<g>
				<g>
					<path class="st0" d="M161.45,44.29c-0.23-0.01-0.47,0.04-0.85,0.09c0.9,1.27,1.69,1.43,3.67,0.84       c0.33-0.52,0.72-1.09,1.06-1.69c0.33-0.58,0.76-0.9,1.43-0.87c0.21,0.57,0.4,1.09,0.57,1.55c0.26,0.04,0.38,0.09,0.49,0.07       c1.48-0.33,2.03-1.22,1.67-2.65c-0.07-0.28-0.12-0.56-0.22-0.83c-0.29-0.73-1.01-1.14-1.77-0.93       c-0.79,0.22-1.53,0.59-2.08,1.22c-0.51,0.58-0.95,1.22-1.41,1.84C163.38,43.79,162.58,44.34,161.45,44.29z"/>
				</g>
			</g>
		</g>
	</g>
	<g>
		<g>
			<g>
				<g>
					<path class="st0" d="M199.72,61.83c0.8-0.52,1.48-1.21,1.83-2.08c0.76-1.86,0.55-3.71-0.24-5.61c-0.77,0.44-1.18,0.96-1.02,1.8       c0.07,0.36,0.13,0.72,0.22,1.08c0.15,0.62,0.08,1.22-0.24,1.77c-0.68,1.18-1.57,2.17-2.8,2.8c-0.98,0.5-1.22,1.02-0.71,1.95       c0.41,0.74,0.91,1.45,1.45,2.1c0.34,0.41,0.87,0.56,1.43,0.35c0.31-0.72-0.13-1.2-0.45-1.7       C198.27,62.78,198.26,62.78,199.72,61.83z"/>
				</g>
			</g>
		</g>
	</g>
	<g>
		<g>
			<g>
				<g>
					<path class="st0" d="M178.41,36.14c-1.06,0.58-2.11,1.16-2.75,2.3c-0.48,0.86-1.32,1.29-2.37,1.14       c-0.64-0.09-1.29-0.11-1.93-0.19c-0.46-0.06-0.89-0.1-1.31,0.39c0.48,0.8,1.29,0.94,2.03,1c0.89,0.07,1.77,0.11,2.64,0.37       c0.57,0.17,1.13,0.01,1.49-0.53c0.81-1.24,1.78-2.28,3.27-2.68c0.61-0.16,1.25-0.25,1.9-0.37c0.02-0.08,0.11-0.22,0.08-0.3       C180.98,36.09,179.51,35.53,178.41,36.14z"/>
				</g>
			</g>
		</g>
	</g>
	<g>
		<g>
			<g>
				<g>
					<path class="st0" d="M160.76,49.41c-0.33,1.13-0.56,2.28-0.82,3.35c-1.71,0.91-1.71,0.91-2.12,1.67       c0.31,0.5,0.76,0.4,1.16,0.18c0.5-0.28,0.99-0.33,1.52-0.16c0.18,0.05,0.38,0.04,0.51,0.06c0.43-0.38,0.37-0.81,0.29-1.2       c-0.22-0.99,0.06-1.93,0.2-2.89c0.03-0.23,0.15-0.48,0.31-0.64c0.15-0.16,0.4-0.28,0.62-0.3c0.16-0.01,0.33,0.17,0.45,0.24       c0.2,1.24-0.69,2.46,0.15,3.6c0.77-0.29,0.78-0.3,0.9-0.99c0.15-0.88,0.24-1.78,0.48-2.63c0.26-0.89,0.06-1.51-0.82-2.01       c-0.34,0.04-0.69,0.01-0.98,0.12C161.8,48.09,161.02,48.51,160.76,49.41z"/>
				</g>
			</g>
		</g>
	</g>
	<g>
		<g>
			<g>
				<g>
					<path class="st0" d="M171.18,51.43c0.32-0.23,0.64-0.51,0.86-0.83c0.54-0.81,1.03-1.65,1.55-2.48c0.06-0.09,0.17-0.15,0.3-0.25       c0.2,0.27,0.39,0.51,0.63,0.83c0.6-0.29,1.17-0.57,1.76-0.85c-0.13-0.97-0.2-1.84-0.59-2.68c-0.47-0.05-0.91-0.09-1.38-0.14       c-0.32,0.47-0.6,0.89-0.89,1.31c-0.17-0.03-0.3-0.03-0.4-0.07c-0.1-0.05-0.18-0.15-0.31-0.26c0.32-1.16,1.02-2.07,2.02-2.86       c-1.83-0.05-3,1.12-2.83,2.71c0.06,0.57,0.11,1.13,0.19,1.7c0.09,0.66-0.05,1.28-0.26,1.91c-0.24,0.72-0.74,1.22-1.34,1.63       C170.66,51.48,170.9,51.64,171.18,51.43z"/>
				</g>
			</g>
		</g>
	</g>
	<g>
		<g>
			<g>
				<g>
					<path class="st0" d="M175.45,26.67c1.21-0.16,1.31-0.13,1.92,0.94c0.24,0.42,0.49,0.85,1.18,0.77c0.35-1.39,0.13-2.9,0.83-4.13       c-0.37-1.02-1.14-1.14-1.93-1.04c-1.56,0.2-2.99,1.62-3.4,3.3C174.51,27.08,175,26.73,175.45,26.67z"/>
				</g>
			</g>
		</g>
	</g>
	<g>
		<g>
			<g>
				<g>
					<path class="st0" d="M162.06,73.53c-0.01,0.68,0.07,1.37,0.12,2.15c0.49,0.29,0.9,0.53,1.24,0.74c0.7-0.35,1.01-0.86,1.27-1.42       c0.2-0.43,0.45-0.85,0.72-1.23c0.41-0.59,0.6-1.24,0.54-1.94c-0.07-0.74-0.64-1.21-1.31-1.12       C163.43,70.87,162.08,72.31,162.06,73.53z"/>
				</g>
			</g>
		</g>
	</g>
	<g>
		<g>
			<g>
				<g>
					<path class="st0" d="M171.09,67.26c0.13-0.32,0.11-0.65-0.21-0.87c-0.32-0.23-0.68-0.28-1.03-0.07       c-0.9,0.55-1.6,2.36-1.28,3.35c0.21,0.66,0.45,1.31,0.7,1.95c0.3,0.77,1.39,1.04,1.89,0.41c0.5-0.63,0.92-1.34,1.3-2.06       c0.14-0.26,0.13-0.64,0.07-0.94c-0.04-0.2-0.26-0.42-0.46-0.53c-0.14-0.08-0.37,0.02-0.53,0.04c-0.32,0.63-0.16,1.55-1.25,1.52       c-0.12-0.88-0.12-0.88,0.17-1.49C170.67,68.14,170.9,67.71,171.09,67.26z"/>
				</g>
			</g>
		</g>
	</g>
	<g>
		<g>
			<g>
				<g>
					<path class="st0" d="M180.54,81.15c0.56-0.56,0.22-1.28,0.65-1.89c0.38-0.15,0.86-0.4,1.36-0.54c1.03-0.29,1.62-1.04,2.08-1.92       c0.46-0.89,0.25-1.74-0.31-2.51c-0.11-0.15-0.4-0.18-0.68-0.31c-0.34,2.04-1.68,3.03-3.48,3.57c-0.12,0.97-0.11,1.89,0.04,2.81       C180.24,80.62,180.4,80.85,180.54,81.15z"/>
				</g>
			</g>
		</g>
	</g>
	<g>
		<g>
			<g>
				<g>
					<path class="st0" d="M178.58,76.68c0.25,0.05,0.6,0.04,0.8-0.11c0.79-0.57,1.56-1.16,2.29-1.8c0.39-0.34,0.53-0.82,0.24-1.32       c-0.2-0.35-0.4-0.7-0.64-1.02c-0.24-0.32-0.52-0.61-0.77-0.93c-0.47-0.6-0.96-0.67-1.54-0.17c-0.24,0.21-0.47,0.46-0.65,0.72       c-0.47,0.7-0.13,1.51,0.68,1.67c0.3,0.06,0.61,0.09,0.91,0.13c-0.01,0.75-0.01,0.75-1.85,2.32       C178.26,76.39,178.39,76.64,178.58,76.68z"/>
				</g>
			</g>
		</g>
	</g>
	<g>
		<g>
			<g>
				<g>
					<path class="st0" d="M196.06,65.48c0.03-0.52-0.19-1.01-0.88-1.3c-0.16,0.52-0.29,0.97-0.43,1.42       c-0.41,1.32-1.04,2.44-2.38,3.07c-1.5,0.7-1.49,0.73-1.09,2.29c0.11,0.44,0.14,0.95,0.65,1.33c0.25-0.85,0.48-1.62,0.71-2.38       c0.31-0.1,0.61-0.14,0.84-0.28c0.58-0.36,1.27-0.65,1.67-1.17C195.81,67.62,196.01,66.54,196.06,65.48z"/>
				</g>
			</g>
		</g>
	</g>
	<g>
		<g>
			<g>
				<g>
					<path class="st0" d="M168.72,84.7c0.24-0.14,0.49-0.21,0.64-0.38c0.63-0.68,1.27-1.36,1.85-2.09c0.52-0.65,0.51-1.34-0.1-2.01       c-0.54-0.18-1.12-0.37-1.7-0.55c-0.07-0.02-0.16-0.02-0.25-0.03c-0.09,0.07-0.22,0.12-0.28,0.21       c-0.17,0.27-0.33,0.55-0.47,0.84c-0.23,0.46-0.59,0.65-1.09,0.57c-0.3-0.05-0.6-0.12-1.1-0.22c0.57,1.39,1.91,1.32,2.64,1.92       C169.13,83.63,168.31,84.06,168.72,84.7z"/>
				</g>
			</g>
		</g>
	</g>
	<g>
		<g>
			<g>
				<g>
					<path class="st0" d="M181.32,26.44c0.76-1.29,1.64-2.42,3.27-2.79c-0.22-1.19-0.59-1.6-1.41-1.66       c-0.84-0.06-1.56,0.34-2.03,0.92c-0.86,1.07-1.17,2.36-1,3.75c0.03,0.22,0.12,0.44,0.2,0.7       C180.97,27.28,181.11,26.8,181.32,26.44z"/>
				</g>
			</g>
		</g>
	</g>
	<g>
		<g>
			<g>
				<g>
					<path class="st0" d="M158.2,58.95c0.29,1.5,0.47,1.64,1.85,1.53c0.45-0.4,0.57-0.96,0.55-1.53c-0.02-0.57,0.14-1.02,0.51-1.43       c0.09-0.1,0.07-0.3,0.12-0.54c-0.54-0.28-1.06-0.56-1.67-0.88c-0.94,0.8-1.85,1.58-2.9,2.47       C157.32,58.74,157.78,58.85,158.2,58.95z"/>
				</g>
			</g>
		</g>
	</g>
	<g>
		<g>
			<g>
				<g>
					<path class="st0" d="M166.11,77.23c0.26,0.57,0.43,1.12,0.31,1.76c-0.06,0.32,0.08,0.62,0.46,0.71       c0.53-0.75,0.68-1.58,0.68-2.41c0.47-0.4,0.94-0.74,1.32-1.15c0.46-0.5,0.31-1.15,0.28-1.75c-0.04-0.63-0.31-1.08-1.18-1.23       c-0.2,0.62-0.28,1.26-0.59,1.75c-0.33,0.53-0.87,0.93-1.39,1.47C166.02,76.6,165.98,76.95,166.11,77.23z"/>
				</g>
			</g>
		</g>
	</g>
	<g>
		<g>
			<g>
				<g>
					<path class="st0" d="M168.85,34.46c0.24-0.09,0.49-0.31,0.62-0.54c0.39-0.66,0.77-1.33,0.8-2.12       c-0.97-0.66-1.64-0.64-2.38,0.09c-0.26,0.26-0.5,0.53-0.76,0.79c-0.72,0.68-1,1.54-1.07,2.7       C167.1,35.04,167.98,34.78,168.85,34.46z"/>
				</g>
			</g>
		</g>
	</g>
	<g>
		<g>
			<g>
				<g>
					<path class="st0" d="M166.92,65.59c-0.51,0.51-1,1.07-1.37,1.69c-0.63,1.03,0.16,2.97,1.31,3.35c0.2,0.07,0.45,0,0.75-0.01       c0-0.3,0.08-0.58-0.02-0.76c-0.53-0.97-0.31-1.85,0.19-2.75c0.31-0.56,0.57-1.16,0.31-2.07       C167.61,65.25,167.18,65.33,166.92,65.59z"/>
				</g>
			</g>
		</g>
	</g>
	<g>
		<g>
			<g>
				<g>
					<path class="st0" d="M189.93,73.35c0.05-0.32,0.04-0.66,0.16-0.95c0.32-0.79,0.05-1.52-0.17-2.25       c-0.12-0.41-0.39-0.59-0.95-0.56c-0.35,0.47-0.74,1.01-1.08,1.48c0.39,0.58,0.7,1.03,0.94,1.4c-0.33,1.47-1.89,1.54-2.53,2.74       C188.1,75.52,189.01,74.42,189.93,73.35z"/>
				</g>
			</g>
		</g>
	</g>
	<g>
		<g>
			<g>
				<g>
					<path class="st0" d="M166.33,38.81c0.08-0.15,0.19-0.32,0.26-0.51c0.14-0.4,0.21-0.82-0.17-1.11       c-0.33-0.25-0.72-0.32-1.14-0.16c-1.74,0.67-3.13,2.74-3.04,4.57c0,0.06,0.1,0.11,0.22,0.25       C164.06,39.69,164.06,39.69,166.33,38.81z"/>
				</g>
			</g>
		</g>
	</g>
	<g>
		<g>
			<g>
				<g>
					<path class="st0" d="M203.53,55.95c0.3-0.33,0.54-0.71,0.84-1.04c0.87-0.97,0.83-2.15,0.8-3.32c0-0.15-0.08-0.31-0.16-0.45       c-0.27-0.44-0.79-0.62-1.27-0.45c-0.45,0.17-0.59,0.52-0.54,0.97c0.02,0.16,0.03,0.32,0.05,0.48c0.25,2.24,0.25,2.24-0.4,4.27       C203.22,56.17,203.41,56.09,203.53,55.95z"/>
				</g>
			</g>
		</g>
	</g>
	<g>
		<g>
			<g>
				<g>
					<path class="st0" d="M156.72,72.4c-0.13-0.13-0.27-0.24-0.6-0.54c-0.02,1.09,0.49,1.56,1,2c0.61,0.53,1.25,1.11,2.11,1.1       c0.4-0.01,1-0.2,1.16-0.49c0.34-0.65,0.62-1.38,0.49-2.24c-0.69,0.04-1.21,0.37-1.74,0.63       C158.19,73.32,157.43,73.09,156.72,72.4z"/>
				</g>
			</g>
		</g>
	</g>
	<g>
		<g>
			<g>
				<g>
					<path class="st0" d="M160.77,77.49c0.9,2.07,2.05,2.47,4.31,1.54c0.07-0.35,0.14-0.74,0.21-1.11       c-0.42-0.57-0.87-0.61-1.29-0.39c-0.92,0.46-1.8,0.28-2.7-0.04C161.16,77.43,160.98,77.48,160.77,77.49z"/>
				</g>
			</g>
		</g>
	</g>
	<g>
		<g>
			<g>
				<g>
					<path class="st0" d="M196.42,47.21c0.36-0.36,0.52-0.85,0.38-1.34c-0.16-0.54-0.56-0.86-1.18-0.92       c-1.13,1.17-1.27,2.69-1.65,4.12c0.1,0.06,0.19,0.12,0.29,0.18C194.98,48.57,195.72,47.91,196.42,47.21z"/>
				</g>
			</g>
		</g>
	</g>
	<g>
		<g>
			<g>
				<g>
					<path class="st0" d="M191.99,37.83c-0.02-0.3-0.21-0.61-0.39-0.87c-0.27-0.38-0.41-0.37-1.01-0.02c-0.02,0.72,0.47,1.14,1,1.69       C191.77,38.3,192.01,38.05,191.99,37.83z"/>
				</g>
			</g>
		</g>
	</g>
</g>
</svg>