<?xml version="1.0" encoding="UTF-8"?>
<!-- Generator: Adobe Illustrator 26.5.0, SVG Export Plug-In . SVG Version: 6.00 Build 0)  -->
<svg version="1.1" id="Layer_1" xmlns="http://www.w3.org/2000/svg" xmlns:xlink="http://www.w3.org/1999/xlink" x="0px" y="0px" viewBox="0 0 225.88 143.85" style="enable-background:new 0 0 225.88 143.85;" xml:space="preserve">
<style type="text/css">
	.st0{fill:#FCCFC6;}
</style>
<g>
	<g>
		<g>
			<path class="st0" d="M183.47,108.6c0,0-0.01,0.01-0.01,0.01C183.47,108.61,183.47,108.61,183.47,108.6L183.47,108.6z"/>
		</g>
	</g>
	<g>
		<g>
			<path class="st0" d="M216.39,117.79c-0.27-0.06-0.55-0.1-0.82-0.13c-0.94-0.11-1.88-0.21-2.82-0.32     c-0.63-0.08-1.26-0.19-1.9-0.27c-1.03-0.13-2.05-0.2-3.07-0.3c-0.36-0.03-0.73-0.07-1.04-0.26c-0.04-0.02-0.08-0.07-0.06-0.11     c0.01-0.02,0.03-0.02,0.05-0.03c0.15-0.04,0.3-0.04,0.46-0.03c1.34,0.04,2.66-0.13,4.01-0.23c0.05,0,0.1-0.02,0.14-0.03     c1.15-0.15,2.3-0.35,3.46-0.42c0.79-0.05,1.56-0.17,2.33-0.32c0.13-0.02,0.24-0.11,0.36-0.17c0-0.04,0-0.09,0-0.13     c-0.14-0.06-0.27-0.13-0.41-0.16c-0.7-0.14-1.48-0.07-2.2-0.06c-0.79,0.02-1.57,0.06-2.35,0.12c-1.57,0.12-3.13,0.31-4.7,0.47     c-0.14,0.01-0.28,0.03-0.42,0.04c-0.06,0.01-0.13,0.01-0.18-0.03c-0.07-0.05-0.06-0.16-0.01-0.23c0.05-0.07,0.13-0.1,0.21-0.14     c1.74-0.71,3.6-1,5.33-1.75c1.64-0.72,3.35-1.22,5.05-1.78c0.14-0.05,0.26-0.13,0.49-0.25c-0.44-0.18-0.76-0.09-1.07-0.03     c-0.45,0.09-0.9,0.19-1.34,0.3c-0.57,0.13-1.15,0.26-1.72,0.41c-0.57,0.15-1.13,0.34-1.69,0.51c-1.05,0.32-2.1,0.62-3.14,0.98     c-0.79,0.27-1.55,0.62-2.33,0.92c-1.12,0.52-2.21,1.13-3.24,1.82c-0.08,0.05-0.17,0.1-0.25,0.06c-0.07-0.04-0.09-0.14-0.06-0.21     c0.03-0.07,0.09-0.13,0.15-0.18c0.71-0.6,1.46-1.15,2.25-1.64c0.36-0.22,0.73-0.44,1.03-0.74c0.49-0.49,0.97-0.98,1.49-1.45     c1.09-0.96,2.19-1.92,3.27-2.89c0.28-0.25,0.55-0.53,0.75-0.95c-0.15,0.04-0.23,0.04-0.3,0.07c-0.86,0.54-1.73,1.06-2.55,1.65     c-0.69,0.5-1.3,1.1-1.96,1.63c-0.55,0.44-1.13,0.84-1.68,1.28c-0.6,0.48-1.15,1.02-1.77,1.47c-0.55,0.39-1.06,0.81-1.53,1.28     c-0.24,0.24-0.52,0.43-0.8,0.61c-0.15,0.09-0.59,0.45-0.79,0.37c-0.32-0.13,0.22-0.71,0.36-0.84c0.65-0.63,1.31-1.25,1.96-1.88     c0.63-0.6,1.3-1.18,1.87-1.83c0.41-0.46,0.71-1.02,1.1-1.5c0.6-0.74,0.9-1.63,1.29-2.47c0.02-0.05,0.01-0.12,0.01-0.24     c-0.12,0.08-0.22,0.12-0.27,0.19c-0.54,0.67-1.08,1.35-1.62,2.03c-0.22,0.28-0.43,0.58-0.68,0.84c-0.52,0.56-1.05,1.13-1.61,1.66     c-0.77,0.73-1.56,1.45-2.36,2.14c-0.68,0.58-1.39,1.14-2.11,1.68c-0.2,0.15-0.46,0.25-0.71,0.31c-0.37,0.08-0.75,0.11-1.12,0.12     c-0.14,0.01-0.33-0.06-0.41-0.16c-0.06-0.07,0-0.28,0.06-0.4c0.26-0.43,0.53-0.87,0.84-1.27c1.22-1.64,2.1-3.47,2.95-5.31     c0.15-0.33,0.29-0.66,0.42-1c0.25-0.67,0.49-1.35,0.73-2.03c0.01-0.04-0.01-0.09-0.03-0.17c-0.39,0.21-0.57,0.56-0.75,0.89     c-0.53,0.94-1.05,1.89-1.57,2.83c-0.23,0.42-0.43,0.85-0.69,1.25c-0.59,0.92-1.25,1.8-1.81,2.74c-0.61,1.02-1.38,1.91-2.14,2.81     c-0.13,0.15-0.32,0.31-0.51,0.35c-0.4,0.1-0.81,0.14-1.21,0.17c-0.36,0.02-0.48-0.2-0.28-0.5c0.43-0.66,0.87-1.3,1.32-1.95     c0.52-0.76,1.06-1.5,1.54-2.27c0.41-0.65,0.71-1.37,1.11-2.02c0.8-1.3,1.37-2.72,1.96-4.12c0.07-0.17,0.13-0.34,0.17-0.51     c0.02-0.08-0.02-0.17-0.05-0.35c-0.15,0.19-0.25,0.3-0.32,0.41c-0.57,0.91-1.14,1.83-1.71,2.75c-0.59,0.94-1.17,1.89-1.77,2.83     c-0.39,0.61-0.78,1.21-1.19,1.8c-0.84,1.22-1.86,2.33-2.46,3.72c-0.21,0.49-0.6,0.72-1.11,0.76c-0.46,0.04-0.91,0.08-1.37,0.11     c-0.2,0.01-0.45,0.12-0.59-0.1c-0.16-0.25,0.07-0.43,0.19-0.61c0.38-0.55,0.81-1.08,1.16-1.65c0.43-0.71,0.91-1.4,1.18-2.2     c0.07-0.2,0.19-0.38,0.28-0.57c0.31-0.7,0.62-1.41,0.93-2.11c0.14-0.31,0.28-0.62,0.43-0.93c0.21-0.43,0.42-0.85,0.63-1.28     c0.01-0.03-0.03-0.08-0.05-0.15c-0.1,0.07-0.18,0.12-0.25,0.18c-0.79,0.76-1.41,1.64-1.83,2.65c-0.45,1.1-1.13,2.07-1.75,3.06     c-0.78,1.27-1.68,2.46-2.52,3.69c-0.19,0.27-0.42,0.44-0.76,0.49c-0.57,0.08-1.13,0.18-1.7,0.26c-0.19,0.03-0.42,0.08-0.53-0.13     c-0.13-0.22,0.07-0.36,0.19-0.51c0.32-0.37,0.64-0.74,0.95-1.12c0.9-1.08,1.6-2.27,2.19-3.54c0.08-0.16,0.18-0.31,0.26-0.47     c0.36-0.71,0.82-1.4,1.06-2.15c0.36-1.14,1.22-2.03,1.49-3.19c0.01-0.06,0.07-0.11,0.1-0.17c0.22-0.42,0.43-0.84,0.66-1.26     c0.13-0.24,0.28-0.48,0.41-0.72c0.3-0.56,0.6-1.12,0.9-1.69c0.01-0.01-0.03-0.04-0.09-0.11c-0.2,0.22-0.41,0.42-0.59,0.65     c-0.38,0.49-0.75,0.99-1.09,1.51c-0.49,0.72-0.99,1.43-1.42,2.18c-0.48,0.84-0.86,1.73-1.32,2.57c-0.62,1.13-1.26,2.25-1.92,3.36     c-0.47,0.79-0.99,1.54-1.5,2.3c-0.46,0.69-0.97,1.36-1.4,2.07c-0.21,0.35-0.42,0.6-0.83,0.68c-0.37,0.07-0.73,0.21-1.11,0.09     c-0.29-0.09-0.37-0.26-0.23-0.52c0.1-0.19,0.24-0.35,0.38-0.51c0.49-0.59,1-1.17,1.47-1.77c0.52-0.65,1.01-1.32,1.5-2     c0.15-0.21,0.27-0.45,0.38-0.68c0.04-0.08,0-0.2,0-0.3c-0.03-0.02-0.07-0.04-0.1-0.06c-0.4,0.4-0.9,0.68-1.26,1.13     c-0.32,0.39-0.67,0.76-1.02,1.13c-0.71,0.72-1.43,1.43-2.14,2.16c-0.44,0.44-0.86,0.9-1.28,1.35c-0.28,0.29-0.62,0.41-1.01,0.43     c-0.93,0.04-1.87,0.09-2.8,0.13c-0.26,0.01-0.56,0.05-0.71-0.22c-0.17-0.29,0.08-0.49,0.25-0.68c0.7-0.8,1.4-1.6,2.1-2.4     c0.3-0.34,0.59-0.7,0.89-1.04c0.4-0.45,0.82-0.88,1.23-1.32c0.26-0.28,0.49-0.57,0.76-0.84c0.33-0.34,0.69-0.65,1.02-0.99     c0.39-0.4,0.73-0.84,1.14-1.21c0.82-0.75,1.64-1.49,2.32-2.37c-0.13,0.05-0.27,0.09-0.39,0.16c-0.73,0.47-1.49,0.9-2.16,1.44     c-0.97,0.8-1.88,1.68-2.81,2.52c-0.16,0.14-0.32,0.28-0.47,0.44c-0.65,0.67-1.34,1.31-1.94,2.01c-0.78,0.92-1.71,1.7-2.4,2.71     c-0.25,0.36-0.58,0.67-0.78,1.06c-0.26,0.5-0.61,0.7-1.15,0.62c-0.23-0.03-0.46-0.07-0.67-0.14c-0.4-0.13-0.51-0.35-0.29-0.71     c0.2-0.33,0.47-0.62,0.72-0.92c0.21-0.25,0.46-0.47,0.67-0.72c0.24-0.29,0.46-0.59,0.7-0.89c0.27-0.35,0.54-0.7,0.82-1.04     c0.47-0.58,0.95-1.16,1.43-1.74c0.13-0.16,0.26-0.33,0.39-0.5c0.14-0.18,0.26-0.38,0.41-0.55c0.5-0.56,1.01-1.12,1.52-1.67     c0.7-0.76,1.41-1.5,2.11-2.26c0.29-0.31,0.56-0.65,0.9-1.04c-0.41-0.01-0.65,0.15-0.86,0.32c-0.7,0.56-1.41,1.12-2.07,1.72     c-0.69,0.62-1.34,1.3-2.01,1.94c-0.57,0.54-1.04,1.18-1.56,1.76c-0.96,1.07-1.72,2.31-2.78,3.3c-0.11,0.1-0.18,0.24-0.27,0.35     c-0.59,0.68-1.18,1.36-1.78,2.03c-0.33,0.37-0.72,0.54-1.23,0.38c-0.2-0.06-0.43-0.03-0.63-0.08c-0.14-0.04-0.35-0.12-0.38-0.22     c-0.02-0.11,0.1-0.29,0.21-0.39c0.21-0.2,0.48-0.35,0.69-0.55c0.63-0.62,1.26-1.24,1.87-1.88c0.22-0.22,0.41-0.47,0.6-0.71     c0.18-0.23,0.36-0.46,0.54-0.7c0.72-0.97,1.45-1.94,2.17-2.91c0.18-0.24,0.34-0.48,0.52-0.71c0.45-0.58,0.96-1.13,1.35-1.75     c0.32-0.52,0.66-1.01,1.09-1.44c0.13-0.13,0.21-0.3,0.31-0.45c-0.14-0.04-0.23-0.03-0.28,0.01c-0.58,0.48-1.21,0.89-1.68,1.5     c-0.28,0.36-0.6,0.69-0.89,1.04c-1.03,1.23-2.05,2.46-3.09,3.69c-0.35,0.41-0.71,0.81-1.08,1.21c-0.53,0.58-1.06,1.16-1.61,1.72     c-0.72,0.73-1.61,1.29-2.21,2.15c-0.16,0.24-0.41,0.32-0.69,0.28c-0.31-0.04-0.62-0.06-0.93-0.11c-0.24-0.04-0.54-0.03-0.59-0.34     c-0.05-0.3,0.24-0.39,0.45-0.51c0.35-0.2,0.73-0.38,1.06-0.61c0.74-0.52,1.44-1.08,2.18-1.59c0.8-0.56,1.46-1.26,2.05-2.02     c0.49-0.63,0.93-1.31,1.41-1.95c0.68-0.92,1.39-1.82,2.08-2.73c0.15-0.2,0.32-0.4,0.3-0.8c-0.48,0.43-0.93,0.77-1.29,1.17     c-0.94,1.05-1.84,2.13-2.76,3.2c-0.25,0.28-0.52,0.54-0.78,0.81c-0.24,0.24-0.48,0.49-0.73,0.72c-0.35,0.32-0.71,0.63-1.07,0.93     c-0.15,0.12-0.33,0.21-0.5,0.32c-1.14,0.74-2.27,1.48-3.42,2.21c-0.26,0.17-0.59,0.23-0.83,0.43c-0.52,0.43-1.1,0.46-1.72,0.35     c-0.34-0.06-0.68-0.11-1.01-0.18c-0.09-0.02-0.21-0.14-0.22-0.22c-0.01-0.08,0.08-0.21,0.16-0.27c0.12-0.08,0.26-0.14,0.4-0.18     c1.39-0.37,2.64-1.06,3.9-1.73c0.38-0.2,0.78-0.36,1.12-0.61c1.03-0.75,2.06-1.51,3.04-2.32c1.4-1.16,2.54-2.55,3.45-4.12     c0.09-0.15,0.2-0.3,0.04-0.52c-0.25,0.06-0.37,0.25-0.5,0.43c-0.19,0.27-0.37,0.54-0.57,0.8c-0.82,1.03-1.9,1.79-2.84,2.7     c-0.03,0.03-0.08,0.06-0.12,0.09c-0.85,0.58-1.7,1.17-2.56,1.74c-0.33,0.22-0.67,0.41-1.03,0.57c-0.94,0.45-1.84,0.98-2.83,1.36     c-0.78,0.3-1.54,0.63-2.34,0.87c-0.48,0.14-0.99,0.29-1.41,0.57c-0.84,0.55-1.68,0.43-2.55,0.19c-0.12-0.03-0.22-0.14-0.32-0.21     c0.01-0.04,0.01-0.08,0.02-0.12c0.19-0.07,0.38-0.14,0.58-0.2c1-0.3,2.01-0.58,3-0.91c0.54-0.18,1.05-0.47,1.59-0.64     c1.43-0.43,2.66-1.26,3.95-1.96c0.73-0.39,1.38-0.93,2.07-1.41c0.28-0.2,0.58-0.38,0.84-0.6c1.08-0.91,2.15-1.82,3.05-2.91     c0.06-0.08,0.1-0.18,0.15-0.27c-0.17-0.01-0.28,0.04-0.37,0.11c-0.46,0.37-0.89,0.77-1.36,1.12c-0.83,0.62-1.65,1.23-2.51,1.8     c-1.07,0.7-2.15,1.38-3.32,1.91c-0.43,0.2-0.87,0.39-1.3,0.57c-0.6,0.26-1.2,0.52-1.81,0.75c-0.78,0.3-1.57,0.56-2.35,0.86     c-0.92,0.35-1.86,0.64-2.85,0.73c-0.18,0.02-0.36,0.05-0.53,0.09c-0.73,0.18-1.47,0.35-2.19,0.54c-0.57,0.15-1.1-0.05-1.64-0.16     c-0.1-0.02-0.23-0.17-0.23-0.27c0-0.09,0.11-0.24,0.21-0.28c0.16-0.07,0.35-0.09,0.52-0.12c0.95-0.17,1.9-0.31,2.85-0.51     c0.49-0.1,0.97-0.3,1.45-0.46c0.63-0.21,1.28-0.41,1.9-0.66c1.08-0.43,2.15-0.89,3.22-1.33c1.1-0.44,2.15-0.96,3.14-1.62     c0.08-0.05,0.14-0.14,0.24-0.25c-0.11-0.02-0.16-0.04-0.2-0.02c-0.77,0.26-1.55,0.53-2.32,0.8c-0.23,0.08-0.44,0.22-0.67,0.3     c-1.25,0.44-2.49,0.89-3.76,1.28c-1.19,0.37-2.38,0.71-3.6,0.97c-0.96,0.21-1.94,0.28-2.92,0.41c-0.94,0.12-1.88,0.24-2.83,0.32     c-0.39,0.04-0.78-0.01-1.17-0.03c-0.11-0.01-0.22-0.06-0.32-0.12c-0.22-0.14-0.21-0.33,0.02-0.44c0.06-0.03,0.12-0.04,0.19-0.05     c0.45-0.08,0.9-0.15,1.36-0.22c0.58-0.09,1.17-0.16,1.75-0.28c0.66-0.13,1.3-0.34,1.96-0.43c1.57-0.22,3.05-0.74,4.53-1.25     c0.31-0.11,0.62-0.2,0.93-0.3c0.59-0.19,1.19-0.36,1.77-0.58c0.64-0.24,1.27-0.51,1.91-0.77c0.47-0.19,0.94-0.37,1.41-0.57     c0.13-0.05,0.23-0.15,0.42-0.28c-0.15-0.03-0.22-0.06-0.27-0.05c-0.64,0.15-1.27,0.3-1.9,0.46c-0.25,0.06-0.5,0.16-0.75,0.23     c-0.57,0.16-1.13,0.31-1.7,0.47c-1.01,0.28-2.01,0.6-3.02,0.85c-0.97,0.24-1.95,0.43-2.93,0.64c-0.78,0.17-1.57,0.33-2.35,0.49     c-0.34,0.06-0.68,0.09-1.02,0.13c-1.08,0.12-2.17,0.12-3.26,0.18c-0.4,0.02-0.8,0.04-1.19-0.01c-0.05-0.01-0.11-0.02-0.15-0.06     c-0.04-0.06-0.01-0.15,0.04-0.19c0.06-0.04,0.13-0.06,0.21-0.06c2.1-0.27,4.2-0.29,6.26-0.75c0.2-0.04,0.42-0.1,0.5-0.38     c-0.1-0.04-0.18-0.1-0.27-0.1c-0.34-0.02-0.69-0.05-1.03-0.03c-0.96,0.07-1.92,0.22-2.88,0.23c-1.46,0.01-2.89,0.25-4.34,0.17     c-0.05,0-0.12-0.01-0.14-0.06c-0.03-0.07,0.05-0.13,0.11-0.16c1.02-0.48,2.39-0.39,3.5-0.53c2.18-0.27,4.35-0.55,6.53-0.85     c1.54-0.21,3.08-0.45,4.62-0.68c0.47-0.07,0.93-0.17,1.4-0.28c0.11-0.02,0.2-0.11,0.31-0.16c-0.01-0.04-0.02-0.07-0.02-0.11     c-0.17-0.02-0.34-0.06-0.51-0.06c-0.29,0-0.59,0.02-0.88,0.04c-1.37,0.11-2.74,0.23-4.11,0.35c-0.57,0.05-1.14,0.11-1.71,0.15     c-1.3,0.1-2.61,0.17-3.91,0.28c-0.98,0.08-1.95,0.21-2.93,0.32c-0.41,0.05-0.81,0.11-1.21,0.18c-0.76,0.13-1.51,0.27-2.27,0.4     c-0.38,0.06-0.72-0.14-0.88-0.49c-0.11-0.23-0.06-0.42,0.17-0.54c0.13-0.06,0.28-0.09,0.42-0.12c0.34-0.07,0.68-0.13,1.01-0.2     c0.83-0.18,1.66-0.39,2.49-0.55c0.87-0.17,1.74-0.3,2.61-0.47c0.66-0.13,1.3-0.37,1.96-0.44c0.91-0.09,1.78-0.39,2.71-0.42     c0.94-0.04,1.87-0.28,2.81-0.44c0.21-0.04,0.41-0.11,0.61-0.17c0.21-0.06,0.42-0.12,0.73-0.21c-0.17-0.08-0.22-0.13-0.28-0.13     c-0.7,0-1.41-0.04-2.11,0.02c-1.35,0.11-2.7,0.29-4.05,0.43c-0.93,0.09-1.87,0.05-2.77,0.35c-0.11,0.04-0.23,0.03-0.34,0.05     c-0.4,0.07-0.8,0.14-1.2,0.22c-0.85,0.17-1.69,0.39-2.55,0.51c-1.01,0.15-1.93,0.51-2.82,0.95c-0.29,0.14-0.55,0.18-0.84,0.05     c-0.15-0.07-0.3-0.12-0.45-0.19c-0.78-0.34-1.61-0.45-2.44-0.51c-0.13-0.01-0.26,0.05-0.46,0.08c0.14,0.18,0.21,0.29,0.29,0.38     c0.4,0.48,0.85,0.9,1.34,1.29c0.6,0.48,1.13,1.04,1.73,1.53c1.13,0.92,2.28,1.82,3.43,2.7c0.74,0.56,1.49,1.14,2.28,1.61     c0.87,0.52,1.79,0.96,2.71,1.38c0.41,0.19,0.87,0.28,1.31,0.4c0.36,0.1,0.74,0.16,1.1,0.25c1.08,0.25,2.16,0.56,3.25,0.75     c1.42,0.24,2.85,0.39,4.28,0.58c1.54,0.21,3.08,0.39,4.63,0.49c1.32,0.09,2.64,0.2,3.96,0.3c0.98,0.08,1.96,0.17,2.94,0.23     c0.91,0.06,1.83,0.08,2.75,0.11c0.21,0.01,0.43,0,0.64,0c1.64-0.03,3.27-0.1,4.91-0.07c1.21,0.02,2.42,0.04,3.63-0.05     c0.8-0.06,1.6-0.07,2.4-0.11c1.08-0.05,2.16-0.1,3.23-0.18c0.67-0.05,1.33-0.15,2-0.19c1.07-0.07,2.12-0.41,3.21-0.33     c0.09,0.01,0.19-0.03,0.29-0.05c0.7-0.1,1.39-0.21,2.09-0.31c0.79-0.11,1.59-0.19,2.37-0.35c0.67-0.14,1.34-0.31,2.03-0.32     c0.23,0,0.45-0.06,0.68-0.1c0.42-0.07,0.84-0.15,1.25-0.22c0.27-0.05,0.55-0.08,0.82-0.14c1.06-0.23,2.12-0.51,3.18-0.71     c0.97-0.18,2-0.11,3-0.07c2.07,0.08,4.14,0.29,6.21,0.37c0.44,0.02,0.88,0.04,1.32,0.06c0.18,0.01,0.37-0.01,0.54,0.04     c0.65,0.2,1.33,0.16,2,0.21c0.2,0.01,0.39,0.02,0.59,0.06c1.36,0.24,2.73,0.29,4.11,0.34c0.03,0,0.07-0.04,0.18-0.11     c-0.34-0.11-0.61-0.23-0.89-0.29C217.89,118.11,217.14,117.95,216.39,117.79z"/>
		</g>
	</g>
	<g>
		<g>
			<path class="st0" d="M147.75,133.46c-0.87-1.18-1.48-2.51-2.2-3.77c-0.1-0.17-0.15-0.36-0.23-0.54     c-0.14-0.31-0.29-0.62-0.44-0.93c-0.13-0.28-0.29-0.55-0.38-0.85c-0.49-1.56-1.1-3.08-1.37-4.7c-0.18-1.05-0.48-2.08-0.46-3.15     c0.01-0.56-0.34-0.86-0.76-1.11c-0.28-0.16-0.45-0.06-0.43,0.26c0.07,0.81,0.14,1.63,0.26,2.44c0.12,0.79,0.33,1.57,0.47,2.36     c0.2,1.08,0.51,2.13,0.96,3.13c0.47,1.04,0.84,2.13,1.48,3.09c0.03,0.04,0.04,0.09,0.06,0.13c0.27,0.49,0.53,0.98,0.81,1.45     c0.21,0.35,0.45,0.68,0.67,1.03c0.58,0.96,1.31,1.8,2.07,2.61c0.05,0.06,0.12,0.1,0.19,0.14c0.03-0.02,0.07-0.04,0.1-0.06     c-0.05-0.15-0.07-0.31-0.15-0.45C148.2,134.18,148,133.8,147.75,133.46z"/>
		</g>
	</g>
	<g>
		<g>
			<path class="st0" d="M168.06,132.14c-0.71-0.65-1.47-1.23-2.12-1.95c-0.84-0.93-1.77-1.78-2.66-2.68     c-0.47-0.48-0.97-0.94-1.39-1.45c-0.82-1.01-1.61-2.06-2.4-3.1c-0.28-0.38-0.6-0.65-1.1-0.61c-0.23,0.02-0.54-0.15-0.67,0.13     c-0.12,0.26,0.15,0.44,0.3,0.63c0.66,0.83,1.52,1.5,2.03,2.45c0.01,0.03,0.04,0.05,0.06,0.07c0.62,0.69,1.23,1.4,1.87,2.07     c0.66,0.7,1.34,1.39,2.05,2.04c0.82,0.75,1.68,1.46,2.53,2.17c0.41,0.34,0.84,0.67,1.28,0.98c0.83,0.6,1.68,1.2,2.52,1.79     c0.18,0.13,0.38,0.23,0.57,0.34c0.03-0.04,0.06-0.08,0.08-0.12c-0.09-0.11-0.18-0.23-0.28-0.32     C169.85,133.77,168.95,132.96,168.06,132.14z"/>
		</g>
	</g>
	<g>
		<g>
			<path class="st0" d="M135.09,113.24c-0.11,0.17-0.27,0.34-0.31,0.53c-0.23,1.14-0.43,2.28-0.63,3.43     c-0.1,0.61-0.16,1.23-0.23,1.85c-0.09,0.71-0.21,1.43-0.25,2.14c-0.05,0.99,0.02,1.99-0.05,2.98c-0.11,1.35-0.02,2.68,0.06,4.02     c0.03,0.53,0.15,1.05,0.23,1.58c0.03,0,0.06,0,0.09,0c0.01-0.12,0.03-0.24,0.03-0.36c0.02-0.34,0.04-0.69,0.07-1.03     c0.07-0.8,0.2-1.59,0.22-2.39c0.03-1.05,0.05-2.09,0.22-3.13c0.06-0.37,0.04-0.75,0.09-1.12c0.13-1.02,0.27-2.04,0.42-3.06     c0.07-0.52,0.15-1.03,0.24-1.54c0.17-0.96,0.35-1.93,0.52-2.89c0.05-0.26-0.01-0.5-0.22-0.67     C135.44,113.45,135.26,113.36,135.09,113.24z"/>
		</g>
	</g>
	<g>
		<g>
			<path class="st0" d="M137.36,115.03c-0.35-0.27-0.53-0.23-0.59,0.21c-0.1,0.71-0.14,1.43-0.19,2.15     c-0.02,0.37-0.01,0.75-0.01,1.13c-0.01,0.41-0.02,0.82-0.02,1.22c0,0.31,0.01,0.62,0.02,0.93c0.04,0.98,0.05,1.96,0.15,2.94     c0.12,1.12,0.34,2.23,0.47,3.35c0.11,0.97,0.39,1.89,0.64,2.82c0.04,0.16,0.16,0.29,0.24,0.44c0.04-0.01,0.09-0.02,0.13-0.04     c0-0.15,0.02-0.31,0-0.46c-0.06-0.59-0.12-1.17-0.18-1.76c-0.11-1.09-0.22-2.18-0.33-3.27c-0.02-0.23-0.02-0.46-0.02-0.69     c-0.01-0.46,0-0.92-0.02-1.37c-0.02-0.67-0.06-1.34-0.07-2.01c0-0.55,0.02-1.11,0.06-1.66c0.08-1.01-0.12-2.03,0.1-3.04     C137.82,115.54,137.65,115.26,137.36,115.03z"/>
		</g>
	</g>
	<g>
		<g>
			<path class="st0" d="M183.5,127.89c-1.28-0.91-2.61-1.74-3.93-2.6c-0.27-0.18-0.56-0.35-0.83-0.52     c-0.89-0.55-1.78-1.11-2.67-1.66c-0.56-0.34-1.11-0.21-1.78,0c0.17,0.17,0.26,0.28,0.37,0.35c1.17,0.75,2.35,1.48,3.52,2.23     c0.84,0.53,1.67,1.08,2.58,1.51c0.04,0.02,0.08,0.06,0.12,0.09c0.66,0.43,1.28,0.93,1.99,1.26c1.02,0.48,1.81,1.28,2.8,1.79     c0.64,0.33,1.21,0.79,1.81,1.18c0.14,0.09,0.31,0.15,0.46,0.22c0.03-0.03,0.05-0.07,0.08-0.1c-0.12-0.14-0.21-0.3-0.35-0.42     C186.35,130.02,184.94,128.93,183.5,127.89z"/>
		</g>
	</g>
	<g>
		<g>
			<path class="st0" d="M133.24,116.14c0.3-1.08,0.6-2.17,0.91-3.25c0.15-0.53,0.08-0.77-0.4-1.06c-0.28-0.16-0.42-0.13-0.51,0.19     c-0.1,0.33-0.13,0.68-0.22,1.01c-0.45,1.51-0.91,3.01-1.36,4.51c-0.08,0.27-0.16,0.53-0.2,0.81c-0.14,0.77-0.23,1.55-0.39,2.32     c-0.35,1.77-0.7,3.53-0.72,5.34c0,0.18,0.03,0.36,0.05,0.54c0.05,0,0.1,0,0.15,0c0.2-0.19,0.23-0.45,0.28-0.7     c0.29-1.46,0.55-2.93,0.88-4.38c0.37-1.61,0.77-3.22,1.37-4.76C133.15,116.52,133.19,116.33,133.24,116.14z"/>
		</g>
	</g>
	<g>
		<g>
			<path class="st0" d="M141.01,123.86c-0.06-0.47-0.14-0.94-0.19-1.41c-0.08-0.73-0.16-1.46-0.23-2.19     c-0.08-0.86-0.44-1.68-0.34-2.57c0.01-0.13-0.11-0.31-0.22-0.41c-0.15-0.15-0.33-0.26-0.52-0.37c-0.09-0.05-0.24-0.09-0.31-0.04     c-0.07,0.05-0.08,0.19-0.09,0.3c-0.01,0.08,0.02,0.16,0.03,0.24c0.08,0.98,0.19,1.95,0.37,2.91c0.25,1.3,0.32,2.63,0.55,3.93     c0.28,1.58,0.47,3.17,0.67,4.75c0.09,0.76,0.17,1.52,0.26,2.28c0.02,0.14,0.07,0.27,0.14,0.5c0.29-0.34,0.3-0.62,0.29-0.89     c-0.03-1.13-0.06-2.26-0.1-3.38c-0.02-0.59-0.07-1.17-0.12-1.76C141.15,125.13,141.08,124.49,141.01,123.86z"/>
		</g>
	</g>
	<g>
		<g>
			<path class="st0" d="M163.13,131.11c-1.01-1.18-2.01-2.37-3.01-3.56c-0.09-0.11-0.18-0.24-0.27-0.35     c-0.54-0.71-1.09-1.43-1.63-2.14c-0.08-0.1-0.19-0.18-0.27-0.29c-0.38-0.47-0.76-0.94-1.13-1.41c-0.18-0.23-0.33-0.49-0.49-0.73     c-0.26-0.4-0.66-0.59-1.11-0.65c-0.14-0.02-0.29,0.06-0.44,0.1c0.03,0.14,0.03,0.3,0.1,0.4c0.62,0.88,1.19,1.81,1.89,2.62     c0.83,0.96,1.55,2.03,2.53,2.86c0.11,0.09,0.19,0.22,0.29,0.33c0.7,0.78,1.39,1.56,2.1,2.33c0.16,0.18,0.38,0.31,0.56,0.48     c0.34,0.31,0.69,0.6,0.99,0.95c0.4,0.46,0.91,0.76,1.42,1.16c-0.05-0.4-0.05-0.44-0.32-0.75     C163.94,132,163.52,131.57,163.13,131.11z"/>
		</g>
	</g>
	<g>
		<g>
			<path class="st0" d="M153.9,131.59c-0.2-0.74-0.41-1.48-0.63-2.22c-0.32-1.08-0.63-2.17-0.99-3.23     c-0.32-0.96-0.74-1.89-1.06-2.85c-0.19-0.56-0.43-1.09-0.71-1.61c-0.23-0.44-0.58-0.6-1.04-0.61c-0.34-0.01-0.43,0.11-0.29,0.41     c0.04,0.09,0.1,0.17,0.14,0.26c0.33,0.68,0.67,1.35,0.97,2.04c0.34,0.8,0.64,1.61,0.95,2.42c0.41,1.07,0.81,2.14,1.21,3.21     c0.11,0.29,0.19,0.59,0.29,0.89c0.42,1.24,0.84,2.48,1.27,3.72c0.1,0.3,0.24,0.59,0.36,0.88c0.06-0.01,0.13-0.02,0.19-0.04     c-0.01-0.22,0.03-0.44-0.02-0.65C154.34,133.33,154.13,132.46,153.9,131.59z"/>
		</g>
	</g>
	<g>
		<g>
			<path class="st0" d="M196.92,127.12c-0.31-0.21-0.6-0.45-0.92-0.64c-1.01-0.6-2.03-1.18-3.05-1.78     c-0.53-0.32-1.05-0.66-1.59-0.97c-0.96-0.56-1.95-1.08-2.9-1.66c-0.63-0.39-1.25-0.24-1.88-0.05c-0.02,0.01-0.03,0.06-0.06,0.14     c0.12,0.1,0.23,0.24,0.38,0.32c0.57,0.32,1.15,0.61,1.72,0.93c0.92,0.53,1.84,1.07,2.75,1.6c0.11,0.07,0.22,0.15,0.34,0.19     c0.68,0.24,1.3,0.6,1.93,0.95c1.42,0.78,2.86,1.52,4.31,2.25c0.4,0.2,0.84,0.34,1.25,0.51c0.03-0.05,0.05-0.11,0.08-0.16     c-0.52-0.37-1.03-0.73-1.55-1.09C197.48,127.47,197.19,127.31,196.92,127.12z"/>
		</g>
	</g>
	<g>
		<g>
			<path class="st0" d="M158.51,131.17c-0.11-0.27-0.24-0.54-0.35-0.81c-0.34-0.85-0.61-1.73-1.03-2.54     c-0.58-1.11-1.15-2.24-1.83-3.29c-0.4-0.62-0.77-1.26-1.17-1.87c-0.32-0.48-0.67-0.94-1.3-1.04c-0.21-0.03-0.44-0.13-0.58,0.1     c-0.13,0.21,0.08,0.36,0.19,0.51c0.41,0.59,0.83,1.17,1.24,1.76c0.17,0.24,0.29,0.51,0.46,0.75c1.25,1.71,2.31,3.54,3.19,5.46     c0.43,0.94,1.02,1.79,1.55,2.67c0.12,0.21,0.27,0.4,0.4,0.6c0.03-0.01,0.07-0.03,0.1-0.04c-0.02-0.09-0.02-0.19-0.05-0.27     C159.05,132.5,158.78,131.83,158.51,131.17z"/>
		</g>
	</g>
	<g>
		<g>
			<path class="st0" d="M131.33,113.27c0.08-0.45,0.05-0.93,0.17-1.36c0.2-0.71,0.15-1.39-0.01-2.08c-0.05-0.22-0.07-0.5-0.35-0.53     c-0.32-0.04-0.4,0.26-0.44,0.49c-0.08,0.45-0.13,0.9-0.17,1.35c-0.17,1.75-0.57,3.45-1.08,5.13c-0.19,0.61-0.35,1.22-0.57,1.82     c-0.35,0.99-0.73,1.96-1.09,2.95c-0.09,0.24-0.21,0.47-0.09,0.88c0.19-0.21,0.34-0.32,0.42-0.47c0.31-0.54,0.62-1.08,0.87-1.64     c0.45-1,0.86-2.01,1.28-3.03C130.73,115.65,131.12,114.49,131.33,113.27z"/>
		</g>
	</g>
	<g>
		<g>
			<path class="st0" d="M191.19,126.79c-0.55-0.5-1.2-0.91-1.81-1.35c-0.88-0.63-1.74-1.28-2.64-1.88     c-0.54-0.36-1.18-0.59-1.69-0.99c-0.7-0.54-1.38-0.26-2.08-0.17c-0.01,0.05-0.03,0.1-0.04,0.16c0.16,0.1,0.31,0.22,0.48,0.31     c0.28,0.16,0.58,0.31,0.86,0.47c1.86,1.1,3.74,2.15,5.48,3.45c1.16,0.86,2.37,1.63,3.57,2.43c0.16,0.11,0.36,0.17,0.54,0.25     c0.02-0.03,0.04-0.06,0.06-0.09c-0.05-0.09-0.1-0.19-0.16-0.27C193.08,128.15,192.04,127.57,191.19,126.79z"/>
		</g>
	</g>
	<g>
		<g>
			<path class="st0" d="M181.71,129.01c-1.1-0.71-2.2-1.41-3.3-2.11c-0.03-0.02-0.06-0.03-0.09-0.05c-0.77-0.43-1.55-0.85-2.31-1.29     c-0.59-0.34-1.16-0.73-1.76-1.06c-0.77-0.44-1.54-0.86-2.33-1.26c-0.56-0.28-1.17-0.27-1.77-0.13c-0.03,0.01-0.06,0.07-0.11,0.14     c0.08,0.08,0.14,0.18,0.23,0.23c0.99,0.57,1.96,1.17,2.97,1.71c1.21,0.64,2.45,1.22,3.67,1.84c0.33,0.17,0.61,0.44,0.95,0.6     c1.26,0.58,2.53,1.14,3.8,1.7c0.06,0.03,0.15,0.02,0.34,0.04C181.87,129.19,181.81,129.07,181.71,129.01z"/>
		</g>
	</g>
	<g>
		<g>
			<path class="st0" d="M168.89,128.38c-0.24-0.25-0.48-0.48-0.72-0.73c-0.15-0.15-0.28-0.32-0.43-0.47     c-0.82-0.75-1.64-1.5-2.47-2.24c-0.23-0.21-0.47-0.41-0.7-0.61c-0.47-0.41-0.96-0.79-1.39-1.23c-0.42-0.41-0.89-0.52-1.44-0.43     c-0.28,0.05-0.34,0.19-0.17,0.4c0.12,0.15,0.27,0.28,0.42,0.41c0.22,0.2,0.44,0.38,0.66,0.58c0.51,0.45,1.01,0.92,1.54,1.36     c0.74,0.62,1.49,1.22,2.24,1.83c0.2,0.16,0.42,0.32,0.61,0.49c0.47,0.4,0.97,0.79,1.41,1.22c0.77,0.75,1.51,1.54,2.26,2.31     c0.05,0.05,0.12,0.09,0.29,0.2c-0.05-0.22-0.05-0.35-0.11-0.45C170.39,130.02,169.67,129.18,168.89,128.38z"/>
		</g>
	</g>
	<g>
		<g>
			<path class="st0" d="M149.9,128.5c-0.35-1.29-0.74-2.58-1.11-3.86c-0.1-0.35-0.21-0.69-0.32-1.03c-0.27-0.79-0.58-1.56-0.8-2.37     c-0.15-0.53-0.45-0.75-1.05-0.89c-0.24-0.05-0.34,0.07-0.28,0.31c0.08,0.33,0.17,0.67,0.28,0.99c0.69,1.92,1.26,3.89,2.09,5.76     c0.07,0.15,0.1,0.31,0.15,0.47c0.11,0.34,0.22,0.69,0.34,1.02c0.17,0.46,0.32,0.93,0.52,1.37c0.25,0.56,0.55,1.1,0.82,1.65     c0.05-0.01,0.1-0.01,0.14-0.02c-0.01-0.14,0-0.28-0.03-0.41C150.4,130.5,150.17,129.49,149.9,128.5z"/>
		</g>
	</g>
	<g>
		<g>
			<path class="st0" d="M196.02,122.39c-1.11-0.32-2.23-0.66-3.31-1.08c-0.76-0.29-1.47-0.23-2.21-0.03     c-0.12,0.03-0.23,0.1-0.34,0.16c0,0.05,0,0.1-0.01,0.15c0.15,0.05,0.29,0.1,0.44,0.15c0.83,0.26,1.68,0.47,2.47,0.8     c0.79,0.33,1.61,0.54,2.44,0.72c0.51,0.11,1.04,0.15,1.54,0.28c1.36,0.37,2.75,0.6,4.14,0.82c0.24,0.04,0.49,0.04,0.73,0.04     c0.09,0,0.19-0.07,0.36-0.14c-0.48-0.33-0.95-0.42-1.39-0.54C199.28,123.26,197.64,122.86,196.02,122.39z"/>
		</g>
	</g>
	<g>
		<g>
			<path class="st0" d="M209.58,120.27c-1.03-0.33-2.08-0.59-3.12-0.85c-0.93-0.23-1.88-0.44-2.82-0.65c-1.04-0.23-2,0.09-2.93,0.53     c-0.01,0-0.01,0.03-0.02,0.11c0.22,0.06,0.44,0.15,0.67,0.18c1.02,0.16,2.03,0.32,3.06,0.45c2.19,0.28,4.34,0.81,6.47,1.36     c0.57,0.15,1.16,0.19,1.74,0.28c0.05,0.01,0.1-0.04,0.23-0.09c-0.21-0.12-0.34-0.21-0.49-0.27     C211.44,120.97,210.53,120.57,209.58,120.27z"/>
		</g>
	</g>
	<g>
		<g>
			<path class="st0" d="M203.9,121.88c-1.41-0.15-2.75-0.58-4.11-0.88c-0.46-0.1-0.92-0.23-1.38-0.34     c-0.44-0.11-0.88-0.23-1.33-0.33c-0.22-0.05-0.45-0.11-0.67-0.08c-0.4,0.06-0.8,0.17-1.19,0.28c-0.1,0.03-0.18,0.11-0.37,0.22     c0.24,0.1,0.4,0.18,0.56,0.23c0.23,0.07,0.48,0.11,0.71,0.18c1.85,0.62,3.78,0.88,5.7,1.2c1.27,0.21,2.56,0.27,3.85,0.39     c0.26,0.02,0.52-0.01,0.78-0.04c0.08-0.01,0.14-0.09,0.28-0.18c-0.2-0.09-0.33-0.17-0.46-0.2     C205.48,122.16,204.7,121.96,203.9,121.88z"/>
		</g>
	</g>
	<g>
		<g>
			<path class="st0" d="M171.72,127.83c-0.51-0.83-1.25-1.45-1.83-2.23c-0.6-0.81-1.38-1.47-2.09-2.2     c-0.41-0.42-0.92-0.55-1.48-0.51c-0.35,0.03-0.43,0.21-0.19,0.48c0.17,0.19,0.39,0.35,0.58,0.52c0.29,0.26,0.58,0.52,0.87,0.78     c0.16,0.14,0.3,0.3,0.46,0.44c0.58,0.55,1.17,1.09,1.73,1.66c1.1,1.12,2.18,2.25,3.27,3.38c0.12,0.12,0.27,0.22,0.41,0.33     c0.03-0.03,0.07-0.05,0.1-0.08c0.02-0.27-0.15-0.47-0.31-0.67C172.72,129.12,172.15,128.52,171.72,127.83z"/>
		</g>
	</g>
	<g>
		<g>
			<path class="st0" d="M127.89,116.1c0.23-0.85,0.43-1.72,0.71-2.56c0.36-1.1,0.54-2.22,0.68-3.36c0.02-0.18,0.05-0.37,0.01-0.54     c-0.07-0.33-0.14-0.68-0.28-0.98c-0.16-0.34-0.51-0.33-0.67,0.02c-0.09,0.2-0.12,0.44-0.13,0.66c-0.02,0.34,0.04,0.69-0.02,1.03     c-0.22,1.34-0.43,2.68-0.74,4.01c-0.24,1.05-0.32,2.1-0.32,3.16c0,0.11,0.04,0.21,0.06,0.32c0.04,0.01,0.07,0.02,0.11,0.02     c0.05-0.08,0.11-0.15,0.14-0.23C127.6,117.14,127.75,116.62,127.89,116.1z"/>
		</g>
	</g>
	<g>
		<g>
			<path class="st0" d="M136.87,107.82c0.25-0.08,0.51-0.12,0.77-0.16c1.05-0.16,2.1-0.28,3.12-0.61c0.59-0.19,1.21-0.3,1.81-0.45     c0.6-0.15,1.16-0.4,1.67-0.73c-0.01-0.06-0.03-0.12-0.04-0.18c-0.17,0.01-0.34,0.01-0.51,0.03c-0.89,0.11-1.78,0.22-2.67,0.35     c-1.55,0.23-3.1,0.48-4.65,0.72c-0.31,0.05-0.62,0.09-0.91,0.19c-0.14,0.05-0.31,0.22-0.34,0.36c-0.05,0.23,0.16,0.34,0.35,0.4     C135.94,107.88,136.4,107.97,136.87,107.82z"/>
		</g>
	</g>
	<g>
		<g>
			<path class="st0" d="M144.55,123.19c0.16,0.57,0.36,1.12,0.55,1.68c0.06,0.19,0.13,0.37,0.2,0.55c0.33,0.87,0.66,1.74,1,2.6     c0.06,0.15,0.19,0.28,0.3,0.42c0.26-0.2,0.17-0.4,0.13-0.58c-0.05-0.24-0.13-0.47-0.19-0.71c-0.27-1.14-0.54-2.29-0.81-3.43     c-0.19-0.81-0.4-1.61-0.6-2.42c-0.1-0.4-0.18-0.8-0.29-1.19c-0.09-0.29-0.6-0.56-0.88-0.49c-0.22,0.05-0.27,0.26-0.16,0.73     c0.03,0.14,0.08,0.28,0.11,0.43C144.13,121.58,144.33,122.39,144.55,123.19z"/>
		</g>
	</g>
	<g>
		<g>
			<path class="st0" d="M180.86,124.13c0.68,0.43,1.37,0.83,2.02,1.3c1.02,0.74,2,1.53,3,2.29c0.12,0.09,0.27,0.15,0.4,0.23     c0.03-0.04,0.07-0.08,0.1-0.13c-0.12-0.17-0.24-0.34-0.37-0.49c-0.14-0.16-0.31-0.3-0.43-0.47c-0.51-0.76-1.22-1.33-1.92-1.87     c-0.93-0.72-1.8-1.51-2.82-2.12c-0.55-0.33-1.03-0.35-1.58-0.21c-0.1,0.02-0.18,0.11-0.29,0.19c0.08,0.09,0.12,0.17,0.19,0.21     C179.73,123.41,180.3,123.77,180.86,124.13z"/>
		</g>
	</g>
	<g>
		<g>
			<path class="st0" d="M183.52,108.57c0,0-0.01,0.01-0.01,0.01l0,0C183.52,108.58,183.52,108.57,183.52,108.57z"/>
		</g>
	</g>
	<g>
		<g>
			<path class="st0" d="M183.52,108.57C183.53,108.57,183.53,108.57,183.52,108.57L183.52,108.57z"/>
		</g>
	</g>
	<g>
		<g>
			<path class="st0" d="M183.47,108.6C183.47,108.6,183.48,108.6,183.47,108.6c0.02,0,0.03-0.01,0.04-0.02     C183.5,108.58,183.49,108.59,183.47,108.6z"/>
		</g>
	</g>
	<g>
		<g>
			<path class="st0" d="M183.51,108.58C183.51,108.58,183.51,108.58,183.51,108.58C183.54,108.57,183.53,108.57,183.51,108.58z"/>
		</g>
	</g>
</g>
<g>
	<g>
		<path class="st0" d="M85.21,71.84c0.01,0.32-0.01,0.66-0.06,0.98c-0.12,0.73-0.55,1.16-1.28,1.29c-0.65,0.11-1.3,0.12-1.95,0.05    c-0.16-0.02-0.32-0.05-0.48-0.11c-0.47-0.16-0.8-0.47-0.93-0.95c-0.07-0.29-0.12-0.59-0.14-0.88c-0.05-0.68-0.08-1.36-0.12-2.04    c0,0-0.01,0-0.01,0c-0.02-0.38-0.03-0.76-0.06-1.14c-0.04-0.49-0.07-0.98-0.14-1.46c-0.1-0.67-0.15-1.35-0.18-2.03    c-0.03-0.76-0.08-1.52-0.12-2.28c-0.01-0.19-0.03-0.38-0.04-0.57c-0.08-2.26-0.25-4.51-0.39-6.77c-0.02-0.27-0.03-0.54-0.03-0.82    c0-0.19,0.03-0.38,0.08-0.56c0.14-0.49,0.46-0.8,0.97-0.88c0.66-0.1,1.31-0.02,1.92,0.24c0.5,0.21,0.86,0.57,1.04,1.09    c0.11,0.31,0.18,0.63,0.23,0.95c0.05,0.27,0.06,0.54,0.07,0.81c0.03,0.65,0.11,1.3,0.22,1.95c0.09,0.54,0.13,1.08,0.16,1.62    c0.04,0.71,0.09,1.41,0.21,2.11c0.08,0.48,0.12,0.97,0.16,1.46c0.07,0.79,0.17,1.57,0.38,2.33c0.18,0.69,0.28,1.39,0.33,2.09    C85.14,69.5,85.18,70.67,85.21,71.84z M95.87,56.16c-0.11,0.31-0.52,0.46-0.81,0.3c-0.05-0.03-0.1-0.05-0.14-0.08    c-0.4-0.3-0.69-0.68-0.87-1.14c-0.08-0.2-0.11-0.42-0.08-0.64c0.03-0.24,0.25-0.45,0.49-0.45c0.08,0,0.16,0,0.24,0.02    c0.69,0.17,1.22,0.81,1.25,1.59C95.93,55.84,95.92,56.01,95.87,56.16z"/>
	</g>
	<g>
		<path class="st0" d="M68.82,140.46c-0.05,0-0.1-0.01-0.15-0.02c-0.22-0.05-0.4-0.19-0.5-0.39c-0.08-0.16-0.14-0.33-0.17-0.49    c-0.13-0.64-0.13-1.21-0.01-1.75c0.16-0.7,0.26-1.4,0.3-2.16c0.03-0.44,0.11-0.89,0.26-1.39c0.14-0.47,0.29-0.95,0.44-1.42    l0.26-0.84c0.02-0.07,0.04-0.13,0.06-0.2c0.06-0.19,0.12-0.38,0.16-0.57c0.09-0.51-0.15-0.91-0.65-1.07    c-0.14-0.04-0.3-0.08-0.46-0.09c-0.71-0.08-1.25-0.07-1.75,0.02l-0.51,0.1c-0.47,0.09-0.94,0.18-1.41,0.27    c-0.59,0.12-1.15,0.3-1.68,0.54c-0.18,0.08-0.35,0.16-0.53,0.22c-0.23,0.09-0.46,0.13-0.68,0.12c-0.27-0.01-0.47-0.12-0.58-0.31    c-0.14-0.24-0.11-0.5,0.08-0.74c0.1-0.13,0.24-0.3,0.41-0.43c0.56-0.43,1.32-0.96,2.18-1.33c1.04-0.44,1.93-0.73,2.81-0.92    c0.95-0.2,2.07-0.42,3.24-0.48c0.27-0.01,0.54-0.05,0.79-0.1c0.5-0.1,0.87-0.39,1.08-0.86c0.12-0.26,0.21-0.52,0.26-0.75    l0.05-0.24c0.14-0.62,0.28-1.27,0.37-1.91c0.13-0.94,0.31-1.71,0.57-2.4c0.13-0.34,0.22-0.69,0.32-1.08    c0.48-1.92,0.94-3.46,1.45-4.86c0.34-0.94,0.62-1.88,0.81-2.81c0.17-0.79,0.39-1.65,0.69-2.7c0.5-1.69,0.92-3.21,1.3-4.64    c0.18-0.67,0.33-1.35,0.48-2.02c0.06-0.25,0.11-0.51,0.17-0.76c0.09-0.4,0.13-0.83,0.11-1.27c-0.03-0.82,0.04-1.63,0.12-2.46    c0.11-1.12,0.22-2.26,0.32-3.49c0.03-0.38,0.04-0.79,0.03-1.21c-0.02-1.07-0.06-2.14-0.1-3.18c-0.01-0.3-0.06-0.61-0.11-0.87    c-0.14-0.75-0.19-1.5-0.14-2.22c0.06-0.93,0.01-1.87-0.16-2.82c-0.09-0.53-0.14-1.06-0.17-1.55c-0.06-0.83-0.11-1.67-0.16-2.5    c-0.04-0.63-0.08-1.27-0.12-1.9c-0.02-0.3-0.05-0.6-0.08-0.9c-0.02-0.16-0.03-0.32-0.05-0.48l-0.06-0.7    c-0.06-0.66-0.12-1.33-0.17-1.99c-0.05-0.64-0.04-1.3,0.03-1.98c0.09-0.93,0.01-1.87-0.07-2.58c-0.11-0.97-0.18-1.96-0.2-2.94    c-0.01-0.6-0.01-1.17,0-1.72c0.01-0.5-0.01-0.91-0.07-1.28c-0.09-0.61-0.13-1.22-0.09-1.82c0.03-0.47,0-0.93-0.08-1.36    c-0.14-0.77-0.17-1.57-0.11-2.39c0.08-0.91,0.01-1.82-0.06-2.51c-0.02-0.19-0.05-0.39-0.11-0.63c-0.04-0.15-0.12-0.3-0.25-0.44    c-0.21-0.22-0.57-0.26-0.82-0.09c-0.22,0.15-0.38,0.34-0.49,0.57c-0.15,0.32-0.25,0.58-0.32,0.82c-0.2,0.66-0.4,1.33-0.58,1.98    l-0.04,0.14c-0.08,0.28-0.15,0.53-0.2,0.78c-0.12,0.61-0.27,1.23-0.42,1.82c-0.06,0.24-0.12,0.48-0.18,0.72    c-0.21,0.85-0.35,1.7-0.5,2.72c-0.14,0.9-0.29,1.72-0.48,2.5l-0.04,0.16c-0.07,0.28-0.14,0.58-0.19,0.87    c-0.06,0.35-0.13,0.82-0.16,1.28c-0.05,0.72-0.08,1.46-0.12,2.17l-0.02,0.43c-0.01,0.18-0.01,0.37-0.01,0.55l0,0.26    c-0.02,1.09-0.11,1.93-0.29,2.7c-0.14,0.6-0.32,1.14-0.55,1.65c-0.12,0.27-0.27,0.47-0.45,0.63c-0.15,0.13-0.35,0.18-0.53,0.12    c-0.18-0.05-0.32-0.2-0.37-0.39c-0.08-0.3-0.08-0.62,0.01-0.95c0.06-0.22,0.13-0.44,0.2-0.66l0.04-0.13    c0.04-0.12,0.08-0.24,0.13-0.36c0.07-0.19,0.13-0.37,0.19-0.56c0.16-0.52,0.26-1.09,0.3-1.74c0.02-0.39,0.06-0.79,0.09-1.18    c0.03-0.37,0.06-0.73,0.09-1.1c0.1-1.47,0.17-2.66,0.22-3.75c0.01-0.28-0.01-0.58-0.03-0.86c-0.01-0.09-0.01-0.18-0.02-0.27    c-0.03-0.59-0.01-1.17,0.07-1.73c0.06-0.39,0.1-0.78,0.15-1.21c0.1-0.92,0.23-1.71,0.39-2.43c0.23-1,0.32-2.03,0.27-3.05    c-0.01-0.19-0.05-0.38-0.09-0.54c-0.01-0.05-0.05-0.09-0.11-0.11c-0.07-0.02-0.14-0.02-0.18,0.01l-0.04,0.03    c-0.05,0.03-0.1,0.07-0.13,0.11l-0.06,0.06c-0.09,0.1-0.18,0.19-0.25,0.29c-0.1,0.16-0.2,0.32-0.3,0.48    c-0.58,0.92-1.19,1.87-1.52,2.94c-0.2,0.63-0.45,1.23-0.71,1.84c-0.15,0.35-0.29,0.71-0.43,1.05l-0.09,0.23    c-0.07,0.17-0.13,0.34-0.19,0.51c-0.11,0.29-0.22,0.58-0.34,0.86c-0.28,0.66-0.47,1.33-0.58,2.01l-0.01,0.08    c-0.12,0.77-0.24,1.56-0.34,2.34c-0.14,1.12-0.36,2.03-0.7,2.88c-0.31,0.78-0.56,1.6-0.78,2.31c-0.47,1.56-1.33,3-2.56,4.28    c-0.24,0.25-0.48,0.44-0.73,0.57c-0.12,0.07-0.26,0.12-0.41,0.15c-0.17,0.04-0.36,0.01-0.51-0.08c-0.16-0.1-0.27-0.25-0.31-0.43    c-0.07-0.29-0.06-0.58,0.01-0.86c0.11-0.45,0.22-0.86,0.36-1.26c0.26-0.76,0.54-1.54,0.86-2.38c0.18-0.48,0.35-0.87,0.53-1.21    c0.32-0.61,0.58-1.28,0.82-2.11c0.15-0.5,0.31-1.03,0.53-1.72c0.19-0.6,0.38-1.09,0.61-1.53c0.44-0.89,0.77-1.81,0.97-2.74    c0.21-0.99,0.54-1.93,0.98-2.79c0.27-0.55,0.49-1.16,0.64-1.82c0.35-1.55,0.91-3.08,1.68-4.53c0.26-0.5,0.49-1.06,0.7-1.72    c0.09-0.29,0.13-0.53,0.11-0.76c-0.02-0.2-0.12-0.38-0.28-0.49c-0.17-0.11-0.37-0.15-0.57-0.09c-0.16,0.05-0.3,0.13-0.44,0.26    c-0.25,0.24-0.45,0.52-0.59,0.83c-0.19,0.42-0.38,0.87-0.61,1.42c-0.14,0.33-0.27,0.67-0.4,1l-0.32,0.8    c-0.11,0.28-0.23,0.56-0.33,0.84c-0.33,0.91-0.68,1.65-1.1,2.3c-0.26,0.41-0.46,0.85-0.61,1.22c-0.11,0.25-0.22,0.5-0.32,0.75    c-0.1,0.22-0.2,0.45-0.29,0.67c-0.33,0.79-0.72,1.58-1.19,2.43c-0.12,0.21-0.22,0.43-0.32,0.65c-0.26,0.62-0.54,1.18-0.85,1.69    c-0.23,0.38-0.4,0.81-0.53,1.33l-0.03,0.12c-0.06,0.25-0.12,0.51-0.2,0.75c-0.42,1.3-0.77,2.67-1.07,4.18    c-0.23,1.2-0.8,2.29-1.73,3.35c-0.45,0.51-1.05,0.9-1.88,1.22c-0.21,0.08-0.44,0.12-0.69,0.11c-0.51-0.02-0.87-0.39-0.89-0.89    c-0.01-0.28,0.05-0.55,0.18-0.84c0.22-0.49,0.49-0.95,0.8-1.36c0.09-0.12,0.18-0.23,0.27-0.35c0.08-0.1,0.16-0.2,0.23-0.3    c0.69-0.89,1.2-1.72,1.56-2.55c0.19-0.44,0.44-0.88,0.78-1.36c0.74-1.05,1.27-2.25,1.76-3.38c0.12-0.27,0.2-0.56,0.27-0.84    c0.16-0.61,0.35-1.32,0.52-2.05c0.19-0.81,0.39-1.41,0.65-1.96c0.28-0.59,0.49-1.21,0.61-1.83c0.16-0.8,0.46-1.58,0.87-2.32    c0.56-0.98,0.99-1.89,1.33-2.78l0.07-0.17c0.05-0.12,0.1-0.24,0.14-0.36c0.13-0.4,0.32-0.79,0.56-1.2    c0.12-0.2,0.22-0.39,0.31-0.57c0.08-0.15,0.11-0.32,0.09-0.5c-0.01-0.13-0.09-0.25-0.21-0.31c-0.11-0.06-0.24-0.05-0.34,0.01    c-0.08,0.05-0.17,0.11-0.23,0.18c-0.15,0.17-0.29,0.33-0.4,0.5l-0.05,0.08c-0.25,0.34-0.51,0.7-0.74,1.05    c-0.21,0.33-0.46,0.71-0.67,1.11c-0.27,0.51-0.58,1.09-0.97,1.62c-0.31,0.41-0.55,0.9-0.75,1.49c-0.05,0.15-0.1,0.31-0.14,0.46    c-0.31,1.07-0.81,2.12-1.49,3.12c-0.43,0.63-0.77,1.23-1.05,1.82c-0.24,0.51-0.53,1.01-0.88,1.49c-0.51,0.71-0.94,1.38-1.31,2.05    c-0.44,0.78-1.02,1.52-1.83,2.33c-0.77,0.76-1.31,1.38-1.77,2c-0.1,0.13-0.2,0.26-0.32,0.39c-0.51,0.55-0.97,1.19-1.38,1.98    c-0.34,0.63-0.72,1.21-1.13,1.72c-0.34,0.42-0.64,0.92-0.91,1.51c-0.48,1.02-1.1,1.96-1.85,2.82c-0.65,0.73-1.32,1.45-1.88,2.05    c-0.24,0.25-0.5,0.48-0.73,0.67c-0.27,0.22-0.54,0.37-0.82,0.45c-0.14,0.04-0.31,0.07-0.51,0.06c-0.23,0-0.46-0.22-0.53-0.42    c-0.07-0.23-0.07-0.46,0.01-0.71c0.09-0.28,0.25-0.52,0.4-0.75c0.16-0.23,0.32-0.46,0.48-0.7c0.32-0.47,0.63-0.93,0.96-1.39    c0.24-0.34,0.49-0.67,0.75-0.98c0.4-0.47,0.81-0.94,1.22-1.41c0.22-0.25,0.44-0.5,0.65-0.75c0.48-0.55,1.03-1.1,1.7-1.67    c1.03-0.89,1.84-1.82,2.49-2.85c0.46-0.73,0.84-1.4,1.16-2.05c0.35-0.71,0.7-1.32,1.08-1.85c0.39-0.55,0.75-1.17,1.09-1.89    c0.21-0.43,0.46-0.89,0.79-1.44c0.37-0.62,0.63-1.19,0.8-1.75c0.2-0.65,0.47-1.27,0.83-1.89c0.15-0.26,0.28-0.53,0.41-0.8    c0.05-0.1,0.09-0.19,0.14-0.29c0.14-0.29,0.28-0.59,0.42-0.88c0.35-0.75,0.8-1.42,1.33-1.99c0.36-0.39,0.7-0.84,1.07-1.42    c0.28-0.44,0.58-0.87,0.88-1.28c0.37-0.52,0.62-1.12,0.76-1.83c0.04-0.23,0.08-0.5,0.02-0.76c-0.04-0.17-0.1-0.3-0.17-0.41    c-0.24-0.35-0.62-0.49-1.02-0.38c-0.19,0.05-0.36,0.13-0.48,0.22c-0.26,0.18-0.55,0.4-0.81,0.65c-0.88,0.87-1.71,1.84-2.52,2.97    c-0.28,0.38-0.52,0.8-0.75,1.21l-0.1,0.17c-0.3,0.52-0.67,1.06-1.17,1.69c-0.8,1.01-1.84,2.37-2.7,3.86    c-0.36,0.63-0.82,1.2-1.26,1.75l-0.04,0.05c-0.63,0.79-1.26,1.55-1.97,2.4c-0.55,0.66-1.15,1.27-1.68,1.8    c-0.53,0.53-1.04,1.08-1.54,1.62c-0.21,0.23-0.43,0.46-0.64,0.69c-0.07,0.07-0.14,0.15-0.2,0.22c-0.1,0.11-0.2,0.22-0.3,0.32    l-0.06,0.06c-0.43,0.45-0.88,0.91-1.39,1.28c-1.33,0.97-2.49,2.15-3.34,3.08c-0.67,0.73-1.46,1.59-2.24,2.48    c-0.62,0.71-1.22,1.44-1.72,2.07c-0.15,0.19-0.28,0.42-0.4,0.63l-0.06,0.11c-0.08,0.13-0.15,0.27-0.21,0.41    c-0.05,0.11-0.11,0.21-0.16,0.31c-0.2,0.37-0.44,0.68-0.71,0.94c-0.11,0.1-0.23,0.19-0.36,0.25c-0.23,0.11-0.46,0.11-0.66-0.02    c-0.19-0.12-0.29-0.32-0.28-0.59c0-0.22,0.07-0.45,0.19-0.68c0.69-1.29,1.41-2.63,2.47-3.77c0.3-0.32,0.59-0.65,0.87-0.97    c0.18-0.2,0.36-0.41,0.54-0.61l0.15-0.17c0.22-0.24,0.45-0.5,0.69-0.73c0.75-0.7,1.41-1.44,1.96-2.07    c0.73-0.84,1.44-1.54,2.16-2.13c0.7-0.57,1.34-1.2,1.9-1.87c0.99-1.17,2.1-2.34,3.61-3.79c0.49-0.47,0.94-0.98,1.35-1.51    c0.16-0.2,0.32-0.39,0.49-0.59l0.14-0.17c0.09-0.1,0.18-0.21,0.27-0.31c0.14-0.16,0.28-0.33,0.42-0.49    c0.61-0.75,1.25-1.55,1.7-2.46c0.23-0.48,0.55-0.92,0.97-1.35c0.98-1.02,1.82-2.19,2.5-3.19l0.28-0.42c0.49-0.73,1-1.48,1.57-2.18    c0.13-0.16,0.26-0.35,0.4-0.59c0.14-0.24,0.2-0.51,0.17-0.8c-0.03-0.37-0.32-0.67-0.68-0.72c-0.27-0.04-0.52,0-0.73,0.1    c-0.26,0.12-0.55,0.27-0.86,0.45c-0.26,0.15-0.52,0.3-0.79,0.46C54,51.84,53.6,52.08,53.2,52.3c-0.78,0.43-1.43,0.88-1.97,1.39    c-0.71,0.65-1.47,1.28-2.28,1.88c-0.3,0.22-0.58,0.48-0.78,0.69c-0.47,0.47-0.96,0.96-1.48,1.51c-0.48,0.51-0.98,0.93-1.51,1.28    c-0.66,0.44-1.27,0.98-1.87,1.65c-0.52,0.58-1.03,1.06-1.57,1.46c-0.13,0.09-0.25,0.2-0.37,0.31c-0.73,0.67-1.52,1.36-2.41,2.09    c-0.38,0.31-0.75,0.7-1.17,1.22c-0.56,0.7-1.18,1.36-1.78,2.01c-0.44,0.47-0.9,0.96-1.33,1.46c-0.14,0.17-0.3,0.32-0.46,0.47    c-0.06,0.06-0.12,0.12-0.18,0.17c-0.4,0.39-0.69,0.74-0.92,1.11c-0.52,0.83-1.14,1.59-1.73,2.29c-0.62,0.73-1.12,1.42-1.53,2.09    c-0.41,0.68-0.91,1.35-1.52,2.04c-0.35,0.39-0.7,0.69-1.1,0.9l-0.28,0.15c-0.34,0.19-0.67,0.37-1.01,0.55    c-0.26,0.14-0.54,0.21-0.85,0.21c-0.55,0-0.98-0.4-1.04-0.95c-0.02-0.23,0.01-0.45,0.09-0.69c0.11-0.33,0.29-0.61,0.44-0.82    l0.22-0.32c0.25-0.36,0.51-0.73,0.76-1.09c0.28-0.41,0.62-0.79,0.99-1.12c0.55-0.48,1.04-1.02,1.52-1.67    c0.53-0.72,1.15-1.43,1.9-2.16c1.21-1.18,2.09-2.15,2.83-3.14c0.21-0.27,0.45-0.52,0.68-0.77l0.03-0.03    c0.87-0.89,1.8-1.74,2.68-2.52l0.1-0.09c0.15-0.13,0.3-0.26,0.43-0.4c0.48-0.5,1.03-1.01,1.76-1.61c0.44-0.36,0.87-0.76,1.29-1.22    c0.7-0.76,1.38-1.4,2.08-1.98c0.27-0.22,0.53-0.46,0.78-0.7l0.12-0.12c0.61-0.58,1.13-1.01,1.64-1.37    c0.24-0.17,0.47-0.36,0.7-0.55c0.1-0.09,0.21-0.18,0.32-0.26l0.38-0.31c0.32-0.26,0.64-0.51,0.96-0.77    c0.43-0.34,0.87-0.68,1.31-1.02l0.82-0.64c0.3-0.24,0.56-0.5,0.78-0.79c0.13-0.18,0.21-0.36,0.23-0.54    c0.04-0.29-0.13-0.56-0.4-0.62c-0.18-0.05-0.32-0.06-0.44-0.05c-0.36,0.04-0.67,0.09-0.95,0.16c-0.23,0.05-0.45,0.13-0.67,0.2    c-0.14,0.04-0.28,0.09-0.42,0.13c-0.67,0.19-1.32,0.47-1.93,0.81c-0.37,0.21-0.79,0.41-1.26,0.61c-0.89,0.38-1.66,0.83-2.35,1.4    c-0.42,0.34-0.89,0.64-1.4,0.89c-0.22,0.11-0.44,0.22-0.65,0.33c-0.19,0.1-0.39,0.2-0.58,0.3c-0.54,0.27-1.01,0.46-1.46,0.58    c-0.6,0.17-1.18,0.42-1.76,0.77c-0.7,0.42-1.49,0.83-2.41,1.23c-0.95,0.42-1.78,0.88-2.54,1.42c-0.64,0.46-1.21,0.78-1.79,1.03    c-0.55,0.24-1.04,0.56-1.46,0.96c-0.62,0.6-1.37,1.13-2.42,1.7c-1.33,0.72-2.55,1.54-3.64,2.44c-0.74,0.61-1.5,1.18-2.2,1.7    c-0.34,0.25-0.71,0.46-1.05,0.65c-0.55,0.3-1.02,0.6-1.44,0.9c-0.82,0.6-1.75,1.09-2.76,1.46l-1.46,0.53    c-0.45,0.16-0.8,0.23-1.16,0.22c-0.32-0.01-0.53-0.12-0.65-0.34c-0.15-0.25-0.12-0.53,0.07-0.81c0.19-0.27,0.43-0.52,0.76-0.78    c0.2-0.16,0.41-0.31,0.62-0.47c0.12-0.09,0.24-0.18,0.36-0.27c0.18-0.13,0.35-0.27,0.53-0.4c0.45-0.33,0.91-0.68,1.35-1.03    c0.58-0.47,1.36-1.06,2.22-1.56c0.76-0.43,1.38-0.91,1.91-1.46c0.65-0.67,1.4-1.23,2.25-1.66c0.54-0.28,1.06-0.63,1.57-0.99    c0.51-0.36,1.02-0.69,1.52-0.98c0.74-0.44,1.61-0.97,2.39-1.66c0.44-0.39,0.94-0.7,1.48-0.93c0.5-0.21,1-0.5,1.53-0.88    c0.26-0.18,0.6-0.42,0.96-0.64l0.39-0.24c1.13-0.69,2.29-1.41,3.45-2.09c0.53-0.31,1.07-0.57,1.54-0.78    c0.77-0.35,1.39-0.68,1.93-1.03c1.08-0.7,2.27-1.21,3.31-1.63c0.34-0.14,0.67-0.28,1.01-0.42c0.52-0.21,1.04-0.43,1.56-0.63    c0.45-0.18,0.82-0.31,1.17-0.41c0.9-0.26,1.8-0.57,2.68-0.87l0.26-0.09c1.44-0.5,2.79-0.84,4.12-1.06    c0.18-0.03,0.35-0.05,0.53-0.08l0.2-0.03c0.85-0.12,1.63-0.14,2.39-0.08c0.22,0.02,0.45,0.03,0.67,0.05    c0.24,0.01,0.48,0.03,0.71,0.05c0.55,0.05,1.09,0.12,1.54,0.18c0.22,0.03,0.44,0.06,0.66,0.09c0.29,0.04,0.58,0.09,0.88,0.12    c0.85,0.1,1.55,0.23,2.18,0.4c0.75,0.21,1.56,0.37,2.62,0.53c0.91,0.13,1.83,0.32,2.71,0.51l0.18,0.04    c0.56,0.12,1.12,0.29,1.65,0.52c0.57,0.25,1.18,0.39,1.86,0.55c1.09,0.25,2.08,0.36,3.05,0.35c0.55,0,1.07,0.1,1.56,0.21    c0.65,0.15,1.33,0.18,2.07,0.1c0.34-0.04,0.64-0.12,0.91-0.24c0.55-0.26,0.91-0.68,1.06-1.25c0.06-0.22,0.09-0.46,0.1-0.78    c0.05-0.97,0.04-1.92-0.03-2.84l-0.02-0.43c-0.02-0.32-0.04-0.64-0.05-0.95c-0.04-0.85-0.15-1.58-0.32-2.24    c-0.13-0.5-0.2-1.02-0.21-1.56c-0.02-1.14-0.29-2.24-0.79-3.26c-0.28-0.57-0.51-1.21-0.69-1.94c-0.05-0.21-0.11-0.42-0.18-0.62    c-0.23-0.67-0.4-1.33-0.53-1.9c-0.12-0.51-0.27-1-0.45-1.46c-0.31-0.8-0.45-1.57-0.42-2.36c0.03-0.76-0.07-1.57-0.29-2.47    c-0.18-0.71-0.28-1.45-0.32-2.2c-0.01-0.13-0.01-0.25-0.02-0.38c-0.01-0.12-0.01-0.24-0.02-0.36c-0.03-0.58-0.12-1.09-0.29-1.57    c-0.26-0.73-0.4-1.5-0.44-2.35c-0.03-0.72-0.16-1.44-0.4-2.22c-0.24-0.78-0.41-1.6-0.5-2.42c-0.09-0.76-0.24-1.54-0.47-2.3    c-0.1-0.35-0.22-0.68-0.36-0.98c-0.29-0.67-0.79-1.21-1.47-1.6c-0.03-0.02-0.05-0.03-0.06-0.03c-0.6-0.26-1.18-0.56-1.75-0.86    c-0.6-0.31-1.21-0.63-1.84-0.89c-0.18-0.07-0.35-0.15-0.53-0.23c-0.12-0.05-0.24-0.11-0.37-0.16c-0.65-0.28-1.31-0.64-2.02-1.11    c-0.57-0.38-1.16-0.75-1.73-1.11l-0.61-0.39c-0.44-0.28-0.91-0.47-1.39-0.55c-0.73-0.13-1.42-0.35-2.06-0.57    c-0.42-0.15-0.87-0.27-1.3-0.39l-0.34-0.09c-0.44-0.12-0.9-0.17-1.35-0.21l-0.08-0.01c-0.18-0.02-0.35-0.05-0.5-0.11    c-0.11-0.04-0.19-0.17-0.21-0.28C54.7,3,54.75,2.87,54.81,2.8c0.06-0.07,0.15-0.13,0.26-0.16c0.16-0.05,0.3-0.08,0.42-0.09    l0.11-0.01c0.24-0.02,0.48-0.03,0.72-0.01c0.93,0.08,1.8,0.04,2.66-0.1c0.54-0.09,1.13-0.07,1.75,0.07    c1.01,0.23,2.01,0.35,3.21,0.47c0.51,0.05,1.01,0.15,1.46,0.23c0.51,0.1,1.05,0.16,1.6,0.19c0.63,0.03,1.11,0.07,1.55,0.12    c0.58,0.06,1.15,0.08,1.69,0.05c0.35-0.02,0.71-0.05,1.06-0.07l0.93-0.06c0.45-0.03,0.9-0.06,1.34-0.1    c0.43-0.03,0.88-0.08,1.38-0.13c0.52-0.06,0.99-0.04,1.42,0.05c0.96,0.21,1.65,0.76,2.04,1.64c0.45,1,0.71,2.08,0.76,3.2    c0.01,0.19,0,0.41-0.02,0.67c-0.05,0.62-0.3,1.12-0.74,1.51c-0.2,0.18-0.41,0.36-0.62,0.53c-0.35,0.29-0.63,0.59-0.86,0.94    c-0.38,0.56-0.55,1.16-0.52,1.78c0.02,0.32,0.05,0.64,0.1,0.96c0.07,0.39,0.14,0.78,0.22,1.18l0.07,0.35    c0.2,1.01,0.28,1.87,0.26,2.7c-0.02,0.58,0,1.18,0.02,1.76l0.01,0.2c0.02,0.61,0.12,1.22,0.3,1.82c0.26,0.86,0.41,1.73,0.45,2.6    c0.03,0.67,0.1,1.34,0.22,2.01c0.05,0.29,0.08,0.52,0.09,0.74c0.04,0.73,0.15,1.46,0.25,2.17c0.03,0.25,0.07,0.5,0.1,0.74    c0.06,0.49,0.19,0.97,0.31,1.42c0.16,0.57,0.32,1.19,0.46,1.83c0.17,0.8,0.37,1.44,0.61,2.01c0.23,0.53,0.38,1.06,0.47,1.59    c0.1,0.62,0.26,1.25,0.48,1.88c0.2,0.59,0.32,1.14,0.35,1.71c0.05,0.86,0.22,1.7,0.39,2.48l0.25,1.12    c0.15,0.69,0.31,1.38,0.46,2.07c0.06,0.29,0.12,0.59,0.17,0.88l0.06,0.32c0.02,0.13,0.04,0.25,0.06,0.38l0.02,0.11    c0.12,0.74,0.54,1.26,1.25,1.55c0.91,0.36,1.75,0.54,2.58,0.54c0.76,0,1.65,0,2.53-0.02c0.3-0.01,0.62-0.04,0.92-0.08l0.21-0.02    c0.24-0.03,0.48-0.06,0.72-0.09l0.41-0.05c0.2-0.02,0.39-0.05,0.59-0.07c0.4-0.05,0.8-0.1,1.19-0.15c0.7-0.1,1.28-0.12,1.82-0.06    c0.91,0.1,1.88,0.05,3.06-0.13l1.85-0.3c0.57-0.09,1.13-0.12,1.65-0.08c1.26,0.1,2.52,0.02,3.87-0.24    c0.53-0.1,1.11-0.19,1.79-0.26c0.32-0.04,0.65-0.04,0.97-0.05l0.26,0c0.17,0,0.34,0.01,0.5,0.03c1.15,0.12,2.31,0.08,3.47-0.09    c0.18-0.03,0.38-0.04,0.59-0.05c2.42-0.02,4.28,0.13,6.03,0.5l0.21,0.04c1.24,0.26,2.53,0.53,3.75,1c0.32,0.12,0.67,0.21,1,0.29    c0.55,0.14,1.11,0.33,1.71,0.6c0.52,0.23,1.04,0.46,1.57,0.69c0.53,0.23,1.08,0.5,1.62,0.8c0.45,0.25,0.94,0.51,1.59,0.82    c1.01,0.5,1.83,0.96,2.58,1.44c0.66,0.42,1.35,0.81,2.05,1.15c0.47,0.23,0.96,0.51,1.5,0.85c0.92,0.59,1.89,1.11,2.83,1.61    c0.36,0.19,0.75,0.35,1.12,0.5l0.14,0.06c0.6,0.24,1.19,0.55,1.76,0.9c0.33,0.21,0.7,0.41,1.13,0.63c0.82,0.41,1.5,0.77,2.15,1.21    c0.29,0.19,0.6,0.35,0.84,0.46c0.76,0.36,1.49,0.75,2.16,1.18c0.24,0.15,0.5,0.29,0.75,0.43c0.1,0.06,0.21,0.12,0.31,0.17    c0.22,0.13,0.48,0.29,0.67,0.52c0.14,0.16,0.2,0.38,0.17,0.59c-0.03,0.21-0.16,0.39-0.34,0.5c-0.14,0.08-0.3,0.16-0.48,0.2    c-0.39,0.11-0.79,0.12-1.08,0.11c-0.82-0.01-1.67-0.16-2.52-0.43l-0.33-0.11c-0.73-0.24-1.49-0.48-2.23-0.76    c-1.71-0.65-3.08-1.44-4.18-2.42c-0.52-0.46-1.12-0.85-1.7-1.22l-0.08-0.05c-0.91-0.59-1.83-1.22-2.71-1.82l-0.54-0.37    c-0.19-0.13-0.37-0.29-0.54-0.45l-0.03-0.03c-0.41-0.37-0.88-0.68-1.4-0.92c-0.63-0.29-1.26-0.66-2.07-1.18    c-0.36-0.23-0.73-0.46-1.09-0.67c-0.15-0.09-0.29-0.18-0.44-0.26c-0.75-0.46-1.52-0.79-2.18-1.06c-0.34-0.14-0.69-0.28-1.03-0.42    c-0.83-0.33-1.69-0.68-2.52-1.06c-0.35-0.16-0.71-0.32-1.07-0.48c-0.44-0.2-0.88-0.39-1.31-0.59c-0.28-0.13-0.6-0.25-0.98-0.35    c-0.43-0.12-0.87-0.23-1.3-0.33l-0.36-0.09c-0.39-0.1-0.75-0.12-1.09-0.07c-0.14,0.02-0.26,0.05-0.37,0.09    c-0.21,0.08-0.37,0.23-0.46,0.43c-0.09,0.2-0.09,0.42-0.01,0.63c0.05,0.12,0.11,0.24,0.18,0.32c0.17,0.21,0.31,0.38,0.48,0.54    c0.46,0.44,0.95,0.89,1.56,1.44c0.13,0.12,0.26,0.23,0.39,0.34c0.14,0.12,0.28,0.23,0.41,0.36c0.74,0.67,1.42,1.21,2.1,1.65    c0.58,0.37,1.07,0.87,1.49,1.31c0.85,0.89,1.81,1.71,2.65,2.4c0.85,0.71,1.76,1.35,2.78,1.98c0.73,0.45,1.4,0.99,1.98,1.46    c0.45,0.36,0.91,0.69,1.39,0.97c0.77,0.45,1.53,0.94,2.28,1.45c0.42,0.29,0.87,0.55,1.3,0.8l0.29,0.17    c0.42,0.24,0.84,0.49,1.26,0.73c0.57,0.33,1.14,0.66,1.71,0.99c0.41,0.24,0.8,0.52,1.09,0.74c0.83,0.61,1.69,1.19,2.56,1.74    c0.48,0.3,0.95,0.61,1.42,0.92c0.37,0.24,0.75,0.49,1.12,0.73c0.24,0.15,0.48,0.3,0.73,0.45c0.2,0.12,0.4,0.24,0.59,0.36    c0.2,0.12,0.38,0.26,0.54,0.39c0.09,0.08,0.15,0.19,0.21,0.3c0.07,0.13,0.08,0.29,0.02,0.45c-0.06,0.16-0.17,0.28-0.31,0.34    c-0.09,0.04-0.17,0.07-0.27,0.08l-0.06,0.01c-0.15,0.01-0.3,0.03-0.45,0.01l-0.25-0.03c-1.09-0.15-2.22-0.3-3.28-0.74    c-0.47-0.2-0.96-0.36-1.37-0.49c-0.61-0.19-1.12-0.44-1.56-0.77c-0.54-0.4-1.12-0.75-1.73-1.04c-0.41-0.2-0.82-0.46-1.25-0.82    c-0.36-0.29-0.73-0.58-1.1-0.85c-0.15-0.11-0.3-0.23-0.45-0.34c-0.08-0.06-0.16-0.12-0.24-0.18c-0.16-0.12-0.32-0.24-0.47-0.37    c-0.56-0.48-1.17-0.94-1.89-1.4c-0.55-0.36-1.06-0.79-1.51-1.28c-0.22-0.24-0.44-0.47-0.66-0.7l-0.24-0.25    c-0.56-0.59-1.17-1.13-1.82-1.61c-0.67-0.5-1.54-1.17-2.36-1.91c-0.23-0.21-0.48-0.4-0.73-0.59c-0.1-0.07-0.19-0.15-0.29-0.22    c-0.07-0.05-0.14-0.11-0.21-0.16c-0.13-0.09-0.26-0.19-0.38-0.29c-0.77-0.69-1.65-1.26-2.5-1.82l-0.27-0.18    c-0.13-0.08-0.26-0.17-0.39-0.25l-0.23-0.15c-0.35-0.22-0.68-0.5-1.09-0.89c-0.28-0.27-0.56-0.54-0.84-0.8    c-0.19-0.18-0.39-0.36-0.58-0.55l-0.22-0.21c-0.26-0.25-0.53-0.5-0.78-0.76c-1.08-1.11-2.15-2.06-3.3-2.89    c-0.31-0.23-0.65-0.47-1-0.7c-0.59-0.4-1.16-0.67-1.73-0.83c-0.39-0.11-0.74-0.13-1.08-0.08c-0.54,0.09-0.89,0.57-0.82,1.11    c0.03,0.24,0.14,0.45,0.25,0.64c0.29,0.51,0.69,0.97,1.31,1.5c0.14,0.12,0.29,0.24,0.44,0.35c0.09,0.07,0.18,0.14,0.26,0.21    c0.63,0.51,1.12,1.02,1.48,1.56c0.45,0.67,1.05,1.18,1.57,1.6c0.09,0.07,0.17,0.13,0.26,0.2c0.09,0.06,0.17,0.13,0.26,0.2    c0.73,0.58,1.22,1.1,1.61,1.66s0.86,1.1,1.51,1.66c0.31,0.27,0.62,0.56,0.92,0.84l0.35,0.32c0.52,0.48,1,1.01,1.44,1.58    c0.4,0.51,0.79,0.94,1.21,1.29c0.65,0.55,1.26,1.14,1.86,1.72c0.31,0.3,0.63,0.61,0.95,0.91c0.27,0.26,0.52,0.55,0.75,0.83    l0.07,0.09c0.15,0.18,0.29,0.37,0.43,0.56c0.09,0.12,0.18,0.24,0.27,0.35c0.44,0.57,0.93,1.01,1.47,1.33    c0.15,0.09,0.29,0.18,0.44,0.27c0.29,0.18,0.59,0.36,0.89,0.53c0.65,0.36,1.2,0.74,1.7,1.16c0.38,0.32,0.81,0.63,1.31,0.94    c0.86,0.54,1.55,1.01,2.17,1.47c0.37,0.28,0.78,0.55,1.22,0.79c0.82,0.46,1.55,0.84,2.23,1.18c0.96,0.47,1.83,1.1,2.55,1.66    c0.15,0.12,0.29,0.26,0.43,0.42c0.09,0.11,0.17,0.25,0.21,0.39c0.07,0.22,0.04,0.45-0.08,0.63c-0.12,0.19-0.33,0.31-0.57,0.34    c-0.22,0.02-0.44-0.01-0.69-0.09c-0.36-0.12-0.68-0.31-0.97-0.49l-0.82-0.52c-0.74-0.47-1.47-0.94-2.21-1.4    c-0.31-0.2-0.64-0.38-0.91-0.53c-1.31-0.71-2.39-1.46-3.3-2.29c-0.52-0.48-1.08-0.91-1.66-1.29c-0.71-0.46-1.35-1.04-1.89-1.72    c-0.66-0.83-1.43-1.5-2.29-2c-0.72-0.42-1.4-0.94-2.08-1.61c-0.62-0.61-1.21-1.1-1.8-1.5c-0.6-0.4-1.11-0.92-1.54-1.37    c-1.41-1.48-2.64-2.58-3.87-3.47c-0.55-0.4-1.08-0.89-1.57-1.46c-0.85-0.98-1.8-1.96-3.01-3.09l-0.08-0.08    c-0.19-0.18-0.39-0.36-0.57-0.55c-0.49-0.53-1.06-1.06-1.84-1.72c-0.74-0.62-1.7-1.46-2.56-2.42c-0.58-0.65-1.21-1.1-1.93-1.37    c-0.4-0.15-0.74-0.21-1.07-0.18c-0.64,0.05-1.05,0.48-1.08,1.12c-0.02,0.48,0.08,0.93,0.3,1.36c0.37,0.7,0.85,1.35,1.44,1.92    c0.6,0.58,1.13,1.03,1.67,1.4c0.61,0.43,1.2,0.95,1.78,1.59c0.21,0.23,0.44,0.46,0.66,0.69l0.19,0.19    c0.17,0.17,0.34,0.35,0.51,0.52c0.33,0.33,0.66,0.66,0.98,0.99c0.37,0.38,0.71,0.71,1.06,1l0.1,0.08c0.2,0.16,0.4,0.33,0.58,0.52    c0.73,0.76,1.52,1.47,2.29,2.15c0.19,0.17,0.38,0.34,0.57,0.51c0.62,0.56,1.1,1.04,1.52,1.5c0.37,0.41,0.78,0.82,1.27,1.25    l0.2,0.18c0.12,0.1,0.23,0.21,0.35,0.31c0.75,0.63,1.38,1.3,1.9,2.05c0.41,0.58,0.91,1.13,1.52,1.67    c0.29,0.25,0.57,0.51,0.86,0.76l0.43,0.37c0.46,0.4,0.79,0.77,1.07,1.16c0.39,0.56,0.88,1.13,1.47,1.72    c0.79,0.78,1.35,1.5,1.77,2.27c0.04,0.08,0.09,0.15,0.13,0.22c0.04,0.06,0.08,0.13,0.12,0.19c0.38,0.66,3.16,2.93,1.68,3.34    c-0.42,0.12-0.86-0.05-1.24-0.26c-0.96-0.53-1.57-0.99-2.28-1.86c-0.44-0.53-0.91-1.02-1.41-1.44c-0.59-0.5-1.11-1.08-1.55-1.71    c-0.2-0.29-0.42-0.56-0.66-0.8c-0.65-0.65-1.24-1.39-1.8-2.09c-0.73-0.92-1.53-1.75-2.31-2.56l-0.11-0.11    c-0.38-0.4-0.78-0.78-1.16-1.14c-0.84-0.77-1.67-1.66-2.67-2.89c-0.58-0.71-1.22-1.29-1.97-1.77c-0.33-0.22-0.68-0.46-1.08-0.75    c-0.68-0.49-1.23-1.01-1.68-1.59c-0.62-0.79-1.27-1.45-1.99-2c-0.36-0.28-0.69-0.63-0.98-1.03c-0.44-0.61-0.94-1.19-1.42-1.75    c-0.18-0.21-0.37-0.42-0.55-0.64c-0.22-0.26-0.46-0.49-0.67-0.69c-0.45-0.42-0.84-0.83-1.19-1.26c-0.63-0.77-1.34-1.49-2.1-2.13    c-0.31-0.26-0.61-0.53-0.92-0.8c-0.14-0.13-0.29-0.26-0.44-0.39c-0.36-0.32-0.66-0.53-0.97-0.7c-0.24-0.13-0.45-0.2-0.65-0.22    c-0.19-0.02-0.38,0.04-0.52,0.16c-0.15,0.12-0.23,0.3-0.24,0.48c-0.02,0.27,0.05,0.5,0.21,0.67c0.16,0.18,0.31,0.32,0.46,0.43    c0.59,0.44,1.1,1,1.55,1.72c0.54,0.86,1.11,1.58,1.76,2.21c0.32,0.31,0.6,0.66,0.84,1.03c0.28,0.44,0.62,0.87,1.09,1.4    c0.28,0.31,0.53,0.64,0.77,0.96l0.1,0.13c0.22,0.29,0.43,0.58,0.65,0.87c0.13,0.17,0.25,0.34,0.38,0.51    c0.07,0.09,0.14,0.18,0.21,0.27c0.11,0.15,0.23,0.29,0.33,0.44c0.35,0.49,0.75,1,1.27,1.58c0.28,0.32,0.57,0.68,0.87,1.1    c0.51,0.71,0.98,1.24,1.49,1.69c0.57,0.5,1.06,1.1,1.54,1.71c0.61,0.78,1.22,1.66,1.86,2.7c0.33,0.52,0.73,1.01,1.12,1.48    l0.21,0.26c0.18,0.22,0.37,0.47,0.59,0.79c0.1,0.14,0.15,0.32,0.14,0.54c-0.01,0.16-0.1,0.32-0.24,0.41    c-0.14,0.09-0.3,0.11-0.44,0.05c-0.13-0.05-0.27-0.12-0.39-0.22l-0.05-0.05c-0.28-0.26-0.58-0.52-0.84-0.81    c-0.87-0.98-1.83-1.88-2.65-2.64c-1.15-1.06-2.22-2.17-3.2-3.28c-0.33-0.38-0.63-0.78-0.92-1.18l-0.09-0.12    c-0.34-0.45-0.67-0.86-1.03-1.25c-0.38-0.41-0.78-0.88-1.28-1.5c-0.29-0.36-0.58-0.72-0.9-1.04c-0.57-0.56-1.01-1.15-1.33-1.79    c-0.43-0.86-1.04-1.62-1.63-2.35l-0.29-0.36c-0.11-0.14-0.25-0.28-0.45-0.43c-0.11-0.09-0.25-0.11-0.38-0.05    c-0.13,0.06-0.21,0.18-0.23,0.32c-0.02,0.2-0.01,0.41,0.01,0.62c0.05,0.39,0.18,0.79,0.39,1.2c0.12,0.24,0.23,0.44,0.35,0.64    c0.4,0.66,0.82,1.34,1.25,2.01c0.34,0.53,0.73,1.01,1.16,1.44c0.61,0.61,1.17,1.27,1.71,1.91c0.17,0.2,0.34,0.4,0.51,0.6    c0.37,0.43,0.64,0.89,0.95,1.45l0.1,0.17c0.33,0.6,0.67,1.22,1.04,1.81c0.52,0.83,1.18,1.53,2.04,2.14    c0.32,0.23,0.62,0.49,0.91,0.74l0.11,0.09c0.16,0.13,0.29,0.3,0.4,0.44c0.08,0.1,0.12,0.21,0.16,0.32    c0.1,0.27,0.02,0.57-0.19,0.72c-0.19,0.14-0.43,0.15-0.66,0.04c-0.19-0.09-0.36-0.2-0.5-0.31c-0.45-0.36-0.79-0.69-1.07-1.04    c-0.25-0.32-0.47-0.57-0.68-0.81c-0.59-0.67-1.1-1.18-1.6-1.61c-0.88-0.77-1.68-1.65-2.36-2.62c-0.27-0.38-0.56-0.75-0.85-1.09    c-0.4-0.49-0.7-0.97-0.92-1.47c-0.05-0.12-0.11-0.24-0.17-0.37c-0.05-0.1-0.09-0.2-0.14-0.3c-0.26-0.58-0.55-1.08-0.88-1.53    c-0.44-0.6-0.84-1.23-1.18-1.88c-0.31-0.58-0.64-1.04-1.03-1.42c-0.49-0.48-0.93-1.06-1.28-1.72c-0.28-0.53-0.61-1.01-0.96-1.5    c-0.36-0.52-0.71-1.07-1.05-1.59l-0.07-0.12c-0.2-0.31-0.4-0.53-0.63-0.68c-0.31-0.21-0.61-0.27-0.86-0.15    c-0.26,0.12-0.46,0.43-0.5,0.79c-0.02,0.22,0,0.44,0.08,0.67c0.05,0.14,0.11,0.29,0.16,0.43c0.04,0.11,0.09,0.22,0.13,0.33    l0.17,0.45c0.18,0.48,0.36,0.98,0.53,1.47c0.15,0.45,0.34,0.81,0.58,1.12c0.71,0.89,1.23,1.88,1.61,3.05    c0.29,0.9,0.66,1.69,1.13,2.4c0.21,0.32,0.37,0.66,0.5,0.96c0.29,0.66,0.65,1.3,1.06,1.9c0.48,0.7,0.88,1.43,1.18,2.17    c0.25,0.64,0.57,1.24,0.93,1.79c0.33,0.5,0.61,1.02,0.82,1.53c0.1,0.23,0.16,0.44,0.21,0.64c0.03,0.15,0.02,0.3,0,0.44    c-0.02,0.13-0.1,0.26-0.24,0.34c-0.13,0.08-0.29,0.1-0.41,0.06c-0.17-0.06-0.29-0.12-0.39-0.19c-0.68-0.47-1.18-1-1.54-1.62    c-0.27-0.47-0.53-0.97-0.78-1.54c-0.28-0.62-0.57-1.19-0.88-1.74c-0.2-0.36-0.39-0.73-0.6-1.17c-0.12-0.24-0.23-0.48-0.34-0.72    c-0.16-0.34-0.33-0.7-0.5-1.04c-0.38-0.74-0.72-1.52-1.01-2.34c-0.29-0.81-0.61-1.51-0.97-2.14c-0.43-0.76-0.71-1.46-0.86-2.15    c-0.09-0.42-0.24-0.81-0.46-1.18c-0.48-0.81-0.9-1.68-1.25-2.59c-0.08-0.21-0.17-0.4-0.28-0.56c-0.11-0.16-0.25-0.29-0.37-0.38    c-0.05-0.04-0.11-0.06-0.19-0.05c-0.09,0.01-0.18,0.06-0.23,0.12c-0.09,0.11-0.14,0.24-0.17,0.4c-0.05,0.28-0.04,0.57,0.03,0.84    c0.08,0.33,0.17,0.68,0.3,1c0.61,1.59,0.97,3.32,1.18,5.6c0.08,0.85,0.18,1.72,0.28,2.55l0.09,0.77c0.12,1.03,0.32,2.06,0.52,3.06    c0.05,0.24,0.09,0.48,0.14,0.71c0.14,0.74,0.31,1.33,0.53,1.86c0.09,0.22,0.15,0.45,0.21,0.72c0.03,0.15,0,0.3-0.02,0.38    c-0.03,0.11-0.13,0.21-0.23,0.24c-0.11,0.03-0.24-0.02-0.32-0.07c-0.1-0.07-0.17-0.17-0.2-0.23c-0.07-0.13-0.15-0.29-0.21-0.46    c-0.14-0.41-0.33-0.82-0.58-1.23c-0.62-1.04-0.97-2.2-1.06-3.45c-0.04-0.56-0.11-1.17-0.23-1.85c-0.05-0.29-0.09-0.58-0.14-0.87    c-0.06-0.38-0.12-0.77-0.19-1.15c-0.09-0.51-0.21-1.05-0.35-1.67c-0.29-1.22-0.47-2.36-0.55-3.48c-0.05-0.63-0.14-1.2-0.3-1.74    c-0.15-0.54-0.3-1.07-0.45-1.61c-0.13-0.46-0.26-0.92-0.39-1.38c-0.05-0.17-0.1-0.35-0.18-0.52c-0.05-0.11-0.12-0.21-0.21-0.3    c-0.16-0.16-0.38-0.22-0.61-0.16c-0.22,0.06-0.39,0.22-0.45,0.43c-0.04,0.15-0.06,0.31-0.05,0.44c0.02,0.27,0.07,0.53,0.13,0.79    c0.14,0.55,0.24,1.09,0.31,1.62c0.03,0.2,0.06,0.4,0.1,0.6l0.5,2.72c0.01,0.04,0.02,0.09,0.02,0.14l0.12,1.03    c0.09,0.83,0.19,1.69,0.28,2.54l0.01,0.08c0.05,0.53,0.1,1.08,0.22,1.6c0.07,0.32,0.13,0.64,0.19,0.96    c0.22,1.19,0.34,2.17,0.37,3.1c0.03,0.84,0.08,1.7,0.14,2.53l0.05,0.73c0.07,1.1,0.22,2.18,0.46,3.21    c0.29,1.26,0.44,2.52,0.57,3.81c0.05,0.48,0.11,0.86,0.17,1.2c0.12,0.59,0.18,1.13,0.21,1.63c0.03,0.67,0.14,1.34,0.32,1.99    c0.21,0.77,0.31,1.5,0.31,2.21c0,0.16,0.02,0.32,0.03,0.49c0.01,0.08,0.02,0.15,0.02,0.23c0.02,0.21,0.04,0.42,0.06,0.63    c0.04,0.46,0.09,0.93,0.11,1.4c0.04,0.86,0.14,1.57,0.31,2.24c0.19,0.76,0.31,1.54,0.42,2.29l0.06,0.37    c0.11,0.73,0.19,1.48,0.26,2.2c0.06,0.66,0.13,1.35,0.23,2.02l0.13,0.89c0.03,0.18,0.05,0.35,0.08,0.53    c0.06,0.38,0.12,0.78,0.17,1.17c0.1,0.79,0.22,1.63,0.51,2.45c0.18,0.51,0.29,1.08,0.35,1.79c0.03,0.39,0.08,0.79,0.12,1.18    c0.03,0.23,0.05,0.46,0.07,0.69c0.03,0.29,0.07,0.67,0.09,1.06l0.04,0.62c0.07,1.16,0.15,2.36,0.21,3.54    c0.02,0.38,0.02,0.76,0.02,1.13c0,0.2,0,0.39,0,0.59l0,0.34c0,0.37,0.01,0.75,0.03,1.12c0.02,0.42,0.13,0.83,0.3,1.22    c0.27,0.6,0.68,0.98,1.28,1.15c0.32,0.09,0.66,0.18,1.02,0.26c0.52,0.12,0.99,0.26,1.42,0.42c0.63,0.24,1.32,0.43,2.1,0.59    c0.66,0.13,1.33,0.3,1.97,0.46c0.22,0.05,0.43,0.11,0.65,0.16c0.79,0.19,1.46,0.34,2.15,0.43c0.37,0.05,0.75,0.13,1.13,0.25    c0.44,0.14,0.88,0.3,1.3,0.46l0.4,0.15c0.22,0.08,0.39,0.18,0.53,0.32c0.13,0.13,0.19,0.31,0.17,0.48    c-0.02,0.17-0.11,0.32-0.25,0.4c-0.11,0.07-0.24,0.15-0.39,0.19c-1.03,0.29-1.94,0.35-2.8,0.16c-0.62-0.14-1.12-0.3-1.58-0.5    c-0.68-0.31-1.4-0.58-2.2-0.82l-0.05-0.01c-0.09-0.03-0.18-0.06-0.27-0.09c-1.11-0.44-2.28-0.75-3.41-1.04l-0.4-0.1    c-0.44-0.12-0.9-0.21-1.35-0.29c-0.25-0.04-0.52-0.06-0.79-0.04c-0.46,0.03-0.81,0.34-0.92,0.82c-0.05,0.22-0.06,0.45-0.02,0.69    l0.09,0.6c0.11,0.7,0.22,1.43,0.35,2.14c0.05,0.3,0.15,0.62,0.3,0.99c0.29,0.73,0.6,1.51,0.84,2.31c0.06,0.19,0.14,0.39,0.21,0.57    c0.03,0.09,0.07,0.17,0.1,0.26c0.02,0.05,0.04,0.09,0.06,0.14c0.04,0.11,0.09,0.22,0.12,0.33c0.04,0.18,0.07,0.35,0.06,0.51    c0,0.23-0.12,0.44-0.32,0.56c-0.2,0.12-0.45,0.13-0.67,0.02c-0.21-0.11-0.37-0.25-0.47-0.41l-0.06-0.09    c-0.14-0.23-0.28-0.46-0.38-0.71c-0.34-0.85-0.68-1.73-0.89-2.64c-0.11-0.46-0.19-0.93-0.24-1.38c-0.07-0.62-0.18-1.16-0.33-1.66    c-0.16-0.53-0.31-1.05-0.43-1.5c-0.26-0.97-0.88-1.48-1.88-1.56c-0.58-0.05-1.02-0.03-1.44,0.03c-0.63,0.11-1.17,0.23-1.66,0.37    c-0.39,0.12-0.79,0.22-1.18,0.33l-0.47,0.13c-0.06,0.02-0.11,0.03-0.17,0.04c-0.1,0.02-0.2,0.05-0.29,0.08    c-0.91,0.35-1.83,0.7-2.74,1.06c-0.33,0.13-0.61,0.34-0.87,0.54c-0.11,0.09-0.22,0.18-0.33,0.27c-0.21,0.17-0.42,0.34-0.63,0.5    c-0.23,0.18-0.49,0.36-0.81,0.56c-0.15,0.1-0.33,0.13-0.54,0.12c-0.13-0.01-0.26-0.09-0.34-0.21c-0.07-0.11-0.1-0.23-0.06-0.34    c0.04-0.12,0.08-0.23,0.14-0.32c0.54-0.79,1.24-1.34,2.07-1.63c0.08-0.03,0.16-0.05,0.24-0.08c0.55-0.16,1.09-0.42,1.58-0.76    c0.7-0.48,1.48-0.89,2.4-1.26l0.13-0.05c0.16-0.06,0.32-0.13,0.47-0.2c0.75-0.36,1.61-0.59,2.71-0.72    c0.15-0.02,0.3-0.03,0.45-0.05c0.17-0.02,0.35-0.04,0.52-0.06c0.43-0.05,0.83-0.18,1.19-0.39c0.55-0.31,0.82-0.76,0.81-1.37    c0-0.25-0.02-0.45-0.04-0.64c-0.17-1.39-0.29-2.88-0.39-4.56c-0.03-0.51-0.09-1.02-0.19-1.52c-0.14-0.75-0.22-1.49-0.23-2.21    c-0.01-0.87-0.09-1.66-0.25-2.41c-0.26-1.26-0.36-2.42-0.3-3.52c0.02-0.35-0.02-0.71-0.05-1.04c-0.07-0.59-0.09-1.05-0.07-1.48    c0.02-0.45-0.02-0.93-0.11-1.52c-0.07-0.47-0.12-0.94-0.15-1.39c-0.07-1.06-0.13-2.14-0.19-3.18c-0.03-0.62-0.11-1.16-0.23-1.68    c-0.16-0.68-0.24-1.37-0.31-2.03c-0.07-0.67-0.16-1.36-0.25-2.02c-0.05-0.35-0.09-0.71-0.14-1.06l-0.03-0.22    c-0.04-0.33-0.09-0.67-0.11-1c-0.08-1.19-0.33-2.35-0.77-3.46c-0.31-0.79-0.55-1.62-0.78-2.42c-0.08-0.26-0.15-0.52-0.23-0.78    c-0.11-0.35-0.16-0.72-0.22-1.08c-0.02-0.13-0.04-0.25-0.06-0.38c-0.02-0.13-0.04-0.26-0.05-0.39c-0.01-0.11-0.03-0.22-0.04-0.34    c-0.24-1.5-1.36-1.91-2.25-2c-0.1-0.01-0.2-0.01-0.3,0l-0.09,0c-0.73,0.02-1.28,0.37-1.66,1.07c-0.19,0.35-0.3,0.74-0.32,1.2    c-0.03,0.48,0.01,0.97,0.09,1.44c0.13,0.7,0.18,1.39,0.21,2.04c0.04,0.79,0.09,1.58,0.13,2.36c0.04,0.6,0.07,1.2,0.1,1.8    c0.02,0.42,0.03,0.8,0.01,1.15c-0.03,0.59-0.02,1.07,0.03,1.53c0.07,0.76,0.08,1.51,0.01,2.22c-0.03,0.37-0.02,0.75,0,1.12l0,0.09    c0.01,0.19,0.03,0.38,0.04,0.57c0.02,0.19,0.04,0.38,0.04,0.57c0.02,0.49,0.04,1.14,0.04,1.8c0,0.51-0.03,1.01-0.06,1.48    c-0.02,0.34-0.06,0.7-0.11,1.06c-0.22,1.63-0.37,3.14-0.45,4.62c-0.07,1.2-0.22,2.29-0.46,3.33c-0.13,0.56-0.24,1.17-0.34,1.92    c-0.15,1.16-0.43,2.25-0.82,3.27c-0.28,0.72-0.48,1.48-0.6,2.26c-0.06,0.41-0.17,0.82-0.28,1.21c-0.12,0.42-0.26,0.85-0.39,1.27    l-0.17,0.53c-0.25,0.79-0.51,1.47-0.81,2.07c-0.58,1.17-0.99,2.23-1.26,3.25c-0.17,0.64-0.36,1.29-0.55,1.91l-0.18,0.6    c-0.05,0.17-0.1,0.34-0.16,0.51c-0.05,0.14-0.09,0.28-0.13,0.43l-0.03,0.11c-0.07,0.22-0.13,0.45-0.19,0.67    c-0.14,0.62-0.05,1.23,0.28,1.81c0.2,0.35,0.46,0.67,0.8,0.98c0.54,0.5,1.19,0.97,2.03,1.46c0.63,0.37,1.33,0.77,2.19,1.26    c0.92,0.52,1.84,1.16,2.9,2c0.39,0.32,0.76,0.68,1.11,1.12c0.15,0.18,0.24,0.36,0.28,0.55c0.04,0.17,0,0.35-0.12,0.49    c-0.11,0.13-0.28,0.2-0.45,0.2c-0.12-0.01-0.24-0.03-0.35-0.06c-0.13-0.04-0.24-0.09-0.32-0.15c-0.33-0.23-0.69-0.45-1.03-0.65    c-0.58-0.35-1.17-0.7-1.69-1.16c-0.23-0.2-0.5-0.39-0.85-0.59c-0.63-0.36-1.24-0.82-1.84-1.39c-0.53-0.5-1.06-0.89-1.61-1.19    l-0.05-0.03c-0.15-0.08-0.3-0.16-0.45-0.23c-0.19-0.08-0.36-0.13-0.52-0.17c-0.78-0.15-1.43,0.14-1.82,0.82    c-0.14,0.25-0.26,0.53-0.37,0.88c-0.23,0.7-0.49,1.4-0.77,2.07c-0.12,0.28-0.22,0.59-0.33,0.99c-0.2,0.74-0.43,1.47-0.68,2.19    c-0.15,0.42-0.27,0.86-0.39,1.28c-0.06,0.22-0.13,0.45-0.19,0.67c-0.1,0.32-0.2,0.67-0.32,1.02c-0.1,0.28-0.26,0.52-0.5,0.71    C69.17,140.4,69,140.46,68.82,140.46z M82.7,74.31c-0.26,0-0.53-0.01-0.8-0.04c-0.16-0.02-0.33-0.05-0.5-0.11    c-0.53-0.18-0.87-0.53-1-1.03c-0.07-0.28-0.12-0.58-0.14-0.9c-0.04-0.48-0.06-0.97-0.09-1.45l-0.03-0.54    c-0.01-0.01-0.02-0.03-0.02-0.05l-0.02-0.35c-0.01-0.26-0.03-0.52-0.05-0.78l-0.02-0.24c-0.03-0.4-0.06-0.81-0.12-1.21    c-0.09-0.6-0.15-1.25-0.18-2.04c-0.02-0.57-0.06-1.13-0.09-1.7l-0.03-0.58c0-0.08-0.01-0.16-0.02-0.24    c-0.01-0.11-0.02-0.22-0.02-0.33c-0.06-1.58-0.16-3.18-0.26-4.73c-0.04-0.68-0.09-1.36-0.13-2.04c-0.02-0.27-0.03-0.55-0.03-0.83    c0-0.22,0.03-0.42,0.08-0.59c0.16-0.54,0.52-0.87,1.06-0.96c0.67-0.11,1.34-0.02,1.98,0.25c0.54,0.23,0.92,0.63,1.11,1.16    c0.09,0.27,0.17,0.57,0.24,0.97c0.04,0.24,0.06,0.49,0.07,0.74l0,0.09c0.03,0.59,0.1,1.22,0.22,1.93c0.1,0.59,0.14,1.19,0.16,1.64    c0.03,0.57,0.08,1.33,0.21,2.1c0.08,0.48,0.12,0.96,0.16,1.44l0,0.03c0.07,0.89,0.19,1.63,0.37,2.32    c0.16,0.62,0.27,1.29,0.34,2.11c0.09,1.14,0.13,2.27,0.16,3.51l0,0c0.01,0.36-0.01,0.69-0.06,1c-0.13,0.78-0.59,1.25-1.38,1.38    C83.5,74.28,83.1,74.31,82.7,74.31z M95.32,56.64c-0.11,0-0.22-0.03-0.31-0.08c-0.06-0.03-0.11-0.06-0.15-0.09    c-0.41-0.31-0.72-0.72-0.91-1.19c-0.09-0.22-0.12-0.46-0.09-0.69c0.04-0.31,0.31-0.55,0.61-0.55c0.09,0,0.18,0,0.27,0.02    c0.75,0.19,1.3,0.89,1.33,1.7c-0.01,0.05-0.01,0.08-0.01,0.11c-0.01,0.09-0.03,0.22-0.07,0.34l0,0c-0.06,0.18-0.2,0.32-0.39,0.39    C95.5,56.62,95.41,56.64,95.32,56.64z M94.5,54.26c-0.01,0-0.03,0-0.04,0c-0.18,0-0.36,0.17-0.38,0.36c-0.03,0.2,0,0.39,0.07,0.58    c0.18,0.44,0.46,0.81,0.84,1.1c0.04,0.03,0.08,0.05,0.12,0.07c0.12,0.06,0.26,0.07,0.39,0.02c0.13-0.05,0.22-0.14,0.26-0.25    c0,0,0,0,0,0c0.03-0.1,0.05-0.21,0.06-0.29c0.01-0.04,0.01-0.07,0.01-0.09c-0.03-0.69-0.51-1.3-1.16-1.46    C94.62,54.26,94.56,54.26,94.5,54.26z"/>
	</g>
</g>
<g>
	<g>
		<path class="st0" d="M178.59,70.88c0.12-0.02,0.24-0.04,0.36-0.05c0.68-0.09,1.35-0.22,1.99-0.49c0.2-0.09,0.43-0.13,0.64-0.19    c0.38-0.1,0.74-0.23,1.09-0.4c0.18-0.09,0.38-0.15,0.57-0.21c0.44-0.14,0.88-0.28,1.32-0.42c0.12-0.04,0.24-0.08,0.37-0.1    c0.26-0.05,0.5-0.14,0.73-0.25c0.18-0.09,0.36-0.14,0.55-0.16c0.39-0.03,0.76-0.12,1.12-0.28c0.1-0.04,0.2-0.07,0.31-0.09    c0.56-0.14,1.11-0.28,1.67-0.42c0.13-0.03,0.26-0.04,0.39-0.07c0.44-0.07,0.88-0.14,1.32-0.22c0.35-0.07,0.71-0.15,1.05-0.25    c0.72-0.21,1.46-0.34,2.17-0.59c0.36-0.13,0.74-0.2,1.11-0.32c0.3-0.09,0.58-0.21,0.88-0.31c0.22-0.08,0.44-0.15,0.67-0.21    c0.35-0.09,0.36-0.74,0.56-1.03c0.27-0.4,0.47-0.83,0.65-1.27c0.21-0.5,0.32-1.03,0.49-1.54c0.08-0.25,0.1-0.53,0.13-0.79    c0.05-0.43,0.1-0.87,0.13-1.31c0.01-0.22-0.02-0.44-0.04-0.65c-0.02-0.2-0.06-0.4-0.08-0.6c-0.03-0.22-0.07-0.44-0.18-0.64    c-0.16-0.28-0.32-0.56-0.49-0.83c-0.2-0.31-0.49-0.53-0.78-0.75c-0.56-0.43-1.16-0.77-1.78-1.08c-0.14-0.07-0.27-0.18-0.4-0.28    c-0.17-0.15-0.14-0.33,0.06-0.43c0.28-0.14,0.57-0.15,0.86-0.06c0.54,0.16,1.08,0.33,1.61,0.52c0.49,0.17,0.94,0.43,1.3,0.8    c0.43,0.44,0.82,0.92,1.05,1.5c0.16,0.39,0.22,0.81,0.28,1.23c0.03,0.22,0.06,0.44,0.1,0.66c0.11,0.53,0.13,1.06,0.03,1.59    c-0.27,1.48-0.99,3-1.13,4.48c-0.17,1.85,1.45,3.75,1.81,5.54c0.1,0.51,0.28,1.01,0.42,1.51c0.03,0.11,0.05,0.22,0.04,0.33    c-0.02,0.44-0.13,0.85-0.42,1.2c-0.04,0.04-0.07,0.09-0.1,0.13c-0.14,0.16-0.14,0.33-0.06,0.51c0.06,0.11,0.12,0.23,0.2,0.32    c0.31,0.36,0.53,0.77,0.71,1.2c0.06,0.14,0.14,0.26,0.21,0.39c0.1,0.19,0.2,0.38,0.29,0.57c0.14,0.27,0.27,0.55,0.42,0.81    c0.13,0.24,0.24,0.49,0.32,0.76c0.12,0.39,0.27,0.77,0.41,1.15c0.12,0.35,0.24,0.71,0.36,1.07c0.03,0.08,0.04,0.16,0.06,0.24    c0.12,0.45,0.27,0.9,0.36,1.35c0.15,0.71,0.39,1.39,0.45,2.12c0.04,0.5,0.15,1,0.25,1.49c0.01,0.03,0.01,0.06,0.02,0.09    c0.18,0.47,0.22,0.97,0.35,1.45c0.04-0.04,0.03-0.1,0.07-0.14c-0.32,0.27,0.71,3.35,0.79,3.78c0.08,0.42,0.12,0.84,0.28,1.24    c0.02,0.06,0.03,0.12,0.04,0.18c0.08,0.45,0.18,0.91,0.25,1.36c0.05,0.34,0.09,0.69,0.12,1.03c0.02,0.23-0.09,0.41-0.29,0.51    c-0.1,0.05-0.21,0.09-0.32,0.14c-0.42,0.17-0.85,0.34-1.3,0.45c-0.12,0.03-0.24,0.09-0.36,0.14c-0.26,0.11-0.52,0.21-0.78,0.32    c-0.07,0.03-0.15,0.04-0.22,0.05c-0.21,0.03-0.34-0.04-0.44-0.22c-0.17-0.32-0.19-0.32-0.55-0.29c-0.12,0.01-0.23,0.02-0.35,0    c-0.31-0.03-0.45-0.3-0.27-0.56c0.21-0.3,0.44-0.58,0.77-0.77c0.24-0.13,0.46-0.29,0.69-0.45c0.46-0.34,0.95-0.6,1.53-0.69    c0.05-0.01,0.1-0.02,0.15-0.04c0.22-0.07,0.34-0.23,0.32-0.46c-0.01-0.13-0.05-0.27-0.08-0.4c-0.05-0.2-0.1-0.39-0.14-0.59    c-0.04-0.16-0.07-0.33-0.1-0.49c-0.04-0.21-0.06-0.43-0.11-0.65c-0.05-0.26-0.12-0.52-0.17-0.79c-0.03-0.12-0.05-0.25-0.07-0.37    c-0.23-1.1-0.57-2.15-0.77-3.25c-0.05-0.26-0.14-0.52-0.21-0.78c0-0.01-0.01-0.02-0.01-0.03c-0.06-0.67-0.3-1.3-0.39-1.96    c-0.06-0.42-0.15-0.84-0.29-1.25c-0.04-0.12-0.06-0.26-0.09-0.39c-0.08-0.32-0.16-0.65-0.26-0.97c-0.05-0.17-0.15-0.33-0.22-0.5    c-0.09-0.2-0.18-0.4-0.25-0.61c-0.1-0.31-0.25-0.59-0.43-0.85c-0.12-0.18-0.23-0.37-0.35-0.55c-0.19-0.28-0.38-0.55-0.58-0.82    c-0.09-0.13-0.19-0.25-0.28-0.38c-0.24-0.38-0.47-0.77-0.71-1.15c-0.16-0.25-0.31-0.5-0.48-0.74c-0.08-0.11-0.19-0.2-0.29-0.29    c-0.09-0.08-0.2-0.1-0.31-0.09c-0.24,0.02-0.45,0.12-0.63,0.28c-0.17,0.14-0.23,0.34-0.2,0.55c0.05,0.3,0.12,0.59,0.24,0.87    c0.13,0.3,0.23,0.62,0.36,0.92c0.07,0.17,0.16,0.34,0.24,0.51c0.36,0.73,0.89,1.35,1.27,2.06c0.29,0.56,0.6,1.12,0.77,1.72    c0.15,0.52,0.36,1.03,0.41,1.58c0.01,0.09,0.04,0.19,0.08,0.28c0.16,0.44,0.24,0.89,0.3,1.35c0.19,1.49,0.08,3.03,0.18,4.54    c0,0.06,0.01,0.11,0,0.17c-0.08,0.54-0.09,1.1-0.25,1.63c-0.05,0.18-0.08,0.37-0.1,0.55c-0.07,0.62-0.22,1.22-0.39,1.82    c-0.1,0.34-0.18,0.69-0.26,1.04c-0.1,0.41-0.22,0.81-0.45,1.18c-0.24,0.39-0.59,0.61-1.04,0.71c-0.29,0.06-0.57,0.15-0.86,0.22    c-0.43,0.11-0.86,0.22-1.28,0.33c-0.17,0.05-0.34,0.11-0.51,0.15c-0.16,0.03-0.32,0.06-0.48,0.05c-0.1,0-0.2-0.06-0.29-0.11    c-0.12-0.08-0.15-0.21-0.12-0.35c0.01-0.05,0.03-0.1,0.06-0.14c0.3-0.35,0.59-0.7,1-0.93c0.26-0.15,0.49-0.34,0.74-0.51    c0.14-0.1,0.29-0.19,0.44-0.28c0.34-0.19,0.68-0.41,0.95-0.69c0.26-0.28,0.49-0.6,0.71-0.91c0.06-0.09,0.1-0.2,0.12-0.31    c0.09-0.5,0.17-0.99,0.24-1.49c0.4-2.71,0.54-5.12-0.37-7.79c-0.07-0.2-0.18-0.38-0.28-0.56c-0.15-0.26-0.27-0.54-0.34-0.83    c-0.06-0.27-0.2-0.51-0.35-0.74c-0.1-0.15-0.2-0.31-0.26-0.48c-0.11-0.34-0.28-0.64-0.47-0.94c-0.2-0.32-0.41-0.63-0.6-0.96    c-0.31-0.56-0.57-1.15-0.81-1.74c-0.08-0.2-0.18-0.39-0.27-0.58c-0.09-0.2-0.16-0.4-0.24-0.59c-0.06-0.14-0.11-0.28-0.18-0.4    c-0.12-0.19-0.31-0.28-0.53-0.26c-0.17,0.01-0.34,0.03-0.52,0.04c-0.25,0.02-0.5,0.04-0.74,0.05c-0.06,0-0.11,0.01-0.17,0.01    c-0.46,0.05-0.93,0.11-1.39,0.16c-0.06,0.01-0.12,0.01-0.18,0.01c-0.28,0.02-0.55,0.07-0.82,0.16c-0.42,0.14-0.85,0.26-1.27,0.37    c-0.27,0.07-0.54,0.16-0.79,0.27c-0.17,0.08-0.35,0.13-0.53,0.18c-0.4,0.11-0.77,0.28-1.15,0.46c-0.43,0.21-0.86,0.4-1.3,0.57    c-0.42,0.17-0.84,0.3-1.26,0.45c-0.19,0.07-0.36,0.16-0.55,0.24c-0.28,0.11-0.55,0.24-0.83,0.34c-0.52,0.18-0.89,0.51-1.17,0.97    c-0.28,0.46-0.47,0.95-0.53,1.48c-0.01,0.1-0.01,0.2-0.01,0.3c0,0.53,0.01,1.06,0.01,1.59c0,0.09,0.01,0.17,0.03,0.26    c0.15,0.6,0.3,1.2,0.47,1.8c0.11,0.4,0.26,0.79,0.39,1.19c0.04,0.13,0.09,0.25,0.11,0.38c0.06,0.5,0.21,0.97,0.32,1.46    c0.01,0.05,0.03,0.1,0.03,0.15c0.06,0.38,0.12,0.76,0.17,1.15c0.02,0.11,0.02,0.22,0.02,0.33c0.01,0.48,0.15,0.93,0.22,1.4    c0.03,0.21,0.06,0.41,0.07,0.62c0.01,0.28,0.08,0.55,0.13,0.83c0.04,0.22,0.08,0.44,0.11,0.66c0.04,0.24,0.05,0.48,0.11,0.71    c0.11,0.46,0.14,0.92,0.16,1.39c0.02,0.34,0.09,0.67,0.16,1.01c0.04,0.19,0.16,0.34,0.29,0.48c0.15,0.17,0.24,0.36,0.29,0.58    c0.05,0.25-0.05,0.42-0.25,0.56c-0.28,0.2-0.6,0.34-0.93,0.45c-0.68,0.23-1.34,0.5-2,0.79c-0.16,0.07-0.34,0.12-0.52,0.16    c-0.13,0.03-0.26-0.04-0.32-0.16c-0.07-0.12-0.06-0.26,0.03-0.37c0.04-0.05,0.08-0.11,0.13-0.15c0.23-0.14,0.35-0.36,0.47-0.58    c0.22-0.41,0.53-0.74,0.96-0.95c0.27-0.13,0.53-0.28,0.79-0.43c0.21-0.12,0.27-0.26,0.23-0.5c-0.02-0.08-0.05-0.16-0.07-0.25    c-0.04-0.17-0.11-0.34-0.12-0.52c-0.02-0.25-0.08-0.48-0.14-0.72c-0.04-0.15-0.07-0.3-0.1-0.45c-0.1-0.51-0.2-1.02-0.3-1.53    c-0.01-0.03-0.02-0.06-0.02-0.09c-0.02-0.51-0.17-1-0.17-1.51c0-0.14-0.05-0.29-0.08-0.43c-0.08-0.38-0.17-0.77-0.22-1.15    c-0.09-0.67-0.26-1.32-0.45-1.96c-0.12-0.39-0.22-0.79-0.26-1.21c-0.02-0.18-0.07-0.36-0.1-0.54c-0.1-0.54-0.2-1.08-0.3-1.62    c-0.01-0.06-0.02-0.11-0.03-0.16c-0.06-0.26-0.11-0.51-0.15-0.78c-0.07-0.51-0.2-1.01-0.39-1.49c-0.09-0.22-0.15-0.45-0.22-0.68    c-0.09-0.3-0.16-0.6-0.26-0.89c-0.1-0.32-0.4-0.49-0.7-0.42c-0.05,0.01-0.11,0.03-0.15,0.07c-0.26,0.19-0.48,0.4-0.57,0.73    c-0.05,0.18-0.11,0.36-0.17,0.54c-0.06,0.2-0.07,0.4-0.04,0.6c0.04,0.27,0.09,0.54,0.12,0.82c0.02,0.17,0.04,0.34,0.05,0.52    c0.02,0.47,0.08,0.94,0.22,1.4c0.05,0.17,0.08,0.36,0.08,0.54c0,0.41,0.06,0.8,0.16,1.19c0.04,0.16,0.08,0.33,0.09,0.49    c0.01,0.31,0.1,0.6,0.15,0.9c0.04,0.25,0.05,0.5,0.08,0.76c0.01,0.07,0.02,0.14,0.03,0.21c0.03,0.24,0.05,0.47,0.08,0.71    c0.02,0.18,0.02,0.36,0.05,0.53c0.08,0.44,0.08,0.88-0.05,1.31c-0.03,0.1-0.06,0.21-0.08,0.31c-0.09,0.34-0.12,0.69-0.11,1.04    c0.01,0.47-0.01,0.95-0.01,1.42c0,0.08,0.01,0.15,0.02,0.23c0.02,0.24,0.04,0.49,0.07,0.73c0.02,0.15,0.02,0.31,0.07,0.45    c0.14,0.43,0.15,0.87,0.17,1.31c0.02,0.45-0.1,0.87-0.17,1.29c-0.12,0.67-0.52,1.12-1.08,1.43c-0.24,0.13-0.5,0.22-0.76,0.32    c-0.11,0.04-0.23,0.06-0.34,0.07c-0.25,0.03-0.51,0.04-0.76,0.06c-0.29,0.03-0.57-0.01-0.84-0.1c-0.09-0.03-0.19-0.08-0.26-0.14    c-0.12-0.1-0.15-0.26-0.05-0.38c0.06-0.08,0.14-0.17,0.23-0.21c0.22-0.1,0.44-0.17,0.67-0.25c0.44-0.14,0.88-0.25,1.28-0.49    c0.12-0.08,0.27-0.13,0.4-0.18c0.42-0.16,0.63-0.48,0.66-0.92c0.01-0.11,0-0.21,0-0.32c0-0.36,0-0.72,0-1.08    c0-0.04,0-0.08-0.01-0.12c-0.11-0.57-0.07-1.15-0.1-1.72c-0.04-0.61,0-1.23-0.12-1.84c-0.01-0.06-0.01-0.12-0.01-0.18    c-0.02-0.3-0.04-0.6-0.06-0.9c-0.02-0.29-0.03-0.59-0.05-0.88c-0.02-0.2-0.05-0.4-0.07-0.61c-0.03-0.26-0.06-0.52-0.08-0.77    c-0.01-0.11-0.02-0.22-0.05-0.33c-0.09-0.35-0.12-0.71-0.12-1.07c0-0.42-0.08-0.83-0.17-1.24c-0.1-0.46-0.17-0.92-0.24-1.38    c-0.06-0.39-0.1-0.78-0.17-1.16c-0.03-0.16-0.08-0.31-0.11-0.47c-0.04-0.2-0.08-0.41-0.08-0.62c0-0.3-0.03-0.59-0.11-0.87    c-0.08-0.3-0.04-0.62-0.03-0.93c0.01-0.38,0.04-0.75,0.04-1.13c0-0.21-0.04-0.41-0.07-0.62c0-0.03-0.02-0.07-0.03-0.1    c-0.1-0.23-0.32-0.26-0.49-0.08c-0.05,0.06-0.09,0.13-0.13,0.21c-0.15,0.33-0.21,0.68-0.18,1.04c0.01,0.17,0.01,0.35-0.01,0.52    c-0.02,0.26,0.02,0.51,0.08,0.75c0.03,0.13,0.06,0.27,0.06,0.41c-0.01,0.42-0.01,0.84,0.04,1.26c0.03,0.23-0.01,0.47-0.09,0.69    c-0.06,0.18-0.1,0.37-0.15,0.56c-0.03,0.09-0.05,0.19-0.1,0.27c-0.08,0.14-0.24,0.21-0.39,0.18c-0.13-0.03-0.25-0.17-0.25-0.33    c-0.01-0.1,0-0.19,0.03-0.29c0.14-0.56,0.16-1.13,0.13-1.7c-0.03-0.56-0.12-1.12-0.14-1.69c-0.02-0.58-0.02-1.17,0.13-1.74    c0.02-0.09,0.06-0.17,0.1-0.26c0.07-0.16,0.12-0.32,0.08-0.5c-0.04-0.16-0.15-0.25-0.31-0.21c-0.09,0.03-0.2,0.08-0.25,0.15    c-0.25,0.31-0.48,0.63-0.53,1.05c-0.02,0.13-0.07,0.26-0.12,0.37c-0.1,0.2-0.14,0.41-0.15,0.63c-0.01,0.44-0.03,0.88-0.05,1.33    c-0.01,0.17,0.01,0.34-0.01,0.5c-0.01,0.09-0.03,0.19-0.07,0.28c-0.11,0.22-0.38,0.26-0.55,0.08c-0.08-0.08-0.14-0.19-0.17-0.3    c-0.07-0.24-0.09-0.49-0.06-0.74c0.04-0.37,0.08-0.74,0.08-1.11c0.01-0.45,0.12-0.86,0.31-1.26c0.05-0.1,0.09-0.2,0.14-0.31    c0.1-0.23,0.2-0.46,0.31-0.68c0.11-0.24,0.08-0.45-0.13-0.61c-0.37-0.29-0.62-0.65-0.81-1.07c-0.05-0.11-0.11-0.21-0.18-0.3    c-0.36-0.51-0.57-1.08-0.7-1.68c-0.11-0.5-0.21-0.99-0.31-1.49c-0.07-0.35-0.14-0.7-0.21-1.05c-0.01-0.06-0.03-0.13-0.05-0.19    c-0.15-0.35-0.21-0.73-0.29-1.11c-0.03-0.17-0.07-0.34-0.12-0.5c-0.13-0.45-0.28-0.9-0.41-1.36c-0.06-0.2-0.09-0.41-0.14-0.61    c-0.02-0.08-0.04-0.16-0.07-0.23c-0.21-0.58-0.41-1.16-0.62-1.74c-0.15-0.4-0.32-0.79-0.48-1.19c-0.03-0.07-0.06-0.13-0.09-0.19    c-0.17-0.33-0.34-0.66-0.52-0.99c-0.03-0.05-0.05-0.1-0.09-0.14c-0.13-0.19-0.32-0.27-0.55-0.25c-0.28,0.02-0.55,0.1-0.79,0.25    c-0.19,0.11-0.38,0.22-0.57,0.33c-0.41,0.24-0.75,0.54-0.99,0.95c-0.04,0.07-0.09,0.15-0.15,0.21c-0.19,0.22-0.46,0.22-0.64-0.01    c-0.05-0.07-0.1-0.16-0.12-0.24c-0.08-0.26-0.18-0.5-0.34-0.73c-0.23-0.34-0.21-0.72,0.02-1.06c0.18-0.26,0.4-0.45,0.7-0.57    c0.4-0.16,0.8-0.33,1.2-0.48c0.47-0.18,0.75-0.51,0.87-1c0.06-0.23,0.14-0.46,0.2-0.69c0.04-0.15,0.08-0.31,0.1-0.46    c0.04-0.35,0.14-0.67,0.32-0.98c0.08-0.13,0.12-0.28,0.19-0.41c0.07-0.15,0.14-0.3,0.22-0.45c0.09-0.16,0.2-0.32,0.29-0.49    c0.17-0.33,0.38-0.62,0.64-0.89c0.26-0.26,0.5-0.53,0.82-0.73c0.17-0.1,0.3-0.27,0.47-0.39c0.3-0.21,0.6-0.4,0.91-0.59    c0.57-0.36,1.2-0.57,1.84-0.77c0.2-0.06,0.39-0.15,0.59-0.22c0.63-0.23,1.27-0.36,1.94-0.36c0.23,0,0.47-0.02,0.7-0.04    c0.51-0.05,1.01-0.02,1.5,0.16c0.21,0.07,0.42,0.13,0.63,0.18c0.47,0.12,0.89,0.32,1.22,0.69c0.12,0.13,0.25,0.25,0.39,0.36    c0.31,0.26,0.51,0.6,0.75,0.92c0.33,0.42,0.52,0.91,0.68,1.41c0.07,0.21,0.15,0.41,0.21,0.62c0.03,0.1,0.05,0.2,0.06,0.3    c0.02,0.15-0.05,0.28-0.16,0.38c-0.16,0.14-0.38,0.1-0.51-0.09c-0.06-0.09-0.1-0.19-0.14-0.29c-0.13-0.34-0.25-0.68-0.37-1.02    c-0.08-0.22-0.18-0.42-0.33-0.6c-0.08-0.09-0.14-0.19-0.2-0.29c-0.12-0.19-0.25-0.37-0.43-0.51c-0.22-0.18-0.39-0.41-0.64-0.53    c-0.12-0.06-0.24-0.11-0.36-0.16c-0.25-0.1-0.5-0.19-0.76-0.28c-0.16-0.05-0.32-0.1-0.49-0.11c-0.38-0.01-0.75,0-1.13,0.01    c-0.34,0-0.68,0.08-1.01,0.16c-0.35,0.09-0.69,0.17-1.03,0.26c-0.13,0.03-0.25,0.09-0.37,0.14c-0.25,0.11-0.51,0.21-0.75,0.33    c-0.2,0.1-0.38,0.21-0.57,0.32c-0.16,0.1-0.32,0.2-0.48,0.3c-0.18,0.12-0.36,0.23-0.53,0.35c-0.16,0.11-0.33,0.21-0.48,0.33    c-0.2,0.17-0.38,0.36-0.56,0.54c-0.22,0.21-0.44,0.42-0.66,0.63c-0.04,0.04-0.08,0.08-0.12,0.12c-0.31,0.43-0.58,0.88-0.7,1.39    c-0.02,0.07-0.03,0.15-0.02,0.23c0.01,0.16,0.14,0.25,0.3,0.21c0.07-0.02,0.14-0.06,0.2-0.11c0.22-0.19,0.38-0.43,0.54-0.68    c0.08-0.12,0.17-0.24,0.25-0.36c0.11-0.16,0.23-0.31,0.33-0.48c0.15-0.24,0.34-0.43,0.56-0.59c0.34-0.26,0.69-0.51,1.03-0.79    c0.22-0.18,0.44-0.34,0.71-0.44c0.12-0.05,0.23-0.13,0.35-0.19c0.46-0.23,0.94-0.45,1.45-0.57c0.29-0.07,0.59-0.07,0.89-0.1    c0.06-0.01,0.11,0,0.17-0.01c0.43-0.06,0.83,0.04,1.22,0.2c0.5,0.2,0.91,0.51,1.23,0.95c0.06,0.09,0.15,0.15,0.21,0.24    c0.2,0.28,0.38,0.56,0.58,0.84c0.16,0.22,0.27,0.45,0.34,0.71c0.03,0.09,0.07,0.18,0.1,0.27c0.09,0.23,0.17,0.46,0.25,0.69    c0.07,0.21,0.15,0.41,0.22,0.62c0.05,0.16,0.07,0.32-0.04,0.47c-0.13,0.18-0.34,0.21-0.5,0.06c-0.07-0.06-0.12-0.15-0.16-0.24    c-0.04-0.08-0.06-0.16-0.08-0.25c-0.09-0.32-0.21-0.63-0.37-0.92c-0.12-0.21-0.2-0.43-0.31-0.65c-0.05-0.1-0.11-0.2-0.17-0.29    c-0.18-0.24-0.37-0.48-0.56-0.7c-0.32-0.38-0.73-0.62-1.21-0.76c-0.35-0.1-0.71-0.11-1.07-0.12c-0.13,0-0.26,0.04-0.39,0.08    c-0.26,0.07-0.52,0.14-0.77,0.23c-0.17,0.06-0.35,0.11-0.49,0.2c-0.45,0.31-0.91,0.62-1.33,0.97c-0.35,0.3-0.68,0.63-0.92,1.04    c-0.04,0.07-0.1,0.12-0.14,0.18c-0.21,0.3-0.42,0.6-0.62,0.91c-0.08,0.12-0.13,0.27-0.18,0.4c-0.06,0.17-0.11,0.35-0.17,0.52    c-0.23,0.64-0.18,1.25,0.14,1.86c0.13,0.25,0.23,0.51,0.32,0.78c0.12,0.35,0.21,0.71,0.32,1.07c0.05,0.16,0.11,0.33,0.18,0.48    c0.18,0.4,0.31,0.81,0.35,1.24c0.03,0.29,0.12,0.56,0.25,0.83c0.09,0.17,0.14,0.36,0.19,0.54c0.16,0.6,0.48,1.08,0.96,1.47    c0.14,0.11,0.27,0.23,0.4,0.35c0.16,0.14,0.34,0.21,0.54,0.27c0.28,0.08,0.56,0.14,0.86,0.14c0.12,0,0.23,0.03,0.35,0.05    c0.24,0.05,0.48,0.05,0.73,0.02C177.56,71,178.08,70.95,178.59,70.88z"/>
	</g>
</g>
</svg>