<?xml version="1.0" encoding="UTF-8"?>
<!-- Generator: Adobe Illustrator 26.5.0, SVG Export Plug-In . SVG Version: 6.00 Build 0)  -->
<svg version="1.1" id="Layer_1" xmlns="http://www.w3.org/2000/svg" xmlns:xlink="http://www.w3.org/1999/xlink" x="0px" y="0px" viewBox="0 0 194.26 176.08" style="enable-background:new 0 0 194.26 176.08;" xml:space="preserve">
<style type="text/css">
	.st0{fill:#C4D82E;}
</style>
<g>
	<g>
		<g>
			<path class="st0" d="M102.65,136.37c0.01-0.48-0.05-0.93-0.18-1.39c-0.36-1.25-0.66-2.51-1.05-3.75     c-0.21-0.67-0.49-1.33-0.84-1.93c-0.65-1.12-1.38-2.2-2.08-3.29c-1.08-1.7-2.31-3.28-3.91-4.54c-0.15-0.12-0.29-0.27-0.4-0.43     c-0.43-0.64-1-1.09-1.69-1.44c-0.35-0.18-0.69-0.39-0.98-0.65c-1.1-0.96-2.32-1.7-3.64-2.35c-1.49-0.74-2.95-1.49-4.59-1.8     c-0.93-0.18-1.86-0.31-2.73-0.7c-0.18-0.08-0.38-0.08-0.58-0.12c-1.74-0.37-3.51-0.46-5.45-0.4c-1.49-0.18-3.15-0.06-4.78,0.17     c-1.66,0.24-3.37,0.32-4.95,1.01c-0.21,0.09-0.45,0.15-0.68,0.18c-0.67,0.09-1.29,0.31-1.86,0.69c-0.26,0.17-0.56,0.27-0.86,0.39     c-1.5,0.6-2.64,1.68-3.74,2.82c-0.32,0.33-0.2,0.76,0.23,0.97c0.63,0.31,1.26,0.64,1.91,0.91c1.13,0.47,2.21,1.01,3.26,1.63     c0.4,0.24,0.84,0.42,1.24,0.68c1.06,0.68,2.11,1.37,3.14,2.1c0.71,0.5,1.45,0.98,2.02,1.61c0.76,0.84,1.73,1.48,2.36,2.46     c0.32,0.49,0.66,0.98,1.07,1.4c1.11,1.15,1.77,2.6,2.6,3.92c1.07,1.69,1.41,3.67,1.78,5.59c0.26,1.35,0.34,2.73,0.44,4.1     c0.05,0.66-0.05,1.33-0.1,2c-0.03,0.43-0.12,0.86-0.16,1.29c-0.16,1.76-0.35,3.52-0.78,5.24c-0.05,0.19-0.06,0.39-0.06,0.59     c0,0.56-0.15,1.08-0.4,1.59c-0.33,0.67-0.65,1.35-0.95,2.03c-0.32,0.73-0.52,1.49-0.5,2.29c0.02,0.94,0.39,1.34,1.33,1.47     c0.58,0.08,1.16,0.18,1.75,0.27c1.13,0.16,2.25,0.43,3.38,0.46c1.62,0.05,3.2-0.37,4.79-0.62c0.12-0.02,0.22-0.07,0.34-0.11     c1.98-0.68,3.81-1.68,5.61-2.75c0.17-0.1,0.32-0.23,0.46-0.36c1.14-1.04,2.55-1.53,3.97-1.99c0.53-0.17,1.07-0.21,1.63-0.2     c0.7,0.02,1.41-0.06,2.11-0.16c0.71-0.11,1.09-0.6,1.17-1.3c0.03-0.23,0.05-0.48,0-0.7c-0.14-0.65-0.23-1.34-0.49-1.94     c-0.29-0.68-0.33-1.37-0.42-2.07c-0.08-0.65,0.04-1.25,0.35-1.82c1.25-2.29,1.65-4.82,1.99-7.36c0.06-0.42,0.01-0.86,0-1.3     C102.7,137.94,102.64,137.15,102.65,136.37z M76.2,118.4c-1.45-0.12-2.89-0.38-4.34-0.34c-1.06,0.02-2.11,0.19-3.16,0.35     c-1.63,0.25-3.26,0.54-4.89,0.8c-0.31,0.05-0.63,0.06-0.93,0.01c-0.42-0.07-0.62-0.61-0.32-0.92c0.24-0.25,0.53-0.49,0.84-0.63     c1.04-0.46,2.09-0.94,3.17-1.28c1.39-0.43,2.81-0.76,4.24-1.05c0.6-0.12,1.25-0.02,1.88-0.02c0-0.03,0.01-0.06,0.01-0.09     c1.21,0.14,2.44,0.19,3.62,0.45c1.92,0.42,3.82,0.95,5.51,2.03c0.3,0.19,0.6,0.39,0.93,0.5c0.92,0.32,1.6,0.98,2.35,1.55     c0.09,0.07,0.17,0.17,0.24,0.26c0.25,0.35,0.06,0.83-0.36,0.92c-0.41,0.09-0.81,0.02-1.14-0.18c-1.16-0.71-2.5-0.94-3.74-1.44     C78.86,118.84,77.52,118.51,76.2,118.4z M83.74,126.21c0.02-0.83,0.72-1.53,1.5-1.52c0.86,0.02,1.72,0.78,1.68,1.5     c-0.04,0.89-0.68,1.57-1.45,1.56C84.45,127.74,83.72,127.08,83.74,126.21z M84.37,130.65c0.04,1.09-0.65,1.91-1.6,1.93     c-0.95,0.02-1.74-0.85-1.76-1.96c-0.02-0.89,0.62-1.59,1.51-1.58C83.86,129.07,84.34,129.62,84.37,130.65z M77.69,126.12     c-0.42-0.97,0.36-2.48,1.4-2.71c0.86-0.19,1.76,0.6,1.78,1.57c0.03,0.94-0.98,2.01-1.92,2.04     C78.46,127.04,77.92,126.66,77.69,126.12z M90.24,155.4c-0.83,0.35-1.71,0.59-2.57,0.85c-0.41,0.13-0.85,0.18-1.27,0.29     c-0.13,0.03-0.25,0.14-0.57,0.33c0.44,0.05,0.66,0.09,0.88,0.1c0.24,0.01,0.47-0.02,0.71,0.01c0.38,0.03,0.62,0.23,0.69,0.54     c0.08,0.34-0.02,0.63-0.28,0.85c-0.37,0.31-0.77,0.58-1.26,0.6c-1.03,0.05-2,0.39-3,0.6c-1.66,0.36-3.34,0.49-5.03,0.29     c-0.73-0.08-1.34-0.46-1.87-0.94c-0.46-0.41-0.42-1.08,0.12-1.42c0.53-0.33,1.12-0.57,1.71-0.78c0.42-0.15,0.8-0.31,1.07-0.68     c0.38-0.54,0.37-0.91-0.08-1.36c-0.22-0.23-0.48-0.41-0.69-0.65c-0.41-0.46-0.5-0.99-0.2-1.53c0.3-0.55,0.61-1.08,1.17-1.45     c0.59-0.4,0.62-0.68,0.32-1.3c-0.05-0.11-0.13-0.2-0.18-0.3c-0.44-0.89-0.1-1.84,0.82-2.24c0.33-0.14,0.67-0.23,1-0.37     c0.95-0.4,1.86-0.17,2.75,0.21c0.67,0.29,0.69,1.1,0.07,1.51c-0.16,0.11-0.35,0.17-0.52,0.27c-0.28,0.16-0.54,0.35-0.48,0.73     c0.04,0.28,0.29,0.41,0.75,0.43c0.39,0.02,0.79,0.02,1.18,0.05c0.23,0.02,0.46,0.09,0.69,0.14c0.46,0.1,0.81,0.32,0.9,0.81     c0.09,0.47-0.09,0.85-0.45,1.15c-0.46,0.38-0.92,0.73-1.56,0.75c-0.26,0.01-0.55,0.09-0.77,0.24c-0.16,0.1-0.21,0.36-0.33,0.57     c0.19,0.08,0.3,0.16,0.4,0.16c0.94-0.07,1.87-0.05,2.79-0.36c0.89-0.31,1.84-0.41,2.79-0.24c0.53,0.1,1,0.27,1.14,0.87     C91.18,154.65,90.94,155.11,90.24,155.4z M88.41,150.11c0.39-0.15,0.82-0.21,1.29-0.32c0.34,0.12,0.72,0.2,1.06,0.37     c0.29,0.15,0.38,0.52,0.24,0.82c-0.29,0.64-0.77,1.07-1.47,1.21c-0.64,0.13-1.35-0.29-1.6-0.91     C87.76,150.83,87.95,150.29,88.41,150.11z M100.76,137.8c-0.11,0.31-0.55,0.42-0.78,0.2c-0.08-0.08-0.18-0.17-0.22-0.27     c-0.38-0.99-1.01-1.85-1.36-2.87c-0.33-0.95-0.76-1.89-1.45-2.68c-0.23-0.26-0.43-0.57-0.57-0.89c-0.39-0.87-0.94-1.63-1.51-2.39     c-0.36-0.47-0.7-0.95-1.05-1.42c-0.12-0.16-0.21-0.34-0.36-0.47c-1.16-1.02-1.94-2.36-3.02-3.45c-0.8-0.81-1.7-1.52-2.56-2.26     c-1.25-1.08-2.51-2.14-3.77-3.22c-0.21-0.18-0.42-0.37-0.56-0.59c-0.09-0.14-0.11-0.38-0.05-0.55c0.08-0.25,0.34-0.33,0.59-0.27     c0.26,0.06,0.53,0.15,0.77,0.28c1.78,1.01,3.49,2.13,5.11,3.38c0.25,0.19,0.48,0.41,0.75,0.57c0.71,0.45,1.3,1,1.83,1.64     c0.78,0.93,1.64,1.79,2.41,2.73c0.55,0.67,1,1.41,1.49,2.12c0.65,0.94,1.28,1.89,1.7,2.96c0.07,0.18,0.15,0.37,0.27,0.52     c0.71,0.83,1.05,1.85,1.38,2.85c0.34,1,0.58,2.03,0.96,3.02c0.07,0.18,0.07,0.38,0.11,0.6     C100.84,137.5,100.82,137.65,100.76,137.8z"/>
		</g>
	</g>
	<g>
		<g>
			<path class="st0" d="M14.61,157.94c0.06-0.1,0.14-0.19,0.24-0.26c1.11-0.87,1.52-2.17,2.06-3.39c0.11-0.25,0.18-0.53-0.14-0.81     c-0.14,0.03-0.34,0.03-0.51,0.11c-0.4,0.17-0.79,0.36-1.18,0.55c-0.5,0.25-1.03,0.4-1.59,0.37c-0.51-0.03-0.77-0.5-0.48-0.93     c0.19-0.29,0.43-0.59,0.72-0.76c0.95-0.56,1.82-1.23,2.84-1.67c0.61-0.26,1.17-0.64,1.72-1.02c0.47-0.32,0.71-0.83,0.82-1.39     c0.07-0.37-0.12-0.62-0.51-0.61c-0.87,0.01-1.72,0.14-2.53,0.5c-0.68,0.3-1.38,0.56-2.09,0.8c-0.33,0.11-0.69,0.14-1.04,0.15     c-0.24,0.01-0.5-0.12-0.54-0.37c-0.04-0.21,0-0.49,0.12-0.65c0.18-0.24,0.45-0.44,0.72-0.59c0.9-0.48,1.72-1.12,2.79-1.21     c0.19-0.02,0.37-0.12,0.54-0.23c0.55-0.34,1.14-0.51,1.77-0.62c0.95-0.17,1.64-0.76,2.13-1.54c0.38-0.59,0.64-1.26,0.96-1.89     c0.07-0.14,0.13-0.29,0.17-0.44c0.12-0.41-0.12-0.73-0.53-0.7c-0.51,0.04-1.01,0.14-1.46,0.43c-0.2,0.13-0.39,0.28-0.6,0.37     c-1.42,0.58-2.84,1.15-4.27,1.72c-0.18,0.07-0.38,0.1-0.57,0.11c-0.49,0.02-0.83-0.42-0.65-0.87c0.12-0.28,0.3-0.57,0.52-0.77     c0.92-0.8,1.85-1.6,3.08-1.9c0.3-0.07,0.57-0.26,0.87-0.36c0.7-0.24,1.42-0.47,2.12-0.7c0.49-0.16,0.97-0.32,1.46-0.45     c1.03-0.28,1.43-1.17,1.88-1.99c0.19-0.33-0.1-0.74-0.5-0.73c-0.31,0.01-0.62,0.08-0.92,0.16c-0.38,0.09-0.75,0.24-1.13,0.33     c-0.5,0.12-1,0.2-1.5,0.31c-0.58,0.12-1.15,0.29-1.73,0.38c-0.38,0.06-0.78,0.08-1.17,0.06c-0.39-0.03-0.59-0.45-0.41-0.8     c0.07-0.14,0.16-0.27,0.27-0.39c0.41-0.47,0.95-0.67,1.54-0.8c1.39-0.29,2.77-0.6,4.15-0.91c0.61-0.14,1.22-0.32,1.83-0.48     c0.97-0.26,1.48-0.99,1.88-1.83c0.13-0.27-0.06-0.57-0.37-0.6c-0.23-0.02-0.47-0.02-0.7,0.03c-0.35,0.07-0.69,0.16-1.02,0.29     c-0.94,0.37-1.94,0.27-2.9,0.48c-0.07,0.02-0.16,0-0.23-0.01c-0.47-0.07-0.73-0.51-0.57-0.97c0.17-0.49,0.53-0.77,1.03-0.88     c0.38-0.09,0.78-0.14,1.14-0.28c0.63-0.24,1.28-0.37,1.95-0.44c0.51-0.05,1.02-0.11,1.52-0.23c0.38-0.09,0.76-0.22,1.09-0.41     c0.89-0.52,1.72-1.11,2.11-2.14c0.1-0.25,0.29-0.46,0.43-0.7c0.08-0.13,0.14-0.28,0.18-0.43c0.09-0.29-0.15-0.59-0.45-0.52     c-0.5,0.12-0.98,0.3-1.48,0.41c-1.89,0.4-3.46,1.49-5.05,2.47c-1.33,0.83-2.51,1.89-3.61,3.02c-0.8,0.82-1.58,1.64-2.36,2.48     c-0.29,0.32-0.57,0.65-0.8,1.02c-0.49,0.76-0.95,1.54-1.4,2.32c-0.16,0.27-0.3,0.56-0.4,0.85c-0.45,1.26-0.8,2.56-1.35,3.77     c-0.72,1.58-0.76,3.28-1.17,4.91c-0.04,0.15-0.01,0.31-0.02,0.47c-0.03,1.34-0.06,2.67-0.09,4.01c-0.02,0.98-0.19,1.99-0.04,2.94     c0.17,1.09,0.05,2.1-0.28,3.13c-0.08,0.26-0.17,0.53-0.21,0.8c-0.07,0.46-0.17,0.93-0.15,1.4c0.04,0.65-0.04,1.25-0.34,1.83     c-0.09,0.17-0.15,0.37-0.17,0.56c-0.03,0.24,0,0.51,0.26,0.59c0.16,0.05,0.41,0.03,0.54-0.07c0.28-0.2,0.54-0.46,0.76-0.73     C12.61,160.36,13.77,159.28,14.61,157.94z"/>
		</g>
	</g>
	<g>
		<g>
			<path class="st0" d="M73.46,143.52c-0.11-1.13-0.22-2.27-0.35-3.4c-0.04-0.4-0.18-0.79-0.28-1.1l-0.21-0.61     c-0.27-0.8-0.54-1.62-0.87-2.41c-0.36-0.88-0.72-1.73-1.21-2.49c-0.47-0.73-1-1.44-1.51-2.13c-0.31-0.41-0.62-0.82-0.91-1.24     c-0.29-0.41-0.63-0.81-1.1-1.29c-0.68-0.71-1.38-1.24-2.12-1.65c-0.21-0.11-0.41-0.29-0.61-0.48c-0.08-0.07-0.16-0.15-0.24-0.22     c-0.89-0.76-1.73-1.25-2.64-1.57c-0.66-0.23-1.34-0.51-2.02-0.85c-1.33-0.66-2.82-1.08-4.43-1.23c-2.33-0.22-4.39-0.29-6.3-0.21     c-1.69,0.07-3.35,0.4-4.95,0.72l-0.23,0.05c-0.23,0.05-0.44,0.16-0.62,0.26l-0.18,0.1c-0.16,0.08-0.24,0.26-0.19,0.43     c0.05,0.17,0.21,0.29,0.38,0.27c0.21-0.01,0.42-0.02,0.63-0.03c0.52-0.02,1.07-0.04,1.6-0.15c1.05-0.21,2.18-0.27,3.68-0.2     l0.74,0.03c1.34,0.05,2.72,0.11,4.06,0.28c1.02,0.13,2.2,0.29,3.25,0.69c1.94,0.73,3.46,1.42,4.77,2.18     c1.12,0.64,2.14,1.56,3.17,2.5c0.88,0.8,1.56,1.59,2.09,2.42c0.43,0.69,0.96,1.5,1.53,2.28c0.61,0.83,0.99,1.74,1.28,2.53     c0.33,0.88,0.65,1.77,0.96,2.66c0.08,0.23,0.18,0.54,0.22,0.84c0.18,1.28,0.34,2.57,0.5,3.85c0.04,0.33,0.05,0.61,0.04,0.88     c-0.03,0.61-0.05,1.21-0.07,1.82c-0.04,1.14-0.07,2.31-0.22,3.46c-0.17,1.3-0.39,2.7-0.81,4.09c-0.1,0.33-0.18,0.68-0.26,1.07     c-0.25,1.38-0.71,2.69-1.35,3.89c-0.13,0.24-0.26,0.48-0.4,0.72c-0.14,0.24-0.27,0.48-0.42,0.76c-0.3,0.51,0.05,0.79,0.21,0.88     c0.06,0.03,0.12,0.05,0.19,0.05c0.09,0,0.18-0.03,0.25-0.1l0.09-0.08c0.09-0.08,0.19-0.17,0.27-0.26     c1.23-1.48,2.14-3.24,2.71-5.23l0.07-0.24c0.08-0.29,0.16-0.58,0.26-0.86l0.04-0.12c0.51-1.41,1.03-2.86,1.08-4.44     c0-0.08,0.02-0.17,0.04-0.27c0.26-1.07,0.31-2.16,0.35-3.21c0.03-0.73,0.06-1.49,0.16-2.22c0.03-0.2,0.01-0.39-0.01-0.56     L73.46,143.52z"/>
		</g>
	</g>
	<g>
		<g>
			<path class="st0" d="M32.87,115.26c0.38,0.05,0.77,0.17,1.12,0.33c1.03,0.48,2.07,0.95,3.13,1.36c1.23,0.48,2.47,0.76,3.78,0.84     c1.45,0.09,2.9,0.25,4.28,0.78c0.59,0.22,1.22,0.27,1.86,0.23c0.46-0.03,0.94,0.06,1.4,0.1c0.43,0.04,0.85,0.14,1.28,0.16     c0.9,0.04,1.81,0.05,2.71,0.08c0.95,0.03,1.61-0.53,2.26-1.11c0.14-0.12-0.01-0.42-0.21-0.45c-0.12-0.02-0.23-0.04-0.35-0.03     c-1.49,0.09-2.98,0.11-4.46-0.01c-0.66-0.06-1.33-0.13-1.99-0.19c-1.37-0.12-2.75-0.18-4.11-0.37c-1.44-0.2-2.86-0.53-4.28-0.81     c-0.27-0.05-0.52-0.17-0.78-0.27c-1.09-0.43-2.27-0.67-3.27-1.33c-0.06-0.04-0.15-0.04-0.22-0.07c-0.47-0.2-0.93-0.42-1.4-0.59     c-0.66-0.24-1.32-0.51-2.01-0.65c-0.74-0.15-1.15,0.23-1.1,0.98c0.03,0.47,0.12,0.94,0.23,1.39c0.29,1.14,0.61,2.28,0.93,3.41     c0.26,0.93,0.33,1.85,0.05,2.79c-0.08,0.26-0.26,0.59,0.02,0.77c0.37,0.24,0.52-0.19,0.74-0.39c0.03-0.03,0.05-0.06,0.08-0.08     c0.27-0.22,0.49-0.23,0.74-0.01c0.54,0.48,0.96,1.05,1.15,1.75c0.14,0.51,0.41,0.93,0.79,1.29c0.57,0.55,1.07,1.16,1.4,1.89     c0.36,0.78,0.84,1.03,1.65,0.28c0.12-0.11,0.21-0.23,0.33-0.33c0.27-0.23,0.53-0.48,0.82-0.66c0.74-0.47,1.32-1.11,2.01-1.81     c-0.99-0.62-1.9-0.9-2.93-0.74c-0.6,0.09-1.18-0.01-1.75-0.19c-0.33-0.1-0.69-0.26-0.91-0.51c-0.64-0.74-1.33-1.48-1.8-2.32     c-0.66-1.2-1.16-2.49-1.7-3.75c-0.14-0.32-0.2-0.68-0.23-1.03C32.1,115.52,32.42,115.2,32.87,115.26z"/>
		</g>
	</g>
	<g>
		<g>
			<path class="st0" d="M41.5,147.86c0.35-0.17,0.74-0.28,1.08-0.47c0.7-0.4,0.81-1.2,0.26-1.8c-0.13-0.14-0.3-0.25-0.47-0.35     c-1.3-0.8-2.71-1.44-3.87-2.47c-0.03-0.03-0.06-0.05-0.1-0.06c-0.32-0.18-0.64-0.18-0.88,0.01c-0.28,0.23-0.39,0.6-0.21,0.96     c0.14,0.28,0.33,0.53,0.53,0.77c0.22,0.28,0.51,0.5,0.7,0.8c0.18,0.29,0.36,0.63,0.4,0.96c0.08,0.65-0.47,1.12-1.12,0.99     c-0.27-0.05-0.52-0.17-0.79-0.24c-0.3-0.08-0.59,0.16-0.51,0.45c0.1,0.37,0.28,0.73,0.41,1.09c0.17,0.52,0.37,1.03,0.47,1.57     c0.08,0.42-0.21,0.78-0.62,0.87c-0.26,0.06-0.55,0.07-0.82,0.07c-0.8,0-1.1,0.42-0.9,1.25c0.06,0.22,0.17,0.44,0.28,0.64     c0.27,0.48,0.56,0.95,0.85,1.42c0.27,0.44,0.52,0.88,0.81,1.3c0.35,0.5,0.81,0.86,1.42,0.99c0.34,0.07,0.69-0.12,0.71-0.43     c0.02-0.27,0.02-0.56-0.06-0.81c-0.13-0.41-0.35-0.79-0.51-1.19c-0.16-0.39-0.31-0.79-0.4-1.02c0.02-1.09,0.71-1.58,1.52-1.25     c0.7,0.28,1.34,0.67,1.74,1.35c0.65,1.12,1.71,1.83,2.66,2.65c0.09,0.08,0.2,0.12,0.31,0.17c0.32,0.14,0.67-0.04,0.71-0.38     c0.08-0.57-0.03-1.1-0.41-1.55c-0.28-0.33-0.57-0.65-0.88-0.95c-0.92-0.86-1.69-1.86-2.46-2.85c-0.23-0.3-0.39-0.68-0.5-1.05     C40.63,148.6,40.84,148.17,41.5,147.86z"/>
		</g>
	</g>
	<g>
		<g>
			<path class="st0" d="M67.77,164.69c-0.21-0.12-0.45-0.11-0.63,0.01h0c-0.12,0.08-0.23,0.17-0.34,0.26     c-0.08,0.06-0.15,0.12-0.23,0.18c-0.5,0.36-1.07,0.42-1.82,0.19c-0.15-0.05-0.2-0.11-0.2-0.26c0-0.13-0.04-0.23-0.07-0.34     l-0.05-0.15c-0.03-0.11-0.11-0.2-0.21-0.24c-0.1-0.04-0.22-0.04-0.32,0.01c-0.77,0.4-1.58,0.58-2.44,0.77     c-0.34,0.08-0.68,0.15-1.01,0.24c-2.13,0.57-4.04,0.78-5.83,0.65c-0.32-0.02-0.64-0.01-0.96,0c-0.2,0.01-0.4,0.01-0.6,0.01     c-0.33,0-0.68-0.01-0.99-0.07c-1.2-0.22-2.39-0.46-3.58-0.7c-0.27-0.06-0.62-0.14-0.95-0.28c-0.4-0.17-0.8-0.33-1.2-0.5     c-1.17-0.48-2.38-0.97-3.5-1.61c-1.45-0.82-2.5-1.55-3.41-2.36c-0.26-0.24-0.53-0.44-0.79-0.61c-0.97-0.64-1.88-1.48-2.78-2.56     c-0.52-0.62-1.02-1.26-1.52-1.9l-0.67-0.85c-0.08-0.11-0.23-0.12-0.37-0.09c-0.13,0.02-0.26,0.16-0.3,0.29     c-0.03,0.08-0.07,0.2-0.03,0.35c0.05,0.23,0.1,0.43,0.2,0.64c0.67,1.44,1.43,2.68,2.33,3.79c0.54,0.66,1.17,1.22,1.78,1.77     c0.24,0.21,0.48,0.43,0.71,0.65l0.37,0.35c1.05,1,2.14,2.03,3.59,2.59c0.07,0.03,0.14,0.08,0.23,0.14     c0.08,0.05,0.16,0.11,0.24,0.15l0.4,0.22c0.38,0.21,0.78,0.43,1.19,0.61c0.99,0.43,2,0.82,2.86,1.15     c0.35,0.13,0.71,0.2,0.98,0.25l0.2,0.03c1.14,0.19,2.28,0.38,3.42,0.54c0.31,0.04,0.63,0.06,1,0.06c0.15,0,0.31,0,0.47-0.01     c0.43-0.02,0.86-0.05,1.29-0.08c0.43-0.03,0.87-0.06,1.3-0.08c1.21-0.05,2.61-0.15,3.94-0.73c0.15-0.07,0.31-0.11,0.47-0.15     c0.1-0.03,0.19-0.05,0.28-0.08l0.3-0.09c1.3-0.41,1.3-0.4,2.17-0.1c0.17,0.06,0.37,0.13,0.61,0.21c0.9,0.29,1.87,0.39,3.07,0.29     c1.04-0.09,1.77-0.89,1.77-1.96C68.14,165.03,67.99,164.81,67.77,164.69z"/>
		</g>
	</g>
	<g>
		<g>
			<path class="st0" d="M33.98,142.94c0.31-0.96,0.53-1.93,0.66-2.9c0,0,0,0,0,0c0.1-0.77,0.18-1.41,0.31-2.08     c0.16-0.83,0.26-1.63,0.29-2.37c0.03-0.55,0.02-1.11,0.01-1.65c-0.01-0.51-0.01-1.03,0.01-1.54c0.09-2.29-0.57-4.47-1.96-6.47     l-0.04-0.06c-0.23-0.33-0.49-0.7-0.92-0.93c-0.06-0.03-0.13-0.04-0.19-0.02c-0.06,0.02-0.12,0.07-0.15,0.13l-0.04,0.07     c-0.03,0.06-0.1,0.17-0.04,0.29l0.08,0.19c0.11,0.27,0.22,0.53,0.35,0.79c1.21,2.44,1.67,4.75,1.41,7.05     c-0.05,0.42-0.05,0.89-0.01,1.46c0.06,0.89-0.05,1.82-0.33,2.83c-0.12,0.42-0.26,0.98-0.31,1.55c-0.1,1.24-0.44,2.41-0.78,3.5     c-0.17,0.55-0.34,1.09-0.51,1.64c-0.2,0.66-0.4,1.31-0.61,1.96l-0.02,0.06c-0.29,0.89-0.58,1.82-0.92,2.71     c-0.34,0.9-0.72,1.77-1.18,2.82c-0.14,0.32-0.33,0.64-0.52,0.94l-0.1,0.16c-0.08,0.14-0.18,0.27-0.28,0.4     c-0.06,0.09-0.13,0.17-0.19,0.26l-0.5,0.74c-0.38,0.56-0.76,1.13-1.15,1.69c-0.12,0.17-0.28,0.31-0.45,0.47l-0.38,0.35     c-0.33,0.31-0.67,0.62-1.02,0.9c-0.71,0.55-1.45,1.09-2.17,1.6c-0.33,0.23-0.7,0.48-1.17,0.76c-0.33,0.2-0.61,0.36-0.9,0.48     c-0.37,0.16-0.74,0.3-1.12,0.45c-0.64,0.25-1.31,0.51-1.94,0.83c-1.21,0.6-2.55,1.15-4.33,1.78c-0.25,0.09-0.5,0.19-0.78,0.29     l-0.4,0.15c-0.1,0.04-0.16,0.13-0.16,0.23c0,0.1,0.07,0.19,0.17,0.23c0.06,0.02,0.11,0.04,0.15,0.06     c0.07,0.03,0.14,0.06,0.22,0.06c0.02,0,0.05,0,0.07-0.01c1.75-0.4,3.6-0.87,5.33-1.66c0.2-0.09,0.42-0.16,0.64-0.23     c0.11-0.04,0.23-0.07,0.34-0.11c0.22-0.08,0.44-0.15,0.66-0.23c1.15-0.39,2.33-0.8,3.35-1.59c0.3-0.23,0.63-0.42,0.97-0.63     c0.34-0.2,0.69-0.4,1.01-0.65c0.87-0.66,1.7-1.39,2.55-2.13c0.27-0.23,0.47-0.52,0.68-0.79l0.04-0.06     c0.66-0.9,1.34-1.84,1.99-2.78c0.26-0.38,0.5-0.8,0.71-1.26c0.48-1.04,0.9-1.99,1.29-2.92l0.2-0.48     c0.29-0.67,0.58-1.36,0.76-2.08c0.33-1.34,0.77-2.67,1.19-3.96L33.98,142.94z"/>
		</g>
	</g>
	<g>
		<g>
			<path class="st0" d="M66.77,145.88l-0.07-0.55c-0.07-0.54-0.14-1.14-0.24-1.74c-0.06-0.34-0.24-0.65-0.39-0.88     c-0.16-0.25-0.44-0.38-0.74-0.35c-0.31,0.03-0.56,0.23-0.68,0.52c-0.2,0.53-0.26,1.08-0.18,1.69c0.08,0.57,0.13,1.19,0.15,1.83     c0.03,0.94,0.03,1.87,0.03,2.81c0,0.22-0.03,0.46-0.08,0.74c-0.08,0.41-0.17,0.82-0.25,1.23c-0.1,0.47-0.2,0.95-0.29,1.42     c-0.05,0.28-0.02,0.55,0.02,0.73c0.06,0.26,0.31,0.46,0.51,0.51c0.24,0.06,0.59-0.05,0.72-0.29c0.13-0.24,0.23-0.49,0.33-0.74     l0.06-0.15c0.13-0.31,0.27-0.49,0.49-0.6c0.07-0.03,0.15-0.03,0.22,0c0.03,0.02,0.1,0.05,0.11,0.13     c0.05,0.18,0.06,0.33,0.05,0.45c-0.07,0.62-0.15,1.23-0.25,1.84c-0.08,0.47-0.16,0.94-0.25,1.42l-0.18,1.01     c-0.02,0.14,0,0.31,0.06,0.44c0.04,0.1,0.17,0.32,0.42,0.37c0.08,0.02,0.16,0.02,0.23,0.02c0.18,0,0.32-0.05,0.42-0.15     c0.14-0.14,0.32-0.37,0.4-0.63l0.07-0.24c0.2-0.67,0.4-1.36,0.54-2.06l0.07-0.33c0.13-0.66,0.25-1.27,0.51-1.86     c0.18-0.4,0.23-0.85,0.26-1.27c0.09-1.13-0.36-1.84-1.34-2.1c-0.33-0.09-0.53-0.33-0.61-0.73c-0.1-0.52-0.15-1.06-0.19-1.47     c-0.01-0.16,0-0.32,0.02-0.53C66.75,146.24,66.76,146.1,66.77,145.88z"/>
		</g>
	</g>
	<g>
		<g>
			<path class="st0" d="M62.4,131.16c0.13-0.15,0.11-0.39-0.04-0.52l-0.3-0.26c-0.22-0.19-0.44-0.38-0.66-0.57     c-1.48-1.34-3.24-2.17-4.77-2.8c-1.16-0.48-2.43-0.96-3.79-1.18c-0.49-0.08-1.13-0.18-1.78-0.22c-0.43-0.03-0.87-0.01-1.3,0     l-0.27,0.01c-1.22,0.04-2.83,0.13-4.46,0.57c-0.56,0.12-0.62,0.49-0.57,0.78c0.03,0.17,0.17,0.3,0.34,0.31l0.14,0.01     c0.12,0.01,0.24,0.02,0.35,0.02c0.39-0.01,0.78-0.02,1.17-0.02c0.75-0.02,1.49-0.04,2.25-0.03l0.61,0c0.83,0,1.7,0,2.5,0.16     c1.09,0.21,2.19,0.53,3.26,0.84c0.42,0.12,0.84,0.25,1.27,0.36c0.13,0.03,0.25,0.09,0.37,0.15l1.74,0.78     c0.76,0.34,1.64,0.75,2.4,1.33c0.22,0.17,0.45,0.28,0.68,0.4c0.09,0.05,0.19,0.09,0.28,0.14c0.06,0.03,0.12,0.05,0.18,0.05     c0.11,0,0.21-0.05,0.28-0.13L62.4,131.16z"/>
		</g>
	</g>
	<g>
		<g>
			<path class="st0" d="M42.89,158.81c-0.47-0.29-0.92-0.6-1.4-0.88c-0.16-0.1-0.36-0.15-0.55-0.18c-0.21-0.04-0.46,0.26-0.4,0.47     c0.03,0.11,0.08,0.22,0.14,0.32c0.93,1.67,2.53,2.38,4.22,2.97c0.04,0.01,0.08,0.01,0.23,0.03c0.11-0.06,0.37-0.11,0.49-0.27     c0.16-0.21,0-0.47-0.17-0.63c-0.37-0.34-0.75-0.68-1.17-0.97C43.84,159.36,43.35,159.1,42.89,158.81z"/>
		</g>
	</g>
	<g>
		<g>
			<path class="st0" d="M46.7,149.3c-0.02-0.5-0.51-0.87-1.09-0.82c-0.44,0.04-0.77,0.36-0.75,0.76c0.02,0.51,0.51,1.01,0.97,1.01     C46.28,150.24,46.72,149.77,46.7,149.3z"/>
		</g>
	</g>
	<g>
		<g>
			<path class="st0" d="M61.09,143.27c0.04,0,0.07,0,0.11-0.01c0.57-0.07,0.99-0.59,0.97-1.22c-0.02-0.59-0.48-1.03-1.04-1.02     c-0.63,0.01-1.13,0.47-1.15,1.06c-0.01,0.33,0.13,0.66,0.39,0.89C60.57,143.16,60.83,143.27,61.09,143.27z"/>
		</g>
	</g>
	<g>
		<g>
			<path class="st0" d="M58.9,135.69c-0.27,0-0.53,0.09-0.74,0.29c-0.22,0.22-0.34,0.54-0.33,0.87c0.03,0.64,0.55,1.12,1.19,1.12     c0.01,0,0.02,0,0.04,0c0.26-0.01,0.51-0.12,0.69-0.32c0.19-0.2,0.3-0.48,0.29-0.76C60.02,136.26,59.52,135.73,58.9,135.69z"/>
		</g>
	</g>
	<g>
		<g>
			<path class="st0" d="M25.17,141.97c-0.13-0.12-0.32-0.14-0.46-0.04c-0.14,0.1-0.2,0.28-0.14,0.44c0.31,0.79,0.68,1.56,1.05,2.31     c0.48,0.99,0.98,2.01,1.34,3.13c0.05,0.15,0.19,0.26,0.35,0.26c0.01,0,0.02,0,0.02,0c0.17-0.01,0.31-0.13,0.34-0.3     c0.17-0.88-0.03-1.52-0.27-2.08l-0.08-0.19C26.78,144.26,26.23,142.98,25.17,141.97z"/>
		</g>
	</g>
	<g>
		<g>
			<path class="st0" d="M29.67,140.98c0.06,0.13,0.19,0.21,0.33,0.21c0.03,0,0.06,0,0.08-0.01c0.17-0.04,0.29-0.19,0.29-0.36     c-0.01-0.79-0.2-1.46-0.59-2.06c0,0,0,0,0,0l-0.27-0.43c-0.23-0.36-0.46-0.72-0.71-1.06c-0.25-0.33-0.53-0.64-0.8-0.93     l-0.23-0.25c-0.03-0.04-0.11-0.09-0.16-0.11c-0.07-0.03-0.13-0.04-0.2-0.06c-0.17-0.05-0.36,0.06-0.45,0.2     c-0.02,0.03-0.05,0.09-0.06,0.12c-0.03,0.09-0.02,0.21,0.02,0.29c0.39,0.8,0.9,1.54,1.39,2.24     C28.79,139.47,29.3,140.2,29.67,140.98z"/>
		</g>
	</g>
	<g>
		<g>
			<path class="st0" d="M22.42,148.18c-0.16-0.01-0.33,0.06-0.48,0.2c-0.09,0.09-0.13,0.22-0.1,0.34c0.1,0.48,0.35,0.87,0.6,1.24     c0.1,0.16,0.21,0.32,0.3,0.49c0.21,0.39,0.39,0.8,0.56,1.22c0.08,0.19,0.16,0.38,0.24,0.56c0.06,0.13,0.19,0.22,0.34,0.22     c0.01,0,0.02,0,0.03,0c0.16-0.01,0.29-0.13,0.33-0.28c0.21-0.85,0.03-1.7-0.52-2.51c-0.27-0.39-0.54-0.78-0.83-1.16l-0.28,0.21     c0,0,0,0,0,0l0.27-0.23C22.81,148.39,22.67,148.2,22.42,148.18z"/>
		</g>
	</g>
	<g>
		<g>
			<path class="st0" d="M30.95,135.19c0.07,0.12,0.19,0.18,0.32,0.18c0.04,0,0.08-0.01,0.12-0.02c0.17-0.06,0.27-0.22,0.25-0.39     c-0.21-1.84-1.16-3.19-2.37-3.38c-0.15-0.02-0.3,0.05-0.37,0.18c-0.08,0.13-0.07,0.29,0.02,0.41c0.13,0.17,0.25,0.33,0.38,0.48     c0.25,0.32,0.49,0.62,0.71,0.95c0.24,0.35,0.45,0.72,0.66,1.09L30.95,135.19z"/>
		</g>
	</g>
	<g>
		<g>
			<path class="st0" d="M19.89,153.49c-0.14,0.03-0.25,0.14-0.28,0.27c-0.12,0.48,0,0.86,0.09,1.17c0.03,0.11,0.07,0.22,0.09,0.32     l0.05,0.33c0.05,0.31,0.1,0.62,0.14,0.93c0.01,0.1,0.02,0.19,0.02,0.29c0.01,0.33,0.03,0.75,0.3,1.25     c0.07,0.12,0.19,0.19,0.33,0.19c0.02,0,0.05,0,0.07-0.01c0.16-0.03,0.28-0.16,0.3-0.32c0.17-1.43,0.35-2.91-0.74-4.3     C20.18,153.51,20.04,153.46,19.89,153.49z"/>
		</g>
	</g>
	<g>
		<g>
			<path class="st0" d="M63.95,135.99c-0.54-0.03-1.08,0.5-1.13,1.12c-0.03,0.47,0.33,0.91,0.8,0.96c0.05,0.01,0.09,0.01,0.14,0.01     c0.25,0,0.49-0.09,0.69-0.25c0.23-0.19,0.36-0.47,0.38-0.78C64.86,136.53,64.44,136.02,63.95,135.99z"/>
		</g>
	</g>
</g>
<g>
	<g>
		<g>
			<path class="st0" d="M33.88,96.7c-0.23-1.22-0.8-2.25-1.02-3.49c-0.25-1.44-0.52-2.88-0.86-4.3c-0.19-0.8-0.36-1.61-0.49-2.42     c-0.06-0.38-0.39-1.72,0.02-1.87c0.59-0.21,1.01,1.41,1.12,1.71c0.64,1.66,1.17,3.37,1.59,5.1c0.91,3.81,2.57,7.34,3.18,11.26     c0.03,0.16,0.05,0.34-0.03,0.48c-0.98,1.77-3.39-5.76-3.51-6.44C33.88,96.72,33.88,96.71,33.88,96.7z"/>
		</g>
	</g>
	<g>
		<g>
			<path class="st0" d="M20.73,77.34c0.22-0.29,0.54-0.5,0.88-0.52c0.77-0.05,2.16,0.96,2.45-0.31c0.05-0.23,0.04-0.47,0.07-0.7     c0.19-1.31,1.01-1.74,2.18-1.14c0.07,0.04,0.14,0.07,0.21,0.11c0.74,0.47,0.78,0.99,0.12,1.59c-0.03,0.03-0.06,0.06-0.09,0.07     c-0.89,0.49-1.15,1.39-1.31,2.26c-0.3,1.65,0.28,3.08,1.78,3.86c0.24,0.13,0.48,0.26,0.71,0.41c0.05,0.03,0.08,0.14,0.06,0.21     c-0.01,0.06-0.09,0.11-0.19,0.23c-0.26-0.1-0.58-0.16-0.82-0.33c-0.67-0.48-1.3-1-1.95-1.5c-0.55-0.42-1.11-0.89-1.75-1.18     c-0.52-0.23-0.99-0.15-1.21-0.84c-0.03-0.09-0.05-0.18-0.1-0.26c-0.17-0.28-0.6-0.23-0.88-0.4     C20.3,78.51,20.37,77.82,20.73,77.34z"/>
		</g>
	</g>
	<g>
		<g>
			<path class="st0" d="M26.35,49.51c0.01,0.23-0.04,0.47-0.11,0.69c-0.07,0.22-0.21,0.42-0.32,0.63c-0.59,1.19-1.27,2.35-1.42,3.71     c0,0.04-0.02,0.08-0.03,0.11c-0.13,0.41-0.46,0.51-0.82,0.26c-0.13-0.09-0.25-0.19-0.36-0.3c-0.54-0.57-1.09-1.12-1.6-1.72     c-0.36-0.42-0.73-0.81-1.25-1.03c-0.37-0.16-0.65-0.44-0.8-0.82c-0.11-0.27-0.13-0.58,0.12-0.76c0.45-0.33,0.78-0.75,1.09-1.41     c0.37,0.27,0.63,0.43,0.86,0.63c0.21,0.18,0.36,0.41,0.57,0.59c0.57,0.48,1.16,0.45,1.66-0.1c0.18-0.2,0.33-0.44,0.49-0.66     c0.12-0.16,0.23-0.32,0.37-0.45c0.28-0.25,0.63-0.32,0.99-0.19C26.17,48.82,26.33,49.14,26.35,49.51z"/>
		</g>
	</g>
	<g>
		<g>
			<path class="st0" d="M28.73,62.37c-0.35-0.03-0.7-0.01-1.05,0.04c-0.55,0.07-0.94,0.36-1.08,0.93c-0.06,0.26-0.14,0.53-0.26,0.77     c-0.06,0.11-0.24,0.24-0.36,0.23c-0.11-0.01-0.28-0.17-0.31-0.29c-0.41-1.38-0.82-2.76-1.21-4.15c-0.33-1.16,0.19-1.98,1.45-2.24     c0.54-0.18,1.02,0.04,1.46,0.41c0.54,0.45,1.1,0.88,1.63,1.34c0.29,0.26,0.58,0.53,0.82,0.84c0.34,0.43,0.39,0.93,0.15,1.43     C29.72,62.2,29.32,62.42,28.73,62.37z"/>
		</g>
	</g>
	<g>
		<g>
			<path class="st0" d="M22.82,46.49c0.05,0.1,0.07,0.22,0.09,0.34c0.05,0.3-0.23,0.56-0.5,0.44c-0.29-0.12-0.56-0.28-0.84-0.4     c-0.55-0.24-1.12-0.33-1.74-0.25c-0.64,0.21-1.12,0.66-1.46,1.25c-0.2,0.34-0.34,0.7-0.51,1.05c-0.2,0.4-0.5,0.69-0.93,0.85     c-0.49,0.18-1-0.08-1.06-0.59c-0.08-0.66-0.12-1.32-0.14-1.98c-0.01-0.37,0.14-0.71,0.46-0.91c0.85-0.54,1.48-1.29,2-2.11     c0.54-0.85,1.62-0.93,2.36-0.44C21.57,44.43,22.29,45.38,22.82,46.49z"/>
		</g>
	</g>
	<g>
		<g>
			<path class="st0" d="M36.23,86.55c0.19,0,0.38,0.05,0.57,0.05c0.41,0,0.82-0.01,1.23-0.03c0.16-0.01,0.31-0.06,0.47-0.06     c0.36-0.01,0.61,0.21,0.63,0.57c0.03,0.49-0.08,0.95-0.44,1.31c-0.18,0.18-0.36,0.36-0.51,0.57c-0.14,0.19-0.02,0.49,0.21,0.53     c0.25,0.04,0.51,0.03,0.76,0.06c0.24,0.03,0.37,0.31,0.23,0.51c-0.13,0.18-0.26,0.38-0.45,0.48c-0.43,0.26-0.9,0.47-1.17,0.61     c-0.26,0.06-0.32,0.07-0.38,0.08c-0.78,0.15-1.04-0.02-1.24-0.78c-0.24-0.89-0.48-1.78-0.73-2.66c-0.02-0.06-0.04-0.12-0.05-0.18     C35.24,86.98,35.58,86.55,36.23,86.55z"/>
		</g>
	</g>
	<g>
		<g>
			<path class="st0" d="M37.63,69.15c-0.07,0.22-0.18,0.43-0.31,0.63c-0.2,0.33-0.45,0.64-0.64,0.98c-0.6,1.06-1.58,1.72-2.58,2.33     c-0.53,0.32-1.13,0.52-1.64,0.75c-0.36,0.02-0.63,0.04-0.9,0.04c-0.26,0-0.43-0.3-0.29-0.5c0.18-0.25,0.37-0.51,0.59-0.72     c0.65-0.65,1.09-1.41,1.38-2.29c0.23-0.71,0.5-1.4,0.8-2.08c0.14-0.31,0.35-0.61,0.59-0.85c0.27-0.27,0.72-0.29,0.95,0.01     c0.42,0.55,0.98,0.72,1.6,0.87C37.57,68.41,37.75,68.79,37.63,69.15z"/>
		</g>
	</g>
	<g>
		<g>
			<path class="st0" d="M29.24,78.22c0.85,0.09,1.47-0.23,1.84-0.98c0.38-0.78,1.06-1.01,1.82-1.09c0.97-0.1,1.68,0.67,1.47,1.62     c-0.06,0.26-0.2,0.52-0.36,0.73c-0.84,1.09-1.86,1.92-3.09,2.11c-1.08,0.33-1.95,0.32-2.79-0.18c-0.44-0.26-0.7-0.65-0.62-1.17     c0.08-0.52,0.42-0.84,0.91-0.98C28.69,78.21,28.98,78.19,29.24,78.22z"/>
		</g>
	</g>
	<g>
		<g>
			<path class="st0" d="M26.16,68.01c0.13-0.8,0.66-1.31,1.3-1.73c0.29-0.19,0.68-0.06,0.95,0.24c0.22,0.25,0.23,0.57,0.01,0.86     c-0.09,0.12-0.2,0.25-0.32,0.34c-0.64,0.49-0.67,1.21-0.71,1.91c-0.02,0.38,0.21,0.66,0.57,0.81c0.33,0.14,0.63,0.04,0.87-0.18     c0.19-0.19,0.36-0.41,0.49-0.65c0.47-0.81,0.93-1.63,1.38-2.45c0.29-0.53,0.7-0.94,1.21-1.25c0.11-0.06,0.27-0.04,0.4-0.05     c0.03,0.15,0.08,0.24,0.06,0.3c-0.34,0.7-0.67,1.41-1.06,2.09c-0.66,1.15-1.58,2.14-2.04,3.42c-0.19,0.52-0.58,0.92-1.13,1.27     c-0.52-0.24-0.84-0.57-1.1-0.97c-0.27-0.43-0.94-3.1-0.92-3.61C26.13,68.25,26.14,68.13,26.16,68.01z"/>
		</g>
	</g>
	<g>
		<g>
			<path class="st0" d="M18.85,40.88c-1.08,0.28-2.08,0.69-2.77,1.63c-0.04,0.06-0.13,0.08-0.29,0.17c-0.88-0.36-1.2-1.14-1.51-1.89     c-0.18-0.45,0.19-0.97,0.68-1.05c0.31-0.05,0.63-0.03,0.94-0.06c0.42-0.05,0.64-0.26,0.68-0.68c0.03-0.27-0.01-0.55,0.03-0.82     c0.14-0.99,1.12-1.4,1.93-0.85c0.38,0.26,0.61,0.61,0.71,1.04c0.12,0.5,0.22,1,0.29,1.5C19.62,40.53,19.5,40.71,18.85,40.88z"/>
		</g>
	</g>
	<g>
		<g>
			<path class="st0" d="M21.79,68.69c-0.53-0.19-0.8-0.61-1-1.09c-0.1-0.24,0.07-0.5,0.32-0.51c0.44-0.02,0.87,0.04,1.2,0.37     c1.08,1.06,1.97,2.24,2.27,3.77c0.02,0.12,0.06,0.23,0.07,0.35c0.09,0.79-0.25,1.17-1.06,1.19c-0.65,0.01-1.22-0.21-1.77-0.56     c-0.86-0.54-1.7-1.12-2.69-1.44c-0.14-0.05-0.28-0.14-0.4-0.24c-0.19-0.16-0.32-0.36-0.23-0.62c0.1-0.26,0.32-0.34,0.57-0.3     c0.19,0.03,0.39,0.07,0.56,0.15c0.53,0.25,1.05,0.53,1.48,0.95c0.25,0.24,0.56,0.44,0.87,0.57c0.46,0.2,0.96,0,1.24-0.4     c0.22-0.32,0.19-0.66-0.1-1.09C22.81,69.27,22.36,68.89,21.79,68.69z"/>
		</g>
	</g>
	<g>
		<g>
			<path class="st0" d="M16.31,60.81c1.13,0.11,2.09,0.63,2.98,1.28c1.23,0.89,2.43,1.81,3.72,2.78c-0.53,0.23-0.95,0.23-1.38,0.16     c-0.98-0.16-1.87-0.55-2.71-1.07c-0.46-0.29-0.93-0.61-1.45-0.76c-0.71-0.22-1.26-0.61-1.73-1.15c-0.25-0.28-0.66-0.55-0.4-0.99     C15.55,60.7,15.97,60.77,16.31,60.81z"/>
		</g>
	</g>
	<g>
		<g>
			<path class="st0" d="M13.34,51.69c0.59-0.14,1.17-0.07,1.73,0.15c0.84,0.32,1.68,0.65,2.5,0.99c0.36,0.15,0.7,0.34,1.03,0.54     c0.53,0.32,1.06,0.66,1.58,1.01c0.16,0.11,0.32,0.22,0.45,0.36c0.07,0.07,0.1,0.23,0.07,0.32c-0.03,0.09-0.14,0.17-0.24,0.22     c-0.06,0.03-0.15,0.03-0.23,0.02c-1.09-0.15-2.16-0.35-3.15-0.86c-0.41-0.21-0.86-0.38-1.3-0.51c-0.56-0.17-1.14-0.28-1.71-0.42     c-0.56-0.14-1-0.43-1.2-0.93C12.76,52.16,12.97,51.78,13.34,51.69z"/>
		</g>
	</g>
	<g>
		<g>
			<path class="st0" d="M27.51,89.55c-0.03-0.15-0.07-0.31-0.07-0.46c-0.01-0.35,0.19-0.58,0.55-0.64c0.45-0.09,0.87-0.01,1.19,0.33     c0.23,0.26,0.46,0.54,0.6,0.86c0.33,0.75,0.61,1.52,0.88,2.3c0.13,0.36-0.07,0.64-0.43,0.66c-0.23,0.01-0.47,0.01-0.7-0.04     c-0.68-0.16-1.37-0.32-2.04-0.52c-0.4-0.12-0.83-0.24-1.11-0.74c0.17-0.12,0.26-0.21,0.36-0.25     C27.47,90.78,27.65,90.25,27.51,89.55z"/>
		</g>
	</g>
	<g>
		<g>
			<path class="st0" d="M26.86,44.93c-0.27,0.54-0.89,0.57-1.24,0.1c-0.28-0.39-0.47-0.83-0.37-1.32c0.23-1.15,0.56-2.27,1.13-3.3     c0.11-0.19,0.31-0.35,0.49-0.48c0.17-0.13,0.53-0.05,0.62,0.13c0.12,0.24,0.21,0.5,0.27,0.65c0.05,0.5,0.1,0.89,0.11,1.27     c0,0.27-0.01,0.56-0.11,0.8C27.5,43.51,27.2,44.23,26.86,44.93z"/>
		</g>
	</g>
	<g>
		<g>
			<path class="st0" d="M30.72,48.95c0.22,0.07,0.51,0.09,0.71,0.23c0.26,0.18,0.18,0.49,0.09,0.75c-0.05,0.15-0.09,0.31-0.18,0.43     c-0.33,0.43-0.64,0.89-1.03,1.25c-0.69,0.64-1.35,1.27-1.66,2.21c-0.16,0.49-0.57,0.83-1.12,0.94c-0.3,0.06-0.55-0.17-0.48-0.47     c0.13-0.58,0.36-1.11,0.73-1.58c0.43-0.56,0.78-1.15,1.09-1.79c0.27-0.55,0.71-1.02,1.11-1.49     C30.15,49.24,30.43,49.14,30.72,48.95z"/>
		</g>
	</g>
	<g>
		<g>
			<path class="st0" d="M34.47,82.1c0.91-0.64,1.45-1.52,1.8-2.55c0.04-0.11,0.09-0.22,0.15-0.32c0.31-0.52,0.46-1.07,0.48-1.67     c0.04-0.88,0.42-1.67,0.79-2.45c0.02-0.04,0.04-0.08,0.06-0.12c0.16-0.27,0.42-0.44,0.76-0.48c0.38-0.06,0.65,0.12,0.71,0.43     c0.02,0.1,0.02,0.22-0.01,0.36c-0.12,0.54-0.36,1.04-0.71,1.47c-0.33,0.4-0.58,0.84-0.69,1.35c-0.41,1.85-1.58,3.21-2.88,4.47     c-0.16,0.16-0.36,0.33-0.62,0.18C34.1,82.67,34.15,82.32,34.47,82.1z"/>
		</g>
	</g>
	<g>
		<g>
			<path class="st0" d="M33.01,55.97c-0.04,0.92-0.51,1.62-1.22,2.16c-0.27,0.2-0.6,0.23-0.89,0.07c-0.64-0.36-1.2-0.82-1.67-1.46     c0.13-0.17,0.16-0.26,0.22-0.3c0.78-0.42,1.57-0.84,2.36-1.25c0.03-0.02,0.07-0.03,0.11-0.04     C32.53,54.96,33.04,55.33,33.01,55.97z"/>
		</g>
	</g>
	<g>
		<g>
			<path class="st0" d="M22.91,61.63c0.03,0.12-0.07,0.27-0.15,0.55c-0.45-0.38-0.75-0.63-1.05-0.88c-0.21-0.17-0.46-0.31-0.63-0.51     c-0.48-0.56-0.96-1.13-1.38-1.73c-0.22-0.31-0.37-0.69-0.47-1.06c-0.12-0.42,0.28-0.75,0.72-0.63c0.11,0.03,0.23,0.07,0.33,0.13     c0.57,0.35,1.08,0.77,1.42,1.36c0.27,0.48,0.56,0.94,0.78,1.44C22.65,60.73,22.78,61.18,22.91,61.63z"/>
		</g>
	</g>
	<g>
		<g>
			<path class="st0" d="M23.29,42.35c-0.43,0-0.62-0.32-0.75-0.65c-0.25-0.66-0.46-1.33-0.68-2.01c-0.13-0.39-0.04-0.78,0.11-1.15     c0.19-0.47,0.64-0.61,1.04-0.27c0.2,0.17,0.38,0.4,0.49,0.64c0.13,0.28,0.18,0.6,0.34,1.15c0.01,0.34,0.07,0.92,0.03,1.5     C23.83,42.04,23.56,42.35,23.29,42.35z"/>
		</g>
	</g>
	<g>
		<g>
			<path class="st0" d="M34.76,60.2c0.07,0.37-0.03,0.71-0.28,0.98c-0.45,0.49-0.9,0.98-1.38,1.45c-0.25,0.25-0.54,0.45-1.03,0.41     c-0.05-0.17-0.12-0.28-0.1-0.38c0.14-1.05,0.69-1.9,1.4-2.65c0.15-0.16,0.4-0.25,0.62-0.32C34.35,59.57,34.69,59.81,34.76,60.2z"/>
		</g>
	</g>
</g>
<g>
	<g>
		<g>
			<path class="st0" d="M134.58,141.88c-0.51-0.6-0.37-1.13,0.09-1.67c0.05-0.06,0.12-0.13,0.14-0.2c0.04-0.19,0.12-0.42,0.06-0.58     c-0.08-0.23-0.34-0.2-0.54-0.15c-0.24,0.06-0.49,0.11-0.71,0.22c-0.57,0.28-1.16,0.45-1.8,0.45c-0.74,0.01-1.26,0.32-1.55,1.03     c-0.09,0.22-0.24,0.52-0.43,0.58c-0.95,0.32-1.42,1.28-2.3,1.66c-0.87,0.38-1.75,0.77-2.62,1.16c-0.84,0.37-1.65,0.76-2.28,1.48     c-0.29,0.33-0.71,0.58-1.1,0.8c-0.72,0.4-1.22,0.94-1.51,1.74c-0.38,1.05-0.95,2.03-1.11,3.17c-0.05,0.35-0.27,0.6-0.58,0.77     c-0.41,0.23-0.55,0.6-0.54,1.04c0,0.12,0.03,0.26-0.01,0.37c-0.31,1.09-0.2,2.12,0.32,3.14c0.26,0.51,0.01,0.97-0.38,1.34     c-0.45,0.43-0.9,0.85-1.35,1.28c-0.56,0.53-0.92,1.18-1.13,1.91c-0.38,1.29-1.22,2.14-2.43,2.68c-1.26,0.57-3.9,1.42-4.4,2.89     c-0.09,0.25-0.06,0.59,0.18,0.7c0.12,0.05,0.26,0.03,0.39,0.01c1.44-0.26,2.4-1.2,3.78-1.53c0.31-0.07,0.63-0.27,0.86-0.49     c0.79-0.77,1.78-1.23,2.69-1.81c0.41-0.26,0.89-0.46,1.37-0.58c0.97-0.25,1.95-0.41,2.92-0.63c0.57-0.13,1.05-0.05,1.5,0.35     c0.69,0.61,1.44,1.11,2.38,1.3c0.28,0.06,0.55,0.36,0.75,0.61c0.38,0.48,0.82,0.8,1.44,0.89c0.28,0.04,0.57,0.15,0.81,0.3     c0.54,0.34,1.09,0.35,1.68,0.18c0.36-0.1,0.72-0.2,1.09-0.29c0.46-0.1,0.88-0.29,1.17-0.66c0.45-0.59,1.02-0.65,1.68-0.44     c0.12,0.04,0.24,0.08,0.36,0.1c0.69,0.16,1.23-0.02,1.59-0.66c0.1-0.18,0.21-0.36,0.32-0.53c0.31-0.49,0.73-0.77,1.35-0.7     c0.24,0.03,0.5-0.01,0.74-0.07c0.47-0.11,0.86-0.34,0.94-0.87c0.1-0.73,0.61-0.95,1.25-0.94c1.02,0.02,1.86-0.36,2.57-1.07     c0.08-0.08,0.12-0.21,0.2-0.34c-0.3-0.46-0.75-0.44-1.22-0.46c-0.11,0.14-0.24,0.25-0.31,0.39c-0.23,0.45-0.62,0.66-1.08,0.78     c-0.64,0.16-1.29,0.32-1.94,0.45c-0.98,0.19-1.96,0.35-2.95,0.5c-0.49,0.07-0.99,0.09-1.49,0.12c-1.54,0.09-3.07,0.17-4.61,0.25     c-0.33,0.02-0.67,0.09-0.99,0.06c-1.59-0.11-3.15,0.12-4.72,0.28c-0.55,0.06-1.04,0.08-1.53-0.3c-0.22-0.17-0.63-0.18-0.95-0.15     c-0.99,0.11-1.97,0.27-2.96,0.41c-0.46,0.06-0.93,0.12-1.24-0.33c-0.26-0.39-0.13-1.06,0.33-1.47c0.99-0.89,2.01-1.75,3.15-2.43     c0.87-0.52,1.64-1.13,2.22-1.97c0.32-0.47,0.75-0.74,1.3-0.91c0.47-0.15,0.96-0.33,1.35-0.61c0.66-0.47,1.38-0.75,2.16-0.91     c0.4-0.08,0.81-0.2,1.19-0.36c0.68-0.3,1.08-0.88,1.38-1.54c0.55-1.26,1.19-2.46,2-3.58c0.53-0.73,0.97-1.56,1.31-2.4     c0.33-0.83,0.77-1.56,1.32-2.24c0.16-0.19,0.32-0.38,0.45-0.59C134.74,142.51,134.82,142.16,134.58,141.88z M132.73,142.27     c-1.51,1.66-3.02,3.32-4.54,4.96c-0.2,0.21-0.42,0.4-0.65,0.58c-1.35,1.05-2.55,2.25-3.58,3.62c-0.22,0.3-0.49,0.56-0.73,0.85     c-0.47,0.58-0.96,1.14-1.4,1.74c-0.54,0.74-1.01,1.52-1.54,2.26c-0.16,0.22-0.41,0.37-0.68,0.62c-0.18-0.21-0.41-0.36-0.4-0.49     c0.04-0.4,0.1-0.83,0.27-1.19c0.68-1.47,1.35-2.95,2.5-4.14c0.14-0.15,0.26-0.32,0.38-0.49c1.12-1.68,2.52-3.08,4.15-4.26     c0.2-0.15,0.39-0.31,0.57-0.48c1.48-1.4,2.95-2.8,4.42-4.2c0.36-0.34,0.73-0.68,1.11-1c0.3-0.25,0.61-0.28,0.78-0.09     c0.24,0.27,0.15,0.55-0.01,0.8C133.19,141.68,132.97,141.99,132.73,142.27z"/>
		</g>
	</g>
	<g>
		<g>
			<path class="st0" d="M136.87,157.37c1.19,0.26,2.04,1.04,3.17,1.63c-0.5,0.44-0.93,0.41-1.34,0.44     c-2.15,0.15-4.29,0.46-6.47,0.39c-1.45-0.05-2.9,0.17-4.35,0.28c-1.46,0.11-2.89,0.28-4.32,0.57c-0.19,0.04-0.39-0.01-0.67-0.01     c0.03-0.28-0.01-0.5,0.08-0.66c0.29-0.5,0.62-0.98,0.93-1.47c0.26-0.41,0.63-0.66,1.13-0.66c0.49,0.01,0.86-0.22,1.25-0.49     c0.55-0.38,1.13-0.7,1.7-1.03c0.5-0.29,1-0.35,1.54-0.07c0.24,0.12,0.56,0.09,0.84,0.12c0.2,0.02,0.44-0.04,0.61,0.05     c0.53,0.29,1.04,0.16,1.57,0.01c0.23-0.07,0.49-0.06,0.72-0.09c0.38,0.28,0.64,0.76,1.18,0.64     C135.31,156.83,136.07,157.19,136.87,157.37z"/>
		</g>
	</g>
</g>
<g>
	<g>
		<path class="st0" d="M117.89,118.28c-0.78,0.88-1.56,1.75-2.34,2.64c-0.15,0.18-0.29,0.37-0.42,0.57    c-0.98,1.52-2.07,2.96-3.28,4.31c-0.29,0.32-0.55,0.67-0.78,1.04c-0.71,1.13-1.46,2.23-2.4,3.2c-0.11,0.11-0.23,0.24-0.27,0.38    c-0.05,0.18-0.09,0.41-0.01,0.56c0.35,0.69,0.82,0.75,1.31,0.31c0.14-0.13,0.3-0.26,0.42-0.41c0.54-0.67,1.11-1.33,1.59-2.04    c0.57-0.85,1.13-1.7,1.83-2.45c0.3-0.31,0.55-0.66,0.81-1.01c0.67-0.92,1.31-1.86,2.02-2.75c0.73-0.92,1.48-1.82,2.29-2.68    c0.79-0.84,1.4-1.79,2.06-2.72c0.99-1.41,2.04-2.78,3.06-4.18c1.27-1.74,2.61-3.45,3.78-5.25c1.09-1.68,2.17-3.36,3.46-4.9    c0.37-0.45,0.71-0.95,0.98-1.47c0.46-0.88,1.06-1.64,1.71-2.39c0.36-0.41,0.65-0.88,0.96-1.33c0.55-0.81,1.07-1.64,1.64-2.43    c0.53-0.73,1.12-1.41,1.64-2.15c1.12-1.61,2.19-3.25,3.42-4.78c0.27-0.33,0.45-0.73,0.69-1.09c0.3-0.45,0.62-0.9,0.94-1.35    c0.53-0.73,1.12-1.42,1.57-2.2c0.42-0.71,0.85-1.41,1.39-2.04c0.33-0.39,0.62-0.81,0.89-1.24c0.77-1.23,1.72-2.33,2.45-3.6    c0.53-0.91,1.26-1.7,1.88-2.55c0.21-0.28,0.38-0.6,0.55-0.9c0.18-0.31,0.31-0.64,0.51-0.93c1.19-1.71,2.43-3.38,3.58-5.11    c0.74-1.11,1.46-2.23,2.21-3.33c0.13-0.19,0.22-0.41,0.33-0.62c-0.03-0.04-0.06-0.08-0.09-0.11c-0.08,0.13-0.16,0.27-0.25,0.38    c-0.95,1.15-1.9,2.29-2.78,3.49c-1,1.36-2.09,2.65-3.1,4c-0.61,0.82-1.1,1.72-1.72,2.53c-0.92,1.22-2.01,2.31-2.74,3.67    c-0.06,0.1-0.14,0.19-0.21,0.28c-1.35,1.88-2.91,3.6-4.09,5.6c-0.04,0.07-0.09,0.13-0.14,0.19c-0.98,1.22-2,2.41-2.74,3.81    c-0.27,0.51-0.72,0.93-1.07,1.4c-0.54,0.72-1.14,1.41-1.6,2.17c-0.76,1.24-1.64,2.39-2.58,3.5c-0.68,0.81-1.33,1.64-1.83,2.58    c-0.24,0.45-0.54,0.87-0.87,1.25c-0.74,0.87-1.46,1.74-1.99,2.76c-0.27,0.52-0.64,0.99-1.03,1.43c-1.04,1.18-1.88,2.51-2.78,3.8    c-1.19,1.71-2.35,3.44-3.6,5.09c-1.57,2.06-3.19,4.08-4.6,6.26C118.36,117.75,118.12,118.02,117.89,118.28z"/>
	</g>
</g>
<g>
	<g>
		<path class="st0" d="M157.92,98.86c-0.17,0.08-0.29,0.14-0.4,0.24c-0.2,0.19-0.38,0.38-0.57,0.58c-0.1,0.11-0.2,0.21-0.3,0.32    c0,0,0,0,0,0l-0.42,0.44c-0.94,0.99-1.92,2.01-3.16,2.67c-0.19,0.1-0.35,0.23-0.5,0.36c-0.08,0.07-0.16,0.14-0.25,0.2l-0.27,0.2    c-0.33,0.24-0.66,0.48-1,0.7c-0.8,0.51-1.64,0.98-2.46,1.42c-1.03,0.56-2.09,1.14-3.07,1.83c-0.13,0.09-0.3,0.17-0.45,0.23    c-1.06,0.44-2.3,0.98-3.48,1.63c-0.49,0.27-1.01,0.53-1.51,0.77c-0.46,0.23-0.93,0.45-1.38,0.7c-1.16,0.63-2.34,1.3-3.62,2.05    c-2.21,1.3-3.91,2.32-5.5,3.3c-0.8,0.49-1.51,1.19-2.24,2.18c-0.04,0.06-0.16,0.22-0.12,0.42c0.02,0.14,0.11,0.27,0.26,0.37    c0.07,0.05,0.16,0.06,0.24,0.03c0.47-0.18,0.87-0.49,1.26-0.78l0.26-0.2c0.13-0.09,0.25-0.19,0.37-0.29    c0.26-0.21,0.5-0.41,0.77-0.54c1.1-0.56,2.16-1.22,3.18-1.86c1.07-0.67,2.18-1.36,3.33-1.93c0.47-0.23,0.92-0.5,1.36-0.75    c0.73-0.43,1.48-0.87,2.29-1.15c0.17-0.06,0.31-0.15,0.44-0.25c0.06-0.04,0.12-0.08,0.18-0.12l0.23-0.14    c0.21-0.12,0.41-0.25,0.63-0.35c0.32-0.15,0.63-0.31,0.95-0.47c0.84-0.42,1.71-0.85,2.59-1.2c0.47-0.19,0.91-0.46,1.34-0.73    c0.15-0.1,0.31-0.19,0.46-0.28c0.19-0.11,0.37-0.23,0.56-0.35c0.32-0.21,0.63-0.41,0.96-0.56c0.84-0.38,1.63-0.85,2.39-1.31    c0.35-0.21,0.7-0.42,1.06-0.63c0.1-0.05,0.19-0.13,0.28-0.2c0.21-0.17,0.33-0.24,0.47-0.22c0.03,0.19-0.08,0.3-0.33,0.51    c-0.07,0.06-0.15,0.12-0.21,0.18c-0.78,0.76-1.58,1.51-2.38,2.25l-0.48,0.44c-0.84,0.78-1.69,1.56-2.53,2.34l-0.44,0.41    c-1.05,0.96-2.13,1.83-3.21,2.59c-0.37,0.26-0.73,0.58-1.05,0.94c-0.59,0.67-1.31,1.29-2.34,1.99c-0.3,0.2-0.56,0.45-0.81,0.69    l-0.23,0.22c-0.79,0.74-1.59,1.48-2.37,2.23l-0.62,0.59c-0.71,0.67-1.44,1.36-2.13,2.07c-0.35,0.36-0.68,0.75-0.99,1.12    c-0.26,0.31-0.51,0.61-0.79,0.91c-0.6,0.64-1.28,1.43-1.83,2.34c-0.16,0.27-0.38,0.51-0.61,0.76l-0.14,0.16    c-0.7,0.78-1.4,1.56-2.11,2.33c-0.32,0.35-0.65,0.7-1,1.03c-0.44,0.4-0.89,0.79-1.33,1.19c-0.75,0.66-1.53,1.35-2.26,2.06    c-0.77,0.74-1.65,1.36-2.5,1.97l-0.39,0.28c-0.09,0.06-0.18,0.12-0.27,0.18c-0.19,0.13-0.39,0.26-0.57,0.42    c-0.87,0.78-1.87,1.5-3.25,2.31c-0.26,0.15-0.53,0.31-0.79,0.46c-0.32,0.19-0.64,0.37-1,0.58c-0.06,0.03-0.19,0.1-0.26,0.23    c-0.06,0.1-0.09,0.22-0.03,0.4c0.03,0.11,0.14,0.18,0.25,0.18l0.08,0c0.09,0.01,0.2,0.01,0.31-0.02c1.11-0.36,2.39-0.83,3.53-1.62    c0.39-0.27,0.77-0.56,1.15-0.84c0.43-0.32,0.86-0.65,1.3-0.95c0.22-0.15,0.44-0.3,0.66-0.44c1.02-0.68,2.08-1.37,2.93-2.33    c0.04-0.04,0.08-0.07,0.12-0.1c0.04-0.03,0.08-0.06,0.11-0.09c0.36-0.32,0.73-0.63,1.09-0.94c1.27-1.09,2.59-2.21,3.65-3.58    c0.05-0.07,0.12-0.13,0.19-0.19c0.07-0.06,0.14-0.12,0.2-0.19c0.2-0.22,0.41-0.43,0.61-0.65c0.62-0.64,1.26-1.31,1.75-2.12    c0.29-0.49,0.7-0.93,1.09-1.36l0.3-0.33c0.22-0.25,0.45-0.48,0.69-0.72c0.37-0.37,0.75-0.76,1.08-1.19    c0.83-1.09,1.86-1.98,2.84-2.79c0.84-0.69,1.55-1.34,2.22-2.02c0.4-0.42,0.79-0.81,1.25-1.11c0.83-0.55,1.6-1.2,2.27-1.92    c0.3-0.33,0.66-0.61,1.04-0.9c0.13-0.1,0.26-0.2,0.39-0.31c0.29-0.23,0.58-0.46,0.87-0.69c0.5-0.4,1.01-0.8,1.49-1.21    c0.46-0.4,0.91-0.82,1.35-1.23c0.24-0.23,0.48-0.45,0.72-0.68c0.92-0.84,1.84-1.69,2.77-2.53l1.47-1.34    c1.04-0.95,1.88-2.07,2.57-3.04c0.52-0.73,0.95-1.52,1.37-2.29c0.14-0.25,0.27-0.49,0.41-0.74c0.18-0.33,0.36-0.71,0.53-1.16    c0.06-0.16,0.08-0.31,0.1-0.53c0.01-0.11,0.03-0.25,0.06-0.42c0.01-0.1-0.03-0.19-0.11-0.25c-0.08-0.06-0.19-0.06-0.27-0.02    C158.12,98.76,158.01,98.82,157.92,98.86z"/>
	</g>
</g>
<g>
	<g>
		<path class="st0" d="M174.26,39.9c-0.2,0.28-0.4,0.59-0.67,0.8c-0.57,0.45-1.2,0.2-1.27-0.53c-0.05-0.49,0.05-1.01,0.11-1.51    c0.08-0.66,0.21-1.31,0.29-1.97c0.07-0.54-0.15-1-0.44-1.42c-0.19-0.28-0.51-0.35-0.83-0.22c-0.3,0.12-0.54,0.32-0.67,0.62    c-0.14,0.32-0.28,0.65-0.37,0.99c-0.47,1.7-0.83,3.41-0.55,5.2c0.1,0.64-0.04,1.32-0.07,1.98c0,0.08-0.04,0.15-0.05,0.23    c-0.08,0.39-0.17,0.8,0.15,1.11c0.35,0.34,0.73,0.11,1.09-0.03c1.21-0.47,2.36-1.05,3.35-2.15c0.47-0.57,1.07-1.24,1.6-1.96    c0.22-0.3,0.33-0.71,0.41-1.08c0.14-0.65-0.47-1.12-1.11-0.88C174.8,39.22,174.52,39.55,174.26,39.9z"/>
	</g>
</g>
<g>
	<g>
		<path class="st0" d="M172.12,48.51c-1.32,0.35-2.63,0.76-3.94,1.18c-0.37,0.12-0.72,0.31-1.06,0.5c-0.22,0.12-0.18,0.51,0.05,0.57    c0.26,0.08,0.53,0.13,0.8,0.14c0.98,0.04,1.96,0.05,2.93,0.1c0.38,0.02,0.78,0.1,1.14,0.22c0.31,0.1,0.52,0.35,0.54,0.71    c0.02,0.39-0.14,0.7-0.47,0.88c-0.24,0.13-0.51,0.19-0.77,0.26c-0.21,0.06-0.44,0.09-0.82,0.16c0.24,0.24,0.35,0.42,0.5,0.47    c0.85,0.28,1.71,0.59,2.59,0.76c0.43,0.08,0.93-0.07,1.38-0.18c0.39-0.1,0.52-0.45,0.56-0.82c0.04-0.39-0.13-0.68-0.5-0.85    c-0.28-0.13-0.59-0.22-0.85-0.38c-0.37-0.23-0.38-0.74,0-0.98c0.33-0.21,0.68-0.38,1.04-0.53c0.57-0.24,0.98-0.65,1.32-1.14    c0.34-0.49,0.21-1-0.3-1.29c-0.54-0.31-1.13-0.33-1.71-0.24C173.73,48.18,172.92,48.3,172.12,48.51z"/>
	</g>
</g>
<g>
	<g>
		<path class="st0" d="M143.97,71.01c-0.11-0.16-0.2-0.34-0.32-0.49c-0.19-0.22-0.43-0.35-0.73-0.27c-0.34,0.09-0.54,0.34-0.59,0.67    c-0.04,0.26,0.01,0.55,0.06,0.81c0.13,0.69-0.07,1.19-0.65,1.63c-1.04,0.78-1.04,1.15-0.13,2.04c0.28,0.27,0.58,0.53,0.87,0.8    c-0.01,0.01-0.02,0.02-0.03,0.03c0.35,0.32,0.69,0.64,1.04,0.95c0.27,0.23,0.58,0.24,0.87,0.04c0.5-0.33,0.91-0.74,1.15-1.3    c0.16-0.4,0.33-0.8,0.5-1.19c0.26-0.62,0.6-1.18,1.12-1.64c0.49-0.43,0.77-0.99,0.97-1.59c0.16-0.47,0.07-0.74-0.3-1.04    c-0.97-0.8-1.35-0.73-1.99,0.38c-0.14,0.24-0.28,0.48-0.46,0.68c-0.29,0.31-0.75,0.3-1.05-0.01    C144.18,71.35,144.08,71.17,143.97,71.01z"/>
	</g>
</g>
<g>
	<g>
		<path class="st0" d="M138.08,100.98c0.12-0.15,0.27-0.28,0.41-0.42c0.4-0.37,0.82-0.73,1.21-1.11c0.38-0.37,0.32-0.77-0.13-1.07    c-0.28-0.18-0.57-0.28-0.89-0.15c-0.84,0.34-1.65,0.68-2.23,1.44c-0.67,0.86-1.43,1.66-2.16,2.47c-0.7,0.77-0.54,1.63,0.42,2.08    c1.33,0.66,2.78,0.77,4.22,0.85c0.31,0.02,0.63,0,0.94-0.01c0.53-0.03,0.98-0.25,1.36-0.62c0.46-0.44,0.41-0.91-0.1-1.28    c-0.52-0.36-1.11-0.58-1.74-0.65c-0.23-0.02-0.47-0.01-0.7-0.05C137.9,102.33,137.61,101.59,138.08,100.98z"/>
	</g>
</g>
<g>
	<g>
		<path class="st0" d="M164.51,54.61c0.78-0.01,1.56,0.01,2.34,0c0.18,0,0.36-0.08,0.51-0.12c0.05-0.46-0.27-0.51-0.51-0.6    c-0.52-0.18-1.04-0.33-1.56-0.48c-0.9-0.26-1.58-0.84-2.25-1.45c-0.55-0.5-1.09-1.02-1.64-1.51c-0.42-0.37-0.43-0.36-1.26-0.56    c-0.07,0.81,0.21,1.39,0.6,1.93c0.18,0.25,0.4,0.49,0.54,0.76c0.22,0.43,0.11,0.93-0.21,1.18c-0.35,0.27-0.73,0.28-1.1,0.05    c-0.4-0.25-0.76-0.55-1.16-0.8c-0.12-0.07-0.3-0.1-0.44-0.07c-0.22,0.05-0.29,0.25-0.28,0.46c0.05,0.87,0.26,1.71,0.67,2.47    c0.51,0.93,1.54,1.34,2.6,1.14c0.19-0.04,0.38-0.09,0.57-0.12c0.92-0.14,1.45-0.66,1.66-1.57    C163.77,54.71,163.91,54.62,164.51,54.61z"/>
	</g>
</g>
<g>
	<g>
		<path class="st0" d="M151.44,66.38c0.26-0.17,0.5-0.38,0.76-0.58c0.16-0.26,0.34-0.52,0.5-0.78c0.14-0.23,0.23-0.52,0.41-0.71    c0.62-0.68,0.73-1.54,0.9-2.38c0.1-0.51,0.05-1.02-0.11-1.51c-0.06-0.18-0.14-0.37-0.26-0.52c-0.2-0.28-0.5-0.37-0.83-0.3    c-0.3,0.06-0.48,0.25-0.54,0.55c-0.04,0.19-0.04,0.39-0.1,0.58c-0.12,0.37-0.22,0.75-0.39,1.1c-0.26,0.53-0.73,0.62-1.14,0.21    c-0.48-0.48-0.85-1.03-1-1.7c-0.06-0.27-0.1-0.54-0.15-0.81c-0.04-0.19-0.06-0.39-0.11-0.58c-0.14-0.45-0.46-0.69-0.85-0.67    c-0.38,0.02-0.71,0.32-0.74,0.78c-0.03,0.66-0.08,1.35,0.05,1.99c0.23,1.12,0.65,2.18,1.4,3.07c0.41,0.48,0.76,0.99,0.99,1.58    c0.07,0.18,0.18,0.35,0.3,0.51C150.77,66.54,151.09,66.61,151.44,66.38z"/>
	</g>
</g>
<g>
	<g>
		<path class="st0" d="M179.84,32.66c-0.8,0.6-1.32,1.42-1.78,2.29c-0.04,0.08-0.01,0.27,0.05,0.32c0.11,0.08,0.29,0.14,0.41,0.11    c0.22-0.06,0.42-0.2,0.64-0.28c0.73-0.27,1.47-0.52,2.21-0.77c0.18-0.06,0.38-0.09,0.58-0.09c0.52-0.02,0.93,0.26,1.09,0.72    c0.16,0.45,0.01,0.97-0.39,1.25c-0.19,0.13-0.41,0.22-0.63,0.29c-0.26,0.09-0.53,0.13-0.79,0.22c-0.26,0.09-0.53,0.19-0.55,0.53    c-0.01,0.22,0.2,0.34,0.63,0.37c0.98,0.07,1.86-0.23,2.66-0.75c0.52-0.34,1.02-0.73,1.52-1.1c0.19-0.14,0.37-0.3,0.51-0.48    c0.34-0.43,0.44-0.93,0.16-1.43c-0.22-0.41-0.51-0.78-0.77-1.17c-0.51-0.45-1.15-0.55-1.75-0.69    C182.28,31.69,180.99,31.79,179.84,32.66z"/>
	</g>
</g>
<g>
	<g>
		<path class="st0" d="M114.83,137.82c0.1-0.03,0.19-0.06,0.29-0.09c0.22-0.06,0.44-0.13,0.64-0.25c0.78-0.5,1.59-1.02,2.34-1.6    c0.62-0.49,1.15-1,1.57-1.52c0.54-0.67,1.15-1.32,1.73-1.94c0.73-0.77,1.48-1.57,2.13-2.45c0.09-0.12,0.24-0.23,0.39-0.34    l0.16-0.11c0.31-0.23,0.62-0.46,0.93-0.69c0.65-0.47,1.32-0.96,1.95-1.48l0.48-0.39c0.74-0.6,1.5-1.22,2.12-1.99    c0.55-0.68,1.14-1.34,1.71-1.99c0.26-0.3,0.53-0.59,0.79-0.89l0.17-0.2c0.17-0.19,0.34-0.38,0.49-0.58    c1.16-1.48,2.46-2.76,3.87-3.79c0.55-0.4,0.94-0.8,1.21-1.24c0.07-0.1,0.05-0.24-0.04-0.32c-0.09-0.08-0.22-0.1-0.32-0.03    l-0.35,0.23c-0.28,0.19-0.55,0.37-0.83,0.55c-1.59,0.98-3.01,2.23-4.36,3.8l-0.05,0.06c-0.15,0.18-0.3,0.35-0.46,0.49    c-1.09,0.97-2.06,2.08-2.95,3.13c-0.2,0.23-0.4,0.43-0.6,0.59c-0.26,0.2-0.52,0.42-0.78,0.63c-0.66,0.54-1.34,1.09-2.06,1.54    c-1.69,1.04-2.91,2.5-4.09,3.91c-0.38,0.46-0.75,0.94-1.11,1.41c-0.38,0.5-0.77,1.02-1.18,1.5c-0.66,0.78-1.23,1.42-1.95,1.92    c-0.19,0.13-0.37,0.28-0.55,0.43c-0.08,0.06-0.15,0.13-0.23,0.2c-0.09,0.08-0.18,0.16-0.27,0.24c-0.08,0.06-0.16,0.11-0.25,0.17    c-0.11,0.07-0.21,0.14-0.31,0.22c-0.01,0.01-0.06,0.03-0.1,0.04c-0.11,0.04-0.27,0.11-0.38,0.28c-0.04,0.08-0.08,0.17-0.09,0.29    c-0.01,0.09,0.03,0.17,0.1,0.22C114.65,137.83,114.74,137.85,114.83,137.82z"/>
	</g>
</g>
<g>
	<g>
		<path class="st0" d="M155.58,72.51c-0.23,0.21-0.45,0.43-0.63,0.68c-0.2,0.29-0.34,0.62-0.52,0.92c-0.31,0.49-0.66,0.96-0.97,1.46    c-0.45,0.73-0.9,1.46-1.32,2.21c-0.13,0.23-0.19,0.52-0.23,0.78c-0.07,0.43,0.12,0.8,0.54,0.93c0.4,0.12,0.84,0.17,1.26,0.18    c0.39,0.01,0.78-0.08,1.17-0.11c0.91-0.08,1.66-0.42,2.33-1.14c0.4-0.4,0.67-0.96,0.72-1.61c0.02-0.29-0.17-0.55-0.46-0.59    c-0.27-0.04-0.55-0.01-0.82-0.04c-0.95-0.1-1.35-0.79-0.97-1.68c0.25-0.57,0.57-1.12,0.82-1.69c0.05-0.11,0-0.33-0.09-0.42    c-0.09-0.09-0.28-0.11-0.42-0.09C155.86,72.35,155.69,72.41,155.58,72.51z"/>
	</g>
</g>
<g>
	<g>
		<path class="st0" d="M112.18,113.1c-0.09-0.21-0.14-0.44-0.24-0.65c-0.08-0.16-0.42-0.16-0.51-0.01    c-0.08,0.13-0.18,0.27-0.19,0.42c-0.08,0.62-0.15,1.24-0.2,1.86c-0.13,1.42,0.35,2.71,0.89,3.97c0.28,0.66,0.95,0.77,1.43,0.25    c0.72-0.77,1.5-1.51,1.93-2.67c0.81-0.85,0.66-2.07,0.75-3.23c0.03-0.33-0.09-0.62-0.43-0.76c-0.32-0.13-0.72-0.04-0.93,0.3    c-0.21,0.33-0.35,0.7-0.49,1.06c-0.11,0.29-0.15,0.61-0.27,0.9c-0.23,0.54-0.79,0.59-1.08,0.07    C112.56,114.14,112.39,113.61,112.18,113.1z"/>
	</g>
</g>
<g>
	<g>
		<path class="st0" d="M164.62,65.73c-0.27,0.04-0.54,0.11-0.8,0.21c-0.65,0.23-1.21,0.2-1.69-0.38c-0.4-0.49-0.95-0.51-1.5-0.3    c-0.18,0.07-0.34,0.19-0.48,0.33c-0.25,0.25-0.48,0.51-0.72,0.77c-0.01-0.01-0.02-0.02-0.03-0.03c-0.24,0.26-0.51,0.5-0.71,0.78    c-0.27,0.38-0.16,0.78,0.25,0.98c1.21,0.62,2.5,0.89,3.86,0.87c0.23,0,0.47-0.07,0.7-0.06c1.13,0.06,1.93-0.51,2.64-1.29    c0.32-0.36,0.43-0.74,0.26-1.19c-0.17-0.44-0.5-0.7-0.97-0.74C165.17,65.66,164.89,65.69,164.62,65.73z"/>
	</g>
</g>
<g>
	<g>
		<path class="st0" d="M174.91,44.76c-0.33,0.2-0.64,0.45-0.77,0.99c0.55,0.35,1.11,0.4,1.62,0.19c1.06-0.43,1.71,0.08,2.3,0.86    c0.91,1.19,0.92,1.18,2.43,1.09c0.64-0.04,1.24-0.15,1.78-0.52c0.46-0.31,0.55-0.78,0.21-1.21c-0.14-0.18-0.33-0.34-0.52-0.46    c-0.3-0.18-0.62-0.35-0.95-0.46c-0.59-0.18-1.01-0.51-1.37-1.02c-0.58-0.82-1.4-1.05-2.39-0.78    C176.34,43.67,175.68,44.29,174.91,44.76z"/>
	</g>
</g>
<g>
	<g>
		<path class="st0" d="M122.68,124.14c0.68-0.33,1.39-0.53,2.13-0.63c0.73-0.09,1.31-0.52,1.89-0.91c0.36-0.24,0.43-0.71,0.15-1.04    c-0.3-0.35-0.67-0.64-1.01-0.96c-0.75-0.31-1.43-0.35-2.21-0.13c-0.9,0.25-1.6,0.81-2.4,1.23c-0.95,0.5-1.18,1.41-1.37,2.34    c-0.05,0.24,0.17,0.51,0.41,0.48C121.08,124.45,121.92,124.52,122.68,124.14z"/>
	</g>
</g>
<g>
	<g>
		<path class="st0" d="M161.85,45.58c-0.2-0.8-0.4-1.59-0.62-2.38c-0.06-0.22-0.18-0.45-0.58-0.42c0.15,2.08,0.54,3.45,1.37,4.98    c0.63,1.16,2.3,1.36,3.17,0.34c0.71-0.84,1.27-1.78,1.52-2.88c0.11-0.48-0.02-0.86-0.39-1.15c-0.28-0.21-0.58-0.42-0.9-0.55    c-0.75-0.32-1.29-0.04-1.54,0.74c-0.18,0.56-0.37,1.11-0.57,1.66c-0.07,0.18-0.18,0.35-0.31,0.49c-0.28,0.31-0.82,0.23-0.99-0.15    C161.92,46.05,161.91,45.8,161.85,45.58z"/>
	</g>
</g>
<g>
	<g>
		<path class="st0" d="M156.92,57.27c-0.74-0.81-1.41-1.67-2.03-2.59c-0.41-0.61-0.98-1.12-1.54-1.61c-0.43-0.38-0.99-0.5-1.54-0.24    c-0.47,0.22-0.8,1.06-0.66,1.65c0.06,0.26,0.21,0.5,0.36,0.73c0.72,1.12,1.77,1.89,2.91,2.52c0.75,0.42,1.58,0.7,2.38,1.01    c0.2,0.08,0.44,0.03,0.77,0.05C157.56,58.06,157.27,57.65,156.92,57.27z"/>
	</g>
</g>
<g>
	<g>
		<path class="st0" d="M165.48,57.78c-0.31,0.24-0.58,0.52-0.84,0.75c-0.68,0.74-1.14,1.55-1.46,2.44    c-0.24,0.66,0.01,1.09,0.67,1.22c1.23,0.24,2.45,0.46,3.68,0.71c0.49,0.1,0.93,0.09,1.33-0.24c0.34-0.28,0.41-0.67,0.17-1.04    c-0.28-0.42-0.7-0.61-1.17-0.71c-0.34-0.07-0.69-0.13-1.02-0.23c-0.28-0.09-0.41-0.4-0.3-0.67c0.07-0.18,0.2-0.34,0.27-0.52    c0.1-0.25,0.2-0.51,0.25-0.78c0.08-0.41,0.02-0.8-0.36-1.04C166.27,57.42,165.85,57.5,165.48,57.78z"/>
	</g>
</g>
<g>
	<g>
		<path class="st0" d="M127.82,91.74c-0.35,0.79-0.59,1.61-0.55,2.49c0.06,1.05,0.09,2.1,0.15,3.15c0.01,0.19,0.09,0.38,0.17,0.55    c0.1,0.23,0.41,0.3,0.6,0.14c0.12-0.1,0.23-0.21,0.33-0.33c0.42-0.51,0.84-1.02,1.26-1.54c0.15-0.18,0.28-0.37,0.44-0.59    c0.23-0.75,0.72-1.5,0.42-2.35c-0.27-0.77-0.62-1.51-0.99-2.24c-0.22-0.44-0.86-0.51-1.21-0.16    C128.17,91.13,127.96,91.43,127.82,91.74z"/>
	</g>
</g>
<g>
	<g>
		<path class="st0" d="M155.83,45.34c-0.21,0.22-0.4,0.49-0.49,0.78c-0.45,1.51-0.14,2.93,0.61,4.26c0.27,0.48,0.72,0.48,1.04,0.05    c0.88-1.21,1.16-2.54,0.72-3.98c-0.13-0.43-0.43-0.81-0.54-1.01C156.6,44.97,156.17,44.97,155.83,45.34z"/>
	</g>
</g>
<g>
	<g>
		<path class="st0" d="M175.18,34.81c0.47-0.53,0.5-0.97,0.57-1.38c0.11-0.71,0.36-1.33,0.81-1.91c0.45-0.58,0.78-1.26,1.15-1.9    c0.19-0.33,0.18-0.67-0.03-0.99c-0.11-0.16-0.21-0.33-0.34-0.48c-0.59-0.68-1.33-0.65-1.86,0.08c-0.11,0.16-0.26,0.32-0.3,0.5    c-0.26,1.02-0.61,2.04-0.52,3.09C174.72,32.74,174.96,33.65,175.18,34.81z"/>
	</g>
</g>
<g>
	<g>
		<path class="st0" d="M167.45,41.3c0.11-0.43,0.09-0.87-0.12-1.26c-0.48-0.94-0.99-1.86-1.52-2.77c-0.13-0.23-0.33-0.44-0.53-0.62    c-0.43-0.37-0.94-0.26-1.14,0.26c-0.22,0.59-0.33,1.23-0.11,1.84c0.25,0.7,0.59,1.36,0.91,2.03c0.08,0.17,0.24,0.31,0.31,0.4    c0.54,0.46,1.11,0.56,1.71,0.55C167.22,41.72,167.39,41.55,167.45,41.3z"/>
	</g>
</g>
<g>
	<g>
		<path class="st0" d="M169.6,57.18c0.09,1.61,0.13,1.63,1.69,2.19c0.72,0.26,1.44,0.32,2.19,0.24c0.27-0.03,0.53-0.11,0.78-0.21    c0.27-0.11,0.4-0.43,0.27-0.69c-0.17-0.34-0.4-0.66-0.56-0.9c-0.28-0.2-0.45-0.37-0.66-0.47c-0.95-0.48-1.97-0.72-3.01-0.88    C169.85,56.4,169.57,56.72,169.6,57.18z"/>
	</g>
</g>
<g>
	<g>
		<path class="st0" d="M180.52,40.42c-0.19-0.02-0.39,0.02-0.57,0.08c-0.09,0.03-0.19,0.15-0.21,0.25c-0.02,0.1,0.06,0.21,0.11,0.38    c0.61,0.28,1.22,0.63,1.88,0.85c0.85,0.28,1.73,0.46,2.59,0.68c0.72,0.19,1.39,0.13,2.01-0.31c0.06-0.05,0.13-0.09,0.19-0.14    c0.3-0.25,0.29-0.64-0.03-0.9c-0.5-0.41-2.78-1.15-3.42-1.02C182.23,40.46,181.38,40.5,180.52,40.42z"/>
	</g>
</g>
<g>
	<g>
		<path class="st0" d="M112.46,136.24l0.09-0.05c1.07-0.59,2.17-1.21,2.72-2.48c0.11-0.25,0.29-0.48,0.45-0.69l0.12-0.15    c0.55-0.68,1.12-1.39,1.42-2.28c0.03-0.1,0.11-0.2,0.2-0.31c0.05-0.06,0.09-0.12,0.14-0.19l1.59-2.37    c0.07-0.09,0.06-0.22-0.01-0.3c-0.07-0.09-0.19-0.12-0.3-0.08c-0.14,0.06-0.24,0.09-0.31,0.12c-0.15,0.05-0.24,0.08-0.33,0.17    c-0.21,0.22-0.42,0.43-0.64,0.65c-0.55,0.55-1.12,1.12-1.58,1.77l-0.16,0.23c-0.44,0.62-0.87,1.25-1.33,1.85l-0.08,0.1    c-0.17,0.22-0.34,0.44-0.44,0.71c-0.25,0.67-0.67,1.24-1.37,1.85c-0.24,0.21-0.48,0.43-0.65,0.72c-0.07,0.11-0.12,0.23-0.16,0.36    c-0.02,0.07-0.01,0.14,0.02,0.2c0.03,0.06,0.09,0.11,0.16,0.12c0.04,0.01,0.07,0.02,0.1,0.03    C112.2,136.26,112.33,136.31,112.46,136.24z"/>
	</g>
</g>
<g>
	<g>
		<path class="st0" d="M162.19,72.2c-0.76,0.13-1.48,0.05-2.18-0.27c-0.11-0.05-0.34-0.02-0.42,0.06c-0.17,0.18-0.01,0.35,0.12,0.5    c0.08,0.09,0.17,0.16,0.35,0.32c0.13,0.09,0.34,0.26,0.58,0.39c0.48,0.26,0.98,0.49,1.46,0.74c0.6,0.31,1.14,0.17,1.64-0.21    c0.28-0.21,0.31-0.56,0.09-0.83c-0.33-0.42-0.76-0.68-1.3-0.71C162.43,72.19,162.31,72.18,162.19,72.2z"/>
	</g>
</g>
<g>
	<g>
		<path class="st0" d="M147.61,66.81c0.18,0.04,0.39-0.22,0.32-0.39c-0.11-0.25-0.21-0.52-0.39-0.7c-0.53-0.53-0.95-1.13-1.28-1.79    c-0.09-0.17-0.21-0.33-0.33-0.48c-0.21-0.24-0.52-0.32-0.73-0.2c-0.27,0.17-0.34,0.44-0.26,0.71c0.11,0.37,0.24,0.75,0.45,1.06    c0.23,0.35,0.57,0.63,0.86,0.94c0.01-0.01,0.02-0.02,0.03-0.03c0.23,0.21,0.44,0.45,0.69,0.62    C147.16,66.7,147.39,66.76,147.61,66.81z"/>
	</g>
</g>
</svg>