<?xml version="1.0" encoding="UTF-8"?>
<!-- Generator: Adobe Illustrator 26.5.0, SVG Export Plug-In . SVG Version: 6.00 Build 0)  -->
<svg version="1.1" id="Layer_1" xmlns="http://www.w3.org/2000/svg" xmlns:xlink="http://www.w3.org/1999/xlink" x="0px" y="0px" viewBox="0 0 299.25 176.08" style="enable-background:new 0 0 299.25 176.08;" xml:space="preserve">
<style type="text/css">
	.st0{fill:#FEDE36;}
</style>
<g>
	<g>
		<g>
			<path class="st0" d="M246.56,135.92c-0.23-0.7-0.59-1.36-0.92-2.03c-0.14-0.28-0.32-0.54-0.53-0.77     c-0.95-1.06-2.07-1.91-3.31-2.6c-0.18-0.1-0.42-0.11-0.76-0.2c0.18,0.72,0.31,1.33,0.49,1.91c0.39,1.31,0.89,2.58,1.34,3.87     c0.41,1.2,0.63,2.32,0.08,3.51c-0.09,0.2-0.07,0.46-0.11,0.69c-0.04,0.23-0.06,0.47-0.14,0.68c-0.22,0.59-0.43,1.18-0.7,1.74     c-0.15,0.31-0.38,0.59-0.63,0.83c-0.11,0.1-0.4,0.12-0.54,0.05c-0.13-0.07-0.21-0.3-0.26-0.47c-0.03-0.1,0-0.25,0.05-0.34     c0.42-0.65,0.37-1.43,0.6-2.13c0.24-0.73,0-1.55,0.33-2.29c0.07-0.15-0.01-0.39-0.07-0.57c-0.13-0.37-0.26-0.74-0.44-1.09     c-0.52-0.97-0.58-2.11-1.17-3.05c-0.09-0.15-0.05-0.38-0.09-0.58c-0.18-0.92-0.46-1.8-0.87-2.66c-0.35-0.71-0.88-0.95-1.56-1.04     c-0.27-0.04-0.55,0-0.82-0.01c-0.86-0.02-1.72,0.14-2.58-0.09c-0.17-0.05-0.39,0.02-0.57,0.08c-0.52,0.16-1.03,0.34-1.6,0.16     c-0.2-0.06-0.48,0-0.68,0.08c-0.77,0.32-1.57,0.46-2.41,0.45c-0.15,0-0.31,0.03-0.46,0.08c-0.67,0.21-1.34,0.44-2.01,0.66     c-0.96,0.31-1.86,0.81-2.9,0.89c-0.44,0.03-0.78,0.33-1.11,0.63c-0.29,0.26-0.59,0.53-0.93,0.7c-0.43,0.2-0.82,0.43-1.2,0.72     c-0.46,0.35-0.97,0.73-1.58,0.7c-0.85-0.04-1.71-0.17-2.55-0.28c-0.19-0.03-0.38-0.12-0.53-0.24c-0.71-0.59-1.5-0.99-2.41-1.16     c-0.18-0.03-0.36-0.16-0.5-0.28c-0.31-0.25-0.24-0.7,0.13-0.86c0.18-0.08,0.37-0.13,0.56-0.15c1.01-0.14,1.92,0.09,2.8,0.64     c1.08,0.68,2.19,0.76,3.24-0.14c0.2-0.18,0.48-0.27,0.71-0.42c0.39-0.26,0.79-0.51,1.14-0.82c0.54-0.48,1.14-0.82,1.85-0.95     c0.19-0.03,0.39-0.08,0.56-0.15c0.9-0.38,1.8-0.76,2.69-1.17c0.72-0.33,1.45-0.52,2.25-0.57c0.81-0.05,1.6-0.32,2.4-0.49     c0.08-0.02,0.16-0.01,0.23-0.01c0.7-0.02,1.41,0,2.09-0.25c0.21-0.08,0.47-0.08,0.7-0.05c0.85,0.1,1.71,0.18,2.55,0.34     c0.86,0.16,1.64,0.03,2.34-0.49c0.47-0.35,0.98-0.69,1.32-1.14c0.43-0.58,0.94-0.68,1.54-0.5c0.45,0.14,0.84,0.05,1.26-0.09     c0.93-0.33,1.78-0.73,2.36-1.61c0.33-0.49,0.74-0.96,0.83-1.53c0.15-0.92,0.38-1.85,0.26-2.8c-0.24-2-1.04-3.75-2.4-5.24     c-0.24-0.26-0.5-0.51-0.67-0.81c-0.66-1.13-0.98-2.39-1.24-3.65c-0.13-0.64-0.21-1.31-0.33-1.96c-0.28-1.45-1.06-2.68-1.69-3.98     c-0.05-0.1-0.15-0.18-0.22-0.27c-0.76-1.01-1.7-1.83-2.62-2.68c-0.93-0.86-2.03-1.31-3.18-1.67c-0.44-0.14-0.93-0.11-1.39-0.21     c-1.02-0.22-2.01-0.19-3.01,0.1c-0.45,0.13-0.91,0.22-1.37,0.32c-1.13,0.24-1.9,1.04-2.75,1.71c-0.14,0.11-0.23,0.33-0.28,0.51     c-0.24,0.9-0.87,1.34-1.72,1.57c-0.18,0.05-0.41,0.1-0.52,0.22c-0.41,0.46-0.96,0.77-1.24,1.38c-0.33,0.71-0.98,0.87-1.67,0.44     c-0.7-0.43-1.44-0.85-2-1.43c-0.76-0.8-1.57-1.49-2.47-2.12c-0.75-0.52-1.43-1.09-2.41-1.02c-0.59-0.28-1.15-0.09-1.7,0.13     c-0.4,0.16-0.76,0.41-1.17,0.54c-0.96,0.31-1.53,0.94-1.97,1.84c-0.42,0.85-0.97,1.61-0.86,2.62c0.02,0.15-0.07,0.3-0.1,0.46     c-0.18,0.99-0.49,1.98-0.08,3c0.07,0.17,0.01,0.39,0.04,0.58c0.07,0.46,0.14,0.92,0.23,1.38c0.2,1.05,0.53,2.03,1.36,2.79     c0.48,0.43,0.59,1,0.4,1.62c-0.17,0.56-0.34,1.12-0.52,1.68c-0.19,0.6-0.36,1.19-0.07,1.82c0.23,0.5,0.36,0.68,0.87,0.59     c0.78-0.15,1.55-0.02,2.32-0.04c0.94-0.03,1.89-0.09,2.69,0.55c0.03,0.02,0.07,0.03,0.11,0.05c1.03,0.39,1.98,0.92,2.76,1.73     c0.19,0.2,0.45,0.32,0.64,0.5c0.51,0.48,1.02,0.96,1.52,1.46c0.19,0.19,0.33,0.44,0.53,0.62c0.58,0.5,0.95,1.15,1.25,1.83     c0.36,0.83,0.64,1.69,0.55,2.62c-0.02,0.22-0.12,0.44-0.24,0.63c-0.13,0.2-0.5,0.14-0.58-0.08c-0.12-0.37-0.18-0.77-0.36-1.11     c-0.4-0.76-0.74-1.6-1.32-2.21c-0.63-0.67-1.21-1.42-2.04-1.91c-1-0.59-1.79-1.51-2.89-1.97c-0.61-0.25-1.18-0.65-1.81-0.82     c-1.03-0.28-2.1-0.29-3.15-0.11c-0.57,0.1-1.19,0.25-1.6,0.69c-0.46,0.5-0.99,0.54-1.52,0.4c-0.38,0.29-0.72,0.5-1,0.77     c-0.19,0.18-0.38,0.41-0.46,0.65c-0.22,0.62-0.35,1.28-0.57,1.9c-0.25,0.7-0.5,1.41-0.86,2.05c-0.53,0.93-1.37,1.34-2.47,1.11     c-0.91-0.19-1.71,0.01-2.35,0.72c-0.18,0.2-0.44,0.34-0.6,0.55c-0.31,0.42-0.79,0.73-0.91,1.3c1.16,0.29,2.25,0.59,3.35,0.83     c0.41,0.09,0.72,0.27,0.98,0.58c0.66,0.78,1.28,1.57,1.43,2.63c0.02,0.15,0.07,0.31,0.16,0.44c0.46,0.69,0.7,1.48,1.04,2.22     c0.48,1.05,0.83,2.1,1.04,3.22c0.2,1.09,0.15,2.19,0.14,3.28c0,0.26-0.15,0.52-0.26,0.77c-0.46,1.04-0.93,2.07-1.4,3.11     c-0.06,0.14-0.12,0.31-0.23,0.4c-0.63,0.5-1.02,1.18-1.48,1.81c-0.38,0.52-0.89,0.89-1.53,1c-0.16,0.03-0.39-0.06-0.51-0.18     c-0.19-0.18-0.16-0.43,0.01-0.64c0.27-0.33,0.63-0.62,0.82-0.99c0.61-1.18,1.37-2.28,1.83-3.53c0.26-0.7,0.53-1.38,0.79-2.08     c0.03-0.09-0.03-0.22-0.06-0.4c-0.65,0.01-1.19,0.02-1.74,0.04c-0.74,0.02-1.35-0.36-1.98-0.66c-0.13-0.06-0.21-0.32-0.22-0.5     c-0.01-0.21,0.15-0.35,0.37-0.39c0.73-0.15,1.44-0.36,2.2-0.34c1.04,0.03,1.02-0.38,0.94-1.17c-0.02-0.19-0.1-0.38-0.19-0.55     c-0.2-0.42-0.47-0.68-1.03-0.56c-0.69,0.15-1.38,0.25-2.06,0.43c-0.58,0.15-1.16,0.2-1.74,0.05c-0.43-0.11-0.85-0.12-1.27,0.02     c-0.11,0.04-0.23,0.06-0.34,0.05c-0.21-0.02-0.36-0.15-0.41-0.36c-0.06-0.24-0.01-0.48,0.18-0.65c0.35-0.32,0.72-0.59,1.23-0.61     c0.42-0.02,0.86-0.1,1.26-0.24c0.6-0.22,1.2-0.32,1.84-0.32c0.27,0,0.55-0.04,0.8-0.12c0.1-0.03,0.19-0.25,0.19-0.37     c-0.01-0.14-0.1-0.3-0.21-0.41c-0.39-0.39-0.53-0.85-0.53-1.38c0.01-0.77-0.5-1.28-1.11-1.53c-1.05-0.41-2.11-0.84-3.29-0.79     c-1.57,0.07-3.14,0.05-4.7,0.13c-1.01,0.05-2.02,0.21-3.03,0.33c-0.11,0.01-0.22,0.07-0.33,0.11c-1.16,0.43-2.41,0.63-3.52,1.23     c-0.1,0.06-0.22,0.12-0.33,0.12c-0.74,0.01-1.34,0.4-1.97,0.71c-0.24,0.12-0.5,0.24-0.76,0.31c-0.24,0.06-0.47-0.02-0.62-0.24     c-0.15-0.22-0.12-0.46,0.05-0.65c0.25-0.3,0.53-0.58,0.79-0.87c0.44-0.48,0.95-0.8,1.61-0.87c0.3-0.03,0.63-0.14,0.87-0.31     c0.69-0.48,1.47-0.71,2.26-0.91c0.41-0.11,0.81-0.27,1.22-0.4c0.18-0.06,0.41-0.17,0.56-0.11c0.57,0.22,1.08-0.07,1.61-0.11     c0.29-0.02,0.51-0.14,0.71-0.36c0.18-0.2,0.42-0.35,0.6-0.55c0.26-0.28,0.57-0.55,0.74-0.89c0.3-0.59,0.53-1.22,0.73-1.85     c0.09-0.28,0.07-0.63,0.01-0.93c-0.15-0.81-0.45-1.59-0.83-2.31c-0.28-0.53-0.73-0.97-1.32-1.11c-0.98-0.24-1.99-0.4-2.99-0.57     c-0.22-0.04-0.47,0.03-0.7,0.07c-0.38,0.06-0.77,0.13-1.15,0.21c-0.81,0.17-1.59,0.43-2.15,1.11c-0.62,0.76-1.33,1.43-2.12,2.02     c-0.22,0.16-0.44,0.35-0.57,0.58c-0.51,0.87-1.42,1.48-1.65,2.54c-0.04,0.17-0.22,0.32-0.34,0.47c-0.23,0.31-0.44,0.65-0.71,0.93     c-0.86,0.9-1.52,1.97-2.6,2.68c-0.92,0.6-1.66,1.42-2,2.52c-0.19,0.62-0.18,0.8,0.42,0.96c0.66,0.18,1.21,0.52,1.75,0.93     c0.34,0.26,0.69,0.52,1.05,0.74c0.34,0.22,0.58,0.51,0.79,0.85c1.21,2.06,1.21,2.05,1.26,4.42c0.01,0.35,0.07,0.72,0,1.06     c-0.15,0.75,0.06,1.39,0.45,2c0.46,0.71,0.69,1.48,0.66,2.33c-0.01,0.3,0.09,0.62,0.16,0.92c0.09,0.36,0.08,0.7-0.08,1.03     c-0.2,0.43-0.36,0.88-0.62,1.26c-0.21,0.31-0.52,0.58-0.83,0.8c-0.1,0.07-0.38-0.01-0.51-0.1c-0.09-0.06-0.13-0.3-0.09-0.42     c0.12-0.37,0.34-0.71,0.44-1.08c0.3-1.21,0.32-2.38-0.47-3.47c-0.37-0.5-0.62-1.09-0.9-1.65c-0.1-0.2-0.2-0.46-0.17-0.67     c0.12-0.79,0.12-1.56-0.11-2.33c-0.03-0.11-0.04-0.25,0-0.35c0.26-0.64-0.14-1.1-0.35-1.65c-0.35-0.93-0.99-1.53-1.69-2.17     c-0.77-0.7-1.71-0.92-2.62-1.26c-1.32,0.04-2.66-0.21-3.92,0.47c-0.62,0.33-1.3,0.53-1.95,0.81c-0.82,0.36-1.46,0.87-1.75,1.78     c-0.12,0.39-0.38,0.79-0.67,1.08c-0.57,0.58-0.91,1.27-1.2,2c-0.05,0.12-0.03,0.28-0.05,0.55c0.68-0.31,1.22-0.59,1.71-0.99     c0.29-0.24,0.66-0.42,1.01-0.58c0.35-0.16,0.74-0.24,1.1-0.4c0.43-0.19,0.83-0.17,1.24,0.03c0.42,0.2,0.84,0.47,1.29,0.57     c1.05,0.23,1.58,1.05,2,1.85c0.43,0.82,0.74,1.76,0.83,2.67c0.09,0.87-0.14,1.78-0.28,2.66c-0.1,0.62-0.29,1.22-0.46,1.82     c-0.21,0.71-0.44,1.42-0.67,2.12c-0.07,0.22-0.19,0.43-0.24,0.66c-0.07,0.27-0.06,0.55,0.2,0.74c1.11,0.28,2.24,0.32,3.38,0.3     c0.79-0.02,1.47-0.19,2-0.8c0.32-0.38,0.78-0.52,1.22-0.66c0.41-0.13,0.76-0.07,1.03,0.31c0.4,0.56,0.97,0.94,1.63,1.1     c0.52,0.13,1.09,0.1,1.63,0.1c1.24-0.02,2.37-0.28,3.3-1.24c0.74-0.76,1.68-1.13,2.77-0.68c0.17,0.07,0.38,0.08,0.58,0.08     c0.82-0.01,1.65-0.04,2.47-0.05c0.41-0.01,0.81-0.12,1.08-0.41c0.82-0.89,2.07-0.9,3.02-1.5c0.09-0.06,0.24-0.07,0.34-0.04     c0.77,0.25,1.55,0.01,2.33,0.07c0.85,0.07,1.73,0.07,2.55-0.29c0.35-0.15,0.67-0.08,1,0.12c0.84,0.5,1.7,0.97,2.55,1.46     c0.34,0.19,0.74,0.32,1.01,0.59c0.81,0.82,1.84,1.33,2.75,2.01c0.91,0.68,1.98,1.09,3.04,1.5c0.47,0.18,0.96,0.38,1.45,0.42     c0.66,0.06,1.32,0.08,1.98,0.18c1.28,0.19,2.25-0.37,2.81-1.47c0.17-0.34,0.22-0.66,0.03-1.01c-0.22-0.41-0.42-0.84-0.63-1.26     c-0.14-0.27-0.14-0.55,0.03-0.78c0.18-0.25,0.37-0.54,0.63-0.66c0.63-0.31,1.29-0.56,1.96-0.78c1.45-0.48,2.92-0.9,4.01-2.09     c0.33-0.36,0.78-0.71,1.32-0.71c1.01,0.01,1.82-0.44,2.55-1.05c0.85-0.72,1.78-1.25,2.83-1.61c0.67-0.23,1.32-0.49,2.05-0.45     c0.49,0.03,0.92-0.1,1.31-0.42c0.15-0.12,0.35-0.17,0.51-0.29c0.62-0.45,1.3-0.52,2.01-0.29c0.44,0.14,0.83,0.1,1.26-0.03     c0.71-0.22,1.44-0.34,2.19-0.39c0.65-0.04,1.36-0.15,1.93-0.44c0.63-0.33,1.3-0.53,1.95-0.8c0.75-0.32,1.5-0.68,2.22-1.07     c0.26-0.14,0.49-0.39,0.67-0.64c0.95-1.29,1.34-2.82,1.86-4.3c0.05-0.14,0.06-0.32,0.03-0.47     C246.88,137.36,246.79,136.62,246.56,135.92z M227.29,124.58c-0.01,0.03-0.05,0.06-0.08,0.08c-1.21,0.63-2.36,1.38-3.7,1.72     c-0.08,0.02-0.15,0.03-0.23,0.04c-0.34,0.04-0.6-0.32-0.44-0.63c0.11-0.2,0.25-0.42,0.43-0.54c0.62-0.41,1.24-0.81,1.9-1.15     c0.37-0.19,0.8-0.25,1.04-0.33c0.42,0.03,0.66,0.02,0.88,0.08c0.13,0.03,0.28,0.18,0.31,0.3     C227.44,124.28,227.34,124.44,227.29,124.58z M226.28,101.92c0.07-0.12,0.24-0.25,0.35-0.25c0.51,0.02,1-0.08,1.51-0.15     c0.48-0.07,1,0.1,1.5,0.17c0.39,0.05,0.77,0.11,1.15,0.18c0.27,0.05,0.53,0.12,0.79,0.2c0.11,0.03,0.22,0.09,0.32,0.15     c0.72,0.38,1.6,0.43,2.17,1.12c0.5,0.6,1.05,1.16,1.55,1.76c0.14,0.17,0.24,0.4,0.29,0.63c0.21,0.95,0.39,1.91,0.58,2.87     c0.03,0.15,0.05,0.32,0.13,0.44c0.39,0.58,0.77,1.17,1.19,1.72c0.45,0.59,0.8,1.23,1.28,1.81c0.47,0.56,0.92,1.16,1.34,1.77     c0.73,1.05,1.04,2.27,1.16,3.53c0.05,0.51,0.03,1.02,0.04,1.53c0,0,0,0,0,0c0.01,0.55,0.01,1.1,0.04,1.65     c0.02,0.53-0.15,1-0.35,1.47c-0.11,0.24-0.37,0.36-0.58,0.28c-0.25-0.1-0.35-0.3-0.34-0.55c0.01-0.16,0.06-0.31,0.07-0.46     c0.03-0.74,0.05-1.48-0.15-2.22c-0.09-0.33-0.1-0.7-0.12-1.05c-0.06-1.36-0.66-2.49-1.51-3.49c-0.73-0.87-1.52-1.67-2.12-2.65     c-0.32-0.53-0.74-1-1.13-1.49c-0.52-0.66-0.85-1.39-0.96-2.23c-0.03-0.23-0.12-0.45-0.17-0.68c-0.37-1.83-0.37-1.83-1.56-3.17     c-0.31-0.35-0.7-0.59-1.12-0.82c-0.91-0.5-1.91-0.67-2.87-0.95c-0.37-0.11-0.77-0.12-1.16-0.14c-0.45-0.02-0.85-0.12-1.19-0.42     C226.28,102.3,226.16,102.12,226.28,101.92z M223.2,106.17c0.07-0.16,0.24-0.32,0.4-0.37c0.17-0.05,0.39-0.01,0.57,0.06     c0.91,0.35,1.83,0.68,2.72,1.08c0.62,0.28,1.12,0.76,1.45,1.34c0.36,0.63,0.84,1.12,1.32,1.64c0.71,0.78,1.35,1.6,1.79,2.59     c0.29,0.67,0.76,1.27,1.2,1.87c0.34,0.47,0.69,0.97,1.14,1.34c0.91,0.75,1.28,1.86,1.95,2.77c0.13,0.18,0.21,0.43,0.25,0.65     c0.15,1.04,0.28,2.08,0.42,3.14c-0.1,1.02-0.19,2.03-0.3,3.03c-0.02,0.14-0.12,0.28-0.21,0.41c-0.11,0.15-0.39,0.15-0.52,0.02     c-0.35-0.33-0.47-0.78-0.34-1.19c0.37-1.16,0.01-2.27-0.2-3.36c-0.15-0.82-0.44-1.65-0.98-2.36c-0.47-0.62-0.9-1.25-1.47-1.81     c-0.81-0.78-1.48-1.71-2.18-2.6c-0.24-0.3-0.41-0.67-0.54-1.04c-0.31-0.87-0.84-1.58-1.46-2.25c-0.32-0.34-0.58-0.73-0.84-1.11     c-0.27-0.39-0.5-0.79-0.75-1.19c-0.19-0.31-0.44-0.56-0.79-0.67c-0.96-0.31-1.58-1.15-2.45-1.6     C223.26,106.51,223.16,106.27,223.2,106.17z M212.72,102.86c0.49-0.3,0.99-0.46,1.54-0.13c0.23,0.14,0.49,0.24,0.73,0.38     c0.69,0.39,1.33,0.84,1.51,1.7c0.03,0.15,0.12,0.29,0.21,0.42c0.29,0.48,0.43,1.01,0.42,1.58c-0.03,0.27-0.05,0.54-0.11,0.81     c-0.02,0.09-0.15,0.19-0.25,0.21c-0.1,0.02-0.26-0.02-0.32-0.1c-0.12-0.15-0.21-0.33-0.26-0.51c-0.13-0.46-0.34-0.87-0.67-1.22     c-0.08-0.08-0.19-0.17-0.22-0.27c-0.38-1.11-1.36-1.55-2.28-2.07c-0.1-0.06-0.2-0.11-0.3-0.18     C212.52,103.31,212.52,102.98,212.72,102.86z M217.25,111.83c-0.75-0.3-1.5-0.21-2.29-0.14c-1.05,0.1-1.93,0.62-2.86,0.98     c-0.29,0.11-0.48,0.49-0.72,0.75c-0.21,0.23-0.38,0.5-0.63,0.68c-0.12,0.09-0.41,0.1-0.54,0.02c-0.12-0.08-0.2-0.33-0.18-0.5     c0.03-0.22,0.14-0.45,0.27-0.64c0.23-0.36,0.5-0.7,0.75-1.05c0.07-0.09,0.14-0.2,0.24-0.26c0.82-0.44,1.63-0.91,2.47-1.3     c0.49-0.22,1.05-0.29,1.57-0.46c0.5-0.16,1.01-0.2,1.51-0.09c0.92,0.19,1.83,0.4,2.78,0.41c0.15,0,0.32,0.04,0.45,0.11     c0.96,0.51,2.01,0.88,2.76,1.73c0.1,0.12,0.22,0.23,0.35,0.3c0.76,0.37,1.34,0.93,1.8,1.64c0.13,0.19,0.31,0.35,0.48,0.51     c0.82,0.72,1.66,1.41,2.45,2.15c1.21,1.12,2.09,2.42,2.23,4.12c0.04,0.5,0.18,1,0.26,1.46c-0.04,1.08-0.37,2.03-0.82,2.95     c-0.06,0.13-0.3,0.23-0.48,0.26c-0.21,0.03-0.36-0.21-0.34-0.52c0.01-0.31,0.01-0.64,0.09-0.93c0.25-0.9,0.13-1.76-0.06-2.66     c-0.16-0.75-0.43-1.42-0.82-2.05c-0.4-0.64-0.91-1.17-1.62-1.48c-0.14-0.06-0.32-0.11-0.41-0.22c-0.81-1.06-2.11-1.62-2.83-2.78     c-0.06-0.1-0.15-0.2-0.25-0.24c-0.82-0.34-1.36-1.05-2.06-1.53c-0.93-0.63-1.89-1.28-3.12-1.16     C217.56,111.9,217.39,111.89,217.25,111.83z M218.27,117.55c-0.17,0.18-0.53,0.08-0.56-0.15c-0.04-0.31-0.11-0.64-0.02-0.92     c0.27-0.85,0.62-1.67,0.94-2.5c0.03-0.07,0.08-0.13,0.13-0.19c0.18-0.21,0.57-0.2,0.71,0.05c0.12,0.23,0.19,0.5,0.27,0.71     c-0.21,0.88-0.14,1.79-0.93,2.38C218.59,117.09,218.46,117.35,218.27,117.55z M220.25,120.37c-0.34,0.22-0.68,0.41-1.07,0.17     c-0.28-0.17-0.33-0.69-0.01-1.17c0.7-1.06,1.29-2.22,2.29-3.07c0.15-0.12,0.29-0.26,0.46-0.36c0.25-0.14,0.55-0.19,0.77,0.01     c0.15,0.14,0.2,0.39,0.29,0.57c-0.07,0.27-0.11,0.51-0.2,0.71C222.18,118.48,221.43,119.59,220.25,120.37z M184.24,126.07     c0.16-0.16,0.38-0.27,0.59-0.38c0.17-0.09,0.36-0.14,0.54-0.21c1.46-0.56,2.63,0.17,3.79,0.89c0.1,0.06,0.18,0.15,0.25,0.25     c0.66,0.95,0.96,2.03,1.13,3.24c-0.1,0.36-0.3,0.73-0.69,0.96c-0.31,0.19-0.76-0.03-0.78-0.41c-0.09-1.28-0.84-2.15-1.8-2.87     c-0.93-0.7-0.95-0.67-2.14-0.7c-0.23-0.01-0.47,0-0.7-0.06c-0.12-0.03-0.27-0.18-0.31-0.3     C184.1,126.36,184.15,126.15,184.24,126.07z M180.01,130.35c0.05-0.1,0.16-0.19,0.26-0.23c0.94-0.37,1.85-0.85,2.93-0.54     c0.52,0.15,1.08,0.17,1.6,0.33c0.4,0.13,0.76,0.38,1.13,0.59c0.09,0.05,0.15,0.18,0.2,0.28c0.17,0.34-0.06,0.77-0.44,0.76     c-0.47,0-0.94-0.03-1.41-0.05c0,0.03-0.01,0.07-0.01,0.1c-0.73-0.08-1.47-0.18-2.2-0.25c-0.31-0.03-0.63-0.01-0.94-0.02     c-0.27-0.01-0.55,0-0.82-0.04c-0.24-0.03-0.47-0.16-0.49-0.42C179.82,130.71,179.92,130.52,180.01,130.35z M185.32,140.09     c-0.53,0.11-1.06,0.25-1.59,0.4c-0.75,0.21-1.5,0.46-2.26,0.62c-0.37,0.08-0.78,0.02-1.15-0.06c-0.32-0.07-0.42-0.55-0.17-0.77     c0.44-0.38,0.88-0.8,1.39-1.06c0.94-0.49,1.92-0.89,3.02-0.77c0.08,0.01,0.16,0,0.24,0c0,0,0,0.01,0,0.01     c0.47-0.01,0.94-0.03,1.41-0.03c0.45,0,0.86,0.15,1.17,0.47c0.12,0.12,0.21,0.36,0.18,0.51c-0.04,0.15-0.24,0.32-0.4,0.36     C186.56,139.89,185.94,139.96,185.32,140.09z M190.6,151.1c-0.08,0.13-0.21,0.26-0.23,0.4c-0.19,1.04-1.1,1.47-1.76,2.1     c-0.21,0.21-0.54,0.33-0.83,0.41c-0.15,0.04-0.42-0.03-0.5-0.15c-0.08-0.12-0.06-0.4,0.03-0.53c0.33-0.48,0.69-0.95,1.09-1.37     c0.28-0.29,0.45-0.62,0.6-0.99c0.31-0.8,0.61-1.6,0.85-2.43c0.4-1.4,0.4-2.77-0.12-4.13c-0.23-0.62-0.42-1.26-0.67-1.87     c-0.46-1.13-0.37-2.31-0.25-3.47c0.05-0.51,0.01-0.92-0.28-1.32c-0.23-0.32-0.46-0.63-0.69-0.94c-0.09-0.13-0.23-0.24-0.26-0.38     c-0.03-0.17-0.02-0.39,0.07-0.54c0.05-0.09,0.29-0.16,0.41-0.12c0.29,0.09,0.6,0.2,0.84,0.39c0.4,0.31,0.75,0.69,1.11,1.04     c0.4,0.39,0.33,0.94,0.53,1.38c-0.02,0.14-0.03,0.26-0.06,0.37c-0.26,1.17,0.07,2.25,0.57,3.28c0.52,1.07,0.86,2.21,0.91,3.37     C192.01,147.55,191.65,149.42,190.6,151.1z M218.31,127.92c0.16,0.01,0.4,0.14,0.45,0.27c0.05,0.15-0.07,0.36-0.14,0.53     c-0.03,0.07-0.09,0.13-0.16,0.17c-0.75,0.5-1.56,0.86-2.55,0.95c-0.2-0.03-0.48-0.02-0.73-0.12c-0.15-0.06-0.32-0.26-0.33-0.42     c-0.01-0.15,0.11-0.41,0.25-0.47c0.75-0.31,1.51-0.6,2.29-0.85C217.68,127.9,218.01,127.9,218.31,127.92z M212.22,128.3     c0.12-0.28,0.27-0.56,0.45-0.8c0.74-0.96,1.68-1.71,2.62-2.45c0.23-0.18,0.55-0.24,0.74-0.32c0.28,0.04,0.43,0.05,0.58,0.08     c0.23,0.05,0.42,0.33,0.32,0.53c-0.3,0.58-0.54,1.25-0.99,1.69c-0.8,0.78-1.71,1.47-2.84,1.76c-0.15,0.04-0.3,0.07-0.45,0.07     C212.37,128.87,212.12,128.55,212.22,128.3z M206.41,125.99c0.49-1.32,0.95-2.67,2.39-3.3c0.11-0.05,0.23-0.13,0.32-0.11     c0.16,0.04,0.3,0.16,0.44,0.24c-0.04,0.19-0.04,0.32-0.09,0.42c-0.43,0.74-0.85,1.5-1.33,2.2c-0.26,0.38-0.63,0.69-0.99,0.99     c-0.12,0.1-0.4,0.13-0.53,0.05C206.49,126.4,206.36,126.12,206.41,125.99z M204.47,131.63c-0.22,0.04-0.47,0.09-0.68,0.03     c-0.29-0.08-0.68-0.07-0.78-0.43c-0.12-0.42,0.24-0.59,0.52-0.81c0.89-0.71,1.86-1.14,3.03-1.02c0.08,0.01,0.16-0.01,0.23,0.01     c1.1,0.27,2.19,0.55,3.18,1.12c0.2,0.12,0.38,0.27,0.55,0.44c0.17,0.17,0.3,0.42,0.14,0.63c-0.12,0.16-0.36,0.23-0.52,0.33     c-0.26-0.07-0.45-0.12-0.63-0.17c-0.23-0.06-0.48-0.2-0.68-0.15c-0.69,0.17-1.3-0.11-1.95-0.24c-0.45-0.09-0.93-0.04-1.39,0.01     C205.14,131.41,204.81,131.57,204.47,131.63z M204.89,149.72c-0.09-0.09-0.11-0.29-0.08-0.43c0.05-0.23,0.28-0.25,0.47-0.24     c0.15,0,0.31,0.04,0.45,0.09c0.98,0.31,1.79,0.9,2.58,1.53c0.09,0.07,0.16,0.17,0.22,0.27c0.18,0.25,0.05,0.57-0.25,0.62     c-0.11,0.02-0.23,0.03-0.32,0.05c-0.59,0.02-1.13-0.12-1.56-0.45C205.85,150.74,205.37,150.22,204.89,149.72z M214.94,157.53     c-0.02,0.09-0.14,0.21-0.23,0.23c-0.39,0.06-0.78,0.08-1.4,0.13c-1.84-0.05-3.54-0.86-4.89-2.43c-0.07-0.08-0.11-0.25-0.07-0.32     c0.07-0.12,0.22-0.27,0.33-0.26c0.3,0.03,0.63,0.07,0.89,0.22c1.19,0.71,2.49,1.1,3.84,1.38c0.53,0.11,1.05,0.32,1.44,0.73     C214.92,157.29,214.96,157.44,214.94,157.53z M218.89,138.32c-0.28,1.03-0.65,2.01-1.15,2.95c-0.3,0.56-0.35,1.08-0.13,1.69     c0.22,0.62,0.39,1.27,0.36,1.95c-0.02,0.4-0.08,0.79-0.31,1.12c-0.65,0.93-1.29,1.85-2.23,2.54c-1.21,0.88-2.08,2.07-2.97,3.28     c-0.72,0.99-1.58,1.94-3.03,1.94c-0.53,0-1.07,0.2-1.59,0.37c-0.51,0.16-0.93,0.04-1.31-0.28c-0.1-0.08-0.14-0.27-0.14-0.41     c0-0.08,0.13-0.2,0.23-0.22c0.82-0.23,1.65-0.44,2.47-0.68c0.29-0.09,0.61-0.21,0.83-0.42c0.56-0.54,1.12-1.06,1.46-1.81     c0.45-1,1.16-1.84,2-2.56c0.12-0.1,0.22-0.22,0.32-0.34c0.12-0.15,0.05-0.43-0.13-0.5c-0.14-0.05-0.3-0.08-0.45-0.12     c-0.68-0.18-1.36-0.35-1.95-0.79c-0.24-0.18-0.57-0.25-0.86-0.36c-0.62-0.23-1.26-0.42-1.88-0.68c-0.35-0.15-0.68-0.38-0.99-0.61     c-0.1-0.07-0.16-0.29-0.13-0.41c0.03-0.12,0.18-0.27,0.3-0.31c0.22-0.06,0.47-0.1,0.69-0.07c1.04,0.13,2.09,0.27,3.13,0.46     c0.41,0.08,0.81,0.3,1.2,0.47c0.64,0.29,1.27,0.61,1.91,0.91c0.34,0.16,0.67,0.23,0.99-0.04c0.36-0.3,0.58-0.68,0.42-1.14     c-0.25-0.73-0.22-1.47-0.22-2.21c0-0.53,0.11-1.07,0.18-1.7c-0.34,0.13-0.63,0.21-0.89,0.34c-0.38,0.19-0.74,0.23-1.12,0.04     c-0.53-0.26-1.07-0.48-1.59-0.76c-0.19-0.1-0.34-0.31-0.46-0.5c-0.12-0.21,0.08-0.52,0.31-0.51c0.19,0.01,0.39,0.06,0.58,0.07     c0.97,0.05,1.93,0.28,2.92,0.22c0.26-0.02,0.52,0.12,0.87,0.21c0.72-0.71,1.15-1.59,1.27-2.63c0.04-0.31,0.02-0.63,0.08-0.93     c0.02-0.11,0.2-0.25,0.32-0.27c0.12-0.01,0.34,0.08,0.38,0.18C218.92,136.61,219.13,137.43,218.89,138.32z M226.62,143.78     c-0.11,0.29-0.24,0.59-0.27,0.9c-0.1,1.24-0.84,2.17-1.48,3.14c-0.4,0.61-1,1-1.78,0.94c-0.14-0.01-0.32-0.09-0.39-0.2     c-0.12-0.18-0.03-0.39,0.14-0.51c0.82-0.62,1.28-1.49,1.54-2.43c0.31-1.16,0.47-2.37,0.69-3.55c0.06-0.31,0.11-0.61,0.13-0.92     c0.03-0.39,0.07-0.78,0.01-1.16c-0.15-1-0.3-2.01-0.55-2.98c-0.18-0.72-0.1-1.41,0.05-2.08c0.14-0.63,0.2-1.22-0.04-1.84     c-0.05-0.14-0.03-0.31-0.02-0.46c0.02-0.25,0.31-0.39,0.53-0.26c0.34,0.2,0.62,0.47,0.77,0.85c0.19,0.48,0.33,0.96,0.3,1.48     c-0.07,1.27,0.24,2.48,0.55,3.69c0.15,0.6,0.26,1.22,0.38,1.77C226.96,141.4,227.05,142.63,226.62,143.78z M234.1,144.68     c-0.24,0.34-0.67,0.28-0.82-0.11c-0.35-0.91-0.71-1.81-1.02-2.73c-0.18-0.55-0.51-0.94-0.98-1.26c-0.74-0.51-1.46-1.03-2.19-1.55     c-0.2-0.14-0.34-0.32-0.29-0.59c0.05-0.25,0.28-0.46,0.6-0.46c0.3,0,0.64,0.01,0.91,0.12c0.75,0.32,1.5,0.66,2.21,1.06     c0.73,0.41,1.29,1.02,1.54,1.84c0.2,0.67,0.38,1.34,0.53,1.87C234.56,143.61,234.44,144.18,234.1,144.68z M237.2,145.11     c-0.07,0.11-0.26,0.21-0.39,0.19c-0.12-0.02-0.3-0.17-0.32-0.29c-0.06-0.34-0.08-0.7-0.06-1.04c0.06-1.14-0.03-2.23-0.57-3.28     c-0.55-1.08-0.97-2.22-0.89-3.48c0.04-0.64-0.1-1.24-0.4-1.81c-0.25-0.48-0.46-0.99-0.69-1.49c-0.34-0.71-0.77-1.35-1.39-1.87     c-0.24-0.2-0.46-0.43-0.63-0.69c-0.09-0.14-0.11-0.38-0.06-0.54c0.08-0.26,0.37-0.34,0.58-0.25c0.78,0.34,1.61,0.6,2.22,1.25     c0.94,1.01,1.52,2.26,2.15,3.46c0.09,0.16,0.09,0.38,0.11,0.57c0.02,0.27,0.04,0.55,0.02,0.82c-0.05,1.15,0.11,2.26,0.59,3.32     c0.34,0.75,0.2,1.54,0.26,2.13c0.01,0.54,0,0.89,0.03,1.24C237.82,144.02,237.55,144.58,237.2,145.11z"/>
		</g>
	</g>
	<g>
		<g>
			<path class="st0" d="M169.63,145.82c-0.37-0.79-1.01-1.18-1.77-1.11c-0.87,0.09-1.82,0.11-2.58,0.68     c-0.75,0.56-1.45,1.16-2.31,1.57c-0.38,0.18-0.73,0.65-0.88,1.06c-0.37,1.03-0.67,2.09-0.63,3.2c0.01,0.17,0.12,0.33,0.19,0.51     c0.47-0.17,0.72-0.42,0.84-0.84c0.15-0.53,0.33-1.04,0.52-1.56c0.04-0.12,0.18-0.2,0.34-0.38c0.12,0.69,0.01,1.25-0.23,1.71     c-0.43,0.82-0.48,1.72-0.71,2.58c-0.03,0.1,0.03,0.22,0.05,0.32c0.77,0,0.88,0,1.08-0.46c0.49-1.14,1.12-2.26,1.12-3.55     c0-0.66,0.27-1.21,0.64-1.73c0.06-0.08,0.21-0.16,0.3-0.13c0.13,0.04,0.25,0.15,0.36,0.25c0.05,0.05,0.07,0.15,0.07,0.22     c-0.01,0.7,0.06,1.42-0.07,2.1c-0.18,0.95-0.26,1.94-0.68,2.84c-0.05,0.1-0.05,0.23-0.06,0.35c-0.05,0.46-0.1,0.93-0.15,1.39     c-0.05,0.43,0.12,0.75,0.5,1c0.44-0.2,0.67-0.58,0.78-0.99c0.2-0.71,0.32-1.44,0.46-2.16c0.11-0.57,0.15-1.16,0.3-1.72     c0.3-1.1,0.56-2.2,0.47-3.35c-0.02-0.31,0.02-0.62,0.08-0.93c0.01-0.09,0.16-0.19,0.25-0.21c0.1-0.01,0.25,0.05,0.3,0.13     c0.11,0.16,0.22,0.35,0.22,0.53c0.03,1.17,0.12,2.35,0.03,3.52c-0.08,1.09-0.37,2.15-0.53,3.24c-0.08,0.54-0.13,1.09,0.14,1.65     c0.48,0.05,0.7-0.18,0.83-0.47c0.19-0.47,0.4-0.95,0.48-1.44c0.17-1.16,0.58-2.28,0.47-3.48c-0.02-0.22,0.11-0.46,0.13-0.69     C170.06,148.26,170.19,147.02,169.63,145.82z"/>
		</g>
	</g>
</g>
<g>
	<g>
		<g>
			<path class="st0" d="M89.29,145.53c-0.27,0.03-0.54,0.11-0.81,0.12c-1.74,0.1-3.42,0.5-5.09,0.94c-1.27,0.34-2.59,0.52-3.88,0.76     c-0.09,0.02-0.19,0.02-0.27-0.01c-0.7-0.26-1.34-0.04-2,0.18c-0.38,0.13-0.8,0.15-1.21,0.19c-0.32,0.03-0.64-0.01-0.96,0.04     c-1.88,0.31-3.76,0.65-5.65,0.96c-0.9,0.15-1.79,0.33-2.7,0.39c-1.42,0.09-2.79,0.37-4.17,0.67c-1.11,0.24-2.21,0.55-3.37,0.51     c-0.31-0.01-0.63,0.09-0.94,0.16c-1.65,0.35-3.3,0.63-4.99,0.71c-0.76,0.03-1.52,0.26-2.25,0.51c-0.53,0.18-1.04,0.32-1.6,0.31     c-1.93-0.03-3.8,0.33-5.68,0.73c-0.27,0.06-0.54,0.09-0.81,0.14c-1.38,0.27-2.74,0.69-4.18,0.61c-0.09,0-0.18,0.03-0.27,0.06     c-1.62,0.53-3.28,0.76-4.98,0.77c-0.4,0-0.81,0.13-1.2,0.25c-0.62,0.18-1.23,0.32-1.88,0.32c-0.5,0-1,0.08-1.48,0.2     c-1.46,0.35-2.99,0.33-4.42,0.87c-0.25,0.09-0.54,0.04-0.82,0.06c-0.32,0.03-0.64,0.04-0.95,0.1c-1.38,0.27-2.82,0.19-4.15,0.73     c-0.08,0.03-0.18,0.02-0.27,0.02c-1.16-0.05-2.26,0.25-3.36,0.51c-0.93,0.21-1.87,0.35-2.84,0.37c-0.81,0.01-1.63,0.17-2.42,0.36     c-0.85,0.21-1.43,0.81-1.74,1.62c-0.6,1.61,0.38,3.12,2.09,3.2c0.63,0.03,1.27-0.08,1.9-0.14c0.36-0.03,0.72-0.15,1.08-0.14     c1.06,0.04,2.08-0.23,3.12-0.39c0.4-0.06,0.81-0.12,1.21-0.18c0.94-0.14,1.92-0.19,2.83-0.45c1.59-0.45,3.22-0.56,4.85-0.72     c0.23-0.02,0.46-0.02,0.68-0.06c0.94-0.18,1.91-0.26,2.8-0.57c1.63-0.57,3.33-0.48,4.99-0.72c1.85-0.26,3.68-0.6,5.51-0.95     c0.58-0.11,1.16-0.18,1.75-0.26c1.48-0.2,2.98-0.4,4.43-0.76c1.43-0.36,2.87-0.52,4.32-0.59c1.16-0.06,2.26-0.24,3.34-0.63     c0.34-0.12,0.7-0.24,1.05-0.25c1.69-0.07,3.34-0.42,5.01-0.63c0.72-0.09,1.44-0.17,2.16-0.27c0.36-0.05,0.73-0.1,1.06-0.22     c0.79-0.29,1.59-0.38,2.42-0.35c0.64,0.02,1.24-0.11,1.86-0.33c0.76-0.28,1.59-0.38,2.39-0.51c1.21-0.19,2.43-0.36,3.64-0.51     c1.62-0.21,3.21-0.7,4.86-0.64c0.23,0.01,0.45-0.04,0.68-0.07c0.59-0.07,1.17-0.14,1.76-0.21c0.27-0.03,0.55-0.03,0.82-0.08     c1.34-0.25,2.68-0.49,4.02-0.78c0.62-0.13,1.21-0.43,1.83-0.51c1.04-0.12,2.05-0.45,3.12-0.36c0.22,0.02,0.44-0.07,0.83-0.14     c0.03-0.55,0.07-1,0.08-1.45c0.01-0.6,0.07-1.17,0.27-1.75C91.13,146.12,90.5,145.4,89.29,145.53z M53.34,154.19     c-0.38,0.43-0.89,0.6-1.46,0.64c-1.28,0.09-2.52,0.34-3.76,0.67c-0.83,0.22-1.69,0.38-2.55,0.45c-1.33,0.11-2.61,0.46-3.87,0.8     c-1.24,0.33-2.51,0.41-3.76,0.65c-1.52,0.29-3.09,0.2-4.59,0.66c-0.3,0.09-0.63,0.13-0.94,0.13c-0.65,0-1.27,0.09-1.86,0.37     c-0.24,0.12-0.52,0.23-0.78,0.23c-1.19-0.01-2.36,0.14-3.54,0.3c-1.44,0.19-2.9,0.27-4.32,0.61c-0.62,0.15-1.26,0.19-1.89,0.26     c-0.27,0.03-0.56-0.01-0.82,0.07c-0.8,0.25-1.63,0.2-2.45,0.21c-1.05,0.02-2.09-0.05-3.13,0.24c-0.41,0.11-0.89-0.02-1.34-0.08     c-0.2-0.03-0.27-0.42-0.12-0.57c0.09-0.1,0.19-0.21,0.31-0.26c0.38-0.14,0.77-0.3,1.17-0.37c1.48-0.24,2.96-0.46,4.46-0.62     c1.12-0.12,2.25-0.37,3.33-0.72c1.19-0.39,2.43-0.38,3.62-0.65c0.49-0.11,0.99-0.15,1.48-0.24c0.8-0.16,1.58-0.41,2.42-0.4     c0.39,0.01,0.79-0.2,1.18-0.31c0.7-0.2,1.38-0.47,2.13-0.36c0.27-0.03,0.55-0.02,0.8-0.11c0.75-0.25,1.51-0.28,2.29-0.35     c1.13-0.09,2.25-0.31,3.38-0.47c0.68-0.1,1.35-0.22,2.03-0.28c1-0.09,1.99-0.23,2.94-0.59c0.33-0.12,0.72-0.1,1.09-0.08     c1.15,0.07,2.29-0.06,3.39-0.34c0.81-0.21,1.62-0.2,2.44-0.23c0.77-0.03,1.54-0.09,2.32-0.14c0.25-0.02,0.51,0.01,0.55,0.26     C53.54,153.78,53.46,154.05,53.34,154.19z M87.08,149.04c-0.13,0.04-0.27,0.05-0.4,0.08c-0.58,0.1-1.21,0.1-1.73,0.32     c-1.4,0.6-2.84,0.9-4.35,0.99c-0.32,0.02-0.63,0.07-0.95,0.12c-1.33,0.23-2.62,0.72-4,0.68c-0.92,0.52-1.94,0.41-2.93,0.47     c-0.99,0.07-1.98,0.27-2.96,0.44c-0.49,0.08-0.97,0.31-1.46,0.33c-1.73,0.08-3.46,0.05-5,0.43c-0.53-0.06-0.89-0.08-1.24-0.17     c-0.13-0.03-0.27-0.26-0.28-0.41c0-0.14,0.13-0.34,0.26-0.42c0.14-0.09,0.35-0.09,0.53-0.11c0.32-0.04,0.68,0.01,0.94-0.12     c0.85-0.44,1.75-0.43,2.66-0.49c0.67-0.04,1.34-0.23,2.01-0.38c0.71-0.16,1.44-0.27,2.11-0.53c1-0.39,2.03-0.45,3.08-0.51     c0.09,0,0.2,0.02,0.27-0.02c1.31-0.62,2.77-0.46,4.14-0.78c1.1-0.26,2.24-0.36,3.37-0.53c0.18-0.02,0.37-0.01,0.54,0.04     c0.56,0.18,1.09,0.08,1.6-0.14c1.1-0.46,2.24-0.31,3.38-0.26c0.2,0.01,0.41,0.16,0.59,0.29     C87.45,148.55,87.35,148.96,87.08,149.04z"/>
		</g>
	</g>
	<g>
		<g>
			<path class="st0" d="M132.44,143.96c-1.34,0.06-2.11,1.29-1.51,2.51c0.26,0.53,0.48,1.08,0.76,1.61     c0.38,0.72,0.81,1.42,1.21,2.14c0.11,0.2,0.23,0.39,0.29,0.61c0.14,0.52-0.33,0.97-0.8,0.73c-0.68-0.36-1.45-0.7-1.92-1.27     c-1.07-1.31-1.84-2.83-1.99-4.57c-0.07-0.81-0.45-0.94-1.08-0.85c-0.31,0.04-0.6,0.2-0.89,0.34c-0.84,0.41-1.38,1.15-1.99,1.83     c-0.66,0.73-0.82,1.49-0.6,2.39c0.08,0.31,0.12,0.63,0.21,0.93c0.09,0.3,0.19,0.61,0.36,0.86c0.69,1.01,1.41,2.01,2.12,3.01     c0.3,0.43,0.34,0.77,0.11,0.99c-0.29,0.27-0.59,0.13-0.89-0.01c-0.04-0.02-0.08-0.04-0.12-0.06c-1.67-1.01-3.03-2.32-3.96-4.05     c-0.58-1.09-1.13-2.17-1.05-3.48c0.04-0.71-0.44-1.07-1.24-1.24c-0.51-0.11-0.72,0.04-1.12,0.77c-0.04,0.08-0.09,0.16-0.12,0.24     c-0.33,0.81-0.84,1.36-1.77,1.52c-0.64,0.11-0.89,0.53-0.9,1.19c-0.01,0.8,0.19,1.57,0.67,2.19c0.59,0.75,0.87,1.71,1.61,2.36     c0.12,0.11,0.21,0.32,0.2,0.49c0,0.21-0.05,0.49-0.19,0.61c-0.13,0.12-0.45,0.17-0.62,0.09c-0.77-0.37-1.63-0.61-2.05-1.5     c-0.11-0.23-0.39-0.38-0.57-0.58c-0.24-0.27-0.49-0.54-0.67-0.85c-0.67-1.17-1.02-2.42-0.79-3.98c-0.49,0.02-0.81-0.02-1.1,0.06     c-0.74,0.22-1.44,0.15-2.15-0.11c-0.17-0.06-0.35-0.12-0.52-0.16c-1.04-0.27-1.36-0.03-1.31,1.04c0.08,1.77,0.84,3.34,1.61,4.89     c0.06,0.12,0.17,0.21,0.26,0.31c0.71,0.79,1.49,1.47,2.49,1.88c1.15,0.48,2.28,0.6,3.42,0.02c0.63-0.32,1.22-0.33,1.8,0.1     c0.4,0.3,0.79,0.62,1.2,0.9c0.45,0.31,0.9,0.62,1.39,0.85c0.66,0.3,1.29,0.27,1.93-0.18c0.63-0.44,1.31-0.81,2.01-1.15     c0.69-0.33,1.47-0.16,1.83,0.44c0.59,0.98,1.17,1.98,0.7,3.21c-0.11,0.29-0.16,0.62-0.21,0.93c-0.18,1.02,0.45,2.05,1.43,2.35     c0.26,0.08,0.53,0.13,0.79,0.21c0.51,0.16,0.92-0.01,1.21-0.41c0.4-0.56,0.77-1.16,0.77-1.87c0-1.05,0.1-2.09-0.17-3.13     c-0.14-0.55-0.02-1.17,0.01-1.76c0.02-0.31,0.15-0.62,0.17-0.94c0.02-0.48,0.18-0.89,0.47-1.26c0.34-0.43,0.64-0.9,1.05-1.26     c1.11-1,2.02-2.1,2.31-3.62c0.05-0.26,0.25-0.49,0.32-0.76c0.15-0.61,0.34-1.24,0.37-1.86c0.03-0.49-0.11-0.99-0.23-1.48     C134.78,145.21,133.88,143.91,132.44,143.96z"/>
		</g>
	</g>
	<g>
		<g>
			<path class="st0" d="M117.04,131.54c0.07-0.45,0.11-0.91,0.23-1.34c0.19-0.65,0.44-1.29,0.69-1.92c0.2-0.48,0.24-0.97,0.16-1.47     c-0.05-0.38-0.37-0.67-0.75-0.65c-0.45,0.02-0.91,0.09-1.36,0.14c-0.22,0.03-0.52,0-0.66,0.13c-0.59,0.55-1.41,0.94-1.64,1.77     c-0.34,1.17-0.84,2.3-0.77,3.58c0.05,0.95,0.1,1.91-0.23,2.84c-0.07,0.21-0.05,0.45-0.04,0.68c0.06,1.04,0,2.08,0.39,3.09     c0.14,0.37,0.14,0.8,0.16,0.95c-0.17,1.84,0.66,3.15,1.19,4.54c0.03,0.08,0.1,0.15,0.16,0.22c0.5,0.53,1.25,0.63,2.01,0.26     c0.55-0.27,0.76-0.74,0.66-1.5c-0.03-0.22-0.16-0.45-0.15-0.66c0.03-0.54,0.14-1.07,0.17-1.61c0.03-0.58-0.37-1.14-0.14-1.75     c0.13-0.36,0.1-0.71,0.01-1.07c-0.08-0.3-0.09-0.63-0.11-0.95c-0.02-0.68-0.05-1.35-0.21-2.03c-0.12-0.51-0.03-1.08,0.01-1.62     C116.88,132.61,116.97,132.07,117.04,131.54z"/>
		</g>
	</g>
	<g>
		<g>
			<path class="st0" d="M109.29,145.94c0.8-0.28,1.16-0.93,1.02-1.82c-0.04-0.27-0.08-0.54-0.12-0.81     c-0.14-1.12-0.24-2.26-0.44-3.37c-0.17-0.91-0.2-1.82-0.05-2.71c0.08-0.46,0.03-0.88-0.01-1.34c-0.15-1.73-0.24-3.46,0.7-5.05     c0.24-0.41,0.3-0.94,0.44-1.41c-0.06-1.37-0.44-1.54-1.49-1.43c-0.32,0.03-0.64,0-0.95,0.06c-0.51,0.1-0.93,0.35-1.18,0.84     c-0.41,0.81-0.9,1.58-0.83,2.56c0.02,0.35-0.11,0.72-0.23,1.06c-0.53,1.61-0.4,3.25-0.19,4.87c0.13,1.01,0.21,1.97-0.01,2.97     c-0.11,0.52-0.08,1.09-0.01,1.62c0.1,0.76,0.31,1.51,0.45,2.27C106.65,145.56,108.03,146.38,109.29,145.94z"/>
		</g>
	</g>
	<g>
		<g>
			<path class="st0" d="M135.56,138.46c0.02-0.21-0.09-0.44-0.16-0.66c-0.1-0.3-0.27-0.59-0.31-0.9c-0.3-2.11-1.18-3.99-2.16-5.85     c-0.47-0.9-1.19-1.5-1.93-2.07c-0.83-0.64-1.47-0.49-2.11,0.35c-0.14,0.18-0.25,0.38-0.33,0.59c-0.27,0.68-0.48,1.36-0.47,2.12     c0.01,0.72-0.01,1.46-0.15,2.17c-0.14,0.74-0.13,1.43,0.11,2.15c0.16,0.47,0.28,0.96,0.33,1.46c0.13,1.13,0.2,2.26,0.31,3.39     c0.05,0.45,0.11,0.9,0.6,1.17c0.1-0.12,0.23-0.21,0.25-0.32c0.12-0.58,0.24-1.16,0.29-1.74c0.04-0.4,0.02-0.83-0.08-1.21     c-0.17-0.63-0.23-1.27-0.06-1.89c0.12-0.47,0.08-0.88-0.01-1.34c-0.08-0.39-0.06-0.82-0.03-1.22c0.04-0.5,0.36-0.72,0.85-0.65     c0.9,0.13,1.37,0.74,1.55,1.53c0.27,1.24,0.54,2.5,0.62,3.76c0.06,0.97,0.21,1.86,0.56,2.77c0.23,0.59,0.57,1.03,1.02,1.41     c0.38,0.32,0.84,0.36,1.28,0.12c0.38-0.21,0.36-0.6,0.37-0.96c0-0.09,0-0.19-0.02-0.27     C135.57,141.08,135.42,139.78,135.56,138.46z"/>
		</g>
	</g>
	<g>
		<g>
			<path class="st0" d="M103.57,146.97c0.07-1.13,0.15-2.27-0.29-3.38c-0.15-0.37-0.25-0.8-0.24-1.19c0.05-1.54-0.32-3.1,0.22-4.61     c0.04-0.12,0.03-0.27,0.01-0.41c-0.14-1.14,0.26-2.16,0.72-3.15c0.3-0.66,0.66-1.3,0.98-1.96c0.47-0.99,0.34-1.25-0.71-1.57     c-0.17-0.05-0.35-0.1-0.43-0.12c-0.49-0.04-0.8,0.09-1.12,0.31c-1.14,0.81-1.68,2.03-2.14,3.26c-0.64,1.7-0.59,3.49-0.34,5.26     c0.07,0.51,0.09,0.97,0,1.48c-0.2,1.17-0.26,2.33,0.25,3.49c0.27,0.61,0.37,1.31,0.48,1.98c0.1,0.64,0.43,1.08,0.97,1.41     C102.79,148.29,103.51,147.97,103.57,146.97z"/>
		</g>
	</g>
	<g>
		<g>
			<path class="st0" d="M98.37,148.64c0.14-0.71,0.4-1.47,0.28-2.15c-0.24-1.3-0.48-2.59-0.5-3.92c0-0.13-0.08-0.26-0.1-0.4     c-0.36-2.44-0.3-4.82,1.14-6.97c0.12-0.19,0.22-0.4,0.29-0.62c0.13-0.4-0.09-0.85-0.48-1.02c-0.21-0.09-0.44-0.12-0.58-0.15     c-0.22,0.01-0.36,0-0.49,0.03c-1.01,0.31-2.02,0.66-2.46,1.76c-0.31,0.76-0.6,1.53-0.87,2.3c-0.08,0.25-0.08,0.53-0.07,0.8     c0.03,0.77,0.11,1.54,0.14,2.31c0.06,1.45-0.16,2.92,0.29,4.35c0.05,0.17,0.01,0.37,0.03,0.54c0.08,0.54,0.17,1.08,0.25,1.62     c0.14,0.9,0.82,1.4,1.48,1.87c0.35,0.25,0.8,0.23,1.19,0.08C98.09,149.03,98.33,148.82,98.37,148.64z"/>
		</g>
	</g>
	<g>
		<g>
			<path class="st0" d="M122.02,130.2c0.04-0.99,0.6-1.8,1.33-2.47c0.26-0.24,0.59-0.3,0.89-0.1c0.49,0.32,1.04,0.56,1.36,1.12     c0.2,0.34,0.43,0.69,0.88,0.75c0.08-0.09,0.19-0.16,0.18-0.22c-0.08-1.61-1.23-2.92-2.76-3.34c-0.9-0.25-1.51,0.07-2.05,0.69     c-0.27,0.31-0.48,0.67-0.73,0.99c-0.65,0.81-0.97,1.73-1.01,2.77c-0.02,0.45-0.1,0.9-0.17,1.35c-0.1,0.63-0.39,1.27-0.3,1.87     c0.1,0.69-0.07,1.37,0.05,2.01c0.22,1.14,0.09,2.28,0.16,3.41c0.03,0.45,0.04,0.91,0.15,1.35c0.18,0.71,0.43,1.39,0.45,2.13     c0.01,0.32,0.16,0.62,0.64,0.67c0.08-0.18,0.23-0.37,0.24-0.57c0.03-0.73,0.08-1.45-0.12-2.18c-0.11-0.38-0.16-0.84-0.06-1.21     c0.45-1.56-0.04-3.2,0.41-4.75c-0.34-0.69-0.02-1.35,0.12-2C121.82,131.73,121.99,130.99,122.02,130.2z"/>
		</g>
	</g>
	<g>
		<g>
			<path class="st0" d="M126.04,142.08c0.29,0.21,0.8,0.02,0.89-0.34c0.07-0.3,0.08-0.63,0.05-0.94c-0.04-0.4-0.18-0.8-0.19-1.2     c-0.03-0.91-0.02-1.81-0.24-2.71c-0.11-0.47-0.07-1-0.01-1.49c0.15-1.16-0.05-2.34,0.22-3.5c0.05-0.21,0.01-0.45-0.01-0.68     c-0.05-0.52-0.46-0.72-0.86-0.41c-0.48,0.37-0.86,0.82-0.9,1.46c-0.03,0.5,0.07,1.02-0.07,1.49c-0.36,1.26-0.18,2.53-0.23,3.57     c0,0.95,0.05,1.69-0.01,2.41C124.59,140.86,125.25,141.51,126.04,142.08z"/>
		</g>
	</g>
	<g>
		<g>
			<path class="st0" d="M104.95,150.92c-0.29-0.59-0.91-0.7-1.49-0.79c-0.32,0-0.67,0.25-0.68,0.56c-0.02,0.45-0.02,0.91,0.06,1.34     c0.08,0.44,0.28,0.86,0.38,1.3c0.29,1.22,1.11,2.05,2.03,2.82c0.39,0.33,0.93,0.32,1.27,0.06c0.31-0.23,0.51-0.81,0.33-1.23     C106.23,153.62,105.61,152.26,104.95,150.92z"/>
		</g>
	</g>
	<g>
		<g>
			<path class="st0" d="M100.99,153.98c-0.54-1.04-1.05-2.11-2.05-2.82c-0.32-0.23-0.82-0.18-1.14,0.08     c-0.33,0.27-0.47,0.88-0.24,1.23c0.42,0.64,0.86,1.28,1.31,1.9c0.3,0.42,0.75,0.65,1.25,0.76c0.49,0.1,0.9-0.24,0.92-0.81     C101.02,154.24,101.05,154.09,100.99,153.98z"/>
		</g>
	</g>
</g>
<g>
	<g>
		<g>
			<path class="st0" d="M259.56,120.43c0.1,0.08,0.13,0.24,0.21,0.35c0.18,0.25,0.36,0.49,0.54,0.74c0.58,0.79,1.18,1.56,1.72,2.38     c0.69,1.04,1.17,2.22,1.95,3.21c0.04,0.05,0.07,0.12,0.09,0.18c0.34,1.08,1.03,1.99,1.54,2.98c0.26,0.51,0.52,1.02,0.7,1.58     c0.18,0.57,0.35,1.15,0.69,1.68c0.41,0.65,0.65,1.41,0.83,2.18c0.15,0.63,0.31,1.25,0.49,1.87c0.11,0.37,0.24,0.76,0.65,0.98     c0.27-0.36,0.36-0.74,0.4-1.09c0.1-0.87,0.22-1.76-0.37-2.54c-0.27-0.36-0.34-0.8-0.39-1.24c-0.05-0.43-0.12-0.9-0.32-1.27     c-0.41-0.75-0.65-1.55-0.92-2.36c-0.25-0.77-0.56-1.52-0.73-2.32c-0.08-0.36-0.2-0.75-0.42-1.03c-0.46-0.58-0.6-1.28-0.85-1.94     c-0.15-0.39-0.29-0.76-0.56-1.07c-0.09-0.1-0.19-0.21-0.23-0.33c-0.29-0.92-0.84-1.7-1.3-2.53c-0.77-1.39-1.41-2.86-2.48-4.07     c-0.07-0.07-0.1-0.17-0.15-0.26c-0.42-0.74-0.82-1.49-1.26-2.21c-0.19-0.31-0.42-0.62-0.69-0.87c-0.43-0.4-0.76-0.86-1.04-1.37     c-0.4-0.71-0.73-1.46-1.32-2.04c-0.18-0.18-0.25-0.47-0.33-0.73c-0.19-0.63-0.48-1.2-0.95-1.66c-0.66-0.66-0.74-1.58-1.1-2.38     c-0.01-0.03-0.01-0.07,0-0.1c0.05-0.12,0.09-0.3,0.18-0.34c0.13-0.06,0.37-0.09,0.46-0.02c0.21,0.16,0.4,0.37,0.51,0.61     c0.37,0.73,0.85,1.39,1.39,2c0.35,0.38,0.55,0.82,0.77,1.28c0.22,0.46,0.7,0.8,1.06,1.19c0.07,0.07,0.11,0.17,0.16,0.26     c0.43,0.81,1.04,1.5,1.65,2.18c0.45,0.51,0.92,0.99,1.21,1.62c0.06,0.12,0.12,0.25,0.22,0.34c0.61,0.57,0.93,1.33,1.34,2.03     c0.14,0.23,0.24,0.51,0.43,0.69c0.55,0.53,0.85,1.22,1.24,1.86c0.3,0.49,0.62,0.97,0.93,1.45c0.05,0.08,0.12,0.17,0.16,0.26     c0.38,0.9,0.64,1.85,1.28,2.62c0.06,0.07,0.08,0.19,0.11,0.28c0.29,0.87,0.55,1.74,1.01,2.54c0.1,0.17,0.15,0.38,0.2,0.57     c0.34,1.3,0.68,2.61,1.06,4.07c0.32-0.48,0.31-0.87,0.17-1.21c-0.32-0.74-0.27-1.53-0.37-2.29c-0.14-1.07-0.15-2.16-0.61-3.17     c-0.08-0.18-0.05-0.4-0.1-0.6c-0.23-0.92-0.3-1.88-0.83-2.71c-0.12-0.19-0.23-0.44-0.23-0.66c-0.02-0.8-0.33-1.51-0.66-2.21     c-0.16-0.33-0.28-0.69-0.41-1.03c-0.25-0.63-0.47-1.27-0.75-1.89c-0.38-0.83-0.99-1.55-1.2-2.46c-0.01-0.06-0.05-0.13-0.1-0.17     c-0.35-0.3-0.53-0.69-0.62-1.14c-0.02-0.13-0.11-0.26-0.2-0.35c-0.58-0.58-1.08-1.21-1.55-1.88c-0.43-0.6-0.92-1.17-1.37-1.76     c-0.73-0.97-1.63-1.81-2.21-2.89c-0.02-0.03-0.05-0.04-0.07-0.07c-0.46-0.67-1.07-1.22-1.44-1.96c-0.11-0.21-0.28-0.38-0.43-0.57     c-0.16-0.22-0.35-0.42-0.49-0.65c-0.45-0.75-0.76-1.59-1.45-2.2c-0.12-0.11-0.19-0.28-0.26-0.43c-0.2-0.4-0.48-0.73-0.84-1     c-0.23-0.18-0.41-0.44-0.59-0.69c-0.47-0.66-0.9-1.35-1.64-1.76c-0.15-0.08-0.27-0.21-0.38-0.33c-0.64-0.73-1.54-1.08-2.35-1.56     c-0.37-0.22-0.77-0.18-1.19-0.04c-0.03,0.54,0.24,0.87,0.54,1.19c0.45,0.48,0.74,1.04,0.92,1.68c0.16,0.55,0.41,1.08,0.57,1.63     c0.22,0.81,0.59,1.59,0.55,2.46c-0.03,0.63,0.17,1.21,0.4,1.77c0.19,0.47,0.32,0.95,0.44,1.44c0.19,0.75,0.48,1.47,0.43,2.27     c-0.01,0.12,0.1,0.25,0.15,0.38c0.36,1.06,0.7,2.12,1.26,3.1c0.08,0.15,0.13,0.31,0.2,0.47c0.19,0.43,0.35,0.88,0.57,1.3     c0.43,0.81,0.94,1.58,1.31,2.42c0.36,0.82,0.88,1.52,1.35,2.26c0.58,0.91,1.28,1.74,1.9,2.63     C258.32,118.76,258.75,119.73,259.56,120.43z"/>
		</g>
	</g>
	<g>
		<g>
			<path class="st0" d="M268.75,155.45c-0.12-0.8-0.45-1.51-0.74-2.24c-0.32-0.8-0.63-1.6-0.98-2.38c-0.36-0.79-0.3-1.68-0.67-2.47     c-0.23-0.49-0.28-1.05-0.42-1.58c-0.09-0.33-0.2-0.65-0.31-0.97c-0.1-0.29-0.25-0.57-0.28-0.87c-0.06-0.6-0.22-1.14-0.6-1.62     c-0.1-0.13-0.19-0.29-0.22-0.46c-0.33-1.52-1.02-2.91-1.64-4.32c-0.26-0.59-0.63-1.12-0.72-1.78c-0.03-0.2-0.12-0.41-0.24-0.57     c-0.61-0.78-0.84-1.82-1.61-2.49c-0.35-0.83-0.94-1.5-1.43-2.23c-0.78-1.19-1.74-2.21-2.85-3.08c-0.54-0.43-1.09-0.84-1.51-1.39     c-0.41-0.54-0.96-0.88-1.52-1.2c-0.1-0.06-0.25-0.05-0.38-0.07c-0.09,0.39,0.05,0.64,0.25,0.9c0.19,0.24,0.34,0.51,0.5,0.77     c0.19,0.32,0.38,0.65,0.56,0.98c0.53,0.92,1.15,1.79,1.49,2.81c0.12,0.35,0.32,0.68,0.5,1.01c0.19,0.36,0.41,0.71,0.57,1.09     c0.52,1.23,1.03,2.48,1.53,3.72c0.12,0.29,0.21,0.58,0.31,0.87c0.18,0.55,0.32,1.12,0.52,1.66c0.26,0.71,0.58,1.4,0.85,2.1     c0.11,0.29,0.23,0.59,0.24,0.89c0.03,0.9,0.6,1.68,0.59,2.59c0,0.12,0.13,0.24,0.19,0.36c0.15,0.31,0.32,0.61,0.45,0.92     c0.28,0.66,0.57,1.33,0.82,2c0.25,0.68,0.61,1.3,1.06,1.87c0.17,0.22,0.36,0.43,0.46,0.68c0.26,0.65,0.64,1.2,1.07,1.75     c0.38,0.49,0.69,1.02,1.23,1.36c0.08,0.05,0.15,0.14,0.2,0.23c0.73,1.2,1.91,1.94,2.89,2.9c0.06,0.06,0.18,0.07,0.35,0.14     c0-0.21,0.03-0.37-0.01-0.51C269.09,156.35,268.82,155.92,268.75,155.45z"/>
		</g>
	</g>
	<g>
		<g>
			<path class="st0" d="M271.49,160.83c0.03-2.28,0.09-4.55-0.01-6.83c-0.03-0.66,0.11-1.33,0.04-1.98     c-0.13-1.13,0.07-2.23,0.18-3.34c0.12-1.2,0.22-2.39,0.15-3.59c-0.08-1.19,0.3-2.38,0.09-3.57c-0.01-0.04,0.01-0.08,0.02-0.12     c0.18-0.85,0.2-1.72,0.28-2.58c0.25-2.6,0.14-5.21,0.45-7.8c0.05-0.41,0.02-0.83-0.02-1.24c-0.18-1.94-0.08-3.89-0.07-5.84     c0-0.41,0.02-0.84,0.1-1.24c0.18-0.83,0.13-1.65-0.04-2.47c-0.11-0.5-0.1-0.97-0.04-1.47c0.07-0.61,0.14-1.25,0.05-1.86     c-0.38-2.63-0.46-5.28-0.63-7.92c-0.02-0.33,0.08-0.69-0.04-0.98c-0.28-0.71-0.29-1.44-0.36-2.19c-0.08-0.86-0.15-1.73-0.27-2.58     c-0.19-1.35-0.46-2.69-0.72-4.03c-0.47-2.39-1.13-4.73-1.6-7.12c-0.02-0.12-0.06-0.24-0.11-0.35c-0.67-1.42-1.36-2.92-1.68-4.46     c-0.09-0.45-0.39-1.53,0.08-1.88c0.95-0.71,1.55,1.5,1.75,2.03c0.65,1.74,1.24,3.51,1.86,5.26c0.25,0.7,0.62,1.36,0.64,2.12     c0,0.11,0.11,0.22,0.15,0.34c0.13,0.39,0.24,0.79,0.36,1.18c0.46,1.5,0.47,3.1,0.99,4.59c0.07,0.19,0.05,0.41,0.09,0.61     c0.09,0.48,0.2,0.97,0.29,1.45c0.06,0.32,0.1,0.65,0.18,0.98c0.29,1.23-0.01,2.57,0.64,3.74c0.09,0.16,0.03,0.4,0.03,0.61     c0,0.41-0.02,0.83,0.01,1.24c0.12,1.73,0.26,3.47,0.39,5.2c0.02,0.25,0.01,0.51,0.08,0.74c0.22,0.73,0.17,1.47,0.14,2.22     c-0.02,0.66,0.01,1.32,0.04,1.98c0.04,0.74,0.24,1.51,0.12,2.22c-0.22,1.28-0.22,2.55-0.26,3.83c-0.05,1.58-0.1,3.15,0.06,4.72     c0.07,0.62,0,1.23-0.15,1.84c-0.13,0.51-0.14,1.06-0.17,1.6c-0.03,0.62,0.01,1.24-0.02,1.86c-0.06,1.16-0.15,2.31-0.25,3.46     c-0.04,0.49-0.06,1-0.2,1.47c-0.21,0.69-0.23,1.38-0.16,2.09c0.03,0.28,0.1,0.62-0.01,0.85c-0.31,0.6-0.2,1.21-0.18,1.83     c0.01,0.41,0.01,0.83-0.04,1.23c-0.12,0.94-0.33,1.87-0.42,2.82c-0.17,1.77-0.34,3.54-0.39,5.32c-0.05,1.78-0.25,3.55-0.43,5.32     c-0.05,0.53-0.24,1.04-0.39,1.55c-0.02,0.07-0.21,0.14-0.3,0.13c-0.09-0.02-0.22-0.14-0.24-0.23     C271.48,161.33,271.49,161.08,271.49,160.83z"/>
		</g>
	</g>
	<g>
		<g>
			<path class="st0" d="M287.23,111.52c0.15,0.37,0.25,0.8,0.23,1.2c-0.05,1.05,0.02,2.08,0.19,3.1c0.03,0.2,0.11,0.42,0.07,0.62     c-0.36,1.63-0.54,3.28-0.73,4.93c-0.03,0.25-0.16,0.49-0.23,0.74c-0.07,0.25-0.14,0.5-0.18,0.76c-0.2,1.23-0.38,2.46-0.59,3.68     c-0.21,1.22-1.03,2.28-0.99,3.58c0,0.14-0.13,0.28-0.19,0.42c-0.2,0.59-0.43,1.17-0.6,1.76c-0.38,1.35-0.64,2.73-1.12,4.05     c-0.33,0.93-0.68,1.84-0.89,2.81c-0.09,0.4-0.26,0.78-0.39,1.18c-0.35,1.14-0.76,2.27-0.81,3.48c-0.03,0.69-0.18,1.33-0.43,1.97     c-0.16,0.43-0.34,0.91-0.31,1.35c0.05,0.59-0.03,1.13-0.15,1.69c-0.04,0.18-0.07,0.44,0.35,0.43c0.08-0.26,0.18-0.55,0.26-0.84     c0.12-0.45,0.18-0.92,0.36-1.34c0.48-1.13,1.08-2.19,1.29-3.47c0.17-1.04,0.8-2,1.24-3c0.14-0.33,0.34-0.65,0.44-0.99     c0.33-1.15,0.69-2.28,1.07-3.41c0.36-1.09,0.78-2.13,1.29-3.16c0.16-0.32,0.33-0.68,0.34-1.03c0.06-1.79,0.83-3.41,1.17-5.14     c0.42-2.14,0.92-4.26,1.23-6.42c0.1-0.72,0.18-1.43,0.02-2.16c-0.11-0.49-0.13-1.07,0.01-1.54c0.39-1.26,0.12-2.49-0.07-3.7     c-0.2-1.29-0.38-2.56-0.37-3.87c0-0.62-0.07-1.25-0.21-1.85c-0.36-1.46-0.78-2.9-1.17-4.35c-0.1-0.35-0.2-0.7-0.31-1.05     c-0.15-0.5-0.43-0.92-0.88-1.33c-0.36,0.56-0.23,1.07-0.16,1.57c0.09,0.57,0.15,1.17-0.14,1.68c-0.35,0.63-0.36,1.29-0.4,1.96     c-0.08,1.4,0.01,2.82-0.6,4.14c-0.04,0.09-0.05,0.2-0.05,0.31c0.01,1.02-0.37,1.93-0.73,2.85c-0.45,1.16-0.97,2.3-1.01,3.58     c-0.01,0.35-0.2,0.69-0.33,1.03c-0.16,0.44-0.37,0.86-0.49,1.3c-0.48,1.75-0.92,3.5-1.42,5.25c-0.39,1.39-0.84,2.77-1.27,4.16     c-0.05,0.15-0.14,0.28-0.2,0.42c-0.43,1.11-0.83,2.23-0.89,3.45c-0.05,0.82-0.19,1.66-0.46,2.44c-0.61,1.83-0.98,3.72-1.23,5.61     c-0.27,2.05-0.26,4.14-0.34,6.21c-0.03,0.88-0.02,1.75,0.16,2.63c0.2,0.99,0.14,2.04,0.22,3.06c0.07,1.04,0.38,2.03,0.81,2.98     c0.03,0.07,0.17,0.09,0.37,0.2c0.17-0.63,0.14-1.22,0.09-1.83c-0.07-0.88-0.14-1.76-0.09-2.64c0.08-1.45,0.55-2.86,0.42-4.33     c-0.01-0.1,0.02-0.21,0.06-0.31c0.48-1.39,0.66-2.82,0.77-4.27c0.02-0.26,0.1-0.51,0.18-0.76c0.45-1.33,0.81-2.68,1.12-4.05     c0.15-0.65,0.51-1.25,0.72-1.89c0.3-0.94,0.51-1.91,0.85-2.83c0.33-0.92,0.27-1.97,0.95-2.77c0.08-0.1,0.08-0.3,0.06-0.45     c-0.08-0.61,0.18-1.11,0.46-1.62c0.45-0.83,0.73-1.71,0.74-2.68c0.01-0.46,0.15-0.92,0.24-1.37c0.33-1.52,0.91-2.97,0.96-4.55     c0.01-0.4,0.19-0.8,0.31-1.2c0.27-0.9,0.42-1.82,0.3-2.77c-0.08-0.62-0.15-1.21,0.01-1.85c0.16-0.63,0.11-1.31,0.15-1.91     C286.79,111.1,287.1,111.2,287.23,111.52z"/>
		</g>
	</g>
	<g>
		<g>
			<g>
				<path class="st0" d="M284.75,50.5c0.19-0.17,0.37-0.38,0.59-0.48c1.08-0.48,1.93-1.28,2.86-1.96c0.24-0.17,0.45-0.4,0.61-0.65      c0.53-0.82,1.09-1.64,1.52-2.51c0.43-0.86,0.56-1.81,0.13-2.74c-0.11-0.23-0.22-0.47-0.39-0.66c-1.04-1.23-2.36-1.97-3.97-2.1      c-0.53-0.04-0.86-0.22-1.2-0.6c-1.54-1.75-3.44-2.96-5.69-3.56c-0.69-0.18-1.22-0.6-1.85-0.86c-0.17-0.07-0.33-0.29-0.41-0.47      c-0.41-1.03-1.05-1.98-1.05-3.14c0-0.25-0.11-0.49-0.21-0.89c-0.88,0.19-1.62,0.38-2.38,0.5c-1.31,0.2-2.6,0.37-3.91-0.12      c-1.01-0.37-2.03-0.7-2.87-1.39c-0.53-0.43-1.13-0.74-1.67-1.17c-0.53-0.43-1.33-0.55-2.03-0.74c-0.62-0.17-1.26-0.21-1.91-0.07      c-1.03,0.22-1.8,0.75-2.28,1.71c-0.42,0.84-0.9,1.65-1.35,2.48c-0.08,0.15-0.19,0.3-0.2,0.46c-0.03,0.74-0.35,1.41-0.52,2.12      c-0.38,1.61-0.41,3.23-0.07,4.85c0.03,0.13,0.11,0.25,0.1,0.37c-0.12,1.54,0.78,2.88,0.86,4.38c0.01,0.21,0.04,0.45,0.15,0.62      c0.47,0.73,0.8,1.51,0.98,2.36c0.86,1.13,1.26,2.53,2.16,3.65c0.36,0.45,0.77,0.81,1.25,1.1c0.2,0.12,0.48,0.1,0.75,0.16      c0.28-0.58,0.22-1.12,0.08-1.67c-0.34-1.37-0.68-2.74-1.02-4.11c-0.07-0.29-0.06-0.65-0.23-0.86c-0.56-0.71-0.64-1.59-0.88-2.4      c-0.35-1.14-0.16-2.3,0.32-3.39c0.08-0.18,0.27-0.31,0.46-0.51c0.78,0.47,1.17,1.16,1.46,1.92c0.17,0.44,0.3,0.9,0.41,1.36      c0.29,1.25,0.54,2.52,0.85,3.76c0.16,0.66,0.37,1.33,0.65,1.95c0.33,0.74,1.19,0.85,1.67,0.21c0.9-1.19,2-2.25,2.39-3.77      c0.08-0.32,0.28-0.64,0.49-0.89c0.23-0.28,0.42-0.54,0.42-0.91c0-0.08,0.02-0.19,0.07-0.24c0.66-0.67,0.74-1.63,1.23-2.37      c0.21-0.32,0.46-0.61,0.72-0.89c0.14-0.16,0.36-0.3,0.57-0.14c0.16,0.12,0.34,0.33,0.34,0.5c-0.01,0.51-0.05,1.03-0.17,1.53      c-0.14,0.58-0.25,1.23-0.58,1.69c-0.57,0.8-0.76,1.72-1.1,2.59c-0.11,0.28-0.13,0.61-0.3,0.85c-0.83,1.15-0.95,2.56-1.45,3.83      c-0.27,0.7-0.11,1.45,0.21,2.13c0.24,0.5,0.58,0.61,1.05,0.52c0.67-0.13,1.31-0.29,1.92-0.65c0.69-0.41,1.44-0.75,2.16-1.12      c0.97-0.49,1.82-1.13,2.72-1.72c0.32-0.21,0.64-0.44,0.98-0.62c0.45-0.24,0.87,0.06,0.85,0.58c-0.02,0.64-0.31,1.16-0.81,1.54      c-0.51,0.39-1.05,0.75-1.57,1.13c-0.52,0.37-1.05,0.73-1.46,1.25c-0.23,0.3-0.58,0.51-0.89,0.73c-0.91,0.65-1.82,1.28-2.73,1.93      c-0.24,0.17-0.48,0.37-0.66,0.6c-0.28,0.35-0.6,0.61-1.04,0.72c-0.65,0.16-0.98,0.67-1.31,1.18c-0.29,0.44-0.02,1.05,0.5,1.07      c0.68,0.02,1.34,0.11,2.04-0.08c1.54-0.42,2.92-1.24,4.43-1.72c0.19-0.06,0.41-0.2,0.51-0.37c0.35-0.57,0.91-0.73,1.49-0.92      c0.48-0.16,0.96-0.38,1.38-0.66c1.38-0.93,2.75-1.88,4.19-2.73C283.71,51.56,284.2,50.97,284.75,50.5z M266.85,31.49      c0.23,0.29,0.01,0.74-0.36,0.77c-0.13,0.01-0.26,0.02-0.38,0c-1.09-0.18-2.16-0.33-3.09-1.1c-0.8-0.67-1.93-0.22-2.28,0.76      c-0.3,0.85-0.55,1.71-0.87,2.55c-0.34,0.88-0.72,1.74-1.11,2.59c-0.06,0.13-0.28,0.27-0.4,0.25c-0.18-0.03-0.43-0.16-0.49-0.31      c-0.29-0.65-0.27-1.36-0.13-2.02c0.26-1.21,0.68-2.39,0.92-3.6c0.16-0.84,0.55-1.42,1.29-1.8c0.5-0.31,0.92-0.74,1.58-0.79      c0.77-0.06,1.48,0.09,2.05,0.57c0.79,0.67,1.6,1.26,2.62,1.56C266.44,31,266.67,31.27,266.85,31.49z M268.89,33.98      c0.06,0.17,0.13,0.25,0.12,0.32c-0.16,0.75-0.21,1.55-0.53,2.22c-0.49,1.04-0.62,2.12-0.8,3.22c-0.06,0.38-0.11,0.77-0.26,1.11      c-0.19,0.44-0.28,0.88-0.29,1.36c-0.01,0.91-0.4,1.73-0.7,2.57c-0.04,0.11-0.29,0.22-0.42,0.2c-0.13-0.02-0.33-0.19-0.34-0.3      c-0.05-0.55,0-1.11-0.07-1.65c-0.2-1.61,0.47-3.11,0.57-4.68c0.01-0.2,0.14-0.4,0.22-0.6c0.39-0.94,0.76-1.9,1.2-2.82      c0.18-0.37,0.49-0.7,0.79-0.98C268.47,33.87,268.74,33.97,268.89,33.98z M280.34,40.69c-0.02,0.25-0.04,0.54-0.17,0.73      c-0.75,1.03-1.09,2.35-2.23,3.11c-0.17,0.11-0.28,0.32-0.4,0.5c-0.68,1.07-1.57,1.93-2.62,2.51c-0.55,0.38-1.03,0.75-1.54,1.07      c-0.2,0.13-0.47,0.17-0.72,0.2c-0.1,0.01-0.25-0.1-0.3-0.19c-0.05-0.09-0.03-0.24,0-0.36c0.02-0.07,0.09-0.14,0.16-0.2      c1-0.81,1.61-2.02,2.77-2.67c0.07-0.04,0.13-0.11,0.18-0.18c0.66-0.89,1.19-1.89,2.17-2.51c0.03-0.02,0.06-0.06,0.08-0.1      c0.33-0.84,1.14-1.27,1.67-1.93c0.1-0.13,0.27-0.21,0.41-0.29C280.02,40.23,280.36,40.42,280.34,40.69z M284.33,48.98      c-0.91,0.77-1.72,1.67-2.87,2.12c-0.34,0.13-0.63,0.43-0.93,0.66c-0.35,0.27-0.71,0.5-1.16,0.49c-0.19-0.01-0.43-0.08-0.56-0.21      c-0.17-0.17-0.07-0.42,0.09-0.57c0.62-0.59,1.11-1.3,1.88-1.74c0.61-0.34,1.06-0.86,1.47-1.42c0.43-0.59,0.86-1.16,1.43-1.64      c0.56-0.47,0.94-1.11,1.25-1.78c0.19-0.42,0.2-0.82-0.1-1.32c-0.29-0.07-0.66-0.2-1.03-0.25c-0.54-0.08-0.95-0.39-1.3-0.77      c-0.12-0.13-0.16-0.42-0.09-0.58c0.06-0.15,0.32-0.31,0.49-0.31c0.68,0,1.37,0.03,2.05,0.12c0.86,0.1,1.56,0.51,1.93,1.32      c0.39,0.85,0.53,1.72,0.05,2.6c-0.57,1.05-1.01,2.19-2.14,2.83C284.61,48.63,284.5,48.85,284.33,48.98z"/>
			</g>
		</g>
		<g>
			<g>
				<path class="st0" d="M246.75,42.55c-0.2-0.22-0.5-0.37-0.65-0.62c-0.69-1.18-1.74-2-2.72-2.89c-0.16-0.14-0.32-0.3-0.5-0.4      c-0.95-0.5-1.78-1.19-2.68-1.77c-1.29-0.83-2.73-1.44-4.26-1.75c-0.46-0.09-0.93-0.16-1.4-0.24c-0.65-0.11-1.28-0.11-1.87,0.26      c-0.18,0.11-0.39,0.21-0.59,0.22c-1.17,0.06-1.83,0.83-2.44,1.69c-0.24,0.35-0.5,0.69-0.68,1.08c-0.18,0.38-0.32,0.8-0.35,1.21      c-0.03,0.43-0.06,0.84-0.22,1.25c-0.25,0.64-0.09,1.28,0.07,1.9c0.13,0.48,0.13,0.9-0.05,1.38c-0.34,0.9-0.41,1.82-0.06,2.77      c0.44,1.22,0.54,2.51,0.53,3.8c-0.02,1.63-0.26,3.22-0.71,4.81c-0.36,1.29-0.89,2.49-1.39,3.71c-0.11,0.28-0.22,0.57-0.26,0.86      c-0.12,0.78-0.39,1.5-0.72,2.2c-0.82,1.7-0.86,3.38,0.1,5.04c0.35,1.58,1.55,2.28,2.94,2.77c0.28,0.1,0.57,0.19,0.86,0.26      c0.38,0.08,0.77,0.12,1.14,0.21c1.98,0.5,3.92,0.21,5.84-0.3c0.54-0.14,1.09-0.24,1.63-0.38c0.58-0.15,1.16-0.31,1.74-0.48      c0.29-0.08,0.57-0.2,0.86-0.27c1.36-0.3,2.6-0.85,3.74-1.65c0.6-0.42,1.17-0.88,1.8-1.25c1.17-0.69,2.03-1.7,2.86-2.75      c0.07-0.09,0.1-0.23,0.13-0.35c0.01-0.04-0.01-0.08-0.04-0.24c-0.57-0.15-1.05-0.04-1.5,0.27c-0.43,0.29-0.85,0.58-1.27,0.88      c-1.02,0.74-2.12,1.27-3.35,1.57c-0.66,0.16-1.28,0.48-1.98,0.52c-0.64,0.03-1.32-0.05-1.91,0.14c-0.61,0.2-1.18,0.22-1.77,0.15      c-1.36-0.16-2.74,0.12-4.1-0.18c-0.67-0.14-1.36-0.18-2.03-0.31c-0.24-0.05-0.51-0.16-0.69-0.32c-0.74-0.66-0.62-1.09,0.01-1.56      c0.58-0.43,1.14-0.61,1.9-0.53c1.92,0.2,3.85,0.22,5.78,0.03c0.25-0.03,0.52-0.04,0.77-0.01c0.53,0.07,1.02-0.05,1.52-0.19      c0.7-0.2,1.41-0.34,2.29-0.54c0.1-0.13,0.34-0.37,0.52-0.66c0.2-0.33,0.07-0.71-0.27-0.87c-0.19-0.09-0.4-0.17-0.61-0.2      c-1.27-0.2-2.55-0.38-3.82-0.56c-0.13-0.02-0.28,0.02-0.38-0.04c-1.07-0.64-2.42-0.6-3.41-1.45c-0.35-0.3-0.83-0.44-1.25-0.65      c-0.31-0.15-0.63-0.28-0.93-0.44c-0.78-0.43-0.8-0.56-0.33-1.61c1.29,0.07,2.63-0.02,3.9,0.45c0.41,0.15,0.81,0.29,1.25,0.14      c0.49-0.17,0.93-0.04,1.37,0.17c0.94,0.46,1.94,0.64,2.96,0.78c1.27,0.18,2.5,0.61,3.75,0.84c1.01,0.19,2.11,0.33,3.17,0.01      c0.04-0.01,0.06-0.06,0.15-0.14c0.21-0.56-0.06-1.05-0.52-1.4c-0.47-0.37-1.01-0.65-1.39-1.13c-0.07-0.09-0.21-0.15-0.33-0.19      c-1.43-0.5-2.66-1.37-3.93-2.17c-0.33-0.2-0.67-0.39-1.01-0.58c-1.57-0.89-3.15-1.75-4.48-3.01c-0.52-0.49-1.21-0.79-1.69-1.37      c-0.23-0.28-0.5-0.5-0.32-0.89c0.18-0.38,0.51-0.57,0.93-0.59c0.17-0.01,0.35,0.01,0.51,0.05c0.58,0.17,1.17,0.3,1.71,0.55      c0.98,0.44,1.92,0.95,2.88,1.43c0.11,0.06,0.25,0.1,0.34,0.19c1.06,1.02,2.42,1.62,3.57,2.51c0.14,0.1,0.29,0.19,0.43,0.28      c0.4,0.23,0.76,0.24,0.93-0.01c0.21-0.31,0.01-0.56-0.13-0.83c-0.26-0.49-0.51-0.99-0.77-1.48c-0.1-0.19-0.21-0.38-0.35-0.53      c-1.25-1.35-2.47-2.73-3.79-4.01c-0.76-0.74-1.5-1.52-2.49-2c-0.45-0.22-0.8-0.64-1.18-0.99c-0.31-0.29-0.59-0.62-0.89-0.93      c-0.23-0.23-0.34-0.49-0.26-0.81c0.08-0.32,0.37-0.54,0.78-0.56c0.25-0.01,0.51,0.02,0.76,0.09c0.29,0.08,0.6,0.16,0.84,0.33      c1.08,0.76,2.34,1.23,3.26,2.23c0.43,0.47,0.98,0.83,1.45,1.27c1.13,1.05,2.29,2.08,3.08,3.43c0.11,0.18,0.27,0.35,0.44,0.47      c0.44,0.31,0.71,0.72,0.86,1.24c0.07,0.24,0.21,0.47,0.37,0.67c0.97,1.26,1.8,2.61,2.73,3.9c0.11,0.16,0.29,0.27,0.52,0.47      c0.08-0.28,0.16-0.43,0.15-0.58c-0.05-0.86-0.17-1.69-0.71-2.44c-0.27-0.37-0.42-0.85-0.51-1.31c-0.31-1.54-1.16-2.85-1.8-4.25      c-0.05-0.12-0.13-0.22-0.21-0.32C248.21,44.23,247.49,43.38,246.75,42.55z M232.44,67.49c0.17,0.03,0.34,0.03,0.51,0.01      c1.12-0.13,2.22-0.07,3.33,0.07c0.29,0.04,0.6,0.02,0.89,0.07c0.26,0.04,0.33,0.42,0.15,0.63c-0.28,0.32-0.66,0.37-1.05,0.42      c-1.02,0.12-2.07,0.14-3.06,0.38c-1.03,0.25-1.94-0.18-2.91-0.26c-0.46-0.04-0.89-0.28-1.34-0.43c-0.12-0.04-0.25-0.1-0.34-0.19      c-0.99-0.91-1.7-2.03-2.3-3.22c-0.07-0.14,0.03-0.42,0.14-0.58c0.07-0.12,0.28-0.15,0.39-0.2c0.56,0.66,1.12,1.25,1.59,1.89      c0.44,0.59,1.01,0.91,1.72,1.03C230.92,67.23,231.68,67.37,232.44,67.49z M235.2,37.44c0.1,0.24-0.03,0.56-0.28,0.63      c-0.16,0.05-0.33,0.07-0.5,0.08c-0.48,0.02-0.77,0.3-1.03,0.67c-0.33,0.46-0.4,0.97-0.26,1.47c0.18,0.63,0.1,1.18-0.22,1.73      c-0.38,0.66-0.45,1.35-0.37,2.11c0.09,0.89,0.15,1.8,0.06,2.68c-0.08,0.78-0.01,1.53,0.08,2.3c0.05,0.42,0.14,0.87,0.03,1.27      c-0.13,0.47-0.19,0.91-0.12,1.39c0.06,0.4,0,0.78-0.25,1.1c-0.1,0.12-0.29,0.28-0.4,0.26c-0.18-0.04-0.43-0.19-0.48-0.34      c-0.19-0.65-0.48-1.33-0.44-1.97c0.06-0.85-0.09-1.61-0.31-2.39c-0.1-0.36-0.09-0.76-0.12-1.14c-0.09-1.15-0.11-2.31-0.26-3.45      c-0.11-0.8-0.05-1.53,0.38-2.22c0.28-0.45,0.38-0.93,0.31-1.47c-0.15-1.19,0.45-2.04,1.37-2.72c0.49-0.39,1.07-0.54,1.67-0.62      C234.6,36.72,235.01,36.99,235.2,37.44z"/>
			</g>
		</g>
		<g>
			<g>
				<path class="st0" d="M272.46,69.87c1.28,0.44,1.89,1.41,2.19,2.65c0.12,0.48,0.12,0.95-0.32,1.29c-0.34,0.26-0.91,0.13-1.4-0.32      c-0.41-0.38-0.77-0.81-1.18-1.17c-0.74-0.65-1.5-1.27-2.27-1.88c-0.57-0.45-1.15-0.88-1.89-1.07c-0.45-0.11-0.83-0.44-1.27-0.61      c-0.88-0.34-1.6,0.2-1.44,1.12c0.1,0.58,0.36,1.14,0.62,1.68c0.61,1.28,1.22,2.55,1.39,3.98c0.02,0.17,0.04,0.34,0.03,0.51      c-0.02,0.47-0.57,0.78-0.94,0.49c-0.53-0.41-1.13-0.74-1.35-1.49c-0.14-0.48-0.49-0.9-0.79-1.32c-0.43-0.6-0.74-1.23-0.91-1.97      c-0.21-0.92-0.58-1.79-0.87-2.69c-0.14-0.43-0.41-0.74-0.78-0.99c-0.55-0.37-1.12-0.23-1.33,0.39c-0.13,0.4-0.18,0.84-0.26,1.26      c-0.09,0.5-0.19,1.01-0.26,1.51c-0.1,0.76-0.2,1.53-0.27,2.29c-0.08,0.77-0.11,1.54-0.19,2.31c-0.07,0.61-0.02,1.19,0.18,1.78      c0.16,0.45,0.18,0.93,0,1.39c-0.11,0.29-0.47,0.42-0.75,0.28c-0.04-0.02-0.09-0.03-0.11-0.06c-0.84-1.02-1.9-1.91-1.82-3.42      c0.02-0.3-0.06-0.61,0-0.9c0.24-1.13,0.05-1.13-0.48-2.38c-0.52-0.21-1.07-0.44-1.63-0.65c-0.16-0.06-0.33-0.1-0.5-0.11      c-1.03-0.06-2.05-0.1-3.08-0.18c-0.6-0.05-1.19-0.13-1.78-0.26c-0.45-0.1-0.67-0.4-0.63-0.85c0.07-0.68-0.05-1.37,0.27-2.02      c0.15-0.3,0.2-0.64,0.36-1.17c-1.65,0.22-2.79,0.68-3.5,1.93c-0.16,0.29-0.44,0.53-0.7,0.74c-1.1,0.91-1.52,2.18-1.73,3.5      c-0.24,1.49-0.15,3,0.46,4.42c0.07,0.16,0.13,0.33,0.14,0.49c0.13,1.41,1.05,2.41,1.81,3.5c0.07,0.1,0.15,0.22,0.25,0.29      c0.88,0.6,1.72,1.28,2.67,1.76c1.31,0.66,2.73,1.03,4.19,1.18c0.13,0.01,0.27,0.06,0.38,0.02c1.11-0.34,2.3-0.22,3.41-0.59      c0.93-0.31,1.91-0.48,2.88-0.66c1.6-0.29,3.22-0.5,4.71-1.19c0.78-0.36,1.53-0.73,2.38-0.94c0.57-0.14,1.07-0.52,1.6-0.79      c0.76-0.39,1.52-0.79,2.28-1.18c0.11-0.06,0.22-0.15,0.34-0.19c1.09-0.37,2.19-0.72,3.29-1.09c0.39-0.13,0.74-0.1,1.13,0.03      c0.89,0.3,1.81,0.53,2.71,0.82c0.33,0.11,0.65,0.2,1,0.1c0.48-0.15,1.06,0,1.45-0.44c0.51-0.58,1.02-1.16,1.17-1.96      c0.14-0.76,0.32-1.51,0.5-2.26c0.04-0.17,0.1-0.33,0.19-0.48c0.29-0.51,0.35-1.04,0.29-1.62c-0.05-0.46-0.06-0.96,0.05-1.4      c0.35-1.34,0.1-2.65-0.16-3.96c-0.2-1.01-0.51-1.98-1.11-2.85c-0.35-0.51-0.73-0.97-1.27-1.24c-0.53-0.27-1.11-0.48-1.68-0.64      c-0.77-0.22-1.49-0.11-2.23,0.28c-1,0.51-1.95,1.07-2.86,1.72c-0.28,0.2-0.57,0.41-0.89,0.51c-0.81,0.24-1.44,0.77-2.09,1.25      c-0.7,0.51-0.77,1.01-0.18,1.6C270.65,68.72,271.41,69.51,272.46,69.87z M278.27,76.21c-0.07-1.19-0.38-2.38-0.01-3.58      c0.05-0.16,0.06-0.34,0.04-0.51c-0.15-1.14-0.24-2.29-0.41-3.43c-0.19-1.27-0.72-2.46-1.58-3.46c-0.18-0.22-0.26-0.45-0.08-0.7      c0.19-0.27,0.51-0.38,0.79-0.28c0.12,0.04,0.25,0.08,0.35,0.17c0.54,0.48,1.08,0.97,1.64,1.47c0.37,0.87,0.74,1.73,1.1,2.6      c0.06,0.16,0.1,0.33,0.1,0.5c0.04,0.9,0.08,1.8,0.07,2.7c0,0.47-0.04,0.96-0.19,1.39c-0.27,0.78-0.47,1.55-0.5,2.38      c-0.02,0.45-0.27,0.8-0.66,1.04C278.63,76.69,278.29,76.56,278.27,76.21z M246.38,71.86c-0.23,1.22,0.06,2.35,0.35,3.53      c0.3,1.23,0.83,2.3,1.38,3.42c0.59,1.21,1.41,2.12,2.52,2.83c0.25,0.16,0.47,0.36,0.69,0.53c0.08,0.24,0.17,0.43,0.21,0.64      c0.06,0.36-0.35,0.75-0.64,0.58c-0.74-0.42-1.63-0.53-2.28-1.13c-0.5-0.46-1.02-0.91-1.53-1.37c-0.13-0.11-0.29-0.23-0.34-0.37      c-0.27-0.84-0.9-1.46-1.32-2.19c-0.21-0.37-0.4-0.76-0.5-1.17c-0.19-0.79-0.37-1.59-0.42-2.4c-0.07-1.17,0.12-2.31,0.74-3.33      c0.3-0.49,0.59-0.64,0.92-0.47C246.54,71.17,246.44,71.53,246.38,71.86z M255.02,81.58c0.06,0.08,0.06,0.29,0,0.35      c-0.11,0.11-0.32,0.23-0.42,0.19c-1-0.38-2.06-0.69-2.72-1.6c-0.44-0.6-0.97-1.08-1.51-1.57c-0.32-0.28-0.63-0.58-0.87-0.8      c-0.29-0.59-0.49-1.12-0.79-1.58c-0.59-0.89-0.72-1.92-0.9-2.92c-0.04-0.23,0.09-0.44,0.33-0.47c0.15-0.02,0.33,0.05,0.45,0.15      c0.13,0.1,0.2,0.27,0.28,0.42c0.25,0.45,0.47,0.91,0.73,1.35c0.4,0.66,0.94,1.22,1.19,1.98c0.06,0.19,0.26,0.33,0.41,0.48      c0.5,0.52,1.13,0.97,1.48,1.58c0.43,0.75,1,1.25,1.71,1.68C254.64,80.98,254.83,81.3,255.02,81.58z"/>
			</g>
		</g>
		<g>
			<g>
				<path class="st0" d="M248.38,38.39c0.14-0.4,0.19-0.84,0.23-1.27c0.1-1.07,0.22-2.12,0.85-3.05c0.16-0.23,0.17-0.57,0.23-0.86      c0.2-0.86,0.59-1.6,1.24-2.2c0.28-0.25,0.59-0.37,0.94-0.23c0.35,0.14,0.51,0.45,0.54,0.81c0.01,0.13-0.01,0.26-0.02,0.38      c-0.09,0.94-0.22,1.87-0.27,2.81c-0.06,0.98-0.18,1.98-0.04,2.94c0.17,1.13,0.52,2.26,0.93,3.33c0.39,1.03,1,1.98,1.43,3      c0.32,0.76,0.72,1.45,1.2,2.12c0.18,0.24,0.38,0.48,0.48,0.76c0.51,1.37,1.5,2.48,2.1,3.82c0.48,1.06,0.9,2.13,1.18,3.25      c0.05,0.19,0.01,0.43-0.05,0.63c-0.03,0.1-0.17,0.25-0.25,0.25c-0.15,0-0.39-0.08-0.42-0.18c-0.3-0.97-1.03-1.68-1.5-2.54      c-0.22-0.41-0.64-0.73-0.79-1.16c-0.26-0.7-0.68-1.29-1.08-1.89c-0.14-0.21-0.33-0.42-0.4-0.66c-0.21-0.77-0.7-1.37-1.14-2.01      c-0.22-0.32-0.49-0.62-0.62-0.98c-0.27-0.79-0.79-1.42-1.22-2.11c-0.23-0.36-0.44-0.74-0.56-1.14      c-0.32-1.02-0.59-2.06-0.89-3.08c-0.02-0.08-0.08-0.15-0.12-0.22c-0.08-0.14-0.36-0.19-0.45-0.06      c-0.14,0.21-0.32,0.43-0.36,0.67c-0.11,0.63-0.16,1.27-0.23,1.91c-0.03,0.24-0.05,0.48-0.07,0.77c-0.2-0.05-0.36-0.04-0.42-0.11      c-0.14-0.15-0.3-0.34-0.34-0.53C248.3,40.51,248,39.47,248.38,38.39z"/>
			</g>
		</g>
		<g>
			<g>
				<path class="st0" d="M274.93,61.08c-0.27,0.2-0.61,0.3-0.92,0.44c-0.62,0.29-1.24,0.57-1.86,0.88c-0.54,0.26-1.05,0.57-1.6,0.81      c-1.36,0.62-2.73,1.22-4.1,1.83c-0.19,0.09-0.4,0.17-0.6,0.21c-0.8,0.16-1.6,0.31-2.4,0.45c-0.4,0.07-0.76-0.07-1.08-0.32      c-0.23-0.17-0.21-0.53,0.03-0.64c0.04-0.02,0.07-0.05,0.11-0.06c1.32-0.38,2.64-0.75,3.81-1.51c0.07-0.05,0.16-0.06,0.24-0.08      c1.36-0.32,2.47-1.16,3.69-1.78c0.53-0.27,1.03-0.6,1.6-0.8c0.48-0.17,0.95-0.39,1.41-0.62c1-0.49,1.97-1.02,2.98-1.48      c0.97-0.44,1.97-0.82,2.96-1.23c0.83-0.34,1.67-0.66,2.6-0.65c0.25,0,0.49-0.14,0.75-0.18c1.55-0.26,3.09-0.76,4.7-0.28      c0.32,0.09,0.68,0.01,1.02,0.04c0.28,0.02,0.56,0.09,0.85,0.13c0.02,0.09,0.05,0.18,0.07,0.26c-0.17,0.12-0.32,0.3-0.5,0.33      c-0.46,0.1-0.95,0.25-1.39,0.16c-1.15-0.21-2.22,0.06-3.29,0.37c-0.74,0.21-1.51,0.34-2.19,0.73c-1-0.08-1.81,0.43-2.66,0.83      C277.72,59.59,276.23,60.15,274.93,61.08z"/>
			</g>
		</g>
		<g>
			<g>
				<path class="st0" d="M258.77,58.84c0.08,0.7-0.49,1.16-1.23,1.09c-0.83-0.07-1.45-0.5-1.97-1.1c-0.2-0.23-0.35-0.49-0.52-0.73      c-0.04,0.03-0.08,0.05-0.12,0.08c-0.34-0.59-0.71-1.16-1.01-1.77c-0.29-0.59-0.08-1.45,0.38-1.9c0.36-0.34,0.75-0.4,1.15-0.11      c0.59,0.43,1.13,0.92,1.72,1.34C258.26,56.5,258.63,57.62,258.77,58.84z"/>
			</g>
		</g>
		<g>
			<g>
				<path class="st0" d="M265.55,58.38c0.38-0.01,0.77,0.03,1.13,0.13c0.56,0.14,0.71,0.55,0.47,1.09      c-0.14,0.32-0.33,0.58-0.68,0.72c-0.32,0.12-0.64,0.26-0.91,0.46c-0.76,0.58-1.73,0.69-2.56,1.13      c-0.25,0.13-0.58,0.12-0.88,0.12c-0.53,0-1-0.19-1.37-0.59c-0.25-0.27-0.26-0.68,0.01-0.92c0.32-0.28,0.67-0.53,1.01-0.79      C262.86,58.8,264.14,58.41,265.55,58.38z"/>
			</g>
		</g>
		<g>
			<g>
				<path class="st0" d="M259.63,64.38c0.14,0.92-0.21,1.68-0.78,2.36c-0.52,0.62-1.11,1.18-1.51,1.9      c-0.12,0.21-0.35,0.37-0.55,0.52c-0.27,0.2-0.56,0.16-0.83-0.04c-0.25-0.19-0.43-0.41-0.44-0.74c-0.02-0.66,0.13-1.26,0.5-1.83      c0.42-0.65,0.79-1.32,1.2-1.97c0.18-0.29,0.4-0.55,0.58-0.8c0.31-0.09,0.55-0.19,0.79-0.23      C259.21,63.46,259.53,63.74,259.63,64.38z"/>
			</g>
		</g>
		<g>
			<g>
				<path class="st0" d="M255.41,63.85c-0.77,0.39-1.64,0.71-2.56,0.7c-0.26,0-0.52,0.03-0.77-0.01c-0.55-0.09-0.77-0.54-0.56-1.05      c0.27-0.67,0.77-1.12,1.37-1.47c0.22-0.15,0.42-0.32,0.64-0.44c0.97-0.53,1.99-0.77,3.09-0.42c0.51,0.16,0.76,0.71,0.43,1.11      C256.55,62.85,256.06,63.53,255.41,63.85z"/>
			</g>
		</g>
		<g>
			<g>
				<path class="st0" d="M263.26,56.73c-0.07,0.05-0.37,0.3-0.7,0.48c-0.41,0.22-0.89-0.02-0.98-0.49      c-0.04-0.24-0.04-0.54,0.07-0.74c0.5-0.89,1.06-1.74,1.57-2.62c0.5-0.86,1.38-1.09,2.23-1.36c0.26-0.08,0.51,0.08,0.62,0.34      c0.2,0.46,0.18,0.92-0.11,1.34c-0.31,0.46-0.7,0.87-0.96,1.35C264.65,55.7,264.17,56.21,263.26,56.73z"/>
			</g>
		</g>
		<g>
			<g>
				<path class="st0" d="M239.44,76.69c-0.07,0.13-0.36,0.11-0.44-0.02c-0.3-0.5-0.43-1.03-0.29-1.6c0.21-0.83,0.38-1.67,0.69-2.46      c0.34-0.89,0.98-1.6,1.65-2.26c0.2-0.19,0.52-0.29,0.79-0.37c0.13-0.04,0.3,0.06,0.53,0.12c-0.17,0.64-0.35,1.2-0.65,1.72      c-0.82,1.41-1.45,2.9-2.06,4.41C239.59,76.38,239.52,76.54,239.44,76.69z"/>
			</g>
		</g>
	</g>
</g>
</svg>