<?xml version="1.0" encoding="utf-8"?>
<!-- Generator: Adobe Illustrator 26.5.0, SVG Export Plug-In . SVG Version: 6.00 Build 0)  -->
<svg version="1.1" id="Layer_1" xmlns="http://www.w3.org/2000/svg" xmlns:xlink="http://www.w3.org/1999/xlink" x="0px" y="0px"
	 viewBox="0 0 720 720" style="enable-background:new 0 0 720 720;" xml:space="preserve">
<style type="text/css">
	.st0{fill:#5CC6CD;}
</style>
<g>
	<g>
		<path class="st0" d="M197.91,116.19c3.34-0.03,6.67-0.63,10-0.9c4.43-0.36,8.86-0.65,13.29-0.95c4.68-0.32,9.36-0.57,14.04-0.91
			c5.75-0.42,11.49-0.92,17.24-1.38c1.92-0.15,3.85-0.23,5.77-0.44c3.17-0.34,6.33-0.92,9.51-1.09c4.86-0.26,9.91,0.52,14.54-0.58
			c5.63-1.34,11.04-0.58,16.53-0.31c4.97,0.24,7.8,3,8.04,8c0.52,11.21,1.05,22.44,0.94,33.66c-0.09,8.97-0.55,17.91-0.01,26.9
			c0.37,6.16-0.46,12.39-0.48,18.59c-0.02,6.03,0.43,12.06,0.45,18.09c0.01,3.17-0.66,6.33-0.64,9.5c0.02,3.85,0.63,7.69,0.64,11.54
			c0.01,10.82-0.21,21.64-0.27,32.46c-0.06,10.74,0.04,21.48-0.11,32.22c-0.02,1.58-0.7,3.35-1.59,4.68
			c-2.06,3.04-4.82,5.31-8.41,6.54c-4.52,1.55-9.01,3.19-13.45,4.95c-8.9,3.52-17.8,7.04-26.62,10.76
			c-4.17,1.76-8.61,3.4-12.08,6.15c-3.17,2.51-5.51,6.26-7.64,9.81c-2.01,3.36-3.23,7.19-4.87,10.79
			c-4.45,9.76-8.96,19.49-13.39,29.26c-1.4,3.1-0.06,6.85,2.86,8.48c2.27,1.27,4.56,2.51,6.84,3.75c5.41,2.93,11.2,0.61,13.16-5.22
			c0.42-1.26,1.02-2.49,1.71-3.63c4.71-7.75,10.15-15.14,13.97-23.3c2.74-5.86,7.02-8.18,12.46-9.79c0.8-0.24,1.66-0.3,2.46-0.55
			c6.46-2.04,12.97-3.95,19.36-6.21c3.97-1.41,7.81-1.99,11.77-0.32c5.93,2.5,6.7,8,1.77,12.07c-1.28,1.05-2.35,2.37-3.42,3.66
			c-1.81,2.19-3.4,4.58-5.33,6.66c-1.99,2.15-4.35,3.97-6.41,6.06c-5.89,5.99-11.83,11.92-17.51,18.1
			c-5.45,5.92-4.42,9.12,0.3,12.98c2.85,2.33,3.83,5.09,3.35,8.42c-0.47,3.23-1.09,6.49-2.13,9.57c-1.83,5.45-4.03,10.79-6.09,16.16
			c-0.21,0.54-0.64,1.01-0.82,1.56c-1.27,3.78-2.6,7.55-3.67,11.4c-0.26,0.92,0.03,2.46,0.68,3.08c2.33,2.21,4.72,4.49,7.48,6.08
			c2.14,1.24,5.23-0.41,6.25-2.79c2.32-5.39,4.66-10.78,6.76-16.26c1.11-2.88,1.5-6.05,2.67-8.91c2.74-6.69,9.85-7.66,14.76-2.27
			c1.74,1.91,3.59,3.84,5.73,5.24c3.34,2.19,5.2,5.26,6.15,8.91c2.64,10.14,3.26,20.54,3.49,30.96c0.11,5.05,3.28,7.31,8.1,5.76
			c2.31-0.75,4.66-1.41,7.04-1.91c4.04-0.86,4.87-1.92,4.45-6.09c-0.77-7.59-1.52-15.18-2.28-22.77
			c-0.58-5.76-0.99-11.55-1.83-17.27c-0.34-2.34-1.19-4.84-2.55-6.74c-3.89-5.44-8.12-10.64-12.28-15.89
			c-3.32-4.18-2.68-8.7,1.84-11.63c1.76-1.14,3.68-2.04,5.39-3.25c3.7-2.61,7.24-5.46,10.99-7.99c6.12-4.13,12.29-8.17,18.57-12.06
			c3.46-2.14,7.52-3.24,11.31-1.53c3.45,1.55,6.71,3.83,9.55,6.36c3.81,3.39,3.79,8.47,0.65,12.5c-1.39,1.79-2.64,3.68-3.96,5.53
			c-5.7,7.98-11.32,16.01-17.14,23.89c-1.35,1.83-2.3,3.58-1.68,5.76c0.63,2.23,1.39,4.46,2.4,6.54c1.03,2.1,2.57,3.95,3.65,6.03
			c3.51,6.76,6.86,13.6,10.38,20.36c1.38,2.66,3.45,3.36,6.39,2.47c1.93-0.59,3.81-1.36,5.76-1.86c4.93-1.27,6.44-3.42,6.03-8.55
			c-0.39-4.86-0.78-9.72-0.92-14.58c-0.16-5.1-0.08-10.21,0-15.31c0.04-3.17,1.86-5.51,4.98-6.14c2.03-0.41,4.16-0.4,6.25-0.42
			c2.93-0.03,5.85,0.06,8.78,0.14c4.16,0.11,8.44-0.29,12.46,0.53c4.71,0.96,6.52,4.23,5.64,8.61c-1.02,5.11-2.22,10.18-3.4,15.26
			c-2.32,9.97-4.72,19.93-7,29.91c-0.77,3.38,0.24,6.11,3.04,6.92c3.74,1.08,7.66,1.68,11.55,2.03c1.21,0.11,3.21-0.93,3.72-1.99
			c2.03-4.21,3.66-8.62,5.35-12.99c0.54-1.4,0.7-2.95,1.24-4.36c2.23-5.77,4.58-11.49,6.83-17.26c3.94-10.08,8.24-20.05,11.63-30.32
			c2.71-8.21,1.39-14.04-5.76-19.69c-6.84-5.4-13.67-10.82-20.51-16.22c-4.2-3.32-8.47-6.56-12.6-9.97
			c-2.71-2.24-5.56-4.43-7.74-7.14c-5.51-6.85-0.46-12.7,5.6-13.56c4.12-0.58,8.58,0.02,12.69,0.97c5.85,1.34,11.51,3.49,17.25,5.29
			c3.77,1.18,7.64,2.11,11.29,3.6c2.35,0.96,4.76,2.35,6.47,4.18c3.16,3.35,5.97,7.06,8.66,10.81c4.95,6.88,9.67,13.93,14.58,20.85
			c3.45,4.87,8.15,5.43,12.95,1.74c1.26-0.97,2.55-1.91,3.91-2.73c3.04-1.82,3.61-4.04,1.96-7.21c-1.82-3.49-3.45-7.08-5.22-10.6
			c-4.26-8.45-8.57-16.88-12.84-25.33c-1.06-2.09-2.24-4.15-3.06-6.33c-2.12-5.67-5.94-10-11.36-12.22
			c-9.21-3.77-18.72-6.84-28.09-10.22c-2.52-0.91-5.01-1.92-7.55-2.81c-4.28-1.5-8.49-3.28-12.88-4.33
			c-8.56-2.05-14.73-9.61-14.69-18.41c0.04-7.63-0.11-15.27-0.16-22.9c-0.01-0.84,0.07-1.68,0.1-2.52
			c0.18-5.12,0.53-10.25,0.49-15.37c-0.07-8.27-0.49-16.53-0.58-24.79c-0.07-6.46,0.04-12.92,0.24-19.38
			c0.12-3.84,0.84-7.67,0.8-11.49c-0.09-8.79-0.64-17.58-0.72-26.37c-0.1-10.32,0.12-20.64,0.16-30.96
			c0.01-2.43-0.24-4.85-0.22-7.28c0.03-3.94,0.54-7.91,0.23-11.82c-0.76-9.51,3.35-14.29,12.86-13.4c4.96,0.47,9.95,0,14.92,0.27
			c6.92,0.38,13.7,1.28,20.58,1.76c12.46,0.87,24.91,1.81,37.37,2.78c4.83,0.38,9.65,1.17,14.48,1.27
			c4.48,0.09,9.03-0.16,13.46-0.87c2.78-0.45,4.41-3.33,3.84-5.7c-0.7-2.93-1.6-5.82-2.63-8.66c-0.92-2.52-2.25-4.89-3.18-7.41
			c-4.1-11.09-7.98-22.26-12.2-33.31c-4.07-10.66-8.42-21.22-12.7-31.8c-1.74-4.29-4.2-7.41-9.59-7.39
			c-12.07,0.06-24.14-0.33-36.21-0.4c-7.05-0.04-14.1,0.28-21.14,0.25c-8.98-0.04-17.96-0.4-26.94-0.38
			c-8.82,0.02-17.64,0.5-26.46,0.46c-6.72-0.03-13.43-0.76-20.15-0.79c-9.41-0.04-18.81,0.33-28.22,0.45
			c-5.63,0.07-11.25-0.04-16.88,0.02c-3.53,0.04-7.05,0.38-10.58,0.33c-7.28-0.09-14.56-0.48-21.84-0.47
			c-6.87,0.01-13.74,0.46-20.61,0.55c-8.1,0.1-16.2,0.02-24.3,0.02c0-0.11,0-0.22-0.01-0.33c-1.85,0-3.71-0.15-5.54,0.03
			c-3.71,0.36-7,1.83-8.65,5.3c-2.96,6.21-5.85,12.47-8.31,18.89c-4.26,11.13-8.06,22.44-12.26,33.6
			c-3.42,9.11-7.1,18.13-10.75,27.16C188.29,110.88,191.67,116.25,197.91,116.19z"/>
		<path class="st0" d="M468.46,585.19c2.36-0.82,5.06-0.88,7.23-2.01c7.49-3.9,14.36-8.64,19.3-15.76
			c3.81-5.49,5.66-11.78,4.98-18.13c-1.13-10.55-4.28-20.44-10.83-29.36c-6.92-9.42-16.54-11.91-28.5-13.82
			c-4.51,0.93-10.49,1.84-16.27,3.48c-4.24,1.2-8.37,3.06-12.24,5.19c-4.08,2.24-7.97,4.92-11.64,7.8
			c-6.14,4.84-11.38,10.78-11.7,18.86c-0.25,6.36,0.76,12.93,2.27,19.15c1.19,4.89,3.63,9.6,6.14,14.03
			c3.64,6.41,8.62,11.71,16.03,13.78c8.63,2.41,17.41,2.52,26.11,0.36C462.47,587.98,465.37,586.26,468.46,585.19z M446.91,562.41
			c-3.18-4.13-5.7-8.51-6.83-13.6c-1.06-4.78-0.35-9.39,2.41-13.48c4.69-6.95,16.3-6.71,20.18,0.67c2.58,4.91,4.76,10.2,6.03,15.58
			c1.86,7.86-4.88,15.3-13.55,15.28C451.91,567.03,449.23,565.41,446.91,562.41z"/>
		<path class="st0" d="M564.84,454.75c-8.36-5.4-18.07-5.39-27.15-1.81c-5.54,2.19-10.91,5.53-15.41,9.43
			c-6.23,5.4-12.38,11.25-17.1,17.94c-7.33,10.4-8.17,22.1-2.06,33.58c4.13,7.76,10.27,13.97,16.89,19.74
			c5.37,4.68,11.98,5.7,18.49,6.45c4.01,0.46,8.41-0.4,12.33-1.65c3.93-1.25,7.49-3.69,11.19-5.65c0.73-0.39,1.44-0.91,2.01-1.51
			c6.52-6.88,13.26-13.59,19.44-20.77c4.2-4.88,6.03-10.99,6.4-18.83c-0.47-2.51-0.65-6.48-1.97-10.03
			C583.53,469.93,575.03,461.33,564.84,454.75z M547.58,512.09c-4.6,0.1-7.75-3-10.88-6.09c-1.19-1.18-2.09-2.7-3.38-3.73
			c-4.29-3.44-5.63-8.04-5.33-13.23c0.1-1.7,0.55-3.54,1.39-5.01c2.85-4.99,10.6-7.05,15.77-4.63c6.94,3.25,11.22,9.14,14.55,15.51
			C563.82,502.76,557.01,512.22,547.58,512.09z"/>
		<path class="st0" d="M392,600.79c-2.74-6.12-5.66-12.15-8.52-18.21c-0.07-0.15-0.18-0.28-0.28-0.42
			c-2.97-4.53-2.86-4.91,1.45-8.03c1.9-1.37,3.72-2.88,5.41-4.51c0.87-0.84,1.75-2.01,1.97-3.15c1.24-6.37,3.22-12.59,1.81-19.35
			c-1.77-8.53-5.86-14.78-14.48-17.26c-3.27-0.94-6.9-0.71-10.07-1.85c-7.38-2.65-14.99-1.05-22.46-1.67
			c-7.66-0.64-15.41-0.14-23.12-0.14c0-0.08,0-0.15,0-0.23c-1.6,0-3.2-0.06-4.79,0.02c-2.19,0.11-3.45,1.36-3.52,3.52
			c-0.32,9.05-0.62,18.11-0.83,27.16c-0.15,6.7-0.03,13.4-0.24,20.09c-0.21,6.55-0.74,13.08-1.02,19.63
			c-0.18,4.32,1.76,6.02,6.09,6.12c5.78,0.13,11.57,0.42,17.34,0.81c4.48,0.3,6.58-1.52,6.61-6.01c0.03-4.2,0.13-8.39,0.23-12.59
			c0.05-2.11,0.72-3.77,3.11-4.23c3.62-0.7,5.27-0.16,6.41,2.35c2.26,4.96,4.51,9.92,6.72,14.9c1.68,3.79,4.24,6.01,8.67,6.03
			c6.96,0.03,13.91,0.39,20.87,0.59C392.1,604.43,393.09,603.25,392,600.79z M363.43,559.12c-0.64,2.82-3,3.77-5.59,3.77
			c-3.6,0-7.23-0.08-10.79-0.54c-1.01-0.13-2.63-1.74-2.61-2.64c0.07-3.57,0.39-7.2,1.17-10.69c0.63-2.81,3.35-2.58,6.7-2.7
			c2.1,0.45,5.22,1.09,8.32,1.79c0.55,0.13,1.18,0.38,1.56,0.78C365.09,551.97,364.23,555.62,363.43,559.12z"/>
		<path class="st0" d="M191.85,522.6c3.78-8.05,7.77-16.01,11.7-23.99c2.29-4.66,4.66-9.28,6.92-13.95
			c0.72-1.49,1.21-3.09,1.93-4.96c-0.83-1.35-1.4-2.9-2.47-3.94c-8.8-8.52-17.69-16.95-26.57-25.39c-1.94-1.84-4.18-2.09-6.49-0.75
			c-3.69,2.13-7.31,4.38-11.02,6.49c-10.5,5.97-21.02,11.89-31.54,17.82c-1.98,1.11-4.05,2.06-5.99,3.22
			c-4.53,2.71-8.97,5.58-13.53,8.23c-2.82,1.64-3.24,2.96-0.88,5.19c4.68,4.44,9.56,8.67,14.22,13.13c6.73,6.42,6.69,6.49,14.4,1.14
			c1.62-1.12,3.32-1.54,4.87-0.19c3.97,3.47,7.84,7.05,11.71,10.63c1.52,1.41,1.48,3.01,0.43,4.79c-1.07,1.8-2.01,3.69-2.83,5.61
			c-1.04,2.43-0.56,4.64,1.46,6.4c2.97,2.58,6,5.1,8.97,7.68c1.33,1.15,2.59,2.36,3.86,3.57c1.82,1.74,3.57,3.55,5.44,5.24
			c1.42,1.29,2.91,1.04,3.8-0.6c1.76-3.24,3.45-6.53,4.96-9.9C187.49,532.94,189.46,527.68,191.85,522.6z M182.3,480.79
			c-3.41,6.05-6.78,12.14-10.3,18.13c-0.56,0.95-1.86,1.46-2.42,1.88c-2.51-0.18-7.8-4.64-7.92-6.52c-0.06-1,0.43-2.47,1.19-3.03
			c5.8-4.28,11.72-8.39,17.64-12.51c0.4-0.28,1.38-0.41,1.57-0.19c0.35,0.42,0.32,1.16,0.41,1.77
			C182.49,480.47,182.38,480.64,182.3,480.79z"/>
		<path class="st0" d="M283.93,563.14c10.97-5.81,14.09-15.97,15.03-26.61c-0.03-4.39-0.35-8.18-3.1-10.82
			c-5.38-5.17-11-10.15-17.89-13.32c-5.17-2.37-10.44-4.54-15.67-6.78c-0.54-0.23-1.13-0.32-1.68-0.53
			c-4.22-1.57-8.46-3.07-12.63-4.74c-3.73-1.49-7.36-3.25-11.1-4.71c-2.87-1.12-4.27-0.27-5.34,2.73c-0.71,1.98-1.49,3.93-2.31,5.86
			c-1.9,4.48-3.91,8.92-5.76,13.43c-3.09,7.53-6.07,15.11-9.12,22.66c-2.79,6.92-5.7,13.79-8.39,20.75
			c-1.25,3.22-0.7,4.33,2.55,5.68c6.89,2.87,13.83,5.6,20.73,8.43c2.07,0.85,3.48,0.17,4.29-1.74c1.43-3.4,2.93-6.8,4.06-10.3
			c1.95-6.03,4.04-7.25,10.08-5.26c1.18,0.39,2.27,1.09,3.42,1.58c2.68,1.16,5.32,2.49,8.09,3.37c2.86,0.91,5.85,1.45,8.82,2
			C273.48,565.81,278.88,565.81,283.93,563.14z M267.27,540.64c-1.13,1.75-3.99,2.39-6.27,3.64c-4-1.62-7.63-2.87-11.01-4.6
			c-0.8-0.41-1.37-2.6-1.03-3.64c1.04-3.18,2.39-6.29,4.03-9.2c0.5-0.89,2.44-1.63,3.53-1.43c4.56,0.83,8.2,3.48,10.93,7.13
			C269.36,535.09,268.72,538.39,267.27,540.64z"/>
		<path class="st0" d="M350.85,664.87c1.54-8.08-3.85-13.16-8.16-18.59c-2.34-2.95-5.7-4.64-9.6-4.99c-0.9-0.08-1.76-0.54-2.66-0.77
			c-6.09-1.51-12.12-3.51-18.57-2.26c-1.47,0.28-3.01,0.26-4.51,0.38c-9.98-0.36-16.83,1.6-25.11,7.27
			c-1.71,1.17-3.9,2.34-4.68,4.06c-2.6,5.68-5.7,11.32-4.96,17.98c0.32,2.84,0.71,5.69,0.68,8.53c-0.1,9.01,5.7,14.55,12.3,18.58
			c7.18,4.39,15.89,4.76,24.18,4.98c6.15,0.16,12.35-0.77,18.5-1.42c7.35-0.78,13.13-4.7,17.67-10.21
			c4.87-5.92,6.67-12.87,5.12-20.53C350.85,666.89,350.67,665.83,350.85,664.87z M321.43,676.07c-0.4,3.42-4.19,6.74-7.62,6.93
			c-1.34,0.08-2.69,0.07-4.02,0c-4.57-0.27-7.27-2.93-7.55-7.49c-0.1-1.59-0.02-3.19-0.02-4.78c-0.19-0.03-0.37-0.06-0.56-0.09
			c0.67-3.69,1.33-7.38,2.04-11.07c0.12-0.64,0.39-1.3,0.75-1.85c2.57-3.93,12.69-3.93,14.73,0.24c1.4,2.86,2.19,6.16,2.6,9.34
			C322.14,670.17,321.77,673.17,321.43,676.07z"/>
		<path class="st0" d="M435.4,647.81c-2.72-2.23-5.9-4.17-9.2-5.37c-4.3-1.57-8.88-3.02-13.39-3.2
			c-11.13-0.45-22.29-0.15-33.44-0.15c0,0.13,0,0.25-0.01,0.38c-1.35,0-2.69-0.01-4.04,0c-4.36,0.04-4.83,0.46-4.84,4.74
			c-0.01,5.85,0.06,11.69,0.06,17.54c0,6.96-0.01,13.93-0.06,20.89c-0.01,1.5-0.27,3-0.35,4.51c-0.13,2.5-0.44,5.01-0.27,7.49
			c0.23,3.28,1.54,4.37,4.85,4.57c1.08,0.06,2.18-0.1,3.27-0.14c6.38-0.23,12.76-0.51,19.14-0.66c5.5-0.13,11.01,0.02,16.5-0.23
			c2.4-0.11,4.8-1.46,7.14-1.32c8.2,0.49,20.04-10.66,21.26-19.45c0.77-5.55,0.35-10.8-0.43-16.23
			C440.86,656,439.48,651.16,435.4,647.81z M412.75,678.59c-0.3,1.1-1.57,2.29-2.69,2.75c-2.29,0.95-4.76,1.43-7.16,2.1
			c-4.7-0.37-6.08-1.49-6.01-6.17c0.07-4.85,0.68-9.69,0.99-14.53c0.1-1.58,0.05-3.18-0.03-4.77c-0.1-2.15,0.93-3.16,3.01-3.07
			c2.35,0.09,4.76,0,7.01,0.55c1.48,0.36,3.35,1.39,3.95,2.65c1.41,2.98,2.91,6.24,3,9.43C414.93,671.2,413.73,674.96,412.75,678.59
			z"/>
		<path class="st0" d="M250.24,668.54c-4.82-2.64-9.77-5.12-15.58-5.21c-3.92-0.06-7.84-0.64-11.72-1.25
			c-2.64-0.42-5.28-1.11-7.79-2.04c-2.74-1.01-3.35-4.03-1.44-5.89c3.17-3.1,9.89-2.38,12.53,1.2c0.67,0.91,1.94,1.99,2.91,1.97
			c7.6-0.18,15.22,1.63,22.78-0.13c1.01-0.24,2.33-1.19,2.63-2.1c0.92-2.83-1.96-10.29-4.58-11.71c-4.8-2.6-9.71-5.03-15.38-5.15
			c-5.28-0.11-10.57-0.12-15.82-0.55c-9.16-0.76-17.84,0.7-26.28,4.37c-8.19,3.57-12.28,15.88-6.93,23.11
			c3.91,5.28,9.58,8.28,16.29,9.04c6.98,0.79,13.96,1.67,20.92,2.57c0.8,0.1,1.63,0.5,2.3,0.96c2.23,1.55,2.21,4.91,0.02,6.47
			c-2.89,2.06-10.49,0.82-12.89-1.78c-1.09-1.18-2.82-2.41-4.31-2.48c-6.03-0.28-12.07-0.12-18.11-0.12c-7.06,0.2-7.06,0.2-5.6,6.87
			c1.42,6.48,6.1,10.72,12.67,11.54c1.83,0.23,3.64,0.7,5.47,0.87c5.9,0.54,11.81,1.33,17.71,1.37c5.94,0.04,11.89-0.94,17.84-1.04
			c5.34-0.09,9.34-2.98,13.54-5.54c0.73-0.44,1.43-1.35,1.64-2.16c1.04-4.13,2.54-8.28,2.66-12.45
			C255.84,675.07,254.26,670.74,250.24,668.54z"/>
		<path class="st0" d="M136.8,425.09c2.72,4.91,5.43,9.83,8.34,14.63c1.68,2.78,3.08,2.82,5.38,0.5c3.24-3.27,6.42-6.62,9.66-9.9
			c1.34-1.36,1.32-2.68,0.46-4.32c-2.34-4.44-4.58-8.94-6.81-13.44c-2.83-5.71-5.51-11.5-8.45-17.15
			c-4.57-8.76-9.27-17.46-14.05-26.11c-0.72-1.3-2.16-2.21-2.74-2.77c-5.81,0.98-10.63,1.62-15.37,2.65
			c-3.29,0.71-3.75,2.27-2.18,5.35c2.4,4.71,4.79,9.42,7.09,14.18c1.05,2.17,0.45,3.85-1.79,4.99c-2.84,1.44-5.61,3.04-8.42,4.56
			c-11.3,6.1-22.59,12.23-33.91,18.28c-2.08,1.11-2.5,2.43-1.44,4.5c3.62,7.07,7.16,14.19,10.75,21.28c1.98,3.9,3.38,4.48,7.37,2.6
			c4.91-2.32,9.76-4.76,14.55-7.31c8.73-4.64,17.4-9.41,26.09-14.12C134.12,421.96,135.29,422.36,136.8,425.09z"/>
		<path class="st0" d="M646.47,416.23c-3.7-2.14-7.43-4.23-11.23-6.18c-5.2-2.67-10.53-5.07-15.7-7.79
			c-5.34-2.81-10.52-5.92-15.81-8.82c-2.74-1.5-3.17-2.55-1.83-5.47c2.35-5.09,4.71-10.18,7.06-15.27c0.62-1.34,1-2.83-0.87-3.26
			c-5.07-1.17-10.19-2.12-15.29-3.15c-2.65-0.07-4.11,1.49-5.17,3.54c-3.57,6.94-7.11,13.89-10.64,20.84
			c-0.91,1.79-1.66,3.68-2.65,5.42c-2.15,3.77-4.63,7.37-6.57,11.25c-3.01,6.01-5.65,12.19-8.51,18.28
			c-0.96,2.05-0.61,3.55,1.12,5.11c3.47,3.14,6.77,6.48,10.1,9.78c1.56,1.55,2.86,1.21,3.88-0.5c1.03-1.73,1.87-3.58,2.84-5.34
			c1.87-3.37,4.02-6.62,5.62-10.11c1.49-3.24,2.58-3.75,5.69-1.84c3.29,2.02,6.62,3.97,10,5.82c2.93,1.6,5.97,2.99,8.95,4.52
			c4.4,2.26,8.77,4.6,13.19,6.84c3.21,1.63,6.52,3.07,9.69,4.79c2.76,1.5,4.49,1,5.83-1.88c1.17-2.51,2.5-4.94,3.75-7.4
			c2.51-4.93,5.03-9.85,7.54-14.78C648.33,418.89,648.25,417.26,646.47,416.23z"/>
		<path class="st0" d="M534.41,692.22c-3.03-8.44-6.09-16.88-9.09-25.33c-0.39-1.1-0.52-2.28-0.8-3.42
			c-0.53-2.19-0.91-4.45-1.66-6.56c-1.29-3.62-2.84-7.15-4.24-10.74c-0.64-1.64-1.15-3.34-1.77-4.99c-0.71-1.9-2.09-2.59-4.13-2.56
			c-11.74,0.19-23.47,0.31-35.21,0.39c-2.37,0.02-3.51,1.05-3.91,3.34c-0.33,1.89-0.85,3.76-1.48,5.57
			c-1.77,5.06-3.73,10.07-5.46,15.14c-1.24,3.64-2.21,7.38-3.36,11.06c-2.16,6.87-4.37,13.73-6.57,20.59
			c-0.71,2.22,0.13,3.42,2.39,3.65c1.84,0.19,3.68,0.39,5.52,0.43c5.77,0.14,11.54,0.32,17.31,0.21c1.13-0.02,2.56-1.08,3.25-2.08
			c0.7-1.02,0.84-2.54,0.92-3.86c0.18-2.75,1.62-3.54,4.2-3.37c3.09,0.21,6.2,0.28,9.29,0.18c4.3-0.13,4.91,0.15,5.85,4.4
			c0.57,2.57,1.88,4.05,4.57,4.17c3.59,0.16,7.17,0.31,12.51,0.55c1.77-0.13,5.28-0.48,8.81-0.63c3.6-0.15,4.27-0.87,3.56-4.44
			C534.77,693.35,534.61,692.78,534.41,692.22z M498.14,675.88c-0.81,0.4-1.97,0.08-2.98,0.08c-4.78,0.26-5.28-0.48-4-5.1
			c1.07-3.85,1.83-7.79,2.88-11.65c0.23-0.83,1.09-1.49,1.66-2.22c0.68,0.66,1.8,1.22,1.97,1.99c1.06,4.81,2.01,9.65,2.7,14.52
			C500.46,674.2,499.08,675.4,498.14,675.88z"/>
	</g>
	<g>
		<path class="st0" d="M515.6,206.18c-0.76-4.17-5.07-8.35-8.57-8.57c-4.17-0.27-8.36-0.29-12.53-0.59
			c-2.54-0.19-3.34,0.71-3.32,3.27c0.1,15.46,0.12,30.93-0.02,46.39c-0.03,2.77,0.92,3.83,3.52,3.75c0.76-0.02,1.68,0.26,2.23-0.08
			c0.75-0.46,1.71-1.37,1.73-2.1c0.1-4.75-0.07-9.5-0.07-14.24c0-1.49,0.01-3.04,0.41-4.44c0.2-0.69,1.21-1.43,1.99-1.62
			c1.11-0.28,2.34-0.14,3.51-0.08c1.91,0.11,3.21,1.06,3.43,3.03c0.27,2.4,0.45,4.82,0.55,7.23c0.12,3.07,0.07,6.15,0.18,9.23
			c0.12,3.13,2.34,3.08,4.67,3.13c2.44,0.06,2.44-1.41,2.42-3.13c-0.03-3.18-0.07-6.37,0.01-9.55c0.1-4.5-0.31-8.78-4.83-11.84
			C517.44,220.29,516.89,213.27,515.6,206.18z M506.13,220.39c-1.57,2.37-3.93,2.33-6.24,2.2c-0.55-0.03-1.39-1.38-1.46-2.18
			c-0.14-1.76-0.11-3.52-0.09-5.28c0.05-3.6,0.03-7.14,0.45-10.75c0.22-1.9,1.48-2.43,3.31-1.9c2.7,0.78,4.5,2.28,5.25,5.15
			C508.53,212.07,508.83,216.32,506.13,220.39z"/>
		<path class="st0" d="M126.88,235.58c0,1.01-0.14,2.04,0.03,3.02c1.13,6.86,2.36,11,9.84,12.03c6.89,0.94,12.74-1.23,13.47-9.45
			c0.63-7.1,0.41-14.28,0.45-21.43c0.02-3.92-0.25-7.84-0.27-11.76c-0.02-2.82,0.22-5.65,0.24-8.47c0.01-1.87-0.99-2.67-2.91-2.5
			c-1.6,0.14-3.54-0.58-3.51,2.21c0.06,4.57,0.09,9.14,0,13.71c-0.12,6.16-0.38,12.32-0.53,18.48c-0.07,2.99,0.14,6.01-0.09,8.98
			c-0.16,2.08-1.17,4.2-3.53,4.28c-2.37,0.09-4.21-1.4-4.5-3.91c-0.31-2.62-0.36-5.29-0.34-7.93c0.03-5.5,0.23-11.01,0.25-16.51
			c0.01-4.43-0.53-8.89-0.12-13.27c0.57-6.07,0.83-5.95-5.25-6.07c-2.61-0.05-3.28,0.87-3.26,3.35
			C126.93,212.09,126.87,223.83,126.88,235.58z"/>
		<path class="st0" d="M235,197.04c-1.93,0.13-4.16-0.59-4.05,2.79c0.18,5.29,0.06,10.59,0.06,15.88c0,10.75,0,21.49-0.02,32.24
			c0,1.45,0.18,2.5,2.11,2.13c0.77-0.15,1.64,0.22,2.47,0.33c1.44,0.19,2.5-0.16,2.64-1.86c0.1-1.25,0.37-2.49,0.37-3.73
			c0.02-4.43-0.16-8.86-0.04-13.28c0.09-3.11,1.52-4.04,4.69-3.52c0.74,0.12,1.56,0.02,2.22,0.31c0.69,0.3,1.7,0.92,1.74,1.46
			c0.22,2.56,0.17,5.15,0.17,7.72c0.01,3.28-0.16,6.56,0.03,9.83c0.06,1.05,0.82,2.7,1.61,2.95c4.22,1.31,5.94-0.06,5.9-4.48
			c-0.06-6.36-0.31-12.71-0.38-19.07c-0.1-9.14,0.23-18.3,0.41-27.39c0.03-1.59-0.59-2.36-2.22-2.28c-0.84,0.04-1.69,0.07-2.52-0.01
			c-2.15-0.22-2.99,0.61-2.95,2.85c0.11,6.2,0.04,12.4,0.04,18.6c0,4.43-0.32,4.72-4.76,4.26c-0.42-0.04-0.83-0.21-1.24-0.21
			c-2.62-0.03-3.27-1.4-3.21-3.87c0.16-6.26-0.07-12.53,0.11-18.79C238.25,197.3,237.09,196.89,235,197.04z"/>
		<path class="st0" d="M209.64,198.74c-0.09-0.62-1.07-1.52-1.7-1.58c-2.22-0.22-4.49-0.29-6.71-0.06c-0.8,0.08-1.99,1.07-2.15,1.83
			c-0.74,3.51-1.2,7.08-1.73,10.63c-0.99,6.7-1.95,13.41-2.95,20.11c-0.9,6.02-1.82,12.04-2.77,18.05c-0.35,2.19,1.3,2.38,2.64,2.42
			c0.76,0.02,2.05-0.72,2.23-1.36c1.56-5.71,1.51-5.72,7.54-5.7c0.42,0,0.84,0.04,1.26,0c1.77-0.18,2.58,0.71,2.95,2.35
			c0.99,4.45,1.04,4.22,5.28,4.74c2.54,0.31,3.41-0.15,2.76-2.1c-0.08-1.34-0.08-2.1-0.18-2.84
			C213.98,229.74,211.86,214.23,209.64,198.74z M203.78,238.62c-5.46,0.05-5.37,0.23-4.61-5.2c0.98-7.05,1.79-14.13,2.7-21.19
			c0.07-0.56,0.31-2.11,1.17-1.99c0.81,0.12,0.8,3.11,0.91,3.81c0.24,1.6,0.48,3.2,0.69,4.81c0.68,5.39,1.22,10.79,1.97,16.16
			C206.94,237.41,206.62,238.59,203.78,238.62z"/>
		<path class="st0" d="M525.55,250.02c0.75,0.15,1.9-0.03,2.5-0.1c1.13-0.13,1.69-0.84,1.86-1.95c0.84-5.64,0.33-4.8,5.66-4.89
			c0.76-0.01,1.52,0.06,2.27-0.01c2.11-0.18,3.11,0.51,3.43,2.85c0.63,4.55,0.81,4.52,4.85,4.53c1.28-0.42,4.06,1.07,3.65-2.26
			c-0.83-6.81-1.85-13.61-2.82-20.4c-1.1-7.7-2.49-15.37-3.29-23.11c-0.81-7.85-1.01-8.32-8.98-7.57c-0.87,0.08-2.14,1.26-2.34,2.14
			c-0.77,3.24-1.19,6.57-1.72,9.87c-1.38,8.66-2.78,17.32-4.14,25.99c-0.42,2.66-0.83,5.31-1.24,7.97c-0.2,1.31-0.41,2.61-0.6,3.92
			c-0.12,0.8-0.33,2.26,0.42,2.83C525.19,249.92,525.35,249.98,525.55,250.02z M532.13,233.92c0.84-7.73,2.06-15.41,3.15-23.11
			c0.04-0.26,0.27-1.11,0.47-1.27c0.12-0.1,0.31-0.08,0.44-0.01c0.53,0.31,0.72,1.33,0.78,1.89c0.92,8.39,1.77,16.8,2.74,25.19
			c0.21,1.84-0.23,2.6-2.13,2.13c-0.57-0.14-1.18-0.32-1.74-0.25C531.78,239.03,531.64,238.4,532.13,233.92z"/>
		<path class="st0" d="M474.01,211.85c0.3,0.69,1.06,1.65,1.63,1.65c1.39,0.02,3.98-0.38,4-0.73c0.18-3.3,0.71-6.9-0.36-9.88
			c-2.02-5.62-9.26-6.49-14.01-5.47c-6.07,1.31-7.72,6.57-8.04,11.49c-0.7,11.09-1.65,22.24,0.89,33.31
			c1.15,4.98,4.8,8.63,9.94,8.69c4.65,0.05,10.29-1.5,11.47-7.27c0.56-2.74,0.7-5.57,0.91-8.37c0.18-2.37-1.89-2.18-3.19-2.2
			c-1.32-0.02-3.22-0.16-3.16,2.24c0.04,1.76-0.12,3.52-0.22,5.28c-0.13,2.49-1.56,3.84-3.92,4.18c-2.25,0.32-3.77-0.8-4.47-2.85
			c-0.45-1.32-0.73-2.78-0.71-4.17c0.06-5.2,0.34-10.39,0.43-15.59c0.09-5.24-0.13-10.49,0.18-15.71c0.08-1.32,1.41-3.2,2.61-3.66
			c1.97-0.76,4.28-0.41,5.14,2.18c0.38,1.13,0.46,2.31,0.59,3.48C473.84,209.42,473.63,210.99,474.01,211.85z"/>
		<path class="st0" d="M561.96,250.38c0.87,0.35,1.99,0.01,2.99,0.08c2.06,0.14,2.87-0.79,2.85-2.82
			c-0.04-4.76,0.21-9.53,0.03-14.28c-0.2-5.24-0.15-5.95,5.13-5.55c1.82,0.14,2.36-0.94,2.4-2.48c0.06-2.4-1.49-2.64-3.37-2.54
			c-2.08,0.11-4.22,0.23-4.21-2.84c0.01-4.85-0.09-9.7,0.08-14.55c0.03-0.84,1.09-2.21,1.87-2.36c2.2-0.43,4.49-0.47,6.75-0.44
			c1.82,0.02,2.77-0.8,2.72-2.5c-0.05-1.64-0.4-3.21-2.71-3.07c-2.34,0.14-4.54-0.18-6.86,0.05c-2.48,0.25-5.05,0.29-7.49,0.15
			c-1.71-0.1-2.05,0.71-2.03,2.07c0.04,3.11,0.14,6.21,0.12,9.32c-0.06,13.25-0.19,26.5-0.16,39.75
			C560.07,249.07,561.17,250.06,561.96,250.38z"/>
		<path class="st0" d="M590.92,202.6c2.53-0.29,3.49,0.58,3.4,3.18c-0.16,4.51-0.04,9.03-0.04,13.54c0,7.39,0,14.77,0,22.16
			c0,1.68,0,3.36,0,5.05c0.01,4.03,0.51,4.45,4.59,3.79c0.5-0.08,1.1-0.04,1.46-0.31c0.61-0.46,1.49-1.09,1.53-1.7
			c0.18-3,0.19-6.01,0.13-9.02c-0.08-4.51-0.36-9.02-0.39-13.52c-0.03-5.49,0.4-11,0.09-16.47c-0.29-5.11,0.27-6.25,5.13-6.73
			c0.08-0.01,0.17-0.01,0.25-0.01c2.31-0.17,1.57-1.95,1.68-3.25c0.12-1.38-0.36-2.24-1.97-2.23c-4.65,0.04-9.29-0.01-13.94,0
			c-1.33,0-2.67,0.02-3.98,0.19c-0.46,0.06-1.08,0.5-1.25,0.92C586.48,201.08,587.85,202.95,590.92,202.6z"/>
		<path class="st0" d="M166.33,203.03c2.19,0.11,2.67,1.13,2.61,3.04c-0.1,3.27-0.08,6.54-0.08,9.81
			c-0.01,9.66,0.19,19.32-0.08,28.97c-0.14,5.09,0.45,6.03,5.44,5.65c1.54-0.12,1.96-0.7,1.93-2.2c-0.1-4-0.05-8-0.04-11.99
			c0.02-6.25,0.04-12.51,0.1-18.76c0.02-2.17,0.16-4.33,0.24-6.5c0.08-2.33,0.05-4.67,0.3-6.98c0.06-0.54,1.02-1.21,1.68-1.4
			c0.85-0.25,1.83-0.15,2.75-0.09c2.06,0.13,2.3-1.11,2.29-2.73c-0.01-1.59-0.18-2.85-2.26-2.8c-2.85,0.07-5.71,0.02-8.57,0.02
			c-2.94,0-5.88,0.03-8.82-0.01c-1.5-0.02-1.78,0.5-1.91,2.08C161.62,202.71,164.02,202.92,166.33,203.03z"/>
	</g>
</g>
</svg>
